G04*
G04 #@! TF.GenerationSoftware,Altium Limited,Altium Designer,24.2.2 (26)*
G04*
G04 Layer_Color=32896*
%FSLAX44Y44*%
%MOMM*%
G71*
G04*
G04 #@! TF.SameCoordinates,671ECA9C-2CDA-4785-821E-9719013758DC*
G04*
G04*
G04 #@! TF.FilePolarity,Positive*
G04*
G01*
G75*
%ADD11C,0.2000*%
%ADD12C,0.2540*%
D11*
X408500Y378250D02*
G03*
X408500Y378250I-1000J0D01*
G01*
X368500Y378250D02*
G03*
X368500Y378250I-1000J0D01*
G01*
X359000Y312501D02*
G03*
X363500Y317001I0J4500D01*
G01*
X336501Y317000D02*
G03*
X341001Y312500I4500J0D01*
G01*
X341000Y327499D02*
G03*
X336500Y322999I0J-4500D01*
G01*
X363500Y322999D02*
G03*
X359000Y327499I-4500J0D01*
G01*
X348500Y282499D02*
G03*
X344000Y277999I0J-4500D01*
G01*
X370999Y278000D02*
G03*
X366499Y282500I-4500J0D01*
G01*
X366500Y267501D02*
G03*
X371000Y272001I0J4500D01*
G01*
X344000Y272001D02*
G03*
X348500Y267501I4500J0D01*
G01*
X327750Y369999D02*
G03*
X323250Y365499I0J-4500D01*
G01*
X350249Y365500D02*
G03*
X345749Y370000I-4500J0D01*
G01*
X345750Y355001D02*
G03*
X350250Y359501I0J4500D01*
G01*
X323250Y359501D02*
G03*
X327750Y355001I4500J0D01*
G01*
X327750Y349999D02*
G03*
X323250Y345499I0J-4500D01*
G01*
X350249Y345500D02*
G03*
X345749Y350000I-4500J0D01*
G01*
X345750Y335001D02*
G03*
X350250Y339501I0J4500D01*
G01*
X323250Y339501D02*
G03*
X327750Y335001I4500J0D01*
G01*
X379000Y352501D02*
G03*
X383500Y357001I0J4500D01*
G01*
X356501Y357000D02*
G03*
X361001Y352500I4500J0D01*
G01*
X361000Y367499D02*
G03*
X356500Y362999I0J-4500D01*
G01*
X383500Y362999D02*
G03*
X379000Y367499I-4500J0D01*
G01*
X311250Y288000D02*
Y292000D01*
X328750Y288000D02*
Y292000D01*
X403750Y374800D02*
X411250D01*
X403750Y405202D02*
X411250D01*
Y374800D02*
Y405202D01*
X403750Y374800D02*
Y405202D01*
X363750Y374800D02*
X371250D01*
X363750Y405202D02*
X371250D01*
Y374800D02*
Y405202D01*
X363750Y374800D02*
Y405202D01*
X294200Y412700D02*
Y427300D01*
X320800Y412700D02*
Y427300D01*
X294200D02*
X320800D01*
X294200Y412700D02*
X320800D01*
X426700Y305200D02*
Y319800D01*
X453300Y305200D02*
Y319800D01*
X426700D02*
X453300D01*
X426700Y305200D02*
X453300D01*
X336500Y317000D02*
Y322999D01*
X341001Y312500D02*
X359000D01*
X341000Y327500D02*
X359000D01*
X363500Y317001D02*
Y322999D01*
X371000Y272001D02*
Y278000D01*
X348500Y282500D02*
X366499D01*
X348500Y267500D02*
X366500D01*
X344000Y272001D02*
Y277999D01*
X350250Y359501D02*
Y365500D01*
X327750Y370000D02*
X345749D01*
X327750Y355000D02*
X345750D01*
X323250Y359501D02*
Y365499D01*
X350250Y339501D02*
Y345500D01*
X327750Y350000D02*
X345749D01*
X327750Y335000D02*
X345750D01*
X323250Y339501D02*
Y345499D01*
X356500Y357000D02*
Y362999D01*
X361001Y352500D02*
X379000D01*
X361000Y367500D02*
X379000D01*
X383500Y357001D02*
Y362999D01*
D12*
X494960Y265079D02*
Y280314D01*
X489882Y275236D01*
X484803Y280314D01*
Y265079D01*
X479725Y262540D02*
X469568D01*
X464490Y280314D02*
Y265079D01*
X456872D01*
X454333Y267618D01*
Y270158D01*
Y272697D01*
X456872Y275236D01*
X464490D01*
X449255Y280314D02*
X444176D01*
X446716D01*
Y265079D01*
X449255D01*
X444176D01*
X436559Y262540D02*
X426402D01*
X421324Y280314D02*
Y265079D01*
X411167D01*
X406089Y280314D02*
Y265079D01*
X395932D01*
X390854Y280314D02*
X385775D01*
X388315D01*
Y265079D01*
X390854D01*
X385775D01*
X360039Y297578D02*
X362578Y300117D01*
X367657D01*
X370196Y297578D01*
Y287422D01*
X367657Y284883D01*
X362578D01*
X360039Y287422D01*
X347343Y284883D02*
Y300117D01*
X354961Y292500D01*
X344804D01*
X420196Y422617D02*
Y409922D01*
X417657Y407383D01*
X412578D01*
X410039Y409922D01*
Y422617D01*
X394804Y407383D02*
X404961D01*
X394804Y417539D01*
Y420078D01*
X397343Y422617D01*
X402422D01*
X404961Y420078D01*
X307617Y282343D02*
Y292500D01*
X305078D01*
X294922Y282343D01*
X292382D01*
Y292500D01*
Y297578D02*
Y302657D01*
Y300118D01*
X307617D01*
X305078Y297578D01*
X290117Y432696D02*
X274883D01*
Y425078D01*
X277422Y422539D01*
X282500D01*
X285039Y425078D01*
Y432696D01*
Y427617D02*
X290117Y422539D01*
Y409843D02*
X274883D01*
X282500Y417461D01*
Y407304D01*
X382539Y325078D02*
X385078Y327617D01*
X390157D01*
X392696Y325078D01*
Y314922D01*
X390157Y312383D01*
X385078D01*
X382539Y314922D01*
X367304Y327617D02*
X377461D01*
Y320000D01*
X372383Y322539D01*
X369843D01*
X367304Y320000D01*
Y314922D01*
X369843Y312383D01*
X374922D01*
X377461Y314922D01*
X377657Y422617D02*
Y409922D01*
X375117Y407383D01*
X370039D01*
X367500Y409922D01*
Y422617D01*
X362422Y407383D02*
X357343D01*
X359882D01*
Y422617D01*
X362422Y420078D01*
X437696Y324883D02*
Y340117D01*
X430078D01*
X427539Y337578D01*
Y332500D01*
X430078Y329961D01*
X437696D01*
X432617D02*
X427539Y324883D01*
X412304D02*
X422461D01*
X412304Y335039D01*
Y337578D01*
X414843Y340117D01*
X419922D01*
X422461Y337578D01*
X402500Y365078D02*
X405039Y367617D01*
X410117D01*
X412657Y365078D01*
Y354922D01*
X410117Y352383D01*
X405039D01*
X402500Y354922D01*
X397422Y352383D02*
X392343D01*
X394882D01*
Y367617D01*
X397422Y365078D01*
M02*
