G04*
G04 #@! TF.GenerationSoftware,Altium Limited,Altium Designer,24.2.2 (26)*
G04*
G04 Layer_Color=8388736*
%FSLAX44Y44*%
%MOMM*%
G71*
G04*
G04 #@! TF.SameCoordinates,671ECA9C-2CDA-4785-821E-9719013758DC*
G04*
G04*
G04 #@! TF.FilePolarity,Negative*
G04*
G01*
G75*
%ADD14R,4.9540X0.6790*%
%ADD15R,0.6780X1.9500*%
%ADD16R,0.4532X0.6782*%
%ADD17R,0.6782X0.4532*%
%ADD18R,1.9032X1.6032*%
%ADD19R,1.9032X4.2032*%
G04:AMPARAMS|DCode=20|XSize=1.8032mm|YSize=1.6032mm|CornerRadius=0.4516mm|HoleSize=0mm|Usage=FLASHONLY|Rotation=0.000|XOffset=0mm|YOffset=0mm|HoleType=Round|Shape=RoundedRectangle|*
%AMROUNDEDRECTD20*
21,1,1.8032,0.7000,0,0,0.0*
21,1,0.9000,1.6032,0,0,0.0*
1,1,0.9032,0.4500,-0.3500*
1,1,0.9032,-0.4500,-0.3500*
1,1,0.9032,-0.4500,0.3500*
1,1,0.9032,0.4500,0.3500*
%
%ADD20ROUNDEDRECTD20*%
%ADD21R,1.8000X1.6000*%
%ADD22R,0.9032X1.2032*%
%ADD23R,1.2032X0.9032*%
%ADD24R,1.5032X1.9032*%
G04:AMPARAMS|DCode=25|XSize=1.1532mm|YSize=1.0532mm|CornerRadius=0.3141mm|HoleSize=0mm|Usage=FLASHONLY|Rotation=90.000|XOffset=0mm|YOffset=0mm|HoleType=Round|Shape=RoundedRectangle|*
%AMROUNDEDRECTD25*
21,1,1.1532,0.4250,0,0,90.0*
21,1,0.5250,1.0532,0,0,90.0*
1,1,0.6282,0.2125,0.2625*
1,1,0.6282,0.2125,-0.2625*
1,1,0.6282,-0.2125,-0.2625*
1,1,0.6282,-0.2125,0.2625*
%
%ADD25ROUNDEDRECTD25*%
%ADD26C,2.2032*%
%ADD27R,2.2032X2.2032*%
%ADD28R,2.2032X2.2032*%
%ADD29C,6.2032*%
D14*
X360365Y316520D02*
D03*
X360000Y283480D02*
D03*
D15*
X337500Y300000D02*
D03*
X382520D02*
D03*
D16*
X377860Y316520D02*
D03*
X372860D02*
D03*
X367860D02*
D03*
X362860D02*
D03*
X357860D02*
D03*
X352860D02*
D03*
X347860D02*
D03*
X342860D02*
D03*
X382860D02*
D03*
X337860D02*
D03*
X382500Y283480D02*
D03*
X377500D02*
D03*
X372500D02*
D03*
X367500D02*
D03*
X362500D02*
D03*
X357500D02*
D03*
X352500D02*
D03*
X347500D02*
D03*
X342500D02*
D03*
X337500D02*
D03*
D17*
X382500Y292500D02*
D03*
X337500D02*
D03*
X382500Y297500D02*
D03*
Y302500D02*
D03*
X337500D02*
D03*
X382500Y307500D02*
D03*
X337500Y297500D02*
D03*
Y307500D02*
D03*
D18*
X346500Y390500D02*
D03*
Y367500D02*
D03*
Y344500D02*
D03*
D19*
X408500Y367500D02*
D03*
D20*
X489500Y290000D02*
D03*
D21*
Y267525D02*
D03*
Y312475D02*
D03*
X405500Y267525D02*
D03*
Y312475D02*
D03*
D22*
X270000Y420000D02*
D03*
X285000D02*
D03*
X477500Y397500D02*
D03*
X462500D02*
D03*
D23*
X315000Y292500D02*
D03*
Y277500D02*
D03*
D24*
X302500Y397500D02*
D03*
X267500D02*
D03*
X302500Y440000D02*
D03*
X267500D02*
D03*
X490000Y437500D02*
D03*
X455000D02*
D03*
D25*
X366750Y267500D02*
D03*
X353250D02*
D03*
D26*
X379600Y434826D02*
D03*
X405000D02*
D03*
X354200D02*
D03*
X287500Y277300D02*
D03*
D27*
X430400Y434826D02*
D03*
D28*
X287500Y302700D02*
D03*
D29*
X470000Y355000D02*
D03*
X290000D02*
D03*
M02*
