G04*
G04 #@! TF.GenerationSoftware,Altium Limited,Altium Designer,24.2.2 (26)*
G04*
G04 Layer_Color=65535*
%FSLAX44Y44*%
%MOMM*%
G71*
G04*
G04 #@! TF.SameCoordinates,671ECA9C-2CDA-4785-821E-9719013758DC*
G04*
G04*
G04 #@! TF.FilePolarity,Positive*
G04*
G01*
G75*
%ADD10C,0.2500*%
%ADD11C,0.2000*%
%ADD12C,0.2540*%
%ADD13C,0.1500*%
D10*
X349250Y401000D02*
G03*
X349250Y401000I-1250J0D01*
G01*
D11*
X346500Y264501D02*
G03*
X351000Y260001I4500J0D01*
G01*
X368999Y260000D02*
G03*
X373499Y264500I0J4500D01*
G01*
X373500Y270499D02*
G03*
X369000Y274999I-4500J0D01*
G01*
X351000Y274999D02*
G03*
X346500Y270499I0J-4500D01*
G01*
X417700Y422126D02*
X443100D01*
X417700D02*
Y447526D01*
X443100Y422126D02*
Y447526D01*
X411350Y422126D02*
X417700Y428476D01*
X398650Y422126D02*
X411350D01*
X392300Y428476D02*
X398650Y422126D01*
X392300Y428476D02*
Y441176D01*
X398650Y447526D01*
X411350D01*
X417700Y441176D01*
Y447526D02*
X443100D01*
X385950D02*
X392300Y441176D01*
X373250Y447526D02*
X385950D01*
X366900Y441176D02*
X373250Y447526D01*
X366900Y428476D02*
Y441176D01*
Y428476D02*
X373250Y422126D01*
X385950D01*
X392300Y428476D01*
X360550Y447526D02*
X366900Y441176D01*
X347850Y447526D02*
X360550D01*
X341500Y441176D02*
X347850Y447526D01*
X341500Y428476D02*
Y441176D01*
Y428476D02*
X347850Y422126D01*
X360550D01*
X366900Y428476D01*
X358500Y334000D02*
Y401000D01*
X396500Y334000D02*
Y401000D01*
X358500D02*
X396500D01*
X358500Y334000D02*
X396500D01*
X290800Y412700D02*
Y427300D01*
X264200Y412700D02*
Y427300D01*
X290800D01*
X264200Y412700D02*
X290800D01*
X456700Y390200D02*
Y404800D01*
X483300Y390200D02*
Y404800D01*
X456700Y390200D02*
X483300D01*
X456700Y404800D02*
X483300D01*
X307700Y271700D02*
X322300D01*
X307700Y298300D02*
X322300D01*
Y271700D02*
Y298300D01*
X307700Y271700D02*
Y298300D01*
X373500Y264500D02*
Y270499D01*
X351000Y260000D02*
X368999D01*
X351000Y275000D02*
X369000D01*
X346500Y264501D02*
Y270499D01*
D12*
X300200Y290000D02*
Y315400D01*
X274800Y290000D02*
X300200D01*
X274800Y315400D02*
X300200D01*
X293850Y290000D02*
X300200Y283650D01*
Y270950D02*
Y283650D01*
X293850Y264600D02*
X300200Y270950D01*
X281150Y264600D02*
X293850D01*
X274800Y270950D02*
X281150Y264600D01*
X274800Y270950D02*
Y283650D01*
X281150Y290000D01*
X274800D02*
Y315400D01*
X270037Y332460D02*
X261706D01*
X260040Y330794D01*
Y327462D01*
X261706Y325796D01*
X270037D01*
X260040Y322463D02*
X266705D01*
X270037Y319131D01*
X266705Y315799D01*
X260040D01*
X265038D01*
Y322463D01*
X260040Y312466D02*
X270037D01*
Y307468D01*
X268371Y305802D01*
X265038D01*
X263372Y307468D01*
Y312466D01*
Y309134D02*
X260040Y305802D01*
X270037Y302470D02*
Y295805D01*
Y299137D01*
X260040D01*
Y292473D02*
X266705Y285808D01*
X270037Y282476D02*
Y279144D01*
Y280810D01*
X260040D01*
Y282476D01*
Y279144D01*
Y267481D02*
Y274145D01*
X266705Y267481D01*
X268371D01*
X270037Y269147D01*
Y272479D01*
X268371Y274145D01*
Y257484D02*
X270037Y259150D01*
Y262482D01*
X268371Y264149D01*
X261706D01*
X260040Y262482D01*
Y259150D01*
X261706Y257484D01*
X450040Y410040D02*
Y420037D01*
X455038D01*
X456704Y418371D01*
Y415038D01*
X455038Y413372D01*
X450040D01*
X465035Y420037D02*
X461703D01*
X460037Y418371D01*
Y411706D01*
X461703Y410040D01*
X465035D01*
X466701Y411706D01*
Y418371D01*
X465035Y420037D01*
X470034D02*
Y410040D01*
X473366Y413372D01*
X476698Y410040D01*
Y420037D01*
X486695D02*
X480030D01*
Y410040D01*
X486695D01*
X480030Y415038D02*
X483363D01*
X490027Y410040D02*
Y420037D01*
X495025D01*
X496692Y418371D01*
Y415038D01*
X495025Y413372D01*
X490027D01*
X493359D02*
X496692Y410040D01*
X347538Y416288D02*
X346289Y417538D01*
X343790D01*
X342540Y416288D01*
Y411290D01*
X343790Y410040D01*
X346289D01*
X347538Y411290D01*
Y413789D01*
X345039D01*
X350038Y410040D02*
Y417538D01*
X355036Y410040D01*
Y417538D01*
X357535D02*
Y410040D01*
X361284D01*
X362534Y411290D01*
Y416288D01*
X361284Y417538D01*
X357535D01*
X372530Y413789D02*
X377529D01*
X375030Y416288D02*
Y411290D01*
X385026Y417538D02*
X380028D01*
Y413789D01*
X382527Y415038D01*
X383777D01*
X385026Y413789D01*
Y411290D01*
X383777Y410040D01*
X381278D01*
X380028Y411290D01*
X387526Y417538D02*
Y412539D01*
X390025Y410040D01*
X392524Y412539D01*
Y417538D01*
X402521D02*
X407519D01*
X405020D01*
Y410040D01*
X410018Y417538D02*
X415017Y410040D01*
Y417538D02*
X410018Y410040D01*
X425014D02*
Y417538D01*
X428762D01*
X430012Y416288D01*
Y413789D01*
X428762Y412539D01*
X425014D01*
X427513D02*
X430012Y410040D01*
X432511Y417538D02*
X437510Y410040D01*
Y417538D02*
X432511Y410040D01*
X315040Y435040D02*
Y445037D01*
X320038D01*
X321704Y443371D01*
Y440038D01*
X320038Y438372D01*
X315040D01*
X318372D02*
X321704Y435040D01*
X325037Y445037D02*
X331701Y435040D01*
Y445037D02*
X325037Y435040D01*
X315040Y402537D02*
X321704D01*
X318372D01*
Y392540D01*
X325037Y402537D02*
X331701Y392540D01*
Y402537D02*
X325037Y392540D01*
X309843Y302383D02*
Y317617D01*
X317461D01*
X320000Y315078D01*
Y310000D01*
X317461Y307461D01*
X309843D01*
X314922D02*
X320000Y302383D01*
X325078D02*
X330157D01*
X327618D01*
Y317617D01*
X325078Y315078D01*
X294804Y409883D02*
Y425117D01*
X302422D01*
X304961Y422578D01*
Y417500D01*
X302422Y414961D01*
X294804D01*
X299883D02*
X304961Y409883D01*
X320196Y425117D02*
X310039D01*
Y417500D01*
X315117Y420039D01*
X317657D01*
X320196Y417500D01*
Y412422D01*
X317657Y409883D01*
X312578D01*
X310039Y412422D01*
X329961Y272578D02*
X327422Y275117D01*
X322343D01*
X319804Y272578D01*
Y262422D01*
X322343Y259883D01*
X327422D01*
X329961Y262422D01*
X345196Y275117D02*
X340117Y272578D01*
X335039Y267500D01*
Y262422D01*
X337578Y259883D01*
X342657D01*
X345196Y262422D01*
Y264961D01*
X342657Y267500D01*
X335039D01*
D13*
X499750Y258250D02*
Y321750D01*
X395250D02*
X499750D01*
X395250Y258250D02*
Y321750D01*
Y258250D02*
X499750D01*
X258000Y386500D02*
X312000D01*
X258000Y408500D02*
X312000D01*
X258000Y386500D02*
Y408500D01*
X312000Y386500D02*
Y408500D01*
X293000Y387500D02*
Y407500D01*
X258000Y429000D02*
X312000D01*
X258000Y451000D02*
X312000D01*
X258000Y429000D02*
Y451000D01*
X312000Y429000D02*
Y451000D01*
X293000Y430000D02*
Y450000D01*
X445500Y426500D02*
X499500D01*
X445500Y448500D02*
X499500D01*
X445500Y426500D02*
Y448500D01*
X499500Y426500D02*
Y448500D01*
X480500Y427500D02*
Y447500D01*
M02*
