G04*
G04 #@! TF.GenerationSoftware,Altium Limited,Altium Designer,24.2.2 (26)*
G04*
G04 Layer_Physical_Order=1*
G04 Layer_Color=255*
%FSLAX44Y44*%
%MOMM*%
G71*
G04*
G04 #@! TF.SameCoordinates,671ECA9C-2CDA-4785-821E-9719013758DC*
G04*
G04*
G04 #@! TF.FilePolarity,Positive*
G04*
G01*
G75*
%ADD10C,0.2500*%
%ADD30R,0.2500X0.4750*%
%ADD31R,0.4750X0.2500*%
%ADD32R,1.7000X1.4000*%
%ADD33R,1.7000X4.0000*%
G04:AMPARAMS|DCode=34|XSize=1.6mm|YSize=1.4mm|CornerRadius=0.35mm|HoleSize=0mm|Usage=FLASHONLY|Rotation=0.000|XOffset=0mm|YOffset=0mm|HoleType=Round|Shape=RoundedRectangle|*
%AMROUNDEDRECTD34*
21,1,1.6000,0.7000,0,0,0.0*
21,1,0.9000,1.4000,0,0,0.0*
1,1,0.7000,0.4500,-0.3500*
1,1,0.7000,-0.4500,-0.3500*
1,1,0.7000,-0.4500,0.3500*
1,1,0.7000,0.4500,0.3500*
%
%ADD34ROUNDEDRECTD34*%
%ADD35R,1.6000X1.4000*%
%ADD36R,0.7000X1.0000*%
%ADD37R,1.0000X0.7000*%
%ADD38R,1.3000X1.7000*%
G04:AMPARAMS|DCode=39|XSize=0.95mm|YSize=0.85mm|CornerRadius=0.2125mm|HoleSize=0mm|Usage=FLASHONLY|Rotation=90.000|XOffset=0mm|YOffset=0mm|HoleType=Round|Shape=RoundedRectangle|*
%AMROUNDEDRECTD39*
21,1,0.9500,0.4250,0,0,90.0*
21,1,0.5250,0.8500,0,0,90.0*
1,1,0.4250,0.2125,0.2625*
1,1,0.4250,0.2125,-0.2625*
1,1,0.4250,-0.2125,-0.2625*
1,1,0.4250,-0.2125,0.2625*
%
%ADD39ROUNDEDRECTD39*%
%ADD40C,0.5000*%
%ADD41C,0.3000*%
%ADD42C,2.0000*%
%ADD43R,2.0000X2.0000*%
%ADD44R,2.0000X2.0000*%
%ADD45C,6.0000*%
%ADD46C,0.6000*%
G36*
X502500Y257500D02*
X501109D01*
X500040Y257985D01*
X500040Y258770D01*
Y266255D01*
X478960D01*
Y258770D01*
X478960Y257985D01*
X477891Y257500D01*
X417109D01*
X416040Y257985D01*
X416040Y258770D01*
Y266255D01*
X394960D01*
Y258770D01*
X394960Y257985D01*
X393891Y257500D01*
X257500D01*
Y452500D01*
X502500D01*
Y257500D01*
D02*
G37*
%LPC*%
G36*
X311540Y451040D02*
X303770D01*
Y441270D01*
X311540D01*
Y451040D01*
D02*
G37*
G36*
X301230D02*
X293460D01*
Y441270D01*
X301230D01*
Y451040D01*
D02*
G37*
G36*
X499040Y448540D02*
X491270D01*
Y438770D01*
X499040D01*
Y448540D01*
D02*
G37*
G36*
X488730D02*
X480960D01*
Y438770D01*
X488730D01*
Y448540D01*
D02*
G37*
G36*
X355851Y447366D02*
X355470D01*
Y436096D01*
X366740D01*
Y436477D01*
X365885Y439666D01*
X364235Y442526D01*
X361900Y444860D01*
X359040Y446511D01*
X355851Y447366D01*
D02*
G37*
G36*
X352930D02*
X352549D01*
X349360Y446511D01*
X346500Y444860D01*
X344165Y442526D01*
X342515Y439666D01*
X341660Y436477D01*
Y436096D01*
X352930D01*
Y447366D01*
D02*
G37*
G36*
X275000Y449500D02*
X260000D01*
Y430500D01*
X275000D01*
Y437451D01*
X279392D01*
X280234Y436609D01*
X281704Y436000D01*
X283296D01*
X284766Y436609D01*
X285891Y437734D01*
X286500Y439204D01*
Y440796D01*
X285891Y442266D01*
X284766Y443391D01*
X283296Y444000D01*
X281704D01*
X280234Y443391D01*
X279392Y442549D01*
X275000D01*
Y449500D01*
D02*
G37*
G36*
X381048Y445826D02*
X378152D01*
X375354Y445076D01*
X372846Y443628D01*
X370798Y441580D01*
X369350Y439072D01*
X368600Y436274D01*
Y433378D01*
X368902Y432249D01*
X367406Y430752D01*
X366267Y431410D01*
X366740Y433175D01*
Y433556D01*
X355470D01*
Y422286D01*
X355851D01*
X357616Y422759D01*
X358274Y421620D01*
X352077Y415423D01*
X343977Y407323D01*
X343203Y406166D01*
X342932Y404800D01*
Y398500D01*
X337000D01*
Y382500D01*
X356000D01*
Y398500D01*
X350069D01*
Y403322D01*
X358178Y411431D01*
X443522D01*
X457477Y397477D01*
X458000Y397127D01*
Y391500D01*
X467000D01*
Y403500D01*
X461845D01*
X461500Y403569D01*
X461478D01*
X447523Y417523D01*
X446366Y418297D01*
X445000Y418569D01*
X366975D01*
X366489Y419742D01*
X372808Y426062D01*
X372846Y426024D01*
X375354Y424576D01*
X378152Y423826D01*
X381048D01*
X383846Y424576D01*
X386354Y426024D01*
X388402Y428072D01*
X389850Y430580D01*
X390600Y433378D01*
Y436274D01*
X389850Y439072D01*
X388402Y441580D01*
X386354Y443628D01*
X383846Y445076D01*
X381048Y445826D01*
D02*
G37*
G36*
X311540Y438730D02*
X303770D01*
Y428960D01*
X311540D01*
Y438730D01*
D02*
G37*
G36*
X301230D02*
X293460D01*
Y428960D01*
X301230D01*
Y438730D01*
D02*
G37*
G36*
X499040Y436230D02*
X491270D01*
Y426460D01*
X499040D01*
Y436230D01*
D02*
G37*
G36*
X488730D02*
X480960D01*
Y426460D01*
X488730D01*
Y436230D01*
D02*
G37*
G36*
X441400Y445826D02*
X419400D01*
Y423826D01*
X441400D01*
Y445826D01*
D02*
G37*
G36*
X406448D02*
X403552D01*
X400754Y445076D01*
X398246Y443628D01*
X396198Y441580D01*
X394750Y439072D01*
X394000Y436274D01*
Y433378D01*
X394750Y430580D01*
X396198Y428072D01*
X398246Y426024D01*
X400754Y424576D01*
X403552Y423826D01*
X406448D01*
X409246Y424576D01*
X411754Y426024D01*
X413802Y428072D01*
X415250Y430580D01*
X416000Y433378D01*
Y436274D01*
X415250Y439072D01*
X413802Y441580D01*
X411754Y443628D01*
X409246Y445076D01*
X406448Y445826D01*
D02*
G37*
G36*
X352930Y433556D02*
X341660D01*
Y433175D01*
X342515Y429986D01*
X344165Y427126D01*
X346500Y424791D01*
X349360Y423141D01*
X352549Y422286D01*
X352930D01*
Y433556D01*
D02*
G37*
G36*
X301230Y408540D02*
X293460D01*
Y398770D01*
X301230D01*
Y408540D01*
D02*
G37*
G36*
X462500Y447000D02*
X447500D01*
Y428000D01*
X459754D01*
X460000Y427951D01*
X460944D01*
X474951Y413944D01*
Y403500D01*
X473000D01*
Y391500D01*
X482000D01*
Y403500D01*
X480049D01*
Y415000D01*
X479855Y415975D01*
X479302Y416802D01*
X463802Y432302D01*
X462976Y432855D01*
X462500Y432949D01*
Y447000D01*
D02*
G37*
G36*
X274500Y426000D02*
X265500D01*
Y417507D01*
X265145Y416976D01*
X264951Y416000D01*
Y407000D01*
X260000D01*
Y388000D01*
X275000D01*
Y407000D01*
X270049D01*
Y414000D01*
X274500D01*
Y426000D01*
D02*
G37*
G36*
X311540Y396230D02*
X303770D01*
Y386460D01*
X311540D01*
Y396230D01*
D02*
G37*
G36*
X345230Y343230D02*
X335460D01*
Y334960D01*
X345230D01*
Y343230D01*
D02*
G37*
G36*
X472440Y386000D02*
X467560D01*
X462741Y385237D01*
X458100Y383729D01*
X453753Y381514D01*
X449805Y378646D01*
X446354Y375195D01*
X443486Y371247D01*
X441271Y366900D01*
X439763Y362259D01*
X439000Y357440D01*
Y352560D01*
X439763Y347741D01*
X441271Y343100D01*
X443486Y338753D01*
X446354Y334805D01*
X449805Y331354D01*
X453753Y328486D01*
X458100Y326271D01*
X462741Y324763D01*
X467560Y324000D01*
X472440D01*
X477259Y324763D01*
X481900Y326271D01*
X486247Y328486D01*
X490195Y331354D01*
X493646Y334805D01*
X496514Y338753D01*
X498729Y343100D01*
X500237Y347741D01*
X501000Y352560D01*
Y357440D01*
X500237Y362259D01*
X498729Y366900D01*
X496514Y371247D01*
X493646Y375195D01*
X490195Y378646D01*
X486247Y381514D01*
X481900Y383729D01*
X477259Y385237D01*
X472440Y386000D01*
D02*
G37*
G36*
X301230Y396230D02*
X293460D01*
Y387124D01*
X292477Y386041D01*
X292381Y386000D01*
X287560D01*
X282741Y385237D01*
X278100Y383729D01*
X273752Y381514D01*
X269805Y378646D01*
X266355Y375195D01*
X263486Y371247D01*
X261271Y366900D01*
X259763Y362259D01*
X259000Y357440D01*
Y352560D01*
X259763Y347741D01*
X261271Y343100D01*
X263486Y338753D01*
X266355Y334805D01*
X269805Y331354D01*
X273752Y328486D01*
X278100Y326271D01*
X282741Y324763D01*
X287560Y324000D01*
X292440D01*
X297259Y324763D01*
X301900Y326271D01*
X306248Y328486D01*
X310195Y331354D01*
X313645Y334805D01*
X316514Y338753D01*
X318729Y343100D01*
X320237Y347741D01*
X321000Y352560D01*
Y357440D01*
X320237Y362259D01*
X318729Y366900D01*
X316514Y371247D01*
X313645Y375195D01*
X310195Y378646D01*
X306248Y381514D01*
X301900Y383729D01*
X297259Y385237D01*
X297509Y386460D01*
X301230D01*
Y396230D01*
D02*
G37*
G36*
X289500Y426000D02*
X280500D01*
Y414000D01*
X286754D01*
X287000Y413951D01*
X300980D01*
X305217Y409713D01*
X304731Y408540D01*
X303770D01*
Y398770D01*
X311540D01*
Y401731D01*
X312713Y402217D01*
X316951Y397980D01*
Y375465D01*
X317145Y374489D01*
X317698Y373662D01*
X336146Y355213D01*
X335660Y354040D01*
X335460D01*
Y345770D01*
X346500D01*
Y344500D01*
X347770D01*
Y334960D01*
X357540D01*
Y342180D01*
X358713Y342666D01*
X372032Y329348D01*
X380288Y321091D01*
X379717Y319895D01*
X379296Y319895D01*
X375610Y319895D01*
X374340Y319895D01*
X370610Y319895D01*
X369340Y319895D01*
X365610Y319895D01*
X364340Y319895D01*
X361650D01*
Y321435D01*
X359130D01*
Y316520D01*
X356590D01*
Y321435D01*
X354070D01*
Y320793D01*
X353172Y319895D01*
X350610Y319895D01*
X349340Y319895D01*
X346311D01*
X345528Y320030D01*
X344992Y320909D01*
X344979Y320973D01*
X344482Y321717D01*
X338969Y327229D01*
X339023Y327500D01*
X338752Y328866D01*
X337978Y330023D01*
X336820Y330797D01*
X335455Y331069D01*
X321837D01*
X320796Y331500D01*
X319204D01*
X317734Y330891D01*
X316609Y329766D01*
X316178Y328724D01*
X301222Y313769D01*
X295000D01*
X294655Y313700D01*
X276500D01*
Y291700D01*
X298500D01*
Y306631D01*
X302700D01*
X304066Y306903D01*
X305223Y307677D01*
X315258Y317711D01*
X316431Y317225D01*
Y316425D01*
X316703Y315060D01*
X317477Y313902D01*
X318634Y313128D01*
X320000Y312857D01*
X320271Y312910D01*
X332303Y300878D01*
X332303Y300878D01*
X333047Y300381D01*
X333111Y300368D01*
X333990Y299832D01*
X334125Y299049D01*
X334125Y295250D01*
X333044Y294794D01*
X330067D01*
X329976Y294855D01*
X329000Y295049D01*
X328024Y294855D01*
X327198Y294302D01*
X323713Y290818D01*
X322719Y291230D01*
X316270D01*
Y286460D01*
X320444D01*
Y285049D01*
X317395Y282000D01*
X309000D01*
Y279849D01*
X298205D01*
X297750Y281546D01*
X296302Y284054D01*
X294254Y286102D01*
X291746Y287550D01*
X288948Y288300D01*
X286052D01*
X283254Y287550D01*
X280746Y286102D01*
X278698Y284054D01*
X277250Y281546D01*
X276500Y278748D01*
Y275852D01*
X277250Y273054D01*
X278698Y270546D01*
X280746Y268498D01*
X283254Y267050D01*
X286052Y266300D01*
X288948D01*
X291746Y267050D01*
X294254Y268498D01*
X296302Y270546D01*
X297750Y273054D01*
X298205Y274751D01*
X309000D01*
Y273000D01*
X321000D01*
Y278395D01*
X324795Y282190D01*
X325348Y283017D01*
X325542Y283993D01*
Y285437D01*
X330311Y290206D01*
X336625D01*
X336846Y290250D01*
X340875D01*
Y293980D01*
X340875Y294750D01*
X340875Y296020D01*
X340875Y299750D01*
X340875Y301020D01*
Y303710D01*
X342415D01*
Y306230D01*
X337500D01*
Y307500D01*
X336230D01*
Y311290D01*
X332585D01*
Y308744D01*
X331412Y308258D01*
X323515Y316155D01*
X323569Y316425D01*
Y323931D01*
X335455D01*
X335725Y323985D01*
X338642Y321068D01*
X338156Y319895D01*
X335610D01*
Y313145D01*
X340110D01*
Y313145D01*
X340610D01*
Y313145D01*
X345110Y313145D01*
X345566Y312064D01*
Y309765D01*
X345741Y308887D01*
X346238Y308143D01*
X346525Y307855D01*
X346546Y307748D01*
X347099Y306921D01*
X351682Y302338D01*
X351609Y302266D01*
X351000Y300796D01*
Y299204D01*
X351609Y297734D01*
X352734Y296609D01*
X354204Y296000D01*
X355796D01*
X357266Y296609D01*
X358391Y297734D01*
X359000Y299204D01*
Y300796D01*
X358391Y302266D01*
X357429Y303228D01*
X357355Y303600D01*
X356802Y304427D01*
X350704Y310526D01*
X350160Y310889D01*
X350174Y312085D01*
X350683Y312397D01*
X351424Y312551D01*
X353494Y310481D01*
X353515Y310374D01*
X354068Y309547D01*
X354895Y308995D01*
X355870Y308800D01*
X360109D01*
X368499Y300410D01*
Y299204D01*
X369108Y297734D01*
X370233Y296608D01*
X371704Y295999D01*
X373295D01*
X374765Y296608D01*
X375890Y297734D01*
X376315Y298759D01*
X377585Y298710D01*
Y293770D01*
X387415D01*
Y296230D01*
X382500D01*
Y298770D01*
X387415D01*
Y301230D01*
X382500D01*
Y303770D01*
X387415D01*
Y304951D01*
X389687D01*
X389951Y304687D01*
Y297500D01*
X390145Y296525D01*
X390698Y295698D01*
X394776Y291620D01*
X395602Y291067D01*
X396578Y290873D01*
X401344D01*
X401609Y290234D01*
X402734Y289109D01*
X404204Y288500D01*
X405796D01*
X407266Y289109D01*
X408391Y290234D01*
X409000Y291704D01*
Y293296D01*
X408391Y294766D01*
X407266Y295891D01*
X405796Y296500D01*
X404204D01*
X402927Y295971D01*
X397634D01*
X395049Y298556D01*
Y305743D01*
X394855Y306718D01*
X394302Y307545D01*
X392545Y309302D01*
X391718Y309855D01*
X390743Y310049D01*
X382500D01*
X381525Y309855D01*
X381367Y309750D01*
X379125D01*
Y306290D01*
X377585D01*
Y301492D01*
X376315Y301240D01*
X375890Y302265D01*
X374765Y303390D01*
X373295Y303999D01*
X372120D01*
X364148Y311972D01*
X364634Y313145D01*
X365110D01*
X366380Y313145D01*
X370110Y313145D01*
X371380Y313145D01*
X375110Y313145D01*
X376380Y313145D01*
X380110Y313145D01*
X381380Y313145D01*
X385110D01*
Y316299D01*
X385154Y316520D01*
Y321058D01*
X385215Y321149D01*
X385409Y322124D01*
X385215Y323100D01*
X384662Y323927D01*
X381161Y327428D01*
X381647Y328601D01*
X418650D01*
X419626Y328795D01*
X420452Y329348D01*
X431802Y340698D01*
X432355Y341525D01*
X432549Y342500D01*
Y385294D01*
X438255Y391000D01*
X439446D01*
X440916Y391609D01*
X442041Y392734D01*
X442650Y394204D01*
Y395796D01*
X442041Y397266D01*
X440916Y398391D01*
X439446Y399000D01*
X437854D01*
X436384Y398391D01*
X435259Y397266D01*
X434650Y395796D01*
Y394605D01*
X428198Y388152D01*
X427645Y387326D01*
X427451Y386350D01*
Y343556D01*
X417594Y333699D01*
X374890D01*
X360049Y348540D01*
Y352536D01*
X359855Y353511D01*
X359302Y354338D01*
X357838Y355802D01*
X357011Y356355D01*
X356035Y356549D01*
X342020D01*
X340243Y358327D01*
X340729Y359500D01*
X356000D01*
Y361431D01*
X361022D01*
X373931Y348522D01*
Y341837D01*
X373500Y340796D01*
Y339204D01*
X374109Y337734D01*
X375234Y336609D01*
X376704Y336000D01*
X378296D01*
X379766Y336609D01*
X380891Y337734D01*
X381500Y339204D01*
Y340796D01*
X381069Y341837D01*
Y348522D01*
X396478Y363931D01*
X399000D01*
Y346500D01*
X418000D01*
Y388500D01*
X399000D01*
Y371069D01*
X395000D01*
X393634Y370797D01*
X392477Y370023D01*
X377500Y355047D01*
X365023Y367523D01*
X363866Y368297D01*
X362500Y368569D01*
X356000D01*
Y375500D01*
X337000D01*
Y363229D01*
X335827Y362743D01*
X322049Y376520D01*
Y399035D01*
X321855Y400011D01*
X321302Y400838D01*
X303838Y418302D01*
X303011Y418855D01*
X302036Y419049D01*
X289500D01*
Y426000D01*
D02*
G37*
G36*
X498500Y320475D02*
X480500D01*
Y315049D01*
X470608D01*
X469766Y315891D01*
X468296Y316500D01*
X466704D01*
X465234Y315891D01*
X464392Y315049D01*
X417525D01*
X417399Y315024D01*
X414500D01*
Y320475D01*
X396500D01*
Y304475D01*
X414500D01*
Y309926D01*
X416469D01*
X417451Y308944D01*
Y280313D01*
X417187Y280049D01*
X386290D01*
Y282210D01*
X382500D01*
Y284750D01*
X386290D01*
X386290Y288360D01*
X387415Y288710D01*
Y288745D01*
X387415Y288745D01*
Y291230D01*
X377585D01*
Y288745D01*
X377585Y288745D01*
Y288710D01*
X377803Y288642D01*
X378158Y287201D01*
X377812Y286855D01*
X375250Y286855D01*
X373980Y286855D01*
X370250Y286855D01*
X368980Y286855D01*
X365250Y286855D01*
X363980Y286855D01*
X361290D01*
Y288395D01*
X358770D01*
Y283480D01*
X356230D01*
Y288395D01*
X353710D01*
Y286855D01*
X351290D01*
Y288395D01*
X348770D01*
Y283480D01*
Y278565D01*
X350206D01*
Y273128D01*
X349906Y273069D01*
X348872Y272378D01*
X348181Y271344D01*
X347939Y270125D01*
Y264875D01*
X348181Y263656D01*
X348872Y262622D01*
X349906Y261931D01*
X351125Y261689D01*
X355375D01*
X356438Y261900D01*
X356594Y261931D01*
X357460Y262500D01*
Y262500D01*
X357460Y262500D01*
X360601D01*
X361262Y261512D01*
X362805Y260481D01*
X364625Y260119D01*
X365480D01*
Y267500D01*
X366750D01*
Y268770D01*
X373631D01*
Y270125D01*
X373269Y271945D01*
X372238Y273488D01*
X371950Y273681D01*
X372335Y274951D01*
X394960D01*
Y268795D01*
X416040D01*
Y274951D01*
X418243D01*
X419218Y275145D01*
X420045Y275698D01*
X421802Y277455D01*
X422355Y278282D01*
X422549Y279257D01*
Y309951D01*
X464392D01*
X465234Y309109D01*
X466704Y308500D01*
X468296D01*
X469766Y309109D01*
X470608Y309951D01*
X480500D01*
Y304475D01*
X498500D01*
Y320475D01*
D02*
G37*
G36*
X342415Y311290D02*
X338770D01*
Y308770D01*
X342415D01*
Y311290D01*
D02*
G37*
G36*
X322540Y298540D02*
X316270D01*
Y293770D01*
X322540D01*
Y298540D01*
D02*
G37*
G36*
X313730D02*
X307460D01*
Y293770D01*
X313730D01*
Y298540D01*
D02*
G37*
G36*
X494000Y299658D02*
X490770D01*
Y291270D01*
X500158D01*
Y293500D01*
X499689Y295857D01*
X498355Y297855D01*
X496357Y299189D01*
X494000Y299658D01*
D02*
G37*
G36*
X488230D02*
X485000D01*
X482643Y299189D01*
X480645Y297855D01*
X479310Y295857D01*
X478842Y293500D01*
Y291270D01*
X488230D01*
Y299658D01*
D02*
G37*
G36*
X313730Y291230D02*
X307460D01*
Y286460D01*
X313730D01*
Y291230D01*
D02*
G37*
G36*
X336230Y288395D02*
X333710D01*
Y284750D01*
X336230D01*
Y288395D01*
D02*
G37*
G36*
X500158Y288730D02*
X490770D01*
Y280342D01*
X494000D01*
X496357Y280811D01*
X498355Y282145D01*
X499689Y284143D01*
X500158Y286500D01*
Y288730D01*
D02*
G37*
G36*
X488230D02*
X478842D01*
Y286500D01*
X479310Y284143D01*
X480645Y282145D01*
X482643Y280811D01*
X485000Y280342D01*
X488230D01*
Y288730D01*
D02*
G37*
G36*
X346230Y288395D02*
X343770D01*
Y283480D01*
Y278565D01*
X346230D01*
Y283480D01*
Y288395D01*
D02*
G37*
G36*
X341230D02*
X338770D01*
Y283480D01*
Y278565D01*
X341230D01*
Y283480D01*
Y288395D01*
D02*
G37*
G36*
X336230Y282210D02*
X333710D01*
Y278565D01*
X336230D01*
Y282210D01*
D02*
G37*
G36*
X500040Y277065D02*
X490770D01*
Y268795D01*
X500040D01*
Y277065D01*
D02*
G37*
G36*
X488230D02*
X478960D01*
Y268795D01*
X488230D01*
Y277065D01*
D02*
G37*
G36*
X373631Y266230D02*
X368020D01*
Y260119D01*
X368875D01*
X370695Y260481D01*
X372238Y261512D01*
X373269Y263055D01*
X373631Y264875D01*
Y266230D01*
D02*
G37*
%LPD*%
D10*
X347860Y309765D02*
X348901Y308724D01*
X347860Y309765D02*
Y316520D01*
X362500Y277500D02*
Y283480D01*
X320000Y316425D02*
X333925Y302500D01*
X337500D01*
X342860Y316520D02*
Y320095D01*
X335455Y327500D02*
X342860Y320095D01*
X352860Y314359D02*
X355870Y311349D01*
X352860Y314359D02*
Y316520D01*
X352500Y268250D02*
Y283480D01*
X329000Y292500D02*
X336625D01*
X357500Y274541D02*
Y283480D01*
X382860Y316520D02*
Y322124D01*
D30*
X377860Y316520D02*
D03*
X372860D02*
D03*
X367860D02*
D03*
X362860D02*
D03*
X357860D02*
D03*
X352860D02*
D03*
X347860D02*
D03*
X342860D02*
D03*
X382860D02*
D03*
X337860D02*
D03*
X382500Y283480D02*
D03*
X377500D02*
D03*
X372500D02*
D03*
X367500D02*
D03*
X362500D02*
D03*
X357500D02*
D03*
X352500D02*
D03*
X347500D02*
D03*
X342500D02*
D03*
X337500D02*
D03*
D31*
X382500Y292500D02*
D03*
X337500D02*
D03*
X382500Y297500D02*
D03*
Y302500D02*
D03*
X337500D02*
D03*
X382500Y307500D02*
D03*
X337500Y297500D02*
D03*
Y307500D02*
D03*
D32*
X346500Y390500D02*
D03*
Y367500D02*
D03*
Y344500D02*
D03*
D33*
X408500Y367500D02*
D03*
D34*
X489500Y290000D02*
D03*
D35*
Y267525D02*
D03*
Y312475D02*
D03*
X405500Y267525D02*
D03*
Y312475D02*
D03*
D36*
X270000Y420000D02*
D03*
X285000D02*
D03*
X477500Y397500D02*
D03*
X462500D02*
D03*
D37*
X315000Y292500D02*
D03*
Y277500D02*
D03*
D38*
X302500Y397500D02*
D03*
X267500D02*
D03*
X302500Y440000D02*
D03*
X267500D02*
D03*
X490000Y437500D02*
D03*
X455000D02*
D03*
D39*
X366750Y267500D02*
D03*
X353250D02*
D03*
D40*
X379600Y415000D02*
X445000D01*
X379600Y415000D02*
Y434826D01*
X379600Y415000D02*
X379600Y415000D01*
X357500Y415000D02*
X379600D01*
X320000Y316425D02*
Y327500D01*
X461500Y400000D02*
X462500Y399000D01*
X445000Y415000D02*
X460000Y400000D01*
X462500Y397500D02*
Y399000D01*
X460000Y400000D02*
X461500D01*
X320000Y327500D02*
X335455D01*
X295000Y310200D02*
X302700D01*
X287500Y302700D02*
X295000Y310200D01*
X302700D02*
X320000Y327500D01*
X395000Y367500D02*
X408500D01*
X377500Y350000D02*
X395000Y367500D01*
X377500Y340000D02*
Y350000D01*
X346500Y367500D02*
X349000Y365000D01*
X362500D01*
X377500Y350000D01*
X354600Y412900D02*
X357100Y415400D01*
X346500Y390500D02*
Y404800D01*
X354600Y412900D01*
X346500Y390500D02*
X346500Y390500D01*
D41*
X455000Y435500D02*
Y437500D01*
Y435500D02*
X460000Y430500D01*
X462000D01*
X477500Y415000D01*
Y397500D02*
Y415000D01*
X362500Y277500D02*
X418243D01*
X420000Y279257D02*
Y310000D01*
X418243Y277500D02*
X420000Y279257D01*
X348901Y308724D02*
X355000Y302625D01*
X357500Y274541D02*
X360000Y272041D01*
Y260000D02*
Y272041D01*
X352500Y268250D02*
X353250Y267500D01*
X430000Y342500D02*
Y386350D01*
X438650Y395000D01*
X418650Y331150D02*
X430000Y342500D01*
X373834Y331150D02*
X418650D01*
X355000Y300000D02*
Y302625D01*
X322993Y283993D02*
Y286493D01*
X329000Y292500D01*
X382500Y307500D02*
X390743D01*
X355870Y311349D02*
X361165D01*
X372499Y300015D01*
Y299999D02*
Y300015D01*
X373834Y331150D02*
X382860Y322124D01*
X417525Y312475D02*
X420000Y310000D01*
X404078Y293422D02*
X405000Y292500D01*
X396578Y293422D02*
X404078D01*
X392500Y297500D02*
X396578Y293422D01*
X392500Y297500D02*
Y305743D01*
X390743Y307500D02*
X392500Y305743D01*
X316500Y277500D02*
X322993Y283993D01*
X315000Y277500D02*
X316500D01*
X314800Y277300D02*
X315000Y277500D01*
X287500Y277300D02*
X314800D01*
X270000Y418500D02*
Y420000D01*
X267500Y416000D02*
X270000Y418500D01*
X267500Y397500D02*
Y416000D01*
X287000Y416500D02*
X302036D01*
X285000Y418500D02*
X287000Y416500D01*
X285000Y418500D02*
Y420000D01*
X357500Y347484D02*
X373834Y331150D01*
X357500Y347484D02*
Y352536D01*
X356035Y354000D02*
X357500Y352536D01*
X340965Y354000D02*
X356035D01*
X319500Y375465D02*
X340965Y354000D01*
X319500Y375465D02*
Y399035D01*
X302036Y416500D02*
X319500Y399035D01*
X417525Y312475D02*
X417525D01*
X267500Y440000D02*
X282500D01*
X267500Y440000D02*
X267500Y440000D01*
X467500Y312500D02*
X489475D01*
X417525D02*
X467500D01*
X407525Y312475D02*
X417525D01*
X489475Y312500D02*
X489500Y312475D01*
D42*
X379600Y434826D02*
D03*
X405000D02*
D03*
X354200D02*
D03*
X287500Y277300D02*
D03*
D43*
X430400Y434826D02*
D03*
D44*
X287500Y302700D02*
D03*
D45*
X470000Y355000D02*
D03*
X290000D02*
D03*
D46*
X372499Y299999D02*
D03*
X355000Y300000D02*
D03*
X405000Y292500D02*
D03*
X282500Y440000D02*
D03*
X438650Y395000D02*
D03*
X320000Y327500D02*
D03*
X467500Y312500D02*
D03*
X377500Y340000D02*
D03*
M02*
