G04 DipTrace 5.1.0.3*
G04 1 - Верхний.gbr*
%MOMM*%
G04 #@! TF.FileFunction,Copper,L1,Top*
G04 #@! TF.Part,Single*
%AMOUTLINE6*
4,1,4,
0.00002,-1.06066,
-1.06066,-0.00002,
-0.00002,1.06066,
1.06066,0.00002,
0.00002,-1.06066,
0*%
%AMOUTLINE9*
4,1,4,
1.06066,0.0,
0.0,-1.06066,
-1.06066,0.0,
0.0,1.06066,
1.06066,0.0,
0*%
%AMOUTLINE18*
4,1,4,
0.0,1.14551,
1.14551,0.0,
0.0,-1.14551,
-1.14551,0.0,
0.0,1.14551,
0*%
%AMOUTLINE21*
4,1,4,
1.14551,0.00003,
0.00003,-1.14551,
-1.14551,-0.00003,
-0.00003,1.14551,
1.14551,0.00003,
0*%
%AMOUTLINE30*
4,1,28,
-0.505,-0.155,
-0.505,0.155,
-0.49989,0.19382,
-0.4849,0.23,
-0.46107,0.26107,
-0.43,0.2849,
-0.39382,0.29989,
-0.355,0.305,
0.355,0.305,
0.39382,0.29989,
0.43,0.2849,
0.46107,0.26107,
0.4849,0.23,
0.49989,0.19382,
0.505,0.155,
0.505,-0.155,
0.49989,-0.19382,
0.4849,-0.23,
0.46107,-0.26107,
0.43,-0.2849,
0.39382,-0.29989,
0.355,-0.305,
-0.355,-0.305,
-0.39382,-0.29989,
-0.43,-0.2849,
-0.46107,-0.26107,
-0.4849,-0.23,
-0.49989,-0.19382,
-0.505,-0.155,
0*%
%AMOUTLINE33*
4,1,28,
0.505,0.155,
0.505,-0.155,
0.49989,-0.19382,
0.4849,-0.23,
0.46107,-0.26107,
0.43,-0.2849,
0.39382,-0.29989,
0.355,-0.305,
-0.355,-0.305,
-0.39382,-0.29989,
-0.43,-0.2849,
-0.46107,-0.26107,
-0.4849,-0.23,
-0.49989,-0.19382,
-0.505,-0.155,
-0.505,0.155,
-0.49989,0.19382,
-0.4849,0.23,
-0.46107,0.26107,
-0.43,0.2849,
-0.39382,0.29989,
-0.355,0.305,
0.355,0.305,
0.39382,0.29989,
0.43,0.2849,
0.46107,0.26107,
0.4849,0.23,
0.49989,0.19382,
0.505,0.155,
0*%
%AMOUTLINE36*
4,1,28,
-0.22002,0.65999,
0.21998,0.66001,
0.27692,0.65251,
0.32998,0.63054,
0.37555,0.59557,
0.41051,0.55001,
0.43249,0.49695,
0.43999,0.44001,
0.44001,-0.43999,
0.43252,-0.49693,
0.41054,-0.54999,
0.37558,-0.59555,
0.33002,-0.63052,
0.27696,-0.6525,
0.22002,-0.65999,
-0.21998,-0.66001,
-0.27692,-0.65251,
-0.32998,-0.63054,
-0.37555,-0.59557,
-0.41051,-0.55001,
-0.43249,-0.49695,
-0.43999,-0.44001,
-0.44001,0.43999,
-0.43252,0.49693,
-0.41054,0.54999,
-0.37558,0.59555,
-0.33002,0.63052,
-0.27696,0.6525,
-0.22002,0.65999,
0*%
%AMOUTLINE39*
4,1,28,
0.22002,-0.65999,
-0.21998,-0.66001,
-0.27692,-0.65251,
-0.32998,-0.63054,
-0.37555,-0.59557,
-0.41051,-0.55001,
-0.43249,-0.49695,
-0.43999,-0.44001,
-0.44001,0.43999,
-0.43252,0.49693,
-0.41054,0.54999,
-0.37558,0.59555,
-0.33002,0.63052,
-0.27696,0.6525,
-0.22002,0.65999,
0.21998,0.66001,
0.27692,0.65251,
0.32998,0.63054,
0.37555,0.59557,
0.41051,0.55001,
0.43249,0.49695,
0.43999,0.44001,
0.44001,-0.43999,
0.43252,-0.49693,
0.41054,-0.54999,
0.37558,-0.59555,
0.33002,-0.63052,
0.27696,-0.6525,
0.22002,-0.65999,
0*%
G04 #@! TA.AperFunction,Conductor*
%ADD14C,0.5*%
G04 #@! TA.AperFunction,CopperBalancing*
%ADD16C,0.33*%
G04 #@! TA.AperFunction,Conductor*
%ADD18C,1.2*%
%ADD19C,1.016*%
G04 #@! TA.AperFunction,CopperBalancing*
%ADD20C,0.635*%
G04 #@! TA.AperFunction,ComponentPad*
%ADD22R,2.7X2.3*%
%ADD23O,2.7X2.3*%
%ADD24R,1.7X1.7*%
%ADD25C,1.7*%
%ADD26R,1.92X1.92*%
%ADD27C,1.92*%
%ADD28R,1.3X1.5*%
%ADD29R,1.5X1.3*%
G04 #@! TA.AperFunction,ComponentPad*
%ADD32R,1.5X1.5*%
%ADD33C,1.5*%
%ADD35R,1.1X1.25*%
G04 #@! TA.AperFunction,ComponentPad*
%ADD36R,1.35X1.35*%
%ADD37C,1.35*%
%ADD38C,1.62*%
%ADD39R,1.62X1.62*%
%ADD40R,0.8X1.7*%
G04 #@! TA.AperFunction,ComponentPad*
%ADD41R,2.0X2.0*%
%ADD42C,2.0*%
%ADD43R,3.1X3.1*%
%ADD44C,3.1*%
G04 #@! TA.AperFunction,ViaPad*
%ADD48C,0.6*%
G04 #@! TA.AperFunction,ComponentPad*
%ADD116OUTLINE6*%
%ADD119OUTLINE9*%
%ADD128OUTLINE18*%
%ADD131OUTLINE21*%
%ADD140OUTLINE30*%
%ADD143OUTLINE33*%
%ADD146OUTLINE36*%
%ADD149OUTLINE39*%
%FSLAX35Y35*%
G04*
G71*
G90*
G75*
G01*
G04 Top*
%LPD*%
X9544630Y1278540D2*
D14*
X9379717Y1443453D1*
Y1577130D1*
X10435037Y1735650D2*
Y2223590D1*
Y2329547D1*
X10661287Y2555797D1*
Y3679970D1*
X10231100D1*
X6912753Y5827947D2*
Y6250563D1*
X6127637D1*
X5281537Y5404463D1*
Y5321363D1*
X3670283Y2436727D2*
Y2690727D1*
X3670277D1*
X3670237Y6052663D2*
Y6306663D1*
X10407257Y2210117D2*
X10420730Y2223590D1*
X10435037D1*
X5281537Y5321363D2*
Y5417063D1*
X4951837D1*
X4848637Y5520263D1*
Y5635363D1*
X4901737Y5688463D1*
Y5776853D1*
X4705250Y6539663D2*
X4901737Y6343177D1*
Y5776853D1*
X2491537Y3290460D2*
X3258633D1*
X3500487Y3532313D1*
X2650727Y4382073D1*
X2244937D1*
X1964180D1*
X3670237Y6052663D2*
Y5922263D1*
X3287433Y5539460D1*
X2319237D1*
X1943937Y5409967D2*
X2195540D1*
X2319237Y5533663D1*
Y5539460D1*
X8996737Y4590463D2*
Y5299463D1*
X8045637Y6250563D1*
X6912753D1*
X2244937Y4379863D2*
Y4382073D1*
X4875417Y2977843D2*
D16*
X4487437D1*
X3930290Y3534990D1*
Y3679473D1*
X4540170Y4289353D1*
X4899027D1*
X4989157Y4379483D1*
Y4384303D1*
X3924237Y6306663D2*
X4060280Y6170620D1*
Y5947810D1*
X3447723Y5335253D1*
Y5064613D1*
X3450663Y5061673D1*
Y5042003D1*
X3924237Y6052663D2*
Y5918363D1*
X3309220Y5303347D1*
Y5126273D1*
X8782630Y1278540D2*
X8987910Y1483820D1*
Y1896240D1*
X4251337Y5573663D2*
X4256037Y5578363D1*
Y6172493D1*
X4251537Y6176993D1*
Y6234863D1*
X1610537Y4819763D2*
Y4872963D1*
X1986537Y5248963D1*
X3176637D1*
X3182037Y5254363D1*
X2794537Y1543963D2*
D14*
X2747137D1*
X1653537Y2637563D1*
Y3494563D1*
X1429540Y5419763D2*
X1765133D1*
X1774937Y5409960D1*
X2810237Y7423863D2*
Y7379563D1*
X2487237Y7056563D1*
Y7048763D1*
X1674437Y6235963D1*
X1654437D1*
X1303237Y5884763D1*
X1120537Y5702063D1*
Y5419763D1*
Y3170563D1*
X2747137Y1543963D1*
X1303237Y5865760D2*
Y5884763D1*
X1429540Y5419763D2*
X1120537D1*
X9710457Y6953527D2*
D16*
X9945747D1*
X10199773Y7207553D1*
X10464697D1*
X9710447Y7207527D2*
X9918300D1*
X10188050Y7477277D1*
X10464740D1*
Y7461553D1*
X8686483Y7621933D2*
X8713860D1*
X9128267Y7207527D1*
X9710447D1*
X9710440Y7461527D2*
X9940117D1*
X10194143Y7715553D1*
X10464730D1*
X8686470Y7811933D2*
X8801120D1*
X8879317Y7890130D1*
X10290153D1*
X10464730Y7715553D1*
X9130327Y7570350D2*
X9239150Y7461527D1*
X9710440D1*
X9111640Y6488863D2*
X5823337D1*
X5126637Y5792163D1*
X5091737Y5776873D1*
Y5702463D1*
X4963737Y5574463D1*
X8096110Y3844457D2*
X7043917D1*
X5797057Y5091317D1*
Y5097797D1*
X6404313Y4352233D2*
X6398743D1*
X5681337Y5069640D1*
X5130937D1*
X5069007Y5007710D1*
X3326537Y4153263D2*
X3425827D1*
X4337210Y5064647D1*
Y5098063D1*
X4254837Y4531263D2*
X3822437Y4098863D1*
Y3065163D1*
X3454137Y2696863D1*
Y2682663D1*
X5305037Y2762763D2*
X6026613Y2041187D1*
X9484890D1*
X9684593D1*
X9856110Y2212703D1*
X9871390D1*
X10245037Y1735650D2*
Y1699643D1*
X10092260Y1546867D1*
Y1278537D1*
X9871390Y2212703D2*
X10010467D1*
X10013067Y2210103D1*
X10217257D1*
X9484890Y2039627D2*
Y2041187D1*
X10245037Y1735650D2*
X9939500Y2041187D1*
X9684593D1*
X6404753Y5827933D2*
X6382900D1*
Y5542083D1*
X6636337Y5288647D1*
X7407170D1*
X8541827Y4153990D1*
Y4081060D1*
X8536610Y4281890D2*
X7463853Y5354647D1*
X6816500D1*
X6658753Y5512393D1*
Y5827940D1*
X5537090Y4577243D2*
Y4405433D1*
X5167660Y4036003D1*
Y3937187D1*
X5700217Y5276947D2*
X5765977D1*
X6942383Y4100540D1*
X8088493D1*
X5984927Y4536390D2*
X5989273Y4532043D1*
Y4348937D1*
X5065090Y5155203D2*
X5411137D1*
X5644590Y5388657D1*
X5768780D1*
X6486577Y4670860D1*
X7294080D1*
X10231127Y2917970D2*
X9959973D1*
X9185680Y2143677D1*
X6361523D1*
X5012847Y3492353D1*
X4127347D1*
X4072037Y3547663D1*
Y3622363D1*
X5126937Y4518663D2*
Y4523863D1*
X4546837Y5103963D1*
Y6141263D1*
X4691237Y6285663D1*
X4705263D1*
X5470010Y4939403D2*
X5628470Y4780943D1*
Y4329583D1*
X6640820Y3317233D1*
X7775283D1*
X8425387Y2667130D1*
Y2623600D1*
X3742937Y3350463D2*
Y3395217D1*
X2502080Y4636073D1*
X1964173D1*
X1964170Y4890073D2*
X2434690D1*
X3500427Y3824337D1*
X3601793D1*
X10231117Y3171970D2*
X10096427D1*
X9150293Y2225837D1*
X6488463D1*
X5118270Y3596030D1*
X4178003D1*
X4175337Y3593363D1*
X5127337Y4640763D2*
X4705277Y5062823D1*
Y6031663D1*
X5621410Y4972930D2*
X5715407Y4878933D1*
Y4394247D1*
X6654230Y3455423D1*
X7810933D1*
X8571453Y2694903D1*
Y2351313D1*
X9640853Y4726447D2*
D18*
Y5620537D1*
X10077060Y6056743D1*
X10129747D1*
X6817133Y3592320D2*
D19*
X8335827D1*
X8712197Y3968690D1*
Y5317050D1*
X7790143D1*
X7718753D1*
X7555980Y5479823D1*
X6905420D1*
X7790143Y5317050D2*
D3*
X8718077Y5318040D2*
X8717087Y5317050D1*
X7790143D1*
X2963537Y1543963D2*
D16*
X2964640Y1545067D1*
Y1846163D1*
X2078433Y3280363D2*
X2036737D1*
X1822537Y3494563D1*
X1472237Y5865767D2*
X1615533D1*
X1760337Y5720963D1*
X2078437D1*
X4251140Y6626263D2*
Y6532707D1*
X4251537Y6532310D1*
Y6424863D1*
X3994537Y6637163D2*
Y6626263D1*
X4251140D1*
X7291223Y5638307D2*
X7524613D1*
X7674493Y5788187D1*
Y6088547D1*
X7629113D1*
X6395837Y3339270D2*
X6391980Y3335413D1*
X6001930D1*
X5977833Y3311317D1*
X2964633Y7154163D2*
Y7409260D1*
X2979237Y7423863D1*
X9928720Y1825247D2*
Y1812130D1*
X9379710D1*
X9710430Y7715527D2*
X9130320D1*
Y7760350D1*
X2258040Y5900567D2*
X2832640D1*
X3664237Y6732163D1*
X3783537D1*
D48*
X9111640Y6488863D3*
X4337210Y5098063D3*
X5305037Y2762763D3*
X4963737Y5574463D3*
X4251337Y5573663D3*
X3601793Y3824337D3*
X3742937Y3350463D3*
X8996737Y4590463D3*
X3326537Y4153263D3*
X3309220Y5126273D3*
X5281537Y5321363D3*
X7294080Y4670860D3*
X5470010Y4939403D3*
X5621410Y4972930D3*
X4989157Y4384303D3*
X4400137Y5911863D3*
X6404313Y4352233D3*
X2110437Y7157563D3*
X6905420Y5479823D3*
X5989273Y4348937D3*
X5984927Y4536390D3*
X5069007Y5007710D3*
X5065090Y5155203D3*
X7291223Y5638307D3*
X4254837Y4531263D3*
X6817133Y3592320D3*
X6395837Y3339270D3*
X8718077Y5318040D3*
X8096110Y3844457D3*
X5797057Y5097797D3*
X8088493Y4100540D3*
X5700217Y5276947D3*
X8536610Y4281890D3*
X8541827Y4081060D3*
X5537090Y4577243D3*
X5167660Y3937187D3*
X4175337Y3593363D3*
X4072037Y3622363D3*
X5127337Y4640763D3*
X5126937Y4518663D3*
X4043737Y5417063D3*
X7790143Y5317050D3*
X9484890Y2039627D3*
X3450663Y5042003D3*
X3454137Y2682663D3*
X3200737Y5731763D3*
X8848503Y2423967D3*
X4184280Y4206917D3*
X8054853Y2572917D3*
X9188503Y1902193D3*
X4025980Y2252197D3*
X7178117Y4358460D3*
X7472197Y6848897D3*
X10752533Y7733393D3*
X8095390Y5132460D3*
X5118687Y6436840D3*
X3904137Y7003963D3*
X6420017Y4957997D3*
X1616727Y4183537D3*
X4001137Y4579963D3*
X5054347Y4116047D3*
X5999547Y2285323D3*
X4036937Y3160063D3*
X8571453Y2351313D3*
X8987910Y1896240D3*
X8425387Y2623600D3*
X7989437Y5831763D3*
X2735637Y5395163D3*
X4054037Y5724663D3*
X4603637Y4834863D3*
X2327837Y5157163D3*
X1467437Y4938663D3*
X3046437Y3666663D3*
X2244937Y4379863D3*
X3182037Y5254363D3*
X1610537Y4819763D3*
X8021337Y1725863D3*
X8451637Y1723163D3*
X2271063Y7839083D2*
D20*
X2785687D1*
X3714310D2*
X4145903D1*
X7854110D2*
X8539267D1*
X10581740D2*
X10895890D1*
X2231597Y7775917D2*
X2785687D1*
X3714310D2*
X4145903D1*
X7854110D2*
X7996130D1*
X8303870D2*
X8539267D1*
X10625537D2*
X10660277D1*
X10844787D2*
X10895890D1*
X2192130Y7712750D2*
X2785687D1*
X3714310D2*
X4145903D1*
X7854110D2*
X7939847D1*
X8360150D2*
X8539267D1*
X10852490D2*
X10895890D1*
X2152663Y7649583D2*
X2785687D1*
X3714310D2*
X4145903D1*
X7854110D2*
X7920160D1*
X8379840D2*
X8539267D1*
X10623257D2*
X10699653D1*
X10805413D2*
X10895890D1*
X2113197Y7586417D2*
X2806423D1*
X3693577D2*
X4145903D1*
X7854110D2*
X7911547D1*
X8388453D2*
X8539267D1*
X10580237D2*
X10895890D1*
X2073733Y7523250D2*
X2713683D1*
X3075790D2*
X4145903D1*
X7854110D2*
X7927450D1*
X8372547D2*
X8539267D1*
X10625033D2*
X10895890D1*
X2034220Y7460083D2*
X2694040D1*
X3095430D2*
X4145903D1*
X7854110D2*
X7960173D1*
X8339870D2*
X8752913D1*
X1994753Y7396917D2*
X2692763D1*
X3095430D2*
X4145903D1*
X7854110D2*
X8029580D1*
X8270420D2*
X8816077D1*
X1955287Y7333750D2*
X2629600D1*
X3082353D2*
X4151553D1*
X7848413D2*
X8879243D1*
X1915823Y7270583D2*
X2566437D1*
X2836077D2*
X2875920D1*
X3053323D2*
X3095947D1*
X3402320D2*
X4179123D1*
X7820887D2*
X8942407D1*
X1876357Y7207417D2*
X2022203D1*
X2198647D2*
X2503273D1*
X2772913D2*
X2827887D1*
X3402320D2*
X4221233D1*
X7778823D2*
X9005570D1*
X1836890Y7144250D2*
X2009170D1*
X2211727D2*
X2440107D1*
X2709747D2*
X2817770D1*
X3402320D2*
X4275010D1*
X7725003D2*
X9069237D1*
X1797423Y7081083D2*
X2046313D1*
X2174587D2*
X2384737D1*
X2646583D2*
X2837867D1*
X3402320D2*
X3840883D1*
X3967423D2*
X9596787D1*
X10196103D2*
X10292503D1*
X1757957Y7017917D2*
X2321573D1*
X2583420D2*
X2817450D1*
X3402320D2*
X3802967D1*
X4005293D2*
X9551260D1*
X10132937D2*
X10292503D1*
X1718490Y6954750D2*
X2258410D1*
X2528050D2*
X2817450D1*
X3390880D2*
X3815543D1*
X3992717D2*
X4537053D1*
X4873413D2*
X9538273D1*
X10069773D2*
X10292503D1*
X1679027Y6891583D2*
X2195243D1*
X2464883D2*
X2817450D1*
X3402183D2*
X3888323D1*
X4398317D2*
X4537053D1*
X4873413D2*
X7380030D1*
X7564357D2*
X9550257D1*
X10006383D2*
X10292503D1*
X1639560Y6828417D2*
X2132080D1*
X2401720D2*
X2817450D1*
X3384863D2*
X3737750D1*
X3829337D2*
X3871827D1*
X4398317D2*
X4537053D1*
X4873413D2*
X7372190D1*
X7572197D2*
X9595237D1*
X9825687D2*
X10292503D1*
X1600047Y6765250D2*
X2068870D1*
X2338557D2*
X2817450D1*
X3111837D2*
X3179710D1*
X3318557D2*
X3574510D1*
X4398317D2*
X4537053D1*
X4873413D2*
X7419040D1*
X7525347D2*
X10541470D1*
X1560580Y6702083D2*
X2005707D1*
X2275393D2*
X3511343D1*
X4398360D2*
X4537053D1*
X4873413D2*
X9902537D1*
X10356930D2*
X10598207D1*
X1521113Y6638917D2*
X1942543D1*
X2212227D2*
X3448180D1*
X4398360D2*
X4537053D1*
X4873413D2*
X9902537D1*
X10356930D2*
X10895890D1*
X1481650Y6575750D2*
X1879380D1*
X2149063D2*
X3385017D1*
X3630640D2*
X3886137D1*
X4398360D2*
X4541110D1*
X4869357D2*
X9064813D1*
X9158453D2*
X9902537D1*
X10356930D2*
X10895890D1*
X1442183Y6512583D2*
X1816213D1*
X2085900D2*
X3321853D1*
X3567477D2*
X4103930D1*
X4398727D2*
X4539333D1*
X4871180D2*
X5053577D1*
X5183763D2*
X5724230D1*
X9210860D2*
X9902537D1*
X10356930D2*
X10895890D1*
X1402717Y6449417D2*
X1753050D1*
X2022737D2*
X3258690D1*
X3504310D2*
X3587633D1*
X4398727D2*
X4564533D1*
X4930333D2*
X5017303D1*
X5220040D2*
X5661063D1*
X9205347D2*
X9902537D1*
X10356930D2*
X10895890D1*
X1363250Y6386250D2*
X1689887D1*
X1959573D2*
X3195523D1*
X3441147D2*
X3522967D1*
X4398727D2*
X4572100D1*
X4988073D2*
X5030927D1*
X5206460D2*
X5597900D1*
X5843523D2*
X9902537D1*
X10356930D2*
X10895890D1*
X1323783Y6323083D2*
X1622303D1*
X1896407D2*
X3132360D1*
X3377983D2*
X3502867D1*
X4398727D2*
X4541430D1*
X4998920D2*
X5534737D1*
X5780360D2*
X6066573D1*
X8106720D2*
X9902537D1*
X10356930D2*
X10895890D1*
X1284317Y6259917D2*
X1543553D1*
X1833243D2*
X3069197D1*
X3314820D2*
X3508930D1*
X4398727D2*
X4539107D1*
X4998920D2*
X5471573D1*
X5717197D2*
X6002177D1*
X8171113D2*
X10036840D1*
X10222670D2*
X10895890D1*
X1244853Y6196750D2*
X1480387D1*
X1770033D2*
X3006033D1*
X3251657D2*
X3545070D1*
X4398727D2*
X4479633D1*
X4998920D2*
X5408410D1*
X5654030D2*
X5939013D1*
X8234280D2*
X9952577D1*
X10306890D2*
X10895890D1*
X1205340Y6133583D2*
X1417223D1*
X1686910D2*
X2942867D1*
X3188447D2*
X3523693D1*
X4398727D2*
X4458123D1*
X4998920D2*
X5345243D1*
X5590867D2*
X5875803D1*
X6145490D2*
X6815563D1*
X7009963D2*
X7301917D1*
X7766337D2*
X8027803D1*
X8297443D2*
X9916343D1*
X10343167D2*
X10895890D1*
X1165873Y6070417D2*
X1354060D1*
X1623700D2*
X2235303D1*
X2280770D2*
X2879660D1*
X3125280D2*
X3503003D1*
X4344723D2*
X4458123D1*
X4998920D2*
X5282080D1*
X5527703D2*
X5812640D1*
X6082327D2*
X6815563D1*
X7009963D2*
X7301917D1*
X7766337D2*
X8090967D1*
X8360607D2*
X9902993D1*
X10356520D2*
X10895890D1*
X1126407Y6007250D2*
X1290897D1*
X1560537D2*
X2159197D1*
X2356877D2*
X2816493D1*
X3062117D2*
X3508520D1*
X4344723D2*
X4384387D1*
X4415883D2*
X4458123D1*
X4998920D2*
X5218917D1*
X5464540D2*
X5749477D1*
X6019163D2*
X6815563D1*
X7009963D2*
X7301917D1*
X7766337D2*
X8154130D1*
X8423770D2*
X9843247D1*
X10351323D2*
X10895890D1*
X1104123Y5944083D2*
X1194007D1*
X1647353D2*
X2096213D1*
X2998953D2*
X3543883D1*
X4998920D2*
X5155753D1*
X5401377D2*
X5686313D1*
X7763193D2*
X8217297D1*
X8486937D2*
X9780080D1*
X10326030D2*
X10895890D1*
X1104123Y5880917D2*
X1164567D1*
X1723187D2*
X2082770D1*
X2935790D2*
X3494073D1*
X4116220D2*
X4167320D1*
X5338210D2*
X5623147D1*
X5892833D2*
X5982537D1*
X7763193D2*
X7900790D1*
X8078057D2*
X8280460D1*
X8550100D2*
X9716917D1*
X10269747D2*
X10895890D1*
X1786350Y5817750D2*
X1969750D1*
X2613953D2*
X3152047D1*
X3249423D2*
X3430910D1*
X4083223D2*
X4167320D1*
X4424657D2*
X4458123D1*
X5275047D2*
X5559983D1*
X5829670D2*
X5982537D1*
X7763193D2*
X7888260D1*
X8090587D2*
X8343623D1*
X8613263D2*
X9653753D1*
X10022377D2*
X10895890D1*
X1557210Y5754583D2*
X1603890D1*
X2317593D2*
X2350010D1*
X2647677D2*
X3101280D1*
X3300190D2*
X3367743D1*
X4344723D2*
X4458123D1*
X5228927D2*
X5496820D1*
X5766507D2*
X5982537D1*
X7756037D2*
X7926267D1*
X8052627D2*
X8406787D1*
X8676427D2*
X9590590D1*
X10279637D2*
X10895890D1*
X1244717Y5691417D2*
X1282327D1*
X1576713D2*
X1667053D1*
X2222483D2*
X2257177D1*
X2649410D2*
X3107433D1*
X4344723D2*
X4458123D1*
X5228927D2*
X5433657D1*
X5703340D2*
X5982537D1*
X7700530D2*
X8469950D1*
X8739637D2*
X9530523D1*
X9896050D2*
X9928923D1*
X10330587D2*
X10895890D1*
X1217737Y5628250D2*
X1282327D1*
X1576713D2*
X1966057D1*
X3863517D2*
X4166183D1*
X4344723D2*
X4458123D1*
X5140333D2*
X5370493D1*
X5640177D2*
X6294210D1*
X7637363D2*
X8533117D1*
X8802800D2*
X9508877D1*
X9832887D2*
X9906500D1*
X10353010D2*
X10895890D1*
X1217737Y5565083D2*
X1282327D1*
X1576713D2*
X2137687D1*
X3800353D2*
X4149503D1*
X4353153D2*
X4458123D1*
X5077170D2*
X5307327D1*
X5576967D2*
X6294210D1*
X7641923D2*
X8596280D1*
X8865967D2*
X9508650D1*
X9773050D2*
X9903630D1*
X10355880D2*
X10895890D1*
X2045887Y5501917D2*
X2144247D1*
X3737190D2*
X3992823D1*
X4094663D2*
X4181450D1*
X4321253D2*
X4458123D1*
X5513803D2*
X6304647D1*
X7705223D2*
X8659443D1*
X8929130D2*
X9508650D1*
X9773050D2*
X9919490D1*
X10340020D2*
X10895890D1*
X2432573Y5438750D2*
X2643910D1*
X2827370D2*
X3321807D1*
X3674027D2*
X3944013D1*
X4143473D2*
X4458123D1*
X5450640D2*
X5571880D1*
X5841520D2*
X6363433D1*
X7768387D2*
X8722607D1*
X8992293D2*
X9508650D1*
X9773050D2*
X9959457D1*
X10300007D2*
X10895890D1*
X2369227Y5375583D2*
X2635480D1*
X2835803D2*
X3258643D1*
X3610860D2*
X3950987D1*
X4136500D2*
X4458123D1*
X4793980D2*
X4858480D1*
X5387477D2*
X5508713D1*
X5904683D2*
X6426600D1*
X9055457D2*
X9508650D1*
X9773050D2*
X10058713D1*
X10200797D2*
X10895890D1*
X1217737Y5312417D2*
X1282327D1*
X1576760D2*
X1676943D1*
X3547697D2*
X4458123D1*
X4793980D2*
X5179770D1*
X5383330D2*
X5445550D1*
X5967847D2*
X6489763D1*
X9093010D2*
X9508650D1*
X9773050D2*
X10895890D1*
X1217737Y5249250D2*
X1864020D1*
X3536440D2*
X4458123D1*
X4793980D2*
X5040223D1*
X5089930D2*
X5212033D1*
X6031010D2*
X6552927D1*
X8835203D2*
X8899523D1*
X9093920D2*
X9508650D1*
X9773050D2*
X10895890D1*
X1217737Y5186083D2*
X1800857D1*
X3536440D2*
X4292920D1*
X4381500D2*
X4458123D1*
X4793980D2*
X4967993D1*
X6094173D2*
X7386910D1*
X7755217D2*
X8009573D1*
X8181187D2*
X8589217D1*
X8835203D2*
X8899523D1*
X9093920D2*
X9508650D1*
X9773050D2*
X10895890D1*
X1217737Y5122917D2*
X1737693D1*
X1983317D2*
X2231977D1*
X2423733D2*
X3207100D1*
X3536440D2*
X4238277D1*
X4793980D2*
X4968493D1*
X6157340D2*
X7450077D1*
X7818380D2*
X7993670D1*
X8197090D2*
X8589217D1*
X8835203D2*
X8899523D1*
X9093920D2*
X9508650D1*
X9773050D2*
X10895890D1*
X1217737Y5059750D2*
X1674527D1*
X1920150D2*
X3233850D1*
X3551207D2*
X4209523D1*
X4431400D2*
X4471020D1*
X4831167D2*
X4982163D1*
X6220503D2*
X7513240D1*
X7881543D2*
X8026573D1*
X8164187D2*
X8589217D1*
X8835203D2*
X8899523D1*
X9093920D2*
X9508650D1*
X9773050D2*
X10895890D1*
X1217737Y4996583D2*
X1384730D1*
X1550143D2*
X1611363D1*
X2092370D2*
X3359907D1*
X3541407D2*
X4146357D1*
X4391937D2*
X4531403D1*
X4894330D2*
X4967443D1*
X6283667D2*
X6325927D1*
X6514130D2*
X7576403D1*
X7944710D2*
X8589217D1*
X8835203D2*
X8899523D1*
X9093920D2*
X9508650D1*
X9773050D2*
X10895890D1*
X1217737Y4933417D2*
X1365360D1*
X2514150D2*
X4083147D1*
X4328770D2*
X4594567D1*
X4957497D2*
X5002080D1*
X5135913D2*
X5367987D1*
X6519007D2*
X7639567D1*
X8007873D2*
X8589217D1*
X8835203D2*
X8899523D1*
X9093920D2*
X9508650D1*
X9773050D2*
X10895890D1*
X1217737Y4870250D2*
X1393937D1*
X1730613D2*
X1797210D1*
X2577313D2*
X4019983D1*
X4265607D2*
X4508207D1*
X5020660D2*
X5397290D1*
X6464957D2*
X7702777D1*
X8071083D2*
X8589217D1*
X8835203D2*
X8899523D1*
X9093920D2*
X9504820D1*
X9776877D2*
X10895890D1*
X1217737Y4807083D2*
X1509190D1*
X1711883D2*
X1818857D1*
X2640477D2*
X3956820D1*
X4202443D2*
X4505563D1*
X5083823D2*
X5479503D1*
X6473160D2*
X7765940D1*
X8134247D2*
X8589217D1*
X8835203D2*
X8899523D1*
X9093920D2*
X9452640D1*
X9829103D2*
X10895890D1*
X1217737Y4743917D2*
X1377073D1*
X1675470D2*
X1837133D1*
X2703640D2*
X3893657D1*
X4139280D2*
X4567040D1*
X4640263D2*
X4784060D1*
X5146987D2*
X5539750D1*
X7362470D2*
X7829107D1*
X8197410D2*
X8589217D1*
X8835203D2*
X8899523D1*
X9093920D2*
X9434503D1*
X9847197D2*
X10477073D1*
X10622937D2*
X10895890D1*
X1217737Y4680750D2*
X1266833D1*
X1633180D2*
X1802270D1*
X2766807D2*
X3830493D1*
X4076113D2*
X4847223D1*
X5220817D2*
X5539750D1*
X7395783D2*
X7892270D1*
X8260573D2*
X8589217D1*
X8835203D2*
X8899523D1*
X9093920D2*
X9439517D1*
X9842183D2*
X10366833D1*
X10733180D2*
X10895890D1*
X1685450Y4617583D2*
X1797027D1*
X2829970D2*
X3767327D1*
X4095667D2*
X4206833D1*
X4302840D2*
X4910387D1*
X5226693D2*
X5443773D1*
X7380107D2*
X7955433D1*
X8323740D2*
X8589217D1*
X8835203D2*
X8898473D1*
X9095013D2*
X9470093D1*
X9811603D2*
X10314560D1*
X10785450D2*
X10895890D1*
X1703543Y4554417D2*
X1818083D1*
X2893180D2*
X3704163D1*
X4099860D2*
X4155200D1*
X4354200D2*
X4973553D1*
X5222227D2*
X5437667D1*
X6611337D2*
X8018597D1*
X8386903D2*
X8589217D1*
X8835203D2*
X8901573D1*
X9091917D2*
X9433683D1*
X9848060D2*
X10296470D1*
X10803543D2*
X10895890D1*
X1713933Y4491250D2*
X1838363D1*
X2956343D2*
X3641000D1*
X3886623D2*
X3958507D1*
X4043757D2*
X4092033D1*
X4348277D2*
X5028740D1*
X5225143D2*
X5448377D1*
X6077997D2*
X6136937D1*
X6674500D2*
X8081760D1*
X8450067D2*
X8589217D1*
X8835203D2*
X9433683D1*
X9848060D2*
X10286077D1*
X10813933D2*
X10895890D1*
X1698850Y4428083D2*
X1802633D1*
X3019507D2*
X3577837D1*
X3823460D2*
X4028827D1*
X4274447D2*
X4897537D1*
X5164623D2*
X5436937D1*
X6077997D2*
X6200100D1*
X6737663D2*
X7105910D1*
X7250360D2*
X8144927D1*
X8513230D2*
X8589217D1*
X8835203D2*
X9433683D1*
X9848060D2*
X10301163D1*
X10798850D2*
X10895890D1*
X1675927Y4364917D2*
X1796890D1*
X3082670D2*
X3514670D1*
X3760293D2*
X3965660D1*
X4211283D2*
X4501097D1*
X5089383D2*
X5373773D1*
X6090120D2*
X6263267D1*
X6800830D2*
X7076150D1*
X7280120D2*
X8208090D1*
X8835203D2*
X9433683D1*
X9848060D2*
X10324087D1*
X10775927D2*
X10895890D1*
X1217737Y4301750D2*
X1284333D1*
X1615680D2*
X1817307D1*
X3145837D2*
X3451507D1*
X3697130D2*
X3902497D1*
X4204540D2*
X4429777D1*
X5044220D2*
X5310610D1*
X6079043D2*
X6316493D1*
X6863993D2*
X7094517D1*
X7261753D2*
X8271253D1*
X8835203D2*
X9433683D1*
X9848060D2*
X10384333D1*
X10715680D2*
X10895890D1*
X1217737Y4238583D2*
X1531930D1*
X1701537D2*
X1795980D1*
X2132383D2*
X2659403D1*
X3209000D2*
X3276507D1*
X3633967D2*
X3839333D1*
X4281103D2*
X4366610D1*
X4971077D2*
X5247443D1*
X5493067D2*
X5596670D1*
X5993870D2*
X6526997D1*
X6927157D2*
X8334417D1*
X8835203D2*
X9433683D1*
X9848060D2*
X10895890D1*
X1217737Y4175417D2*
X1514887D1*
X1718583D2*
X1795980D1*
X2132383D2*
X2722570D1*
X3570803D2*
X3776170D1*
X4021793D2*
X4087387D1*
X4549027D2*
X4972730D1*
X5135960D2*
X5184280D1*
X5429903D2*
X5659833D1*
X6057033D2*
X6590160D1*
X8154663D2*
X8397580D1*
X8835203D2*
X10895890D1*
X1217737Y4112250D2*
X1546287D1*
X1687137D2*
X1795980D1*
X2132383D2*
X2785733D1*
X3507640D2*
X3734833D1*
X3958627D2*
X4162900D1*
X4205633D2*
X4240237D1*
X4485860D2*
X4952223D1*
X5366740D2*
X5722997D1*
X6120197D2*
X6653323D1*
X8189983D2*
X8444840D1*
X8835203D2*
X10895890D1*
X1217737Y4049083D2*
X1795980D1*
X2132383D2*
X2848897D1*
X3398490D2*
X3733740D1*
X3911140D2*
X4177073D1*
X4422697D2*
X4979430D1*
X5303530D2*
X5786163D1*
X6183360D2*
X6716487D1*
X8175717D2*
X8445113D1*
X8835203D2*
X10127257D1*
X10334917D2*
X10895890D1*
X1217737Y3985917D2*
X1795980D1*
X2132383D2*
X2912060D1*
X3461657D2*
X3733740D1*
X3911140D2*
X4113910D1*
X4359533D2*
X5078780D1*
X5256543D2*
X5849327D1*
X6246527D2*
X6779653D1*
X7025277D2*
X8523863D1*
X8835203D2*
X10083097D1*
X10379077D2*
X10895890D1*
X1217737Y3922750D2*
X2975223D1*
X3524820D2*
X3733740D1*
X3911140D2*
X4050747D1*
X4296370D2*
X5066567D1*
X5268757D2*
X5912490D1*
X6309733D2*
X6842817D1*
X8157763D2*
X8494927D1*
X8825770D2*
X10074300D1*
X10387873D2*
X10895890D1*
X1217737Y3859583D2*
X3038390D1*
X3697267D2*
X3733740D1*
X3911140D2*
X3987580D1*
X4233203D2*
X5105030D1*
X5230250D2*
X5975653D1*
X6372900D2*
X6905980D1*
X8197090D2*
X8431760D1*
X8774410D2*
X10093487D1*
X10368687D2*
X10895890D1*
X1217737Y3796417D2*
X3101553D1*
X3699820D2*
X3733740D1*
X4170040D2*
X6038820D1*
X6436063D2*
X6969143D1*
X8185380D2*
X8368597D1*
X8711247D2*
X9390980D1*
X9578407D2*
X9645003D1*
X9832430D2*
X10128850D1*
X10333367D2*
X10895890D1*
X1217737Y3733250D2*
X2971123D1*
X3121727D2*
X3164717D1*
X3527737D2*
X3565623D1*
X3637977D2*
X3733740D1*
X4106877D2*
X6101983D1*
X6499227D2*
X8305433D1*
X8648080D2*
X9333970D1*
X9889487D2*
X10083643D1*
X10741247D2*
X10895890D1*
X1217737Y3670083D2*
X2944280D1*
X3148570D2*
X3227880D1*
X3590900D2*
X3733740D1*
X5160660D2*
X6165147D1*
X6562390D2*
X6723827D1*
X8584917D2*
X9316833D1*
X9906623D2*
X10074210D1*
X10758473D2*
X10895890D1*
X1217737Y3606917D2*
X1569983D1*
X1906070D2*
X2252303D1*
X2371550D2*
X2965153D1*
X3127743D2*
X3291047D1*
X3654063D2*
X3733740D1*
X5230203D2*
X6228310D1*
X6625557D2*
X6695070D1*
X8521753D2*
X9325537D1*
X9897920D2*
X10092757D1*
X10758473D2*
X10895890D1*
X1217737Y3543750D2*
X1537490D1*
X1938563D2*
X2178563D1*
X2445287D2*
X3354210D1*
X5293367D2*
X6291473D1*
X8458590D2*
X9365913D1*
X9857497D2*
X10130493D1*
X10331727D2*
X10564073D1*
X10758473D2*
X10895890D1*
X1217737Y3480583D2*
X1537353D1*
X1959343D2*
X2159107D1*
X2464747D2*
X3313923D1*
X5356530D2*
X6354640D1*
X8375693D2*
X9334653D1*
X9888803D2*
X10084143D1*
X10378073D2*
X10564073D1*
X10758473D2*
X10895890D1*
X1217737Y3417417D2*
X1543827D1*
X2117253D2*
X2168493D1*
X2578590D2*
X3250760D1*
X3520443D2*
X3597933D1*
X5419697D2*
X5830640D1*
X7971733D2*
X9316923D1*
X9906530D2*
X10074163D1*
X10388057D2*
X10564073D1*
X10758473D2*
X10895890D1*
X1217737Y3354250D2*
X1556357D1*
X1750757D2*
X1840050D1*
X3457233D2*
X3640817D1*
X3911140D2*
X3988220D1*
X4233843D2*
X5028147D1*
X5482860D2*
X5830640D1*
X8034897D2*
X9325080D1*
X9898373D2*
X10092027D1*
X10370190D2*
X10564073D1*
X10758473D2*
X10895890D1*
X1217737Y3291083D2*
X1556357D1*
X1750757D2*
X1903213D1*
X2225217D2*
X2304803D1*
X3394070D2*
X3661327D1*
X3911140D2*
X4051383D1*
X4297007D2*
X5091313D1*
X5546023D2*
X5830640D1*
X8098107D2*
X9316513D1*
X9858863D2*
X10132223D1*
X10330040D2*
X10564073D1*
X10758473D2*
X10895890D1*
X1217737Y3227917D2*
X1556357D1*
X1750757D2*
X1941357D1*
X3330907D2*
X3733740D1*
X3911140D2*
X3962880D1*
X4360170D2*
X5154477D1*
X5609187D2*
X5830640D1*
X8161270D2*
X9316513D1*
X9888073D2*
X10029547D1*
X10377573D2*
X10564073D1*
X10758473D2*
X10895890D1*
X1261167Y3164750D2*
X1556357D1*
X1750757D2*
X1991623D1*
X2579863D2*
X3733740D1*
X4139007D2*
X4177713D1*
X4423337D2*
X5217640D1*
X5672353D2*
X5830640D1*
X7718803D2*
X7804950D1*
X8224437D2*
X9316513D1*
X9906440D2*
X9966383D1*
X10388147D2*
X10564073D1*
X10758473D2*
X10895890D1*
X1324330Y3101583D2*
X1556357D1*
X1750757D2*
X2079763D1*
X2436310D2*
X3733740D1*
X3911140D2*
X3954633D1*
X4119227D2*
X4240877D1*
X4486500D2*
X4819380D1*
X4931473D2*
X5280803D1*
X5735517D2*
X5830640D1*
X7718803D2*
X7868117D1*
X8287600D2*
X9316513D1*
X10370873D2*
X10564073D1*
X10758473D2*
X10895890D1*
X1387497Y3038417D2*
X1556357D1*
X1750757D2*
X2114853D1*
X2401220D2*
X3672900D1*
X3906673D2*
X4304040D1*
X5000560D2*
X5343970D1*
X5798680D2*
X5830640D1*
X7718803D2*
X7931280D1*
X8350763D2*
X9316513D1*
X10328310D2*
X10564073D1*
X10758473D2*
X10895890D1*
X1450660Y2975250D2*
X1556357D1*
X1750757D2*
X2178017D1*
X2338057D2*
X3609690D1*
X3855313D2*
X4367203D1*
X5015100D2*
X5407133D1*
X5861843D2*
X7994443D1*
X8413927D2*
X9776890D1*
X10377027D2*
X10564073D1*
X10758473D2*
X10895890D1*
X1513870Y2912083D2*
X1556357D1*
X1750757D2*
X3546527D1*
X3792150D2*
X4431507D1*
X4997780D2*
X5470297D1*
X5925007D2*
X8057607D1*
X8477090D2*
X9713727D1*
X10388193D2*
X10564073D1*
X10758473D2*
X10895890D1*
X1750757Y2848917D2*
X3483363D1*
X4092477D2*
X4835010D1*
X4915840D2*
X5256697D1*
X5353387D2*
X5533460D1*
X5988173D2*
X8120773D1*
X8540257D2*
X9650563D1*
X10371603D2*
X10564073D1*
X10758473D2*
X10895890D1*
X1750757Y2785750D2*
X3420200D1*
X4092477D2*
X5205653D1*
X5404840D2*
X5596623D1*
X6051383D2*
X8183937D1*
X8603420D2*
X9587400D1*
X9950557D2*
X10073937D1*
X10388330D2*
X10564073D1*
X10758473D2*
X10895890D1*
X1750757Y2722583D2*
X3360637D1*
X4092477D2*
X5211670D1*
X5468050D2*
X5659790D1*
X6114547D2*
X8247147D1*
X8655373D2*
X9524237D1*
X9887390D2*
X10073937D1*
X10388330D2*
X10564073D1*
X10758473D2*
X10895890D1*
X1766527Y2659417D2*
X3354803D1*
X4092477D2*
X5285590D1*
X5531213D2*
X5722953D1*
X6177710D2*
X8007203D1*
X8102483D2*
X8310310D1*
X8660157D2*
X9461070D1*
X9824227D2*
X10073937D1*
X10388330D2*
X10564073D1*
X10758473D2*
X10895890D1*
X1829690Y2596250D2*
X3406300D1*
X4092477D2*
X5348753D1*
X5594377D2*
X5786117D1*
X6240873D2*
X7955523D1*
X8154163D2*
X8327170D1*
X8660157D2*
X9397907D1*
X9761063D2*
X10073937D1*
X10388330D2*
X10564073D1*
X10758473D2*
X10895890D1*
X1892853Y2533083D2*
X3533903D1*
X4092477D2*
X5411917D1*
X5657540D2*
X5849327D1*
X6304037D2*
X7961313D1*
X8148373D2*
X8387510D1*
X8660157D2*
X9334743D1*
X10018597D2*
X10073937D1*
X10388330D2*
X10503733D1*
X10755600D2*
X10895890D1*
X1956017Y2469917D2*
X3505510D1*
X4089057D2*
X5475080D1*
X5720703D2*
X5912490D1*
X6367203D2*
X8482757D1*
X8660157D2*
X8758017D1*
X8938973D2*
X9271580D1*
X9634733D2*
X9724163D1*
X10018597D2*
X10440570D1*
X10710257D2*
X10895890D1*
X2019180Y2406750D2*
X3504873D1*
X4089697D2*
X5538247D1*
X5783870D2*
X5975653D1*
X6430367D2*
X8482757D1*
X8660157D2*
X8747857D1*
X8949137D2*
X9208413D1*
X9571570D2*
X9724163D1*
X10018597D2*
X10377407D1*
X10647090D2*
X10895890D1*
X2082347Y2343583D2*
X3531580D1*
X4062990D2*
X4735707D1*
X5015100D2*
X5601410D1*
X5847033D2*
X5917093D1*
X6493530D2*
X8469587D1*
X8673330D2*
X8789963D1*
X8907073D2*
X9145250D1*
X9508407D2*
X9724163D1*
X10018597D2*
X10080043D1*
X10583927D2*
X10895890D1*
X2145510Y2280417D2*
X3621950D1*
X3718640D2*
X3875973D1*
X4123920D2*
X4735707D1*
X5015100D2*
X5664573D1*
X9445243D2*
X9724163D1*
X2208673Y2217250D2*
X2817450D1*
X3111837D2*
X3166040D1*
X3332227D2*
X3930387D1*
X4121597D2*
X4735707D1*
X5015100D2*
X5727737D1*
X6073393D2*
X6165147D1*
X9382080D2*
X9724210D1*
X2271837Y2154083D2*
X2817450D1*
X3388603D2*
X4735707D1*
X5015100D2*
X5790903D1*
X6036527D2*
X6228310D1*
X9318913D2*
X9674670D1*
X2335003Y2090917D2*
X2817450D1*
X3402320D2*
X4735707D1*
X5015100D2*
X5854067D1*
X2398167Y2027750D2*
X2817450D1*
X3387507D2*
X5917230D1*
X2461330Y1964583D2*
X2817450D1*
X3402320D2*
X5990057D1*
X2524493Y1901417D2*
X2828753D1*
X3402320D2*
X8885850D1*
X2587703Y1838250D2*
X2817680D1*
X3402320D2*
X4255777D1*
X7744233D2*
X8899203D1*
X9076603D2*
X9110753D1*
X2650867Y1775083D2*
X2836683D1*
X3402320D2*
X4209567D1*
X7790443D2*
X7932737D1*
X8109957D2*
X8364723D1*
X8538570D2*
X8899203D1*
X9076603D2*
X9252530D1*
X2714030Y1711917D2*
X2875920D1*
X3053323D2*
X3095947D1*
X3402320D2*
X4168643D1*
X7831370D2*
X7920160D1*
X8122533D2*
X8350093D1*
X8553153D2*
X8899203D1*
X9076603D2*
X9252530D1*
X9506903D2*
X9781540D1*
X10075927D2*
X10107843D1*
X3055327Y1648750D2*
X4148180D1*
X7851830D2*
X7958077D1*
X8084617D2*
X8384867D1*
X8518380D2*
X8899203D1*
X9076603D2*
X9252530D1*
X9506903D2*
X9781540D1*
X3079753Y1585583D2*
X4145903D1*
X7854110D2*
X8005837D1*
X8294163D2*
X8899203D1*
X9076603D2*
X9252530D1*
X9506903D2*
X9781540D1*
X10253797D2*
X10536683D1*
X3079753Y1522417D2*
X4145903D1*
X7854110D2*
X7945590D1*
X8354410D2*
X8899203D1*
X9076603D2*
X9252530D1*
X9506903D2*
X9781540D1*
X10190633D2*
X10568583D1*
X3069727Y1459250D2*
X4145903D1*
X7854110D2*
X7922757D1*
X8377240D2*
X8840550D1*
X9072867D2*
X9252530D1*
X9506903D2*
X10003570D1*
X10180973D2*
X10895890D1*
X3703967Y1396083D2*
X4145903D1*
X7854110D2*
X7910773D1*
X8389227D2*
X8614417D1*
X9916240D2*
X9980057D1*
X10204443D2*
X10320077D1*
X10544460D2*
X10895890D1*
X3714310Y1332917D2*
X4145903D1*
X7854110D2*
X7924853D1*
X8375143D2*
X8614417D1*
X10204443D2*
X10320077D1*
X10544460D2*
X10895890D1*
X3714310Y1269750D2*
X4145903D1*
X7854110D2*
X7951377D1*
X8348667D2*
X8614417D1*
X10204443D2*
X10320077D1*
X10544460D2*
X10895890D1*
X3714310Y1206583D2*
X4145903D1*
X7854110D2*
X8014813D1*
X8285183D2*
X8614417D1*
X10204443D2*
X10320077D1*
X10544460D2*
X10895890D1*
X3714083Y1143417D2*
X4145903D1*
X7854110D2*
X8614417D1*
X9132067D2*
X9195200D1*
X9386090D2*
X9449177D1*
X9640067D2*
X9703200D1*
X9894090D2*
X9980057D1*
X10204443D2*
X10320077D1*
X10544460D2*
X10895890D1*
X10103617Y2814820D2*
X10121050D1*
X10114610Y2822160D1*
X10105170Y2835620D1*
X9994087D1*
X9281990Y2123527D1*
X9438577Y2123537D1*
X9451060Y2129307D1*
X9473507Y2134797D1*
X9496613Y2134757D1*
X9519037Y2129187D1*
X9529757Y2123537D1*
X9650490D1*
X9730537Y2203593D1*
X9730533Y2533553D1*
X10012233D1*
X10012240Y2295040D1*
X10026353Y2293503D1*
X10033483Y2292453D1*
X10086417D1*
X10086407Y2350953D1*
X10346750Y2350967D1*
X10347323Y2353210D1*
X10348653Y2357683D1*
X10350210Y2362080D1*
X10361257Y2382560D1*
X10370797Y2393787D1*
X10570430Y2593420D1*
X10570437Y3589137D1*
X10351530Y3589120D1*
X10339640Y3575210D1*
X10322377Y3559870D1*
X10312090Y3553227D1*
X10315327Y3551123D1*
X10321660Y3546620D1*
X10327750Y3541800D1*
X10333583Y3536670D1*
X10339147Y3531250D1*
X10344423Y3525547D1*
X10349400Y3519583D1*
X10354060Y3513370D1*
X10358397Y3506923D1*
X10362397Y3500263D1*
X10366047Y3493407D1*
X10369340Y3486370D1*
X10372267Y3479173D1*
X10374817Y3471837D1*
X10376987Y3464380D1*
X10378770Y3456820D1*
X10380163Y3449177D1*
X10381160Y3441473D1*
X10381760Y3433727D1*
X10381960Y3425970D1*
X10381760Y3418197D1*
X10381160Y3410450D1*
X10380160Y3402747D1*
X10378767Y3395107D1*
X10376983Y3387543D1*
X10374810Y3380087D1*
X10372260Y3372750D1*
X10369333Y3365553D1*
X10366040Y3358520D1*
X10362387Y3351663D1*
X10358387Y3345003D1*
X10354050Y3338557D1*
X10349387Y3332343D1*
X10344410Y3326380D1*
X10339133Y3320680D1*
X10333570Y3315257D1*
X10327737Y3310130D1*
X10321643Y3305310D1*
X10315313Y3300810D1*
X10312477Y3299007D1*
X10322737Y3291810D1*
X10339957Y3276420D1*
X10354627Y3258580D1*
X10366400Y3238713D1*
X10375003Y3217280D1*
X10380233Y3194783D1*
X10381967Y3171970D1*
X10380167Y3148730D1*
X10374873Y3126250D1*
X10366207Y3104843D1*
X10354377Y3085007D1*
X10339660Y3067210D1*
X10322393Y3051870D1*
X10312107Y3045227D1*
X10322747Y3037810D1*
X10339967Y3022420D1*
X10354633Y3004580D1*
X10366407Y2984713D1*
X10375010Y2963280D1*
X10380240Y2940783D1*
X10381977Y2917970D1*
X10380173Y2894730D1*
X10374880Y2872250D1*
X10366217Y2850843D1*
X10354387Y2831007D1*
X10341003Y2814827D1*
X10381983Y2814820D1*
Y2513120D1*
X10080283D1*
Y2814820D1*
X10103617D1*
X1281293Y5733907D2*
X1288680Y5733900D1*
X1288693Y5510613D1*
X1211387Y5510623D1*
X1211380Y5664427D1*
X1280857Y5733903D1*
X3105480Y2061570D2*
Y1984917D1*
X3148707Y1984913D1*
X3145107Y1988413D1*
X3130173Y2005963D1*
X3118167Y2025633D1*
X3116123Y2029827D1*
X3114213Y2034083D1*
X3112440Y2038400D1*
X3110803Y2042770D1*
X3109307Y2047190D1*
X3107953Y2051657D1*
X3106740Y2056163D1*
X3105483Y2061637D1*
X3102267Y1959313D2*
X3048537D1*
X3053137Y1955740D1*
X3069967Y1939680D1*
X3083923Y1921070D1*
X3094623Y1900413D1*
X3096350Y1896080D1*
X3097930Y1891687D1*
X3099367Y1887247D1*
X3100653Y1882763D1*
X3101790Y1878237D1*
X3102290Y1875927D1*
Y1959297D1*
X9288857Y1448780D2*
X9258867D1*
X9258860Y1837110D1*
X9254207Y1832407D1*
X9248300Y1827283D1*
X9241993Y1822657D1*
X9235333Y1818563D1*
X9228360Y1815023D1*
X9221123Y1812063D1*
X9213667Y1809707D1*
X9206047Y1807963D1*
X9198307Y1806847D1*
X9190503Y1806363D1*
X9182683Y1806520D1*
X9174907Y1807313D1*
X9167217Y1808737D1*
X9159670Y1810783D1*
X9152317Y1813437D1*
X9145200Y1816683D1*
X9138377Y1820497D1*
X9131883Y1824853D1*
X9125767Y1829727D1*
X9120070Y1835080D1*
X9114827Y1840883D1*
X9110077Y1847090D1*
X9105843Y1853667D1*
X9102163Y1860567D1*
X9099060Y1867743D1*
X9096547Y1875147D1*
X9094650Y1882733D1*
X9093377Y1890447D1*
X9092733Y1898240D1*
X9092730Y1906060D1*
X9093367Y1913853D1*
X9094633Y1921570D1*
X9096523Y1929157D1*
X9099027Y1936563D1*
X9102127Y1943743D1*
X9105800Y1950643D1*
X9110023Y1957223D1*
X9111253Y1958833D1*
X9060503Y1958837D1*
X9072860Y1940633D1*
X9081017Y1919013D1*
X9083760Y1896240D1*
X9080933Y1873137D1*
X9072703Y1851547D1*
X9070273Y1848040D1*
X9070260Y1483820D1*
X9066977Y1460797D1*
X9057373Y1439593D1*
X9059883Y1438710D1*
X9082440Y1433770D1*
X9104067Y1425673D1*
X9124320Y1414577D1*
X9142787Y1400713D1*
X9159093Y1384363D1*
X9163397Y1378597D1*
X9168457Y1384697D1*
X9184807Y1401003D1*
X9203313Y1414817D1*
X9223597Y1425857D1*
X9245243Y1433897D1*
X9267817Y1438773D1*
X9288940Y1440257D1*
X9288867Y1448783D1*
X3048533Y7041013D2*
X3102267D1*
X3102283Y7124300D1*
X3097837Y7108387D1*
X3088487Y7087087D1*
X3086197Y7083020D1*
X3072830Y7063983D1*
X3056510Y7047403D1*
X3047703Y7041013D1*
X3105493Y7005033D2*
Y6928380D1*
X3107280Y6935827D1*
X3108560Y6940313D1*
X3109977Y6944760D1*
X3111540Y6949157D1*
X3113237Y6953503D1*
X3115073Y6957793D1*
X3117047Y6962023D1*
X3119150Y6966187D1*
X3121387Y6970283D1*
X3134290Y6989377D1*
X3148897Y7005013D1*
X3105483D1*
X2832577Y5818217D2*
X2606700Y5818213D1*
X2617797Y5805170D1*
X2629803Y5785500D1*
X2638580Y5764197D1*
X2643920Y5741780D1*
X2645687Y5719070D1*
X2643837Y5695833D1*
X2638417Y5673437D1*
X2629560Y5652163D1*
X2617483Y5632537D1*
X2615567Y5630300D1*
X3249807Y5630310D1*
X3557027Y5937563D1*
X3547773Y5946840D1*
X3533960Y5965347D1*
X3522920Y5985630D1*
X3514880Y6007277D1*
X3510003Y6029850D1*
X3508387Y6052883D1*
X3510067Y6075917D1*
X3515007Y6098473D1*
X3523103Y6120100D1*
X3534200Y6140353D1*
X3548063Y6158820D1*
X3564413Y6175127D1*
X3570180Y6179430D1*
X3570193Y6179900D1*
X3564080Y6184490D1*
X3547773Y6200840D1*
X3533960Y6219347D1*
X3522920Y6239630D1*
X3514880Y6261277D1*
X3510003Y6283850D1*
X3508387Y6306883D1*
X3510067Y6329917D1*
X3515007Y6352473D1*
X3523103Y6374100D1*
X3534200Y6394353D1*
X3548063Y6412820D1*
X3564413Y6429127D1*
X3582920Y6442940D1*
X3603203Y6453980D1*
X3624850Y6462020D1*
X3647423Y6466897D1*
X3670457Y6468513D1*
X3693490Y6466833D1*
X3716047Y6461893D1*
X3737673Y6453797D1*
X3757927Y6442700D1*
X3762380Y6439357D1*
X3762387Y6468513D1*
X4086087D1*
Y6261270D1*
X4110697Y6236663D1*
X4110687Y6495423D1*
X4110290Y6495413D1*
Y6543927D1*
X4052227Y6543913D1*
X4045930Y6542390D1*
X4030037Y6540813D1*
X3959037D1*
X3936027Y6544157D1*
X3914920Y6553910D1*
X3897460Y6569270D1*
X3885093Y6588963D1*
X3878847Y6611380D1*
X3878187Y6621770D1*
Y6652617D1*
X3860897Y6647493D1*
X3839477Y6638440D1*
X3819037Y6635813D1*
X3748093D1*
X3735093Y6636857D1*
X3712893Y6643853D1*
X3702137Y6649813D1*
X3698350D1*
X2890870Y5842337D1*
X2872270Y5828380D1*
X2850487Y5820177D1*
X2832577Y5818217D1*
X7712460Y3234887D2*
Y2980753D1*
X7388760D1*
Y3009547D1*
X7383927Y3006323D1*
X7363643Y2995283D1*
X7341997Y2987243D1*
X7319423Y2982363D1*
X7296387Y2980750D1*
X7273357Y2982427D1*
X7250800Y2987367D1*
X7229173Y2995467D1*
X7208920Y3006560D1*
X7190453Y3020427D1*
X7174147Y3036777D1*
X7169843Y3042540D1*
X7164783Y3036437D1*
X7148430Y3020130D1*
X7129927Y3006317D1*
X7109643Y2995277D1*
X7087997Y2987237D1*
X7065423Y2982360D1*
X7042387Y2980743D1*
X7019357Y2982423D1*
X6996800Y2987360D1*
X6975173Y2995460D1*
X6954920Y3006557D1*
X6936453Y3020420D1*
X6920147Y3036770D1*
X6915843Y3042537D1*
X6910783Y3036430D1*
X6894430Y3020123D1*
X6875927Y3006310D1*
X6855643Y2995270D1*
X6833997Y2987230D1*
X6811423Y2982353D1*
X6788387Y2980737D1*
X6765357Y2982417D1*
X6742800Y2987357D1*
X6721173Y2995457D1*
X6700920Y3006550D1*
X6682453Y3020413D1*
X6666147Y3036767D1*
X6661843Y3042530D1*
X6656783Y3036427D1*
X6640430Y3020120D1*
X6621927Y3006307D1*
X6601643Y2995267D1*
X6579997Y2987227D1*
X6557423Y2982347D1*
X6534387Y2980733D1*
X6511357Y2982410D1*
X6488800Y2987350D1*
X6467173Y2995450D1*
X6446920Y3006543D1*
X6428453Y3020410D1*
X6412147Y3036760D1*
X6407843Y3042523D1*
X6402783Y3036420D1*
X6386430Y3020113D1*
X6367927Y3006300D1*
X6347643Y2995260D1*
X6325997Y2987220D1*
X6303423Y2982343D1*
X6280387Y2980727D1*
X6257357Y2982407D1*
X6234800Y2987343D1*
X6213173Y2995443D1*
X6192920Y3006540D1*
X6174453Y3020403D1*
X6158147Y3036753D1*
X6144333Y3055260D1*
X6133293Y3075543D1*
X6125253Y3097190D1*
X6120377Y3119760D1*
X6118760Y3142797D1*
X6120440Y3165830D1*
X6125377Y3188387D1*
X6133477Y3210013D1*
X6144573Y3230263D1*
X6158437Y3248733D1*
X6162763Y3253047D1*
X6118680Y3253063D1*
X6118697Y3213277D1*
Y2990467D1*
X5840300D1*
X6522590Y2308170D1*
X7001813Y2308187D1*
X8485873D1*
X8478347Y2328540D1*
X8475603Y2351483D1*
X8478430Y2374417D1*
X8486660Y2396007D1*
X8489090Y2399513D1*
X8489103Y2552003D1*
X8479697Y2544620D1*
X8459217Y2533920D1*
X8436770Y2528430D1*
X8413663Y2528470D1*
X8391240Y2534040D1*
X8370797Y2544813D1*
X8353530Y2560167D1*
X8340437Y2579207D1*
X8332280Y2600827D1*
X8329537Y2623770D1*
X8332033Y2644040D1*
X7741160Y3234897D1*
X7712467Y3234883D1*
X4749843Y2351193D2*
X5008767D1*
Y2084493D1*
X4742067D1*
Y2351193D1*
X4749843D1*
X3917160Y6721820D2*
X3938597Y6730887D1*
X3943147Y6731937D1*
X3942270Y6732570D1*
X3938487Y6733467D1*
X3934750Y6734547D1*
X3931070Y6735803D1*
X3927457Y6737237D1*
X3920453Y6740613D1*
X3913807Y6744647D1*
X3907580Y6749303D1*
X3901823Y6754540D1*
X3899887Y6732163D1*
Y6716710D1*
X3917160Y6721820D1*
X4047560Y6731593D2*
X4052087Y6730450D1*
X4056537Y6729047D1*
X4060900Y6727390D1*
X4080907Y6715500D1*
X4109253Y6708613D1*
X4110280D1*
X4110283Y6801813D1*
X4109843Y6798717D1*
X4109130Y6794897D1*
X4108230Y6791113D1*
X4107153Y6787377D1*
X4105897Y6783697D1*
X4104463Y6780083D1*
X4102860Y6776540D1*
X4101087Y6773080D1*
X4097050Y6766433D1*
X4092397Y6760207D1*
X4087167Y6754453D1*
X4081407Y6749230D1*
X4075173Y6744587D1*
X4068520Y6740560D1*
X4061513Y6737193D1*
X4054213Y6734513D1*
X4050477Y6733440D1*
X4046690Y6732547D1*
X4047560Y6731593D1*
X2874420Y7544923D2*
X2878457Y7542573D1*
X2882357Y7540013D1*
X2886117Y7537250D1*
X2889727Y7534290D1*
X2893187Y7531127D1*
X2897300Y7532087D1*
X2874420Y7544923D1*
X2767140Y7553140D2*
X2745473Y7544603D1*
X2726830Y7530687D1*
X2712493Y7512367D1*
X2703467Y7490923D1*
X2700387Y7467863D1*
X2700377Y7398187D1*
X2422047Y7119840D1*
X2408110Y7101203D1*
X2404860Y7094870D1*
X1642950Y6332960D1*
X1630053Y6323480D1*
X1608620Y6314417D1*
X1590197Y6300203D1*
X1287587Y5997607D1*
X1281330D1*
X1260110Y5995030D1*
X1238467Y5986493D1*
X1219823Y5972577D1*
X1205487Y5954257D1*
X1196463Y5932813D1*
X1193383Y5909753D1*
X1193380Y5903387D1*
X1097763Y5807760D1*
X1097750Y5968457D1*
X1097970Y5971090D1*
X1098560Y5972827D1*
X2301313Y7897653D1*
X2303157Y7900110D1*
X2304687Y7901333D1*
X2306737Y7902000D1*
X2309627Y7902247D1*
X2792713D1*
X2801980Y7895227D1*
X2794560Y7873153D1*
X2792050Y7850000D1*
X2792060Y7648433D1*
X2794910Y7625320D1*
X2802647Y7603353D1*
X2814917Y7583560D1*
X2831147Y7566860D1*
X2834803Y7563960D1*
X2838583Y7561223D1*
X2842477Y7558653D1*
X2846477Y7556253D1*
X2850583Y7554023D1*
X2848153Y7554260D1*
X2843543Y7554983D1*
X2838903Y7555460D1*
X2834220Y7555687D1*
X2788343Y7555713D1*
X2767140Y7553140D1*
X3065430Y7527833D2*
X3078933Y7508863D1*
X3086970Y7487030D1*
X3089087Y7467863D1*
Y7379863D1*
X3086007Y7356803D1*
X3076980Y7335360D1*
X3062623Y7317027D1*
X3046983Y7304853D1*
X3047000Y7268147D1*
X3049627Y7266480D1*
X3066953Y7250957D1*
X3081490Y7232797D1*
X3092840Y7212490D1*
X3094700Y7208210D1*
X3096420Y7203873D1*
X3097993Y7199480D1*
X3099423Y7195037D1*
X3100703Y7190550D1*
X3101833Y7186020D1*
X3102287Y7183913D1*
X3102283Y7298713D1*
X3395983D1*
Y7005013D1*
X3349570D1*
X3357490Y6996983D1*
X3371663Y6978813D1*
X3382817Y6958650D1*
X3390680Y6936990D1*
X3395060Y6914367D1*
X3395990Y6897863D1*
X3394140Y6874627D1*
X3388720Y6852230D1*
X3379863Y6830957D1*
X3367787Y6811333D1*
X3352790Y6793837D1*
X3335240Y6778903D1*
X3315570Y6766900D1*
X3294267Y6758120D1*
X3271850Y6752780D1*
X3248873Y6751013D1*
X3225903Y6752863D1*
X3203507Y6758283D1*
X3182233Y6767140D1*
X3162607Y6779217D1*
X3145113Y6794213D1*
X3130180Y6811763D1*
X3118173Y6831433D1*
X3116130Y6835627D1*
X3114220Y6839883D1*
X3112447Y6844200D1*
X3110810Y6848570D1*
X3109313Y6852990D1*
X3107957Y6857457D1*
X3106747Y6861963D1*
X3105493Y6867357D1*
Y6759313D1*
X2823793D1*
Y7041013D1*
X2880737D1*
X2876137Y7044587D1*
X2859307Y7060647D1*
X2845353Y7079257D1*
X2834650Y7099913D1*
X2827493Y7122047D1*
X2824077Y7145057D1*
X2824497Y7168317D1*
X2828737Y7191190D1*
X2836683Y7213053D1*
X2848123Y7233310D1*
X2862737Y7251407D1*
X2880133Y7266850D1*
X2882270Y7268193D1*
X2882283Y7307650D1*
X2873213Y7302160D1*
X2853863Y7294710D1*
X2569607Y7010453D1*
X2568277Y7007703D1*
X2555190Y6988463D1*
X2551477Y6984523D1*
X1738717Y6171763D1*
X1723710Y6159637D1*
X1702683Y6149620D1*
X1686213Y6139260D1*
X1534710Y5987753D1*
X1540450Y5984480D1*
X1558440Y5969730D1*
X1571937Y5950753D1*
X1589453Y5948117D1*
X1615483D1*
X1626797Y5947343D1*
X1649153Y5940940D1*
X1668830Y5928543D1*
X1673763Y5923997D1*
X1794440Y5803320D1*
X1964563Y5803307D1*
X1967313Y5807510D1*
X1983073Y5824620D1*
X2001433Y5838900D1*
X2021897Y5849967D1*
X2043900Y5857513D1*
X2066847Y5861333D1*
X2090110Y5861327D1*
X2100397Y5859607D1*
X2090153Y5877890D1*
X2086133Y5899417D1*
X2089397Y5921070D1*
X2099580Y5940457D1*
X2105410Y5947130D1*
X2211477Y6053197D1*
X2229320Y6065890D1*
X2250340Y6072030D1*
X2272213Y6070940D1*
X2292533Y6062723D1*
X2304690Y6053110D1*
X2374887Y5982910D1*
X2798510Y5982917D1*
X3253017Y6437407D1*
X3605973Y6790363D1*
X3618317Y6800523D1*
X3639260Y6810633D1*
X3662193Y6814487D1*
X3702553Y6814513D1*
X3706177Y6816833D1*
X3727597Y6825887D1*
X3748037Y6828513D1*
X3819037D1*
X3842047Y6825170D1*
X3863173Y6815400D1*
X3878187Y6819413D1*
X3878197Y6810443D1*
X3878687Y6802677D1*
X3878187Y6819413D1*
Y6842610D1*
X3878353Y6847883D1*
X3879230Y6855607D1*
X3880840Y6863213D1*
X3883177Y6870630D1*
X3886213Y6877787D1*
X3889923Y6884620D1*
X3894273Y6891063D1*
X3899223Y6897060D1*
X3904723Y6902553D1*
X3907667Y6905097D1*
X3910730Y6907497D1*
X3910370Y6908317D1*
X3906483Y6908143D1*
X3902597Y6908127D1*
X3898710Y6908267D1*
X3894833Y6908567D1*
X3887087Y6909643D1*
X3879457Y6911347D1*
X3871990Y6913667D1*
X3864737Y6916587D1*
X3857743Y6920090D1*
X3851063Y6924150D1*
X3844733Y6928740D1*
X3838800Y6933833D1*
X3833300Y6939390D1*
X3828273Y6945380D1*
X3823750Y6951760D1*
X3819763Y6958483D1*
X3816337Y6965513D1*
X3813493Y6972797D1*
X3811257Y6980290D1*
X3809637Y6987940D1*
X3808643Y6995693D1*
X3808287Y7003507D1*
X3808570Y7011320D1*
X3809487Y7019087D1*
X3811033Y7026750D1*
X3813200Y7034263D1*
X3815973Y7041573D1*
X3819333Y7048633D1*
X3823257Y7055400D1*
X3827717Y7061820D1*
X3832687Y7067857D1*
X3838133Y7073467D1*
X3844017Y7078617D1*
X3850303Y7083267D1*
X3856947Y7087393D1*
X3863903Y7090960D1*
X3871130Y7093950D1*
X3878573Y7096340D1*
X3886187Y7098117D1*
X3893923Y7099267D1*
X3901723Y7099783D1*
X3909543Y7099660D1*
X3917323Y7098903D1*
X3925020Y7097510D1*
X3932573Y7095497D1*
X3939940Y7092873D1*
X3947070Y7089660D1*
X3953910Y7085877D1*
X3960423Y7081547D1*
X3966560Y7076700D1*
X3972280Y7071370D1*
X3977547Y7065593D1*
X3982327Y7059403D1*
X3986587Y7052847D1*
X3990297Y7045963D1*
X3993433Y7038800D1*
X3995973Y7031407D1*
X3997907Y7023830D1*
X3999213Y7016120D1*
X3999887Y7008330D1*
X3999987Y7003963D1*
X3999670Y6996193D1*
X3998720Y6988433D1*
X3997140Y6980777D1*
X3994940Y6973273D1*
X3992137Y6965973D1*
X3988747Y6958927D1*
X3984793Y6952180D1*
X3980307Y6945777D1*
X3975310Y6939763D1*
X3969840Y6934177D1*
X3963933Y6929053D1*
X3960843Y6926687D1*
X3957663Y6924450D1*
X3956127Y6923463D1*
X3959037Y6923513D1*
X4030037D1*
X4037803Y6923140D1*
X4045497Y6922023D1*
X4053047Y6920170D1*
X4060387Y6917600D1*
X4067443Y6914340D1*
X4074153Y6910417D1*
X4080460Y6905863D1*
X4086297Y6900730D1*
X4091613Y6895057D1*
X4096360Y6888900D1*
X4100497Y6882317D1*
X4103980Y6875367D1*
X4105467Y6871773D1*
X4106777Y6868110D1*
X4107913Y6864393D1*
X4108867Y6860623D1*
X4109640Y6856813D1*
X4110230Y6852950D1*
X4110283Y6864303D1*
Y6947113D1*
X4391983D1*
X4391990Y6555703D1*
X4392387Y6555713D1*
Y6104013D1*
X4338407D1*
X4338387Y5985193D1*
X4343447Y5989150D1*
X4349933Y5993513D1*
X4356757Y5997337D1*
X4363867Y6000587D1*
X4371220Y6003247D1*
X4378767Y6005300D1*
X4386453Y6006730D1*
X4394230Y6007530D1*
X4402047Y6007693D1*
X4409853Y6007220D1*
X4417593Y6006110D1*
X4425217Y6004373D1*
X4432673Y6002023D1*
X4439913Y5999070D1*
X4446890Y5995537D1*
X4453553Y5991447D1*
X4459863Y5986830D1*
X4464490Y5982827D1*
X4464487Y6141213D1*
X4466030Y6157130D1*
X4473687Y6179090D1*
X4487180Y6198030D1*
X4536043Y6246933D1*
X4546263Y6257140D1*
X4545030Y6262847D1*
X4543413Y6285883D1*
X4545093Y6308913D1*
X4550033Y6331473D1*
X4558133Y6353097D1*
X4569227Y6373350D1*
X4583090Y6391820D1*
X4599443Y6408123D1*
X4605207Y6412427D1*
Y6412900D1*
X4599093Y6417490D1*
X4582787Y6433840D1*
X4568973Y6452347D1*
X4557933Y6472630D1*
X4549893Y6494277D1*
X4545017Y6516847D1*
X4543400Y6539883D1*
X4545080Y6562913D1*
X4550017Y6585473D1*
X4558117Y6607097D1*
X4569213Y6627350D1*
X4572557Y6631807D1*
X4543387Y6631813D1*
Y6955513D1*
X4867087D1*
Y6631813D1*
X4838307D1*
X4841527Y6626980D1*
X4852567Y6606697D1*
X4860607Y6585047D1*
X4865483Y6562477D1*
X4867100Y6539663D1*
X4865420Y6516410D1*
X4863900Y6509470D1*
X4965933Y6407463D1*
X4978063Y6392453D1*
X4988077Y6371447D1*
X4992427Y6348587D1*
X4992587Y6343177D1*
X4992583Y5917723D1*
X5135727D1*
X5765107Y6547093D1*
X5783707Y6561050D1*
X5805490Y6569253D1*
X5823403Y6571213D1*
X9062597D1*
X9077810Y6578543D1*
X9100257Y6584033D1*
X9123363Y6583993D1*
X9145787Y6578423D1*
X9166230Y6567650D1*
X9183497Y6552297D1*
X9196590Y6533257D1*
X9204747Y6511637D1*
X9207490Y6488863D1*
X9204663Y6465760D1*
X9196433Y6444170D1*
X9183273Y6425177D1*
X9165950Y6409883D1*
X9145470Y6399183D1*
X9123023Y6393693D1*
X9099917Y6393733D1*
X9077493Y6399303D1*
X9063817Y6406510D1*
X5857430Y6406513D1*
X5222590Y5771657D1*
X5222587Y5636023D1*
X5141763D1*
X5056643Y5550910D1*
X5048530Y5529770D1*
X5035370Y5510777D1*
X5032137Y5507923D1*
X5256503Y5507913D1*
X6063397Y6314803D1*
X6081820Y6329017D1*
X6103253Y6338080D1*
X6126307Y6341400D1*
X7588743Y6341413D1*
X8045637D1*
X8068713Y6338433D1*
X8090277Y6329690D1*
X8108927Y6315737D1*
X9060977Y5363703D1*
X9075190Y5345280D1*
X9084253Y5323847D1*
X9087573Y5300793D1*
X9087587Y4621017D1*
X9089843Y4613237D1*
X9092587Y4590463D1*
X9089760Y4567360D1*
X9081530Y4545770D1*
X9068370Y4526777D1*
X9051047Y4511483D1*
X9030567Y4500783D1*
X9008120Y4495293D1*
X8985013Y4495333D1*
X8962590Y4500903D1*
X8942147Y4511677D1*
X8924880Y4527030D1*
X8911787Y4546070D1*
X8903630Y4567690D1*
X8900887Y4590633D1*
X8903713Y4613567D1*
X8905890Y4619280D1*
X8905887Y5261847D1*
X8833417Y5334310D1*
X8834613Y5312893D1*
X8831267Y5289840D1*
X8828850Y5283093D1*
X8828847Y3968690D1*
X8826520Y3945513D1*
X8819637Y3923257D1*
X8808453Y3902800D1*
X8794633Y3886160D1*
X8418310Y3509837D1*
X8400277Y3495090D1*
X8379673Y3484223D1*
X8357297Y3477667D1*
X8335760Y3475670D1*
X7907143Y3475677D1*
X8629683Y2753133D1*
X8643640Y2734533D1*
X8651843Y2712750D1*
X8653803Y2694630D1*
X8653807Y2399480D1*
X8656403Y2395707D1*
X8664560Y2374087D1*
X8667303Y2351313D1*
X8664477Y2328210D1*
X8656847Y2308200D1*
X9101813Y2308187D1*
X9116190D1*
X9820530Y3012533D1*
X9817253Y3010653D1*
X9813143Y3008447D1*
X9808967Y3006360D1*
X9804737Y3004397D1*
X9800447Y3002553D1*
X9796110Y3000837D1*
X9791723Y2999243D1*
X9787293Y2997780D1*
X9782820Y2996443D1*
X9778313Y2995237D1*
X9755577Y2991197D1*
X9732497Y2990437D1*
X9709543Y2992967D1*
X9687183Y2998737D1*
X9665873Y3007633D1*
X9646567Y3019157D1*
X9646560Y2990317D1*
X9322860D1*
Y3314017D1*
X9351640D1*
X9348433Y3318850D1*
X9337393Y3339133D1*
X9329353Y3360780D1*
X9324477Y3383353D1*
X9322860Y3406387D1*
X9324540Y3429420D1*
X9329480Y3451977D1*
X9337577Y3473603D1*
X9348673Y3493857D1*
X9362537Y3512323D1*
X9378887Y3528630D1*
X9384653Y3532933D1*
X9378553Y3537993D1*
X9362247Y3554343D1*
X9348433Y3572850D1*
X9337393Y3593133D1*
X9329353Y3614780D1*
X9324477Y3637353D1*
X9322860Y3660387D1*
X9324540Y3683420D1*
X9329480Y3705977D1*
X9337577Y3727603D1*
X9348673Y3747857D1*
X9362537Y3766323D1*
X9378887Y3782630D1*
X9397393Y3796443D1*
X9417677Y3807483D1*
X9439323Y3815523D1*
X9461897Y3820400D1*
X9484930Y3822017D1*
X9507963Y3820337D1*
X9530520Y3815397D1*
X9552147Y3807300D1*
X9572400Y3796203D1*
X9590867Y3782340D1*
X9607173Y3765990D1*
X9611477Y3760223D1*
X9616537Y3766323D1*
X9632887Y3782630D1*
X9651393Y3796443D1*
X9671677Y3807483D1*
X9693323Y3815523D1*
X9715897Y3820400D1*
X9738930Y3822017D1*
X9761963Y3820337D1*
X9784520Y3815397D1*
X9806147Y3807300D1*
X9826400Y3796203D1*
X9844867Y3782340D1*
X9861173Y3765990D1*
X9874987Y3747483D1*
X9886027Y3727200D1*
X9894067Y3705553D1*
X9898943Y3682980D1*
X9900560Y3660167D1*
X9898880Y3636913D1*
X9893940Y3614357D1*
X9885843Y3592730D1*
X9874747Y3572477D1*
X9860883Y3554010D1*
X9844533Y3537703D1*
X9838767Y3533400D1*
X9844867Y3528340D1*
X9861173Y3511990D1*
X9874987Y3493483D1*
X9886027Y3473200D1*
X9894067Y3451553D1*
X9898943Y3428980D1*
X9900560Y3406167D1*
X9898880Y3382913D1*
X9893940Y3360357D1*
X9885843Y3338730D1*
X9874747Y3318477D1*
X9860883Y3300010D1*
X9844533Y3283703D1*
X9838767Y3279400D1*
X9849317Y3270327D1*
X9865007Y3253383D1*
X9878127Y3234377D1*
X9888407Y3213700D1*
X9895640Y3191770D1*
X9899680Y3169033D1*
X9900560Y3152167D1*
X9898880Y3128913D1*
X9893940Y3106357D1*
X9885843Y3084730D1*
X9883837Y3080517D1*
X9881710Y3076363D1*
X9878330Y3070333D1*
X10038197Y3230200D1*
X10056797Y3244157D1*
X10078580Y3252360D1*
X10096483Y3254320D1*
X10105137Y3254310D1*
X10114877Y3268113D1*
X10130913Y3284730D1*
X10149300Y3298707D1*
X10149757Y3298953D1*
X10146890Y3300820D1*
X10140560Y3305320D1*
X10134470Y3310140D1*
X10128633Y3315270D1*
X10123070Y3320693D1*
X10117797Y3326393D1*
X10112820Y3332360D1*
X10108157Y3338573D1*
X10103820Y3345017D1*
X10099823Y3351677D1*
X10096173Y3358533D1*
X10092880Y3365570D1*
X10089953Y3372767D1*
X10087400Y3380103D1*
X10085230Y3387563D1*
X10083447Y3395123D1*
X10082053Y3402763D1*
X10081057Y3410470D1*
X10080460Y3418213D1*
X10080260Y3425980D1*
X10080460Y3433743D1*
X10081060Y3441490D1*
X10082057Y3449193D1*
X10083450Y3456837D1*
X10085237Y3464397D1*
X10087407Y3471853D1*
X10089960Y3479190D1*
X10092887Y3486387D1*
X10096180Y3493423D1*
X10099830Y3500280D1*
X10103830Y3506940D1*
X10108167Y3513383D1*
X10112830Y3519597D1*
X10117807Y3525560D1*
X10123083Y3531260D1*
X10128647Y3536683D1*
X10134483Y3541810D1*
X10140573Y3546630D1*
X10146907Y3551133D1*
X10149740Y3552937D1*
X10148923Y3553470D1*
X10130577Y3567497D1*
X10114583Y3584160D1*
X10101323Y3603070D1*
X10091107Y3623780D1*
X10084170Y3645810D1*
X10080677Y3668637D1*
X10080710Y3691733D1*
X10084267Y3714553D1*
X10091267Y3736560D1*
X10101547Y3757243D1*
X10114860Y3776113D1*
X10130897Y3792730D1*
X10149283Y3806707D1*
X10149740Y3806953D1*
X10148913Y3807470D1*
X10130567Y3821497D1*
X10114577Y3838160D1*
X10101317Y3857070D1*
X10091097Y3877780D1*
X10084160Y3899810D1*
X10080670Y3922637D1*
X10080700Y3945733D1*
X10084260Y3968553D1*
X10091260Y3990560D1*
X10101537Y4011243D1*
X10114850Y4030113D1*
X10130890Y4046730D1*
X10149277Y4060707D1*
X10169580Y4071710D1*
X10191327Y4079487D1*
X10214007Y4083850D1*
X10237087Y4084700D1*
X10260023Y4082020D1*
X10282287Y4075867D1*
X10303347Y4066390D1*
X10322713Y4053810D1*
X10339933Y4038420D1*
X10354600Y4020580D1*
X10366373Y4000713D1*
X10374977Y3979280D1*
X10380207Y3956783D1*
X10381943Y3933970D1*
X10380140Y3910730D1*
X10374847Y3888250D1*
X10366183Y3866843D1*
X10354353Y3847007D1*
X10339633Y3829210D1*
X10322370Y3813870D1*
X10312080Y3807227D1*
X10322720Y3799810D1*
X10339940Y3784420D1*
X10351130Y3770813D1*
X10661013Y3770820D1*
X10681737Y3768490D1*
X10703550Y3760390D1*
X10722593Y3747017D1*
X10737613Y3729247D1*
X10747627Y3708240D1*
X10751977Y3685383D1*
X10752137Y3679970D1*
Y2555797D1*
X10749157Y2532720D1*
X10740413Y2511157D1*
X10726460Y2492507D1*
X10538107Y2304140D1*
Y2069267D1*
X10525870D1*
X10525887Y1876500D1*
X10542053D1*
X10542050Y2199950D1*
X10543400Y2217027D1*
X10549533Y2239493D1*
X10560343Y2260123D1*
X10575323Y2277953D1*
X10593780Y2292153D1*
X10614850Y2302067D1*
X10637560Y2307230D1*
X10650000Y2307950D1*
X10849950D1*
X10867027Y2306600D1*
X10889513Y2300457D1*
X10902250Y2294480D1*
X10902253Y6705527D1*
X10900810Y6704753D1*
X10879200Y6696073D1*
X10856210Y6692230D1*
X10830000Y6692050D1*
X10650277D1*
X10632973Y6693400D1*
X10610507Y6699533D1*
X10589880Y6710340D1*
X10572050Y6725320D1*
X10557847Y6743777D1*
X10547933Y6764850D1*
X10542760Y6787700D1*
X10298857D1*
Y7119400D1*
X10324217D1*
X10324297Y7120027D1*
X10321077Y7125197D1*
X10233873Y7125203D1*
X10003977Y6895297D1*
X9985377Y6881340D1*
X9963593Y6873137D1*
X9945677Y6871177D1*
X9854040Y6871173D1*
X9851010Y6865490D1*
X9837390Y6846787D1*
X9821300Y6830160D1*
X9803053Y6815933D1*
X9783000Y6804383D1*
X9761540Y6795740D1*
X9739083Y6790167D1*
X9716067Y6787773D1*
X9692943Y6788603D1*
X9670163Y6792647D1*
X9648163Y6799820D1*
X9627377Y6809983D1*
X9608210Y6822943D1*
X9591030Y6838443D1*
X9576177Y6856187D1*
X9563937Y6875820D1*
X9554547Y6896970D1*
X9548193Y6919217D1*
X9544997Y6942133D1*
X9545023Y6965273D1*
X9548267Y6988180D1*
X9554667Y7010417D1*
X9564103Y7031543D1*
X9576383Y7051153D1*
X9591277Y7068863D1*
X9604033Y7080323D1*
X9604023Y7080713D1*
X9591023Y7092443D1*
X9576170Y7110187D1*
X9566833Y7125160D1*
X9128267Y7125177D1*
X9105243Y7128460D1*
X9084040Y7138063D1*
X9069990Y7149343D1*
X8728237Y7491083D1*
X8545633D1*
X8545620Y7902227D1*
X8398953Y7902247D1*
X7856423D1*
X7849660Y7901357D1*
X7849167Y7901100D1*
X7848787Y7900687D1*
X7848643Y7900340D1*
X7847750Y7893583D1*
Y7378623D1*
X7846990Y7362427D1*
X7845497Y7351297D1*
X7844297Y7343237D1*
X7841720Y7332310D1*
X7839740Y7324407D1*
X7836110Y7313787D1*
X7833363Y7306117D1*
X7828713Y7295903D1*
X7825233Y7288537D1*
X7823757Y7285767D1*
X7815427Y7271920D1*
X7759537Y7188030D1*
X7757990Y7185903D1*
X7742790Y7166717D1*
X7739220Y7162900D1*
X7719093Y7144643D1*
X7714953Y7141463D1*
X7692117Y7126730D1*
X7687507Y7124267D1*
X7662570Y7113460D1*
X7657630Y7111783D1*
X7631267Y7105187D1*
X7626113Y7104340D1*
X7601750Y7102357D1*
X7599163Y7102250D1*
X4401023Y7102247D1*
X4398300Y7102350D1*
X4373907Y7104330D1*
X4368747Y7105180D1*
X4342370Y7111777D1*
X4337417Y7113460D1*
X4312470Y7124277D1*
X4307857Y7126747D1*
X4285013Y7141493D1*
X4280867Y7144683D1*
X4260740Y7162970D1*
X4257170Y7166790D1*
X4242000Y7185970D1*
X4240477Y7188067D1*
X4183727Y7273260D1*
X4176223Y7285810D1*
X4174750Y7288570D1*
X4167817Y7303260D1*
X4166613Y7306163D1*
X4161153Y7321463D1*
X4160243Y7324463D1*
X4156303Y7340223D1*
X4155690Y7343303D1*
X4153313Y7359373D1*
X4153007Y7362487D1*
X4152250Y7378670D1*
X4152253Y7893600D1*
X4151297Y7900537D1*
X4151000Y7901000D1*
X4150540Y7901293D1*
X4148033Y7901667D1*
X4143593Y7902250D1*
X3694440D1*
X3702067Y7885150D1*
X3707230Y7862440D1*
X3707950Y7850000D1*
Y7650000D1*
X3705440Y7626847D1*
X3698020Y7604773D1*
X3686040Y7584803D1*
X3670053Y7567867D1*
X3650810Y7554753D1*
X3629200Y7546073D1*
X3606210Y7542230D1*
X3599930Y7542050D1*
X3048270D1*
X3065430Y7527833D1*
X7311847Y5947690D2*
X7308263D1*
Y6159717D1*
X7003580Y6159713D1*
X7003603Y6063750D1*
Y5961873D1*
X7018910Y5950120D1*
X7035217Y5933770D1*
X7039520Y5928003D1*
X7044580Y5934110D1*
X7060933Y5950417D1*
X7079437Y5964230D1*
X7099720Y5975270D1*
X7121367Y5983310D1*
X7143940Y5988190D1*
X7166977Y5989803D1*
X7190007Y5988127D1*
X7212563Y5983187D1*
X7234190Y5975087D1*
X7254443Y5963993D1*
X7272910Y5950127D1*
X7289217Y5933777D1*
X7293520Y5928010D1*
X7298580Y5934117D1*
X7312200Y5947703D1*
X10069570Y1766097D2*
X10069577Y1640643D1*
X10114193Y1685260D1*
X10114187Y1750043D1*
X10069553Y1794673D1*
X10069570Y1766080D1*
X1843170Y5528657D2*
X1821920Y5538183D1*
X1798917Y5541787D1*
X1753040Y5541810D1*
X1731813Y5539233D1*
X1710170Y5530700D1*
X1691527Y5516783D1*
X1685773Y5510613D1*
X1570390Y5510623D1*
X1570380Y5740613D1*
X1527870D1*
X1537007Y5745033D1*
X1555650Y5758950D1*
X1569993Y5777293D1*
X1573273Y5783417D1*
X1581430Y5783410D1*
X1702063Y5662777D1*
X1716127Y5651487D1*
X1737313Y5641897D1*
X1760337Y5638613D1*
X1964563D1*
X1967257Y5634483D1*
X1983007Y5617367D1*
X2001360Y5603070D1*
X2021817Y5591993D1*
X2043817Y5584433D1*
X2066760Y5580597D1*
X2090023Y5580590D1*
X2112970Y5584410D1*
X2134973Y5591957D1*
X2155437Y5603023D1*
X2173797Y5617307D1*
X2189560Y5634417D1*
X2202287Y5653887D1*
X2211640Y5675187D1*
X2217357Y5697737D1*
X2219287Y5720963D1*
X2218613Y5734720D1*
X2223563Y5738397D1*
X2243870Y5730193D1*
X2265740Y5729103D1*
X2286760Y5735243D1*
X2304603Y5747937D1*
X2374873Y5818217D1*
X2391013Y5818227D1*
X2380190Y5805600D1*
X2368113Y5785977D1*
X2359257Y5764703D1*
X2353837Y5742303D1*
X2351987Y5719337D1*
X2352647Y5710743D1*
X2339733Y5716590D1*
X2318080Y5719850D1*
X2296553Y5715833D1*
X2277520Y5704960D1*
X2272637Y5700540D1*
X2158120Y5586020D1*
X2152290Y5579347D1*
X2142107Y5559957D1*
X2138843Y5538303D1*
X2142873Y5516760D1*
X2151367Y5500817D1*
X2040260D1*
X2030143Y5513923D1*
X2012153Y5528677D1*
X1990923Y5538187D1*
X1967917Y5541790D1*
X1921933Y5541817D1*
X1902767Y5539697D1*
X1880933Y5531660D1*
X1861963Y5518157D1*
X1843170Y5528657D1*
X10334190Y1429397D2*
X10538110D1*
Y1127697D1*
X10326410D1*
Y1429397D1*
X10334190D1*
X10571167Y7588347D2*
X10575847Y7584683D1*
X10591900Y7568023D1*
X10605480Y7549290D1*
X10616323Y7528847D1*
X10624213Y7507097D1*
X10624667Y7504953D1*
X10643790Y7507770D1*
X10670000Y7507950D1*
X10850000D1*
X10873153Y7505440D1*
X10895247Y7498007D1*
X10902253Y7497560D1*
Y7893613D1*
X10901297Y7900537D1*
X10901003Y7900997D1*
X10900540Y7901293D1*
X10898033Y7901667D1*
X10893603Y7902250D1*
X10394477D1*
X10421177Y7875567D1*
X10429840Y7877690D1*
X10452747Y7880967D1*
X10475883Y7881027D1*
X10498803Y7877863D1*
X10521063Y7871543D1*
X10542223Y7862183D1*
X10561877Y7849973D1*
X10579640Y7835143D1*
X10595163Y7817987D1*
X10608153Y7798837D1*
X10618347Y7778067D1*
X10625553Y7756080D1*
X10629627Y7733303D1*
X10630580Y7715553D1*
X10628943Y7692297D1*
X10624107Y7669667D1*
X10616170Y7647933D1*
X10605287Y7627517D1*
X10591667Y7608810D1*
X10575573Y7592183D1*
X10571173Y7588753D1*
X9932230Y6747593D2*
X10350597D1*
Y6305893D1*
X9908897D1*
Y6747593D1*
X9932230D1*
X10349363Y5563453D2*
X10345647Y5540240D1*
X10339480Y5517557D1*
X10330937Y5495653D1*
X10320113Y5474787D1*
X10307137Y5455183D1*
X10292147Y5437073D1*
X10275320Y5420660D1*
X10256840Y5406127D1*
X10236923Y5393643D1*
X10215790Y5383343D1*
X10193683Y5375350D1*
X10170850Y5369753D1*
X10147553Y5366613D1*
X10124053Y5365967D1*
X10100617Y5367823D1*
X10077513Y5372160D1*
X10055000Y5378927D1*
X10033333Y5388050D1*
X10012760Y5399423D1*
X9993513Y5412920D1*
X9975807Y5428383D1*
X9959847Y5445643D1*
X9945813Y5464503D1*
X9933860Y5484747D1*
X9924130Y5506147D1*
X9916727Y5528457D1*
X9911737Y5551430D1*
X9909220Y5574803D1*
X9909200Y5598313D1*
X9911680Y5621690D1*
X9916630Y5644670D1*
X9923993Y5666993D1*
X9933690Y5688410D1*
X9945607Y5708673D1*
X9959610Y5727557D1*
X9975540Y5744843D1*
X9993220Y5760337D1*
X10012447Y5773867D1*
X10033000Y5785277D1*
X10054650Y5794433D1*
X10077153Y5801240D1*
X10100250Y5805613D1*
X10123680Y5807510D1*
X10147180Y5806903D1*
X10170483Y5803803D1*
X10193327Y5798243D1*
X10215447Y5790287D1*
X10236597Y5780023D1*
X10256537Y5767573D1*
X10275040Y5753070D1*
X10291893Y5736687D1*
X10306913Y5718600D1*
X10319927Y5699020D1*
X10330783Y5678170D1*
X10339363Y5656283D1*
X10345567Y5633610D1*
X10349327Y5610403D1*
X10350597Y5586743D1*
X10349363Y5563453D1*
X2205970Y7149793D2*
X2205020Y7142033D1*
X2203440Y7134377D1*
X2201240Y7126873D1*
X2198437Y7119573D1*
X2195047Y7112527D1*
X2191093Y7105780D1*
X2186607Y7099377D1*
X2181610Y7093363D1*
X2176140Y7087777D1*
X2170233Y7082653D1*
X2163927Y7078027D1*
X2157267Y7073933D1*
X2150293Y7070393D1*
X2143057Y7067433D1*
X2135600Y7065077D1*
X2127980Y7063333D1*
X2120240Y7062217D1*
X2112437Y7061733D1*
X2104617Y7061890D1*
X2096840Y7062683D1*
X2089150Y7064107D1*
X2081603Y7066153D1*
X2074250Y7068807D1*
X2067133Y7072053D1*
X2060310Y7075867D1*
X2053817Y7080223D1*
X2047700Y7085097D1*
X2042003Y7090450D1*
X2036760Y7096253D1*
X2032010Y7102460D1*
X2027777Y7109037D1*
X2024097Y7115937D1*
X2020993Y7123113D1*
X2018480Y7130517D1*
X2016583Y7138103D1*
X2015310Y7145817D1*
X2014667Y7153610D1*
X2014663Y7161430D1*
X2015300Y7169223D1*
X2016567Y7176940D1*
X2018457Y7184527D1*
X2020960Y7191933D1*
X2024060Y7199113D1*
X2027733Y7206013D1*
X2031957Y7212593D1*
X2036703Y7218807D1*
X2041943Y7224613D1*
X2047637Y7229973D1*
X2053747Y7234850D1*
X2060233Y7239213D1*
X2067057Y7243037D1*
X2074167Y7246287D1*
X2081520Y7248947D1*
X2089067Y7251000D1*
X2096753Y7252430D1*
X2104530Y7253230D1*
X2112347Y7253393D1*
X2120153Y7252920D1*
X2127893Y7251810D1*
X2135517Y7250073D1*
X2142973Y7247723D1*
X2150213Y7244770D1*
X2157190Y7241237D1*
X2163853Y7237147D1*
X2170163Y7232530D1*
X2176077Y7227410D1*
X2181550Y7221830D1*
X2186553Y7215820D1*
X2191047Y7209420D1*
X2195007Y7202677D1*
X2198403Y7195633D1*
X2201213Y7188337D1*
X2203420Y7180837D1*
X2205007Y7173180D1*
X2205963Y7165420D1*
X2206287Y7157563D1*
X2205970Y7149793D1*
X8561100Y4373850D2*
X8570757Y4371450D1*
X8591200Y4360677D1*
X8595533Y4356823D1*
X8595547Y4971937D1*
Y5200417D1*
X8180580Y5200400D1*
X8163010D1*
X8166503Y5196727D1*
X8171507Y5190717D1*
X8176000Y5184317D1*
X8179960Y5177573D1*
X8183357Y5170530D1*
X8186167Y5163233D1*
X8188373Y5155733D1*
X8189960Y5148077D1*
X8190917Y5140317D1*
X8191240Y5132460D1*
X8190923Y5124690D1*
X8189973Y5116930D1*
X8188393Y5109273D1*
X8186193Y5101770D1*
X8183390Y5094470D1*
X8180000Y5087423D1*
X8176047Y5080677D1*
X8171560Y5074273D1*
X8166563Y5068260D1*
X8161093Y5062673D1*
X8155187Y5057550D1*
X8148880Y5052923D1*
X8142220Y5048830D1*
X8135247Y5045290D1*
X8128010Y5042330D1*
X8120553Y5039973D1*
X8112933Y5038230D1*
X8105193Y5037113D1*
X8097390Y5036630D1*
X8089570Y5036787D1*
X8081793Y5037580D1*
X8074103Y5039003D1*
X8066557Y5041050D1*
X8059203Y5043703D1*
X8052087Y5046950D1*
X8045263Y5050763D1*
X8038770Y5055120D1*
X8032653Y5059993D1*
X8026957Y5065347D1*
X8021713Y5071150D1*
X8016963Y5077357D1*
X8012730Y5083933D1*
X8009050Y5090833D1*
X8005947Y5098010D1*
X8003433Y5105413D1*
X8001537Y5113000D1*
X8000263Y5120713D1*
X7999620Y5128507D1*
X7999617Y5136327D1*
X8000253Y5144120D1*
X8001520Y5151837D1*
X8003410Y5159423D1*
X8005913Y5166830D1*
X8009013Y5174010D1*
X8012687Y5180910D1*
X8016910Y5187490D1*
X8021657Y5193703D1*
X8026897Y5199510D1*
X8027837Y5200393D1*
X7734540Y5200400D1*
X7934317Y5000643D1*
X8561100Y4373850D1*
X4136760Y5393960D2*
X4128530Y5372370D1*
X4115370Y5353377D1*
X4098047Y5338083D1*
X4077567Y5327383D1*
X4055120Y5321893D1*
X4032013Y5321933D1*
X4009590Y5327503D1*
X3989147Y5338277D1*
X3971880Y5353630D1*
X3958787Y5372670D1*
X3950630Y5394290D1*
X3947887Y5417233D1*
X3950713Y5440167D1*
X3958943Y5461757D1*
X3972103Y5480750D1*
X3989427Y5496043D1*
X4009907Y5506743D1*
X4032353Y5512233D1*
X4055460Y5512193D1*
X4077883Y5506623D1*
X4098327Y5495850D1*
X4115593Y5480497D1*
X4128687Y5461457D1*
X4136843Y5439837D1*
X4139587Y5417063D1*
X4136760Y5393960D1*
X3296270Y5723993D2*
X3295320Y5716233D1*
X3293740Y5708577D1*
X3291540Y5701073D1*
X3288737Y5693773D1*
X3285347Y5686727D1*
X3281393Y5679980D1*
X3276907Y5673577D1*
X3271910Y5667563D1*
X3266440Y5661977D1*
X3260533Y5656853D1*
X3254227Y5652227D1*
X3247567Y5648133D1*
X3240593Y5644593D1*
X3233357Y5641633D1*
X3225900Y5639277D1*
X3218280Y5637533D1*
X3210540Y5636417D1*
X3202737Y5635933D1*
X3194917Y5636090D1*
X3187140Y5636883D1*
X3179450Y5638307D1*
X3171903Y5640353D1*
X3164550Y5643007D1*
X3157433Y5646253D1*
X3150610Y5650067D1*
X3144117Y5654423D1*
X3138000Y5659297D1*
X3132303Y5664650D1*
X3127060Y5670453D1*
X3122310Y5676660D1*
X3118077Y5683237D1*
X3114397Y5690137D1*
X3111293Y5697313D1*
X3108780Y5704717D1*
X3106883Y5712303D1*
X3105610Y5720017D1*
X3104967Y5727810D1*
X3104963Y5735630D1*
X3105600Y5743423D1*
X3106867Y5751140D1*
X3108757Y5758727D1*
X3111260Y5766133D1*
X3114360Y5773313D1*
X3118033Y5780213D1*
X3122257Y5786793D1*
X3127003Y5793007D1*
X3132243Y5798813D1*
X3137937Y5804173D1*
X3144047Y5809050D1*
X3150533Y5813413D1*
X3157357Y5817237D1*
X3164467Y5820487D1*
X3171820Y5823147D1*
X3179367Y5825200D1*
X3187053Y5826630D1*
X3194830Y5827430D1*
X3202647Y5827593D1*
X3210453Y5827120D1*
X3218193Y5826010D1*
X3225817Y5824273D1*
X3233273Y5821923D1*
X3240513Y5818970D1*
X3247490Y5815437D1*
X3254153Y5811347D1*
X3260463Y5806730D1*
X3266377Y5801610D1*
X3271850Y5796030D1*
X3276853Y5790020D1*
X3281347Y5783620D1*
X3285307Y5776877D1*
X3288703Y5769833D1*
X3291513Y5762537D1*
X3293720Y5755037D1*
X3295307Y5747380D1*
X3296263Y5739620D1*
X3296587Y5731763D1*
X3296270Y5723993D1*
X8944037Y2416197D2*
X8943087Y2408437D1*
X8941507Y2400780D1*
X8939307Y2393277D1*
X8936503Y2385977D1*
X8933113Y2378930D1*
X8929160Y2372183D1*
X8924673Y2365780D1*
X8919677Y2359767D1*
X8914207Y2354180D1*
X8908300Y2349057D1*
X8901993Y2344430D1*
X8895333Y2340337D1*
X8888360Y2336797D1*
X8881123Y2333837D1*
X8873667Y2331480D1*
X8866047Y2329737D1*
X8858307Y2328620D1*
X8850503Y2328137D1*
X8842683Y2328293D1*
X8834907Y2329087D1*
X8827217Y2330510D1*
X8819670Y2332557D1*
X8812317Y2335210D1*
X8805200Y2338457D1*
X8798377Y2342270D1*
X8791883Y2346627D1*
X8785767Y2351500D1*
X8780070Y2356853D1*
X8774827Y2362657D1*
X8770077Y2368863D1*
X8765843Y2375440D1*
X8762163Y2382340D1*
X8759060Y2389517D1*
X8756547Y2396920D1*
X8754650Y2404507D1*
X8753377Y2412220D1*
X8752733Y2420013D1*
X8752730Y2427833D1*
X8753367Y2435627D1*
X8754633Y2443343D1*
X8756523Y2450930D1*
X8759027Y2458337D1*
X8762127Y2465517D1*
X8765800Y2472417D1*
X8770023Y2478997D1*
X8774770Y2485210D1*
X8780010Y2491017D1*
X8785703Y2496377D1*
X8791813Y2501253D1*
X8798300Y2505617D1*
X8805123Y2509440D1*
X8812233Y2512690D1*
X8819587Y2515350D1*
X8827133Y2517403D1*
X8834820Y2518833D1*
X8842597Y2519633D1*
X8850413Y2519797D1*
X8858220Y2519323D1*
X8865960Y2518213D1*
X8873583Y2516477D1*
X8881040Y2514127D1*
X8888280Y2511173D1*
X8895257Y2507640D1*
X8901920Y2503550D1*
X8908230Y2498933D1*
X8914143Y2493813D1*
X8919617Y2488233D1*
X8924620Y2482223D1*
X8929113Y2475823D1*
X8933073Y2469080D1*
X8936470Y2462037D1*
X8939280Y2454740D1*
X8941487Y2447240D1*
X8943073Y2439583D1*
X8944030Y2431823D1*
X8944353Y2423967D1*
X8944037Y2416197D1*
X4279813Y4199147D2*
X4278863Y4191387D1*
X4277283Y4183730D1*
X4275083Y4176227D1*
X4272280Y4168927D1*
X4268890Y4161880D1*
X4264937Y4155133D1*
X4260450Y4148730D1*
X4255453Y4142717D1*
X4249983Y4137130D1*
X4244077Y4132007D1*
X4237770Y4127380D1*
X4231110Y4123287D1*
X4224137Y4119747D1*
X4216900Y4116787D1*
X4209443Y4114430D1*
X4201823Y4112687D1*
X4194083Y4111570D1*
X4186280Y4111087D1*
X4178460Y4111243D1*
X4170683Y4112037D1*
X4162993Y4113460D1*
X4155447Y4115507D1*
X4148093Y4118160D1*
X4140977Y4121407D1*
X4134153Y4125220D1*
X4127660Y4129577D1*
X4121543Y4134450D1*
X4115847Y4139803D1*
X4110603Y4145607D1*
X4105853Y4151813D1*
X4101620Y4158390D1*
X4097940Y4165290D1*
X4094837Y4172467D1*
X4092323Y4179870D1*
X4090427Y4187457D1*
X4089153Y4195170D1*
X4088510Y4202963D1*
X4088507Y4210783D1*
X4089143Y4218577D1*
X4090410Y4226293D1*
X4092300Y4233880D1*
X4094803Y4241287D1*
X4097903Y4248467D1*
X4101577Y4255367D1*
X4105800Y4261947D1*
X4110547Y4268160D1*
X4115787Y4273967D1*
X4121480Y4279327D1*
X4127590Y4284203D1*
X4134077Y4288567D1*
X4140900Y4292390D1*
X4148010Y4295640D1*
X4155363Y4298300D1*
X4162910Y4300353D1*
X4170597Y4301783D1*
X4178373Y4302583D1*
X4186190Y4302747D1*
X4193997Y4302273D1*
X4201737Y4301163D1*
X4209360Y4299427D1*
X4216817Y4297077D1*
X4224057Y4294123D1*
X4231033Y4290590D1*
X4237697Y4286500D1*
X4244007Y4281883D1*
X4249920Y4276763D1*
X4255393Y4271183D1*
X4260397Y4265173D1*
X4264890Y4258773D1*
X4268850Y4252030D1*
X4272247Y4244987D1*
X4275057Y4237690D1*
X4277263Y4230190D1*
X4278850Y4222533D1*
X4279807Y4214773D1*
X4280130Y4206917D1*
X4279813Y4199147D1*
X8150387Y2565147D2*
X8149437Y2557387D1*
X8147857Y2549730D1*
X8145657Y2542227D1*
X8142853Y2534927D1*
X8139463Y2527880D1*
X8135510Y2521133D1*
X8131023Y2514730D1*
X8126027Y2508717D1*
X8120557Y2503130D1*
X8114650Y2498007D1*
X8108343Y2493380D1*
X8101683Y2489287D1*
X8094710Y2485747D1*
X8087473Y2482787D1*
X8080017Y2480430D1*
X8072397Y2478687D1*
X8064657Y2477570D1*
X8056853Y2477087D1*
X8049033Y2477243D1*
X8041257Y2478037D1*
X8033567Y2479460D1*
X8026020Y2481507D1*
X8018667Y2484160D1*
X8011550Y2487407D1*
X8004727Y2491220D1*
X7998233Y2495577D1*
X7992117Y2500450D1*
X7986420Y2505803D1*
X7981177Y2511607D1*
X7976427Y2517813D1*
X7972193Y2524390D1*
X7968513Y2531290D1*
X7965410Y2538467D1*
X7962897Y2545870D1*
X7961000Y2553457D1*
X7959727Y2561170D1*
X7959083Y2568963D1*
X7959080Y2576783D1*
X7959717Y2584577D1*
X7960983Y2592293D1*
X7962873Y2599880D1*
X7965377Y2607287D1*
X7968477Y2614467D1*
X7972150Y2621367D1*
X7976373Y2627947D1*
X7981120Y2634160D1*
X7986360Y2639967D1*
X7992053Y2645327D1*
X7998163Y2650203D1*
X8004650Y2654567D1*
X8011473Y2658390D1*
X8018583Y2661640D1*
X8025937Y2664300D1*
X8033483Y2666353D1*
X8041170Y2667783D1*
X8048947Y2668583D1*
X8056763Y2668747D1*
X8064570Y2668273D1*
X8072310Y2667163D1*
X8079933Y2665427D1*
X8087390Y2663077D1*
X8094630Y2660123D1*
X8101607Y2656590D1*
X8108270Y2652500D1*
X8114580Y2647883D1*
X8120493Y2642763D1*
X8125967Y2637183D1*
X8130970Y2631173D1*
X8135463Y2624773D1*
X8139423Y2618030D1*
X8142820Y2610987D1*
X8145630Y2603690D1*
X8147837Y2596190D1*
X8149423Y2588533D1*
X8150380Y2580773D1*
X8150703Y2572917D1*
X8150387Y2565147D1*
X7273650Y4350690D2*
X7272700Y4342930D1*
X7271120Y4335273D1*
X7268920Y4327770D1*
X7266117Y4320470D1*
X7262727Y4313423D1*
X7258773Y4306677D1*
X7254287Y4300273D1*
X7249290Y4294260D1*
X7243820Y4288673D1*
X7237913Y4283550D1*
X7231607Y4278923D1*
X7224947Y4274830D1*
X7217973Y4271290D1*
X7210737Y4268330D1*
X7203280Y4265973D1*
X7195660Y4264230D1*
X7187920Y4263113D1*
X7180117Y4262630D1*
X7172297Y4262787D1*
X7164520Y4263580D1*
X7156830Y4265003D1*
X7149283Y4267050D1*
X7141930Y4269703D1*
X7134813Y4272950D1*
X7127990Y4276763D1*
X7121497Y4281120D1*
X7115380Y4285993D1*
X7109683Y4291347D1*
X7104440Y4297150D1*
X7099690Y4303357D1*
X7095457Y4309933D1*
X7091777Y4316833D1*
X7088673Y4324010D1*
X7086160Y4331413D1*
X7084263Y4339000D1*
X7082990Y4346713D1*
X7082347Y4354507D1*
X7082343Y4362327D1*
X7082980Y4370120D1*
X7084247Y4377837D1*
X7086137Y4385423D1*
X7088640Y4392830D1*
X7091740Y4400010D1*
X7095413Y4406910D1*
X7099637Y4413490D1*
X7104383Y4419703D1*
X7109623Y4425510D1*
X7115317Y4430870D1*
X7121427Y4435747D1*
X7127913Y4440110D1*
X7134737Y4443933D1*
X7141847Y4447183D1*
X7149200Y4449843D1*
X7156747Y4451897D1*
X7164433Y4453327D1*
X7172210Y4454127D1*
X7180027Y4454290D1*
X7187833Y4453817D1*
X7195573Y4452707D1*
X7203197Y4450970D1*
X7210653Y4448620D1*
X7217893Y4445667D1*
X7224870Y4442133D1*
X7231533Y4438043D1*
X7237843Y4433427D1*
X7243757Y4428307D1*
X7249230Y4422727D1*
X7254233Y4416717D1*
X7258727Y4410317D1*
X7262687Y4403573D1*
X7266083Y4396530D1*
X7268893Y4389233D1*
X7271100Y4381733D1*
X7272687Y4374077D1*
X7273643Y4366317D1*
X7273967Y4358460D1*
X7273650Y4350690D1*
X7567730Y6841127D2*
X7566780Y6833367D1*
X7565200Y6825710D1*
X7563000Y6818207D1*
X7560197Y6810907D1*
X7556807Y6803860D1*
X7552853Y6797113D1*
X7548367Y6790710D1*
X7543370Y6784697D1*
X7537900Y6779110D1*
X7531993Y6773987D1*
X7525687Y6769360D1*
X7519027Y6765267D1*
X7512053Y6761727D1*
X7504817Y6758767D1*
X7497360Y6756410D1*
X7489740Y6754667D1*
X7482000Y6753550D1*
X7474197Y6753067D1*
X7466377Y6753223D1*
X7458600Y6754017D1*
X7450910Y6755440D1*
X7443363Y6757487D1*
X7436010Y6760140D1*
X7428893Y6763387D1*
X7422070Y6767200D1*
X7415577Y6771557D1*
X7409460Y6776430D1*
X7403763Y6781783D1*
X7398520Y6787587D1*
X7393770Y6793793D1*
X7389537Y6800370D1*
X7385857Y6807270D1*
X7382753Y6814447D1*
X7380240Y6821850D1*
X7378343Y6829437D1*
X7377070Y6837150D1*
X7376427Y6844943D1*
X7376423Y6852763D1*
X7377060Y6860557D1*
X7378327Y6868273D1*
X7380217Y6875860D1*
X7382720Y6883267D1*
X7385820Y6890447D1*
X7389493Y6897347D1*
X7393717Y6903927D1*
X7398463Y6910140D1*
X7403703Y6915947D1*
X7409397Y6921307D1*
X7415507Y6926183D1*
X7421993Y6930547D1*
X7428817Y6934370D1*
X7435927Y6937620D1*
X7443280Y6940280D1*
X7450827Y6942333D1*
X7458513Y6943763D1*
X7466290Y6944563D1*
X7474107Y6944727D1*
X7481913Y6944253D1*
X7489653Y6943143D1*
X7497277Y6941407D1*
X7504733Y6939057D1*
X7511973Y6936103D1*
X7518950Y6932570D1*
X7525613Y6928480D1*
X7531923Y6923863D1*
X7537837Y6918743D1*
X7543310Y6913163D1*
X7548313Y6907153D1*
X7552807Y6900753D1*
X7556767Y6894010D1*
X7560163Y6886967D1*
X7562973Y6879670D1*
X7565180Y6872170D1*
X7566767Y6864513D1*
X7567723Y6856753D1*
X7568047Y6848897D1*
X7567730Y6841127D1*
X10848067Y7725623D2*
X10847117Y7717863D1*
X10845537Y7710207D1*
X10843337Y7702703D1*
X10840533Y7695403D1*
X10837143Y7688357D1*
X10833190Y7681610D1*
X10828703Y7675207D1*
X10823707Y7669193D1*
X10818237Y7663607D1*
X10812330Y7658483D1*
X10806023Y7653857D1*
X10799363Y7649763D1*
X10792390Y7646223D1*
X10785153Y7643263D1*
X10777697Y7640907D1*
X10770077Y7639163D1*
X10762337Y7638047D1*
X10754533Y7637563D1*
X10746713Y7637720D1*
X10738937Y7638513D1*
X10731247Y7639937D1*
X10723700Y7641983D1*
X10716347Y7644637D1*
X10709230Y7647883D1*
X10702407Y7651697D1*
X10695913Y7656053D1*
X10689797Y7660927D1*
X10684100Y7666280D1*
X10678857Y7672083D1*
X10674107Y7678290D1*
X10669873Y7684867D1*
X10666193Y7691767D1*
X10663090Y7698943D1*
X10660577Y7706347D1*
X10658680Y7713933D1*
X10657407Y7721647D1*
X10656763Y7729440D1*
X10656760Y7737260D1*
X10657397Y7745053D1*
X10658663Y7752770D1*
X10660553Y7760357D1*
X10663057Y7767763D1*
X10666157Y7774943D1*
X10669830Y7781843D1*
X10674053Y7788423D1*
X10678800Y7794637D1*
X10684040Y7800443D1*
X10689733Y7805803D1*
X10695843Y7810680D1*
X10702330Y7815043D1*
X10709153Y7818867D1*
X10716263Y7822117D1*
X10723617Y7824777D1*
X10731163Y7826830D1*
X10738850Y7828260D1*
X10746627Y7829060D1*
X10754443Y7829223D1*
X10762250Y7828750D1*
X10769990Y7827640D1*
X10777613Y7825903D1*
X10785070Y7823553D1*
X10792310Y7820600D1*
X10799287Y7817067D1*
X10805950Y7812977D1*
X10812260Y7808360D1*
X10818173Y7803240D1*
X10823647Y7797660D1*
X10828650Y7791650D1*
X10833143Y7785250D1*
X10837103Y7778507D1*
X10840500Y7771463D1*
X10843310Y7764167D1*
X10845517Y7756667D1*
X10847103Y7749010D1*
X10848060Y7741250D1*
X10848383Y7733393D1*
X10848067Y7725623D1*
X5214220Y6429070D2*
X5213270Y6421310D1*
X5211690Y6413653D1*
X5209490Y6406150D1*
X5206687Y6398850D1*
X5203297Y6391803D1*
X5199343Y6385057D1*
X5194857Y6378653D1*
X5189860Y6372640D1*
X5184390Y6367053D1*
X5178483Y6361930D1*
X5172177Y6357303D1*
X5165517Y6353210D1*
X5158543Y6349670D1*
X5151307Y6346710D1*
X5143850Y6344353D1*
X5136230Y6342610D1*
X5128490Y6341493D1*
X5120687Y6341010D1*
X5112867Y6341167D1*
X5105090Y6341960D1*
X5097400Y6343383D1*
X5089853Y6345430D1*
X5082500Y6348083D1*
X5075383Y6351330D1*
X5068560Y6355143D1*
X5062067Y6359500D1*
X5055950Y6364373D1*
X5050253Y6369727D1*
X5045010Y6375530D1*
X5040260Y6381737D1*
X5036027Y6388313D1*
X5032347Y6395213D1*
X5029243Y6402390D1*
X5026730Y6409793D1*
X5024833Y6417380D1*
X5023560Y6425093D1*
X5022917Y6432887D1*
X5022913Y6440707D1*
X5023550Y6448500D1*
X5024817Y6456217D1*
X5026707Y6463803D1*
X5029210Y6471210D1*
X5032310Y6478390D1*
X5035983Y6485290D1*
X5040207Y6491870D1*
X5044953Y6498083D1*
X5050193Y6503890D1*
X5055887Y6509250D1*
X5061997Y6514127D1*
X5068483Y6518490D1*
X5075307Y6522313D1*
X5082417Y6525563D1*
X5089770Y6528223D1*
X5097317Y6530277D1*
X5105003Y6531707D1*
X5112780Y6532507D1*
X5120597Y6532670D1*
X5128403Y6532197D1*
X5136143Y6531087D1*
X5143767Y6529350D1*
X5151223Y6527000D1*
X5158463Y6524047D1*
X5165440Y6520513D1*
X5172103Y6516423D1*
X5178413Y6511807D1*
X5184327Y6506687D1*
X5189800Y6501107D1*
X5194803Y6495097D1*
X5199297Y6488697D1*
X5203257Y6481953D1*
X5206653Y6474910D1*
X5209463Y6467613D1*
X5211670Y6460113D1*
X5213257Y6452457D1*
X5214213Y6444697D1*
X5214537Y6436840D1*
X5214220Y6429070D1*
X1712260Y4175767D2*
X1711310Y4168007D1*
X1709730Y4160350D1*
X1707530Y4152847D1*
X1704727Y4145547D1*
X1701337Y4138500D1*
X1697383Y4131753D1*
X1692897Y4125350D1*
X1687900Y4119337D1*
X1682430Y4113750D1*
X1676523Y4108627D1*
X1670217Y4104000D1*
X1663557Y4099907D1*
X1656583Y4096367D1*
X1649347Y4093407D1*
X1641890Y4091050D1*
X1634270Y4089307D1*
X1626530Y4088190D1*
X1618727Y4087707D1*
X1610907Y4087863D1*
X1603130Y4088657D1*
X1595440Y4090080D1*
X1587893Y4092127D1*
X1580540Y4094780D1*
X1573423Y4098027D1*
X1566600Y4101840D1*
X1560107Y4106197D1*
X1553990Y4111070D1*
X1548293Y4116423D1*
X1543050Y4122227D1*
X1538300Y4128433D1*
X1534067Y4135010D1*
X1530387Y4141910D1*
X1527283Y4149087D1*
X1524770Y4156490D1*
X1522873Y4164077D1*
X1521600Y4171790D1*
X1520957Y4179583D1*
X1520953Y4187403D1*
X1521590Y4195197D1*
X1522857Y4202913D1*
X1524747Y4210500D1*
X1527250Y4217907D1*
X1530350Y4225087D1*
X1534023Y4231987D1*
X1538247Y4238567D1*
X1542993Y4244780D1*
X1548233Y4250587D1*
X1553927Y4255947D1*
X1560037Y4260823D1*
X1566523Y4265187D1*
X1573347Y4269010D1*
X1580457Y4272260D1*
X1587810Y4274920D1*
X1595357Y4276973D1*
X1603043Y4278403D1*
X1610820Y4279203D1*
X1618637Y4279367D1*
X1626443Y4278893D1*
X1634183Y4277783D1*
X1641807Y4276047D1*
X1649263Y4273697D1*
X1656503Y4270743D1*
X1663480Y4267210D1*
X1670143Y4263120D1*
X1676453Y4258503D1*
X1682367Y4253383D1*
X1687840Y4247803D1*
X1692843Y4241793D1*
X1697337Y4235393D1*
X1701297Y4228650D1*
X1704693Y4221607D1*
X1707503Y4214310D1*
X1709710Y4206810D1*
X1711297Y4199153D1*
X1712253Y4191393D1*
X1712577Y4183537D1*
X1712260Y4175767D1*
X6095080Y2277553D2*
X6094130Y2269793D1*
X6092550Y2262137D1*
X6090350Y2254633D1*
X6087547Y2247333D1*
X6084157Y2240287D1*
X6080203Y2233540D1*
X6075717Y2227137D1*
X6070720Y2221123D1*
X6065250Y2215537D1*
X6059343Y2210413D1*
X6053037Y2205787D1*
X6046377Y2201693D1*
X6039403Y2198153D1*
X6032167Y2195193D1*
X6024710Y2192837D1*
X6017090Y2191093D1*
X6009350Y2189977D1*
X6001547Y2189493D1*
X5994620Y2189633D1*
X6060723Y2123537D1*
X6265197D1*
X6095027Y2293713D1*
X6095397Y2285323D1*
X6095080Y2277553D1*
X4132470Y3152293D2*
X4131520Y3144533D1*
X4129940Y3136877D1*
X4127740Y3129373D1*
X4124937Y3122073D1*
X4121547Y3115027D1*
X4117593Y3108280D1*
X4113107Y3101877D1*
X4108110Y3095863D1*
X4102640Y3090277D1*
X4096733Y3085153D1*
X4090427Y3080527D1*
X4083767Y3076433D1*
X4076793Y3072893D1*
X4069557Y3069933D1*
X4062100Y3067577D1*
X4054480Y3065833D1*
X4046740Y3064717D1*
X4038937Y3064233D1*
X4031117Y3064390D1*
X4023340Y3065183D1*
X4015650Y3066607D1*
X4008103Y3068653D1*
X4000750Y3071307D1*
X3993633Y3074553D1*
X3986810Y3078367D1*
X3980317Y3082723D1*
X3974200Y3087597D1*
X3968503Y3092950D1*
X3963260Y3098753D1*
X3958510Y3104960D1*
X3954277Y3111537D1*
X3950597Y3118437D1*
X3947493Y3125613D1*
X3944980Y3133017D1*
X3943083Y3140603D1*
X3941810Y3148317D1*
X3941167Y3156110D1*
X3941163Y3163930D1*
X3941800Y3171723D1*
X3943067Y3179440D1*
X3944957Y3187027D1*
X3947460Y3194433D1*
X3950560Y3201613D1*
X3954233Y3208513D1*
X3958457Y3215093D1*
X3963203Y3221307D1*
X3968443Y3227113D1*
X3974137Y3232473D1*
X3980247Y3237350D1*
X3986733Y3241713D1*
X3993557Y3245537D1*
X4000667Y3248787D1*
X4008020Y3251447D1*
X4015567Y3253500D1*
X4023253Y3254930D1*
X4031030Y3255730D1*
X4038847Y3255893D1*
X4046653Y3255420D1*
X4054393Y3254310D1*
X4062017Y3252573D1*
X4069473Y3250223D1*
X4076713Y3247270D1*
X4083690Y3243737D1*
X4090353Y3239647D1*
X4096663Y3235030D1*
X4102577Y3229910D1*
X4108050Y3224330D1*
X4113053Y3218320D1*
X4117547Y3211920D1*
X4121507Y3205177D1*
X4124903Y3198133D1*
X4127713Y3190837D1*
X4129920Y3183337D1*
X4131507Y3175680D1*
X4132463Y3167920D1*
X4132787Y3160063D1*
X4132470Y3152293D1*
X8084970Y5823993D2*
X8084020Y5816233D1*
X8082440Y5808577D1*
X8080240Y5801073D1*
X8077437Y5793773D1*
X8074047Y5786727D1*
X8070093Y5779980D1*
X8065607Y5773577D1*
X8060610Y5767563D1*
X8055140Y5761977D1*
X8049233Y5756853D1*
X8042927Y5752227D1*
X8036267Y5748133D1*
X8029293Y5744593D1*
X8022057Y5741633D1*
X8014600Y5739277D1*
X8006980Y5737533D1*
X7999240Y5736417D1*
X7991437Y5735933D1*
X7983617Y5736090D1*
X7975840Y5736883D1*
X7968150Y5738307D1*
X7960603Y5740353D1*
X7953250Y5743007D1*
X7946133Y5746253D1*
X7939310Y5750067D1*
X7932817Y5754423D1*
X7926700Y5759297D1*
X7921003Y5764650D1*
X7915760Y5770453D1*
X7911010Y5776660D1*
X7906777Y5783237D1*
X7903097Y5790137D1*
X7899993Y5797313D1*
X7897480Y5804717D1*
X7895583Y5812303D1*
X7894310Y5820017D1*
X7893667Y5827810D1*
X7893663Y5835630D1*
X7894300Y5843423D1*
X7895567Y5851140D1*
X7897457Y5858727D1*
X7899960Y5866133D1*
X7903060Y5873313D1*
X7906733Y5880213D1*
X7910957Y5886793D1*
X7915703Y5893007D1*
X7920943Y5898813D1*
X7926637Y5904173D1*
X7932747Y5909050D1*
X7939233Y5913413D1*
X7946057Y5917237D1*
X7953167Y5920487D1*
X7960520Y5923147D1*
X7968067Y5925200D1*
X7975753Y5926630D1*
X7983530Y5927430D1*
X7991347Y5927593D1*
X7999153Y5927120D1*
X8006893Y5926010D1*
X8014517Y5924273D1*
X8021973Y5921923D1*
X8029213Y5918970D1*
X8036190Y5915437D1*
X8042853Y5911347D1*
X8049163Y5906730D1*
X8055077Y5901610D1*
X8060550Y5896030D1*
X8065553Y5890020D1*
X8070047Y5883620D1*
X8074007Y5876877D1*
X8077403Y5869833D1*
X8080213Y5862537D1*
X8082420Y5855037D1*
X8084007Y5847380D1*
X8084963Y5839620D1*
X8085287Y5831763D1*
X8084970Y5823993D1*
X3141970Y3658893D2*
X3141020Y3651133D1*
X3139440Y3643477D1*
X3137240Y3635973D1*
X3134437Y3628673D1*
X3131047Y3621627D1*
X3127093Y3614880D1*
X3122607Y3608477D1*
X3117610Y3602463D1*
X3112140Y3596877D1*
X3106233Y3591753D1*
X3099927Y3587127D1*
X3093267Y3583033D1*
X3086293Y3579493D1*
X3079057Y3576533D1*
X3071600Y3574177D1*
X3063980Y3572433D1*
X3056240Y3571317D1*
X3048437Y3570833D1*
X3040617Y3570990D1*
X3032840Y3571783D1*
X3025150Y3573207D1*
X3017603Y3575253D1*
X3010250Y3577907D1*
X3003133Y3581153D1*
X2996310Y3584967D1*
X2989817Y3589323D1*
X2983700Y3594197D1*
X2978003Y3599550D1*
X2972760Y3605353D1*
X2968010Y3611560D1*
X2963777Y3618137D1*
X2960097Y3625037D1*
X2956993Y3632213D1*
X2954480Y3639617D1*
X2952583Y3647203D1*
X2951310Y3654917D1*
X2950667Y3662710D1*
X2950663Y3670530D1*
X2951300Y3678323D1*
X2952567Y3686040D1*
X2954457Y3693627D1*
X2956960Y3701033D1*
X2960060Y3708213D1*
X2963733Y3715113D1*
X2967957Y3721693D1*
X2972703Y3727907D1*
X2977943Y3733713D1*
X2983637Y3739073D1*
X2989747Y3743950D1*
X2996233Y3748313D1*
X3003057Y3752137D1*
X3010167Y3755387D1*
X3017520Y3758047D1*
X3025067Y3760100D1*
X3032753Y3761530D1*
X3040530Y3762330D1*
X3048347Y3762493D1*
X3056153Y3762020D1*
X3063893Y3760910D1*
X3071517Y3759173D1*
X3078973Y3756823D1*
X3086213Y3753870D1*
X3093190Y3750337D1*
X3099853Y3746247D1*
X3106163Y3741630D1*
X3112077Y3736510D1*
X3117550Y3730930D1*
X3122553Y3724920D1*
X3127047Y3718520D1*
X3131007Y3711777D1*
X3134403Y3704733D1*
X3137213Y3697437D1*
X3139420Y3689937D1*
X3141007Y3682280D1*
X3141963Y3674520D1*
X3142287Y3666663D1*
X3141970Y3658893D1*
X8116870Y1718093D2*
X8115920Y1710333D1*
X8114340Y1702677D1*
X8112140Y1695173D1*
X8109337Y1687873D1*
X8105947Y1680827D1*
X8101993Y1674080D1*
X8097507Y1667677D1*
X8092510Y1661663D1*
X8087040Y1656077D1*
X8081133Y1650953D1*
X8074827Y1646327D1*
X8068167Y1642233D1*
X8061193Y1638693D1*
X8053957Y1635733D1*
X8046500Y1633377D1*
X8038880Y1631633D1*
X8031140Y1630517D1*
X8023337Y1630033D1*
X8015517Y1630190D1*
X8007740Y1630983D1*
X8000050Y1632407D1*
X7992503Y1634453D1*
X7985150Y1637107D1*
X7978033Y1640353D1*
X7971210Y1644167D1*
X7964717Y1648523D1*
X7958600Y1653397D1*
X7952903Y1658750D1*
X7947660Y1664553D1*
X7942910Y1670760D1*
X7938677Y1677337D1*
X7934997Y1684237D1*
X7931893Y1691413D1*
X7929380Y1698817D1*
X7927483Y1706403D1*
X7926210Y1714117D1*
X7925567Y1721910D1*
X7925563Y1729730D1*
X7926200Y1737523D1*
X7927467Y1745240D1*
X7929357Y1752827D1*
X7931860Y1760233D1*
X7934960Y1767413D1*
X7938633Y1774313D1*
X7942857Y1780893D1*
X7947603Y1787107D1*
X7952843Y1792913D1*
X7958537Y1798273D1*
X7964647Y1803150D1*
X7971133Y1807513D1*
X7977957Y1811337D1*
X7985067Y1814587D1*
X7992420Y1817247D1*
X7999967Y1819300D1*
X8007653Y1820730D1*
X8015430Y1821530D1*
X8023247Y1821693D1*
X8031053Y1821220D1*
X8038793Y1820110D1*
X8046417Y1818373D1*
X8053873Y1816023D1*
X8061113Y1813070D1*
X8068090Y1809537D1*
X8074753Y1805447D1*
X8081063Y1800830D1*
X8086977Y1795710D1*
X8092450Y1790130D1*
X8097453Y1784120D1*
X8101947Y1777720D1*
X8105907Y1770977D1*
X8109303Y1763933D1*
X8112113Y1756637D1*
X8114320Y1749137D1*
X8115907Y1741480D1*
X8116863Y1733720D1*
X8117187Y1725863D1*
X8116870Y1718093D1*
X8547170Y1715393D2*
X8546220Y1707633D1*
X8544640Y1699977D1*
X8542440Y1692473D1*
X8539637Y1685173D1*
X8536247Y1678127D1*
X8532293Y1671380D1*
X8527807Y1664977D1*
X8522810Y1658963D1*
X8517340Y1653377D1*
X8511433Y1648253D1*
X8505127Y1643627D1*
X8498467Y1639533D1*
X8491493Y1635993D1*
X8484257Y1633033D1*
X8476800Y1630677D1*
X8469180Y1628933D1*
X8461440Y1627817D1*
X8453637Y1627333D1*
X8445817Y1627490D1*
X8438040Y1628283D1*
X8430350Y1629707D1*
X8422803Y1631753D1*
X8415450Y1634407D1*
X8408333Y1637653D1*
X8401510Y1641467D1*
X8395017Y1645823D1*
X8388900Y1650697D1*
X8383203Y1656050D1*
X8377960Y1661853D1*
X8373210Y1668060D1*
X8368977Y1674637D1*
X8365297Y1681537D1*
X8362193Y1688713D1*
X8359680Y1696117D1*
X8357783Y1703703D1*
X8356510Y1711417D1*
X8355867Y1719210D1*
X8355863Y1727030D1*
X8356500Y1734823D1*
X8357767Y1742540D1*
X8359657Y1750127D1*
X8362160Y1757533D1*
X8365260Y1764713D1*
X8368933Y1771613D1*
X8373157Y1778193D1*
X8377903Y1784407D1*
X8383143Y1790213D1*
X8388837Y1795573D1*
X8394947Y1800450D1*
X8401433Y1804813D1*
X8408257Y1808637D1*
X8415367Y1811887D1*
X8422720Y1814547D1*
X8430267Y1816600D1*
X8437953Y1818030D1*
X8445730Y1818830D1*
X8453547Y1818993D1*
X8461353Y1818520D1*
X8469093Y1817410D1*
X8476717Y1815673D1*
X8484173Y1813323D1*
X8491413Y1810370D1*
X8498390Y1806837D1*
X8505053Y1802747D1*
X8511363Y1798130D1*
X8517277Y1793010D1*
X8522750Y1787430D1*
X8527753Y1781420D1*
X8532247Y1775020D1*
X8536207Y1768277D1*
X8539603Y1761233D1*
X8542413Y1753937D1*
X8544620Y1746437D1*
X8546207Y1738780D1*
X8547163Y1731020D1*
X8547487Y1723163D1*
X8547170Y1715393D1*
X2910187Y7542050D2*
X2900000D1*
X2876843Y7544563D1*
X10806380Y4481653D2*
X10807840Y4504920D1*
X10804277Y4527933D1*
X10784183Y4602933D1*
X10781893Y4610390D1*
X10771930Y4631440D1*
X10757667Y4649873D1*
X10701340Y4706233D1*
X10695630Y4711547D1*
X10676477Y4724793D1*
X10654907Y4733627D1*
X10577943Y4754273D1*
X10570340Y4756017D1*
X10547130Y4757913D1*
X10524030Y4754777D1*
X10447063Y4734177D1*
X10439607Y4731887D1*
X10418557Y4721920D1*
X10400123Y4707657D1*
X10343767Y4651333D1*
X10338453Y4645620D1*
X10325210Y4626467D1*
X10316373Y4604897D1*
X10295730Y4527937D1*
X10293987Y4520333D1*
X10292090Y4497123D1*
X10295227Y4474023D1*
X10315830Y4397057D1*
X10318117Y4389600D1*
X10328083Y4368550D1*
X10342347Y4350117D1*
X10398677Y4293760D1*
X10404387Y4288447D1*
X10423543Y4275200D1*
X10445113Y4266367D1*
X10522067Y4245727D1*
X10529670Y4243983D1*
X10552880Y4242087D1*
X10575977Y4245223D1*
X10652943Y4265827D1*
X10660400Y4268113D1*
X10681447Y4278080D1*
X10699883Y4292343D1*
X10756240Y4348667D1*
X10761550Y4354380D1*
X10774797Y4373533D1*
X10783633Y4395103D1*
X10804023Y4471130D1*
X10806380Y4481653D1*
X8355290Y7490203D2*
X8342877Y7470473D1*
X8334590Y7461167D1*
X8288877Y7415457D1*
X8272873Y7402253D1*
X8252273Y7391390D1*
X8240443Y7387473D1*
X8178000Y7370743D1*
X8157543Y7367313D1*
X8134270Y7368203D1*
X8122067Y7370727D1*
X8059630Y7387453D1*
X8040190Y7394717D1*
X8020480Y7407123D1*
X8011173Y7415410D1*
X7965463Y7461123D1*
X7952263Y7477123D1*
X7941397Y7497720D1*
X7937483Y7509553D1*
X7920747Y7571993D1*
X7917317Y7592460D1*
X7918207Y7615730D1*
X7920730Y7627933D1*
X7937463Y7690380D1*
X7944723Y7709817D1*
X7957130Y7729527D1*
X7965417Y7738833D1*
X8011130Y7784543D1*
X8027133Y7797747D1*
X8047733Y7808610D1*
X8059563Y7812527D1*
X8122007Y7829257D1*
X8142473Y7832687D1*
X8165743Y7831797D1*
X8177947Y7829270D1*
X8240393Y7812537D1*
X8259823Y7805277D1*
X8279533Y7792870D1*
X8288840Y7784583D1*
X8334550Y7738870D1*
X8347757Y7722860D1*
X8358620Y7702263D1*
X8362533Y7690430D1*
X8379277Y7627930D1*
X8382840Y7604917D1*
X8381380Y7581653D1*
X8379023Y7571137D1*
X8362547Y7509623D1*
X8355290Y7490203D1*
Y1290203D2*
X8342877Y1270473D1*
X8334590Y1261167D1*
X8288877Y1215457D1*
X8272870Y1202253D1*
X8252273Y1191390D1*
X8240443Y1187473D1*
X8178000Y1170743D1*
X8157543Y1167313D1*
X8134270Y1168203D1*
X8122067Y1170727D1*
X8059630Y1187453D1*
X8040190Y1194717D1*
X8020480Y1207123D1*
X8011173Y1215410D1*
X7965463Y1261123D1*
X7952263Y1277123D1*
X7941397Y1297720D1*
X7937483Y1309553D1*
X7920750Y1371993D1*
X7917317Y1392460D1*
X7918207Y1415730D1*
X7920730Y1427933D1*
X7937463Y1490380D1*
X7944723Y1509817D1*
X7957130Y1529527D1*
X7965417Y1538833D1*
X8011130Y1584543D1*
X8027133Y1597747D1*
X8047733Y1608610D1*
X8059563Y1612527D1*
X8122007Y1629257D1*
X8142473Y1632687D1*
X8165743Y1631797D1*
X8177947Y1629270D1*
X8240393Y1612537D1*
X8259823Y1605277D1*
X8279533Y1592870D1*
X8288840Y1584583D1*
X8334550Y1538870D1*
X8347757Y1522860D1*
X8358620Y1502263D1*
X8362533Y1490430D1*
X8379277Y1427930D1*
X8382840Y1404917D1*
X8381380Y1381653D1*
X8379023Y1371137D1*
X8362547Y1309623D1*
X8355290Y1290203D1*
X3336727Y5463147D2*
X3315703Y5453120D1*
X3292843Y5448770D1*
X3287433Y5448610D1*
X2815127Y5448613D1*
X2816247Y5447020D1*
X2820207Y5440277D1*
X2823603Y5433233D1*
X2826413Y5425937D1*
X2828620Y5418437D1*
X2830207Y5410780D1*
X2831163Y5403020D1*
X2831487Y5395163D1*
X2831170Y5387393D1*
X2830220Y5379633D1*
X2828640Y5371977D1*
X2826440Y5364473D1*
X2823637Y5357173D1*
X2820247Y5350127D1*
X2816293Y5343380D1*
X2811807Y5336977D1*
X2807097Y5331310D1*
X3124890Y5331313D1*
X3127727Y5333343D1*
X3148207Y5344043D1*
X3170653Y5349533D1*
X3193760Y5349493D1*
X3216183Y5343923D1*
X3233173Y5334970D1*
X3239757Y5347573D1*
X3251037Y5361623D1*
X3819110Y5929720D1*
X3818080Y5930490D1*
X3801773Y5946840D1*
X3797470Y5952607D1*
X3792410Y5946507D1*
X3776060Y5930200D1*
X3761040Y5918990D1*
X3759050Y5903133D1*
X3751277Y5881203D1*
X3738190Y5861963D1*
X3734477Y5858023D1*
X3351717Y5475260D1*
X3336727Y5463147D1*
X2283603Y5369547D2*
X2259780Y5345727D1*
X2241333Y5331507D1*
X2242757Y5331313D1*
X2664260Y5331310D1*
X2661960Y5333853D1*
X2657210Y5340060D1*
X2652977Y5346637D1*
X2649297Y5353537D1*
X2646193Y5360713D1*
X2643680Y5368117D1*
X2641783Y5375703D1*
X2640510Y5383417D1*
X2639867Y5391210D1*
X2639863Y5399030D1*
X2640500Y5406823D1*
X2641767Y5414540D1*
X2643657Y5422127D1*
X2646160Y5429533D1*
X2649260Y5436713D1*
X2652933Y5443613D1*
X2656140Y5448607D1*
X2436047Y5448597D1*
X2365837Y5378380D1*
X2360937Y5373943D1*
X2341920Y5363087D1*
X2320393Y5359070D1*
X2298720Y5362340D1*
X2283603Y5369547D1*
X4476000Y5061970D2*
X4467077Y5083470D1*
X4464487Y5103963D1*
X4464483Y5840900D1*
X4459933Y5836953D1*
X4453627Y5832327D1*
X4446967Y5828233D1*
X4439993Y5824693D1*
X4432757Y5821733D1*
X4425300Y5819377D1*
X4417680Y5817633D1*
X4409940Y5816517D1*
X4402137Y5816033D1*
X4394317Y5816190D1*
X4386540Y5816983D1*
X4378850Y5818407D1*
X4371303Y5820453D1*
X4363950Y5823107D1*
X4356833Y5826353D1*
X4350010Y5830167D1*
X4343517Y5834523D1*
X4338387Y5838610D1*
X4338380Y5612503D1*
X4344443Y5596437D1*
X4347187Y5573663D1*
X4344360Y5550560D1*
X4336130Y5528970D1*
X4322970Y5509977D1*
X4305647Y5494683D1*
X4285167Y5483983D1*
X4262720Y5478493D1*
X4239613Y5478533D1*
X4217190Y5484103D1*
X4196747Y5494877D1*
X4179480Y5510230D1*
X4166387Y5529270D1*
X4158230Y5550890D1*
X4155487Y5573833D1*
X4158313Y5596767D1*
X4166543Y5618357D1*
X4173677Y5628653D1*
X4173707Y6104013D1*
X4142623D1*
X4142630Y5947810D1*
X4139347Y5924787D1*
X4129743Y5903583D1*
X4118337Y5889407D1*
X4049283Y5820357D1*
X4055947Y5820493D1*
X4063753Y5820020D1*
X4071493Y5818910D1*
X4079117Y5817173D1*
X4086573Y5814823D1*
X4093813Y5811870D1*
X4100790Y5808337D1*
X4107453Y5804247D1*
X4113763Y5799630D1*
X4119677Y5794510D1*
X4125150Y5788930D1*
X4130153Y5782920D1*
X4134647Y5776520D1*
X4138607Y5769777D1*
X4142003Y5762733D1*
X4144813Y5755437D1*
X4147020Y5747937D1*
X4148607Y5740280D1*
X4149563Y5732520D1*
X4149887Y5724663D1*
X4149570Y5716893D1*
X4148620Y5709133D1*
X4147040Y5701477D1*
X4144840Y5693973D1*
X4142037Y5686673D1*
X4138647Y5679627D1*
X4134693Y5672880D1*
X4130207Y5666477D1*
X4125210Y5660463D1*
X4119740Y5654877D1*
X4113833Y5649753D1*
X4107527Y5645127D1*
X4100867Y5641033D1*
X4093893Y5637493D1*
X4086657Y5634533D1*
X4079200Y5632177D1*
X4071580Y5630433D1*
X4063840Y5629317D1*
X4056037Y5628833D1*
X4048217Y5628990D1*
X4040440Y5629783D1*
X4032750Y5631207D1*
X4025203Y5633253D1*
X4017850Y5635907D1*
X4010733Y5639153D1*
X4003910Y5642967D1*
X3997417Y5647323D1*
X3991300Y5652197D1*
X3985603Y5657550D1*
X3980360Y5663353D1*
X3975610Y5669560D1*
X3971377Y5676137D1*
X3967697Y5683037D1*
X3964593Y5690213D1*
X3962080Y5697617D1*
X3960183Y5705203D1*
X3958910Y5712917D1*
X3958267Y5720710D1*
X3958263Y5728530D1*
X3958337Y5729403D1*
X3530060Y5301130D1*
X3530077Y5094447D1*
X3535613Y5086397D1*
X3543770Y5064777D1*
X3546513Y5042003D1*
X3543687Y5018900D1*
X3535457Y4997310D1*
X3522297Y4978317D1*
X3504973Y4963023D1*
X3484493Y4952323D1*
X3462047Y4946833D1*
X3438940Y4946873D1*
X3416517Y4952443D1*
X3396073Y4963217D1*
X3378807Y4978570D1*
X3365713Y4997610D1*
X3357557Y5019230D1*
X3354837Y5041973D1*
X3354830Y5042747D1*
X3343050Y5036593D1*
X3320603Y5031103D1*
X3297497Y5031143D1*
X3275073Y5036713D1*
X3254630Y5047487D1*
X3237363Y5062840D1*
X3224270Y5081880D1*
X3216113Y5103500D1*
X3213370Y5126443D1*
X3216197Y5149377D1*
X3223230Y5167827D1*
X3215867Y5164683D1*
X3193420Y5159193D1*
X3170313Y5159233D1*
X3147890Y5164803D1*
X3144437Y5166623D1*
X2423240Y5166613D1*
X2423363Y5165020D1*
X2423687Y5157163D1*
X2423370Y5149393D1*
X2422420Y5141633D1*
X2420840Y5133977D1*
X2418640Y5126473D1*
X2415837Y5119173D1*
X2412447Y5112127D1*
X2408493Y5105380D1*
X2404007Y5098977D1*
X2399010Y5092963D1*
X2393540Y5087377D1*
X2387633Y5082253D1*
X2381327Y5077627D1*
X2374667Y5073533D1*
X2367693Y5069993D1*
X2360457Y5067033D1*
X2353000Y5064677D1*
X2345380Y5062933D1*
X2337640Y5061817D1*
X2329837Y5061333D1*
X2322017Y5061490D1*
X2314240Y5062283D1*
X2306550Y5063707D1*
X2299003Y5065753D1*
X2291650Y5068407D1*
X2284533Y5071653D1*
X2277710Y5075467D1*
X2271217Y5079823D1*
X2265100Y5084697D1*
X2259403Y5090050D1*
X2254160Y5095853D1*
X2249410Y5102060D1*
X2245177Y5108637D1*
X2241497Y5115537D1*
X2238393Y5122713D1*
X2235880Y5130117D1*
X2233983Y5137703D1*
X2232710Y5145417D1*
X2232067Y5153210D1*
X2232063Y5161030D1*
X2232520Y5166607D1*
X2020647Y5166613D1*
X1885610Y5031573D1*
X1889933Y5033893D1*
X1894110Y5035977D1*
X1898347Y5037933D1*
X1902637Y5039770D1*
X1906977Y5041483D1*
X1911367Y5043067D1*
X1915800Y5044527D1*
X1920273Y5045857D1*
X1924780Y5047057D1*
X1947523Y5051067D1*
X1970603Y5051797D1*
X1993553Y5049233D1*
X2015907Y5043433D1*
X2037203Y5034507D1*
X2057017Y5022643D1*
X2074937Y5008080D1*
X2090603Y4991117D1*
X2103480Y4972410D1*
X2434637Y4972423D1*
X2450557Y4970880D1*
X2472517Y4963223D1*
X2491457Y4949730D1*
X2542067Y4899157D1*
X3242373Y4198867D1*
X3254903Y4216950D1*
X3272227Y4232243D1*
X3292707Y4242943D1*
X3315153Y4248433D1*
X3338260Y4248393D1*
X3360683Y4242823D1*
X3374360Y4235617D1*
X3391727Y4235613D1*
X4242747Y5086650D1*
X4241360Y5098233D1*
X4244187Y5121167D1*
X4252417Y5142757D1*
X4265577Y5161750D1*
X4282900Y5177043D1*
X4303380Y5187743D1*
X4325827Y5193233D1*
X4348933Y5193193D1*
X4371357Y5187623D1*
X4391800Y5176850D1*
X4409067Y5161497D1*
X4422160Y5142457D1*
X4430317Y5120837D1*
X4433060Y5098063D1*
X4430233Y5074960D1*
X4422003Y5053370D1*
X4417670Y5047120D1*
X4416277Y5041623D1*
X4406673Y5020420D1*
X4395393Y5006370D1*
X4050850Y4661820D1*
X4054553Y4659547D1*
X4060863Y4654930D1*
X4066777Y4649810D1*
X4072250Y4644230D1*
X4077253Y4638220D1*
X4081747Y4631820D1*
X4085707Y4625077D1*
X4089103Y4618033D1*
X4091913Y4610737D1*
X4094120Y4603237D1*
X4095707Y4595580D1*
X4096663Y4587820D1*
X4096987Y4579963D1*
X4096670Y4572193D1*
X4095720Y4564433D1*
X4094140Y4556777D1*
X4091940Y4549273D1*
X4089137Y4541973D1*
X4085747Y4534927D1*
X4081793Y4528180D1*
X4077307Y4521777D1*
X4072310Y4515763D1*
X4066840Y4510177D1*
X4060933Y4505053D1*
X4054627Y4500427D1*
X4047967Y4496333D1*
X4040993Y4492793D1*
X4033757Y4489833D1*
X4026300Y4487477D1*
X4018680Y4485733D1*
X4010940Y4484617D1*
X4003137Y4484133D1*
X3995317Y4484290D1*
X3987540Y4485083D1*
X3979850Y4486507D1*
X3972303Y4488553D1*
X3964950Y4491207D1*
X3957833Y4494453D1*
X3951010Y4498267D1*
X3944517Y4502623D1*
X3938400Y4507497D1*
X3932703Y4512850D1*
X3927460Y4518653D1*
X3922710Y4524860D1*
X3919250Y4530237D1*
X3484057Y4095033D1*
X3465457Y4081077D1*
X3443673Y4072873D1*
X3425753Y4070913D1*
X3374390Y4070910D1*
X3371723Y4069517D1*
X3534547Y3906680D1*
X3553943Y3906693D1*
X3567963Y3914017D1*
X3590410Y3919507D1*
X3613517Y3919467D1*
X3635940Y3913897D1*
X3656383Y3903123D1*
X3673650Y3887770D1*
X3686743Y3868730D1*
X3694900Y3847110D1*
X3697643Y3824337D1*
X3694817Y3801233D1*
X3686587Y3779643D1*
X3673427Y3760650D1*
X3656103Y3745357D1*
X3635623Y3734657D1*
X3613177Y3729167D1*
X3590070Y3729207D1*
X3567647Y3734777D1*
X3553970Y3741983D1*
X3512627Y3741987D1*
X3740103Y3514513D1*
X3740087Y4098863D1*
X3743370Y4121887D1*
X3752973Y4143090D1*
X3764257Y4157143D1*
X4162013Y4554893D1*
X4170043Y4575957D1*
X4183203Y4594950D1*
X4200527Y4610243D1*
X4221007Y4620943D1*
X4243453Y4626433D1*
X4266560Y4626393D1*
X4288983Y4620823D1*
X4309427Y4610050D1*
X4326693Y4594697D1*
X4339787Y4575657D1*
X4347943Y4554037D1*
X4350687Y4531263D1*
X4347860Y4508160D1*
X4339630Y4486570D1*
X4326470Y4467577D1*
X4309147Y4452283D1*
X4288667Y4441583D1*
X4279350Y4439303D1*
X3904790Y4064757D1*
X3904787Y3770420D1*
X4481890Y4347537D1*
X4494250Y4357713D1*
X4515193Y4367823D1*
X4538127Y4371677D1*
X4609267Y4371703D1*
X4864907D1*
X4895500Y4402277D1*
X4896133Y4407407D1*
X4904363Y4428997D1*
X4917523Y4447990D1*
X4934847Y4463283D1*
X4955327Y4473983D1*
X4977773Y4479473D1*
X5000880Y4479433D1*
X5023303Y4473863D1*
X5043747Y4463090D1*
X5061013Y4447737D1*
X5074107Y4428697D1*
X5082263Y4407077D1*
X5085007Y4384303D1*
X5082180Y4361200D1*
X5073950Y4339610D1*
X5060790Y4320617D1*
X5043467Y4305323D1*
X5022987Y4294623D1*
X5020027Y4293897D1*
X4957257Y4231123D1*
X4938657Y4217167D1*
X4916873Y4208963D1*
X4898960Y4207003D1*
X4574280Y4207000D1*
X4084570Y3717293D1*
X4106183Y3711923D1*
X4126627Y3701150D1*
X4143893Y3685797D1*
X4144957Y3684253D1*
X4145430Y3684003D1*
X4163953Y3688533D1*
X4187060Y3688493D1*
X4209483Y3682923D1*
X4218087Y3678390D1*
X5118270Y3678380D1*
X5141293Y3675097D1*
X5162497Y3665493D1*
X5176547Y3654213D1*
X5836997Y2993770D1*
X5836987Y3442167D1*
X6118687D1*
Y3417763D1*
X6340810D1*
X6341527Y3418250D1*
X6362007Y3428950D1*
X6384453Y3434440D1*
X6407177Y3434400D1*
X5570240Y4271353D1*
X5556273Y4289977D1*
X5550670Y4302553D1*
X5250010Y4001893D1*
X5250013Y3985353D1*
X5252610Y3981580D1*
X5260767Y3959960D1*
X5263510Y3937187D1*
X5260683Y3914083D1*
X5252453Y3892493D1*
X5239293Y3873500D1*
X5221970Y3858207D1*
X5201490Y3847507D1*
X5179043Y3842017D1*
X5155937Y3842057D1*
X5133513Y3847627D1*
X5113070Y3858400D1*
X5095803Y3873753D1*
X5082710Y3892793D1*
X5074553Y3914413D1*
X5071810Y3937357D1*
X5074637Y3960290D1*
X5082867Y3981880D1*
X5085297Y3985387D1*
X5085310Y4025350D1*
X5079510Y4023560D1*
X5071890Y4021817D1*
X5064150Y4020700D1*
X5056347Y4020217D1*
X5048527Y4020373D1*
X5040750Y4021167D1*
X5033060Y4022590D1*
X5025513Y4024637D1*
X5018160Y4027290D1*
X5011043Y4030537D1*
X5004220Y4034350D1*
X4997727Y4038707D1*
X4991610Y4043580D1*
X4985913Y4048933D1*
X4980670Y4054737D1*
X4975920Y4060943D1*
X4971687Y4067520D1*
X4968007Y4074420D1*
X4964903Y4081597D1*
X4962390Y4089000D1*
X4960493Y4096587D1*
X4959220Y4104300D1*
X4958577Y4112093D1*
X4958573Y4119913D1*
X4959210Y4127707D1*
X4960477Y4135423D1*
X4962367Y4143010D1*
X4964870Y4150417D1*
X4967970Y4157597D1*
X4971643Y4164497D1*
X4975867Y4171077D1*
X4980613Y4177290D1*
X4985853Y4183097D1*
X4991547Y4188457D1*
X4997657Y4193333D1*
X5004143Y4197697D1*
X5010967Y4201520D1*
X5018077Y4204770D1*
X5025430Y4207430D1*
X5032977Y4209483D1*
X5040663Y4210913D1*
X5048440Y4211713D1*
X5056257Y4211877D1*
X5064063Y4211403D1*
X5071803Y4210293D1*
X5079427Y4208557D1*
X5086883Y4206207D1*
X5094123Y4203253D1*
X5101100Y4199720D1*
X5107763Y4195630D1*
X5114073Y4191013D1*
X5119987Y4185893D1*
X5125460Y4180313D1*
X5130463Y4174303D1*
X5134957Y4167903D1*
X5138917Y4161160D1*
X5142313Y4154117D1*
X5145123Y4146820D1*
X5147330Y4139320D1*
X5148563Y4133360D1*
X5454740Y4439543D1*
X5454737Y4529077D1*
X5452140Y4532850D1*
X5443983Y4554470D1*
X5441240Y4577413D1*
X5444067Y4600347D1*
X5452297Y4621937D1*
X5465457Y4640930D1*
X5482780Y4656223D1*
X5503260Y4666923D1*
X5525707Y4672413D1*
X5546127Y4672380D1*
X5546120Y4746837D1*
X5445520Y4847443D1*
X5435863Y4849843D1*
X5415420Y4860617D1*
X5398153Y4875970D1*
X5385060Y4895010D1*
X5376903Y4916630D1*
X5374160Y4939573D1*
X5376987Y4962507D1*
X5385217Y4984097D1*
X5387440Y4987307D1*
X5165053Y4987290D1*
X5161923Y4984167D1*
X5153800Y4963017D1*
X5140640Y4944023D1*
X5123317Y4928730D1*
X5102837Y4918030D1*
X5080390Y4912540D1*
X5057283Y4912580D1*
X5034860Y4918150D1*
X5014417Y4928923D1*
X4997150Y4944277D1*
X4984057Y4963317D1*
X4975900Y4984937D1*
X4973157Y5007880D1*
X4975983Y5030813D1*
X4984213Y5052403D1*
X4997373Y5071397D1*
X5006427Y5079387D1*
X4993233Y5091770D1*
X4980140Y5110810D1*
X4971983Y5132430D1*
X4969240Y5155373D1*
X4972067Y5178307D1*
X4980297Y5199897D1*
X4993457Y5218890D1*
X5010780Y5234183D1*
X5031260Y5244883D1*
X5053707Y5250373D1*
X5076813Y5250333D1*
X5099237Y5244763D1*
X5112913Y5237557D1*
X5236470D1*
X5226947Y5242577D1*
X5209680Y5257930D1*
X5196587Y5276970D1*
X5188430Y5298590D1*
X5185687Y5321533D1*
X5186263Y5326213D1*
X4951893D1*
X4932710Y5328250D1*
X4910777Y5336023D1*
X4891537Y5349110D1*
X4887597Y5352823D1*
X4787630Y5452790D1*
X4787627Y5096933D1*
X5151827Y4732723D1*
X5161483Y4730323D1*
X5181927Y4719550D1*
X5199193Y4704197D1*
X5212287Y4685157D1*
X5220443Y4663537D1*
X5223187Y4640763D1*
X5220360Y4617660D1*
X5212130Y4596070D1*
X5200807Y4579727D1*
X5211887Y4563057D1*
X5220043Y4541437D1*
X5222787Y4518663D1*
X5219960Y4495560D1*
X5211730Y4473970D1*
X5198570Y4454977D1*
X5181247Y4439683D1*
X5160767Y4428983D1*
X5138320Y4423493D1*
X5115213Y4423533D1*
X5092790Y4429103D1*
X5072347Y4439877D1*
X5055080Y4455230D1*
X5041987Y4474270D1*
X5033830Y4495890D1*
X5033200Y4501157D1*
X4699487Y4834850D1*
X4699170Y4827093D1*
X4698220Y4819333D1*
X4696640Y4811677D1*
X4694440Y4804173D1*
X4691637Y4796873D1*
X4688247Y4789827D1*
X4684293Y4783080D1*
X4679807Y4776677D1*
X4674810Y4770663D1*
X4669340Y4765077D1*
X4663433Y4759953D1*
X4657127Y4755327D1*
X4650467Y4751233D1*
X4643493Y4747693D1*
X4636257Y4744733D1*
X4628800Y4742377D1*
X4621180Y4740633D1*
X4613440Y4739517D1*
X4605637Y4739033D1*
X4597817Y4739190D1*
X4590040Y4739983D1*
X4582350Y4741407D1*
X4574803Y4743453D1*
X4567450Y4746107D1*
X4560333Y4749353D1*
X4553510Y4753167D1*
X4547017Y4757523D1*
X4540900Y4762397D1*
X4535203Y4767750D1*
X4529960Y4773553D1*
X4525210Y4779760D1*
X4520977Y4786337D1*
X4517297Y4793237D1*
X4514193Y4800413D1*
X4511680Y4807817D1*
X4509783Y4815403D1*
X4508510Y4823117D1*
X4507867Y4830910D1*
X4507863Y4838730D1*
X4508500Y4846523D1*
X4509767Y4854240D1*
X4511657Y4861827D1*
X4514160Y4869233D1*
X4517260Y4876413D1*
X4520933Y4883313D1*
X4525157Y4889893D1*
X4529903Y4896107D1*
X4535143Y4901913D1*
X4540837Y4907273D1*
X4546947Y4912150D1*
X4553433Y4916513D1*
X4560257Y4920337D1*
X4567367Y4923587D1*
X4574720Y4926247D1*
X4582267Y4928300D1*
X4589953Y4929730D1*
X4597730Y4930530D1*
X4603677Y4930657D1*
X4488643Y5045693D1*
X4476000Y5061970D1*
X6300550Y5542153D2*
Y5666073D1*
X5988903D1*
Y5977187D1*
X5995323Y5989773D1*
X6312603D1*
Y5960997D1*
X6317437Y5964210D1*
X6337720Y5975247D1*
X6359367Y5983287D1*
X6381940Y5988167D1*
X6404977Y5989783D1*
X6428007Y5988103D1*
X6450563Y5983163D1*
X6472190Y5975063D1*
X6492443Y5963970D1*
X6510910Y5950107D1*
X6527217Y5933753D1*
X6531520Y5927990D1*
X6536580Y5934097D1*
X6552933Y5950403D1*
X6571437Y5964217D1*
X6591720Y5975257D1*
X6613367Y5983297D1*
X6635940Y5988173D1*
X6658977Y5989790D1*
X6682007Y5988110D1*
X6704563Y5983170D1*
X6726190Y5975070D1*
X6746443Y5963977D1*
X6764910Y5950113D1*
X6781217Y5933760D1*
X6785520Y5927997D1*
X6790580Y5934103D1*
X6806933Y5950410D1*
X6821913Y5961593D1*
X6821903Y6159703D1*
X6165257Y6159713D1*
X5995323Y5989770D1*
X5988903Y5977187D1*
Y5983347D1*
X5372383Y5366830D1*
X5372387Y5351907D1*
X5374643Y5344137D1*
X5377387Y5321363D1*
X5374560Y5298260D1*
X5366330Y5276670D1*
X5353170Y5257677D1*
X5335847Y5242383D1*
X5326587Y5237543D1*
X5377040Y5237553D1*
X5586323Y5446850D1*
X5598670Y5457017D1*
X5619613Y5467127D1*
X5642547Y5470980D1*
X5711953Y5471007D1*
X5768730D1*
X5784647Y5469463D1*
X5806607Y5461807D1*
X5825547Y5448313D1*
X5876323Y5397577D1*
X6324643Y4949257D1*
X6324247Y4954043D1*
X6324243Y4961863D1*
X6324880Y4969657D1*
X6326147Y4977373D1*
X6328037Y4984960D1*
X6330540Y4992367D1*
X6333640Y4999547D1*
X6337313Y5006447D1*
X6341537Y5013027D1*
X6346283Y5019240D1*
X6351523Y5025047D1*
X6357217Y5030407D1*
X6363327Y5035283D1*
X6369813Y5039647D1*
X6376637Y5043470D1*
X6383747Y5046720D1*
X6391100Y5049380D1*
X6398647Y5051433D1*
X6406333Y5052863D1*
X6414110Y5053663D1*
X6421927Y5053827D1*
X6429733Y5053353D1*
X6437473Y5052243D1*
X6445097Y5050507D1*
X6452553Y5048157D1*
X6459793Y5045203D1*
X6466770Y5041670D1*
X6473433Y5037580D1*
X6479743Y5032963D1*
X6485657Y5027843D1*
X6491130Y5022263D1*
X6496133Y5016253D1*
X6500627Y5009853D1*
X6504587Y5003110D1*
X6507983Y4996067D1*
X6510793Y4988770D1*
X6513000Y4981270D1*
X6514587Y4973613D1*
X6515543Y4965853D1*
X6515867Y4957997D1*
X6515550Y4950227D1*
X6514600Y4942467D1*
X6513020Y4934810D1*
X6510820Y4927307D1*
X6508017Y4920007D1*
X6504627Y4912960D1*
X6500673Y4906213D1*
X6496187Y4899810D1*
X6491190Y4893797D1*
X6485720Y4888210D1*
X6479813Y4883087D1*
X6473507Y4878460D1*
X6466847Y4874367D1*
X6459873Y4870827D1*
X6452637Y4867867D1*
X6445180Y4865510D1*
X6437560Y4863767D1*
X6429820Y4862650D1*
X6422017Y4862167D1*
X6414197Y4862323D1*
X6411273Y4862620D1*
X6520677Y4753223D1*
X7246230Y4753217D1*
X7260250Y4760540D1*
X7282697Y4766030D1*
X7305803Y4765990D1*
X7328227Y4760420D1*
X7348670Y4749647D1*
X7365937Y4734293D1*
X7379030Y4715253D1*
X7387187Y4693633D1*
X7389930Y4670860D1*
X7387103Y4647757D1*
X7378873Y4626167D1*
X7365713Y4607173D1*
X7348390Y4591880D1*
X7327910Y4581180D1*
X7305463Y4575690D1*
X7282357Y4575730D1*
X7259933Y4581300D1*
X7246257Y4588507D1*
X6570853Y4588510D1*
X6945990Y4213393D1*
X6976490Y4182893D1*
X8039437Y4182890D1*
X8054663Y4190220D1*
X8077110Y4195710D1*
X8100217Y4195670D1*
X8122640Y4190100D1*
X8143083Y4179327D1*
X8160350Y4163973D1*
X8173443Y4144933D1*
X8181600Y4123313D1*
X8184343Y4100540D1*
X8181517Y4077437D1*
X8173287Y4055847D1*
X8160127Y4036853D1*
X8142803Y4021560D1*
X8122323Y4010860D1*
X8099877Y4005370D1*
X8076770Y4005410D1*
X8054347Y4010980D1*
X8040670Y4018187D1*
X6986657Y4018190D1*
X7078017Y3926817D1*
X8047040Y3926807D1*
X8062280Y3934137D1*
X8084727Y3939627D1*
X8107833Y3939587D1*
X8130257Y3934017D1*
X8150700Y3923243D1*
X8167967Y3907890D1*
X8181060Y3888850D1*
X8189217Y3867230D1*
X8191960Y3844457D1*
X8189133Y3821353D1*
X8180903Y3799763D1*
X8167743Y3780770D1*
X8150420Y3765477D1*
X8129940Y3754777D1*
X8107493Y3749287D1*
X8084387Y3749327D1*
X8061963Y3754897D1*
X8048287Y3762103D1*
X7043970Y3762107D1*
X7028050Y3763650D1*
X7006090Y3771307D1*
X6987150Y3784800D1*
X6936283Y3835630D1*
X6478990Y4292943D1*
X6475947Y4288547D1*
X6458623Y4273253D1*
X6438143Y4262553D1*
X6415697Y4257063D1*
X6392590Y4257103D1*
X6370167Y4262673D1*
X6349723Y4273447D1*
X6332457Y4288800D1*
X6319363Y4307840D1*
X6314927Y4319600D1*
X6078800Y4555717D1*
X6080777Y4536390D1*
X6077950Y4513287D1*
X6071623Y4496693D1*
Y4397980D1*
X6074460Y4392877D1*
X6082500Y4371213D1*
X6085123Y4348937D1*
X6082297Y4325833D1*
X6074067Y4304243D1*
X6060907Y4285250D1*
X6043583Y4269957D1*
X6023103Y4259257D1*
X6000657Y4253767D1*
X5977550Y4253807D1*
X5970563Y4255540D1*
X6688337Y3537780D1*
X6714027Y3537773D1*
X6708403Y3550070D1*
X6702177Y3572517D1*
X6700533Y3595753D1*
X6703540Y3618853D1*
X6711077Y3640893D1*
X6722843Y3660997D1*
X6738370Y3678363D1*
X6757037Y3692300D1*
X6778100Y3702247D1*
X6800720Y3707810D1*
X6817133Y3708970D1*
X8287517D1*
X8567153Y3988613D1*
X8553210Y3985890D1*
X8530103Y3985930D1*
X8507680Y3991500D1*
X8487237Y4002273D1*
X8469970Y4017627D1*
X8456877Y4036667D1*
X8448720Y4058287D1*
X8445977Y4081230D1*
X8448803Y4104163D1*
X8456093Y4123287D1*
X8285897Y4293460D1*
X7373043Y5206310D1*
X6801167Y5206297D1*
X6636337D1*
X6613313Y5209580D1*
X6592110Y5219183D1*
X6578060Y5230463D1*
X6324670Y5483853D1*
X6310713Y5502453D1*
X6302510Y5524237D1*
X6300550Y5542153D1*
X9515187Y5627317D2*
X9518597Y5650390D1*
X9526193Y5672417D1*
X9537723Y5692663D1*
X9551863Y5709527D1*
X9909200Y6066867D1*
Y6068313D1*
X9911680Y6091690D1*
X9916630Y6114670D1*
X9923993Y6136993D1*
X9933690Y6158410D1*
X9945607Y6178673D1*
X9959610Y6197557D1*
X9975540Y6214843D1*
X9993220Y6230337D1*
X10012447Y6243867D1*
X10033000Y6255277D1*
X10054650Y6264433D1*
X10077153Y6271240D1*
X10100250Y6275613D1*
X10123680Y6277510D1*
X10147183Y6276903D1*
X10170483Y6273803D1*
X10193327Y6268243D1*
X10215447Y6260287D1*
X10236597Y6250023D1*
X10256537Y6237573D1*
X10275040Y6223070D1*
X10291897Y6206687D1*
X10306913Y6188600D1*
X10319927Y6169020D1*
X10330783Y6148170D1*
X10339363Y6126283D1*
X10345567Y6103610D1*
X10349327Y6080403D1*
X10350597Y6056743D1*
X10349367Y6033453D1*
X10345647Y6010240D1*
X10339480Y5987557D1*
X10330937Y5965653D1*
X10320117Y5944787D1*
X10307137Y5925183D1*
X10292147Y5907073D1*
X10275320Y5890660D1*
X10256840Y5876127D1*
X10236923Y5863643D1*
X10215790Y5853343D1*
X10193683Y5845350D1*
X10170850Y5839753D1*
X10147553Y5836613D1*
X10124053Y5835967D1*
X10100620Y5837823D1*
X10077513Y5842160D1*
X10055000Y5848927D1*
X10049520Y5851233D1*
X9766713Y5568420D1*
X9766703Y4873103D1*
X9766717Y4872840D1*
X9769593Y4870957D1*
X9787280Y4855763D1*
X9802870Y4838423D1*
X9816097Y4819220D1*
X9826740Y4798473D1*
X9834630Y4776533D1*
X9839630Y4753757D1*
X9841657Y4730530D1*
X9840680Y4707233D1*
X9836713Y4684253D1*
X9829823Y4661980D1*
X9820123Y4640773D1*
X9807777Y4620993D1*
X9792987Y4602967D1*
X9776003Y4586993D1*
X9757103Y4573337D1*
X9736603Y4562227D1*
X9723790Y4557290D1*
X9841710Y4557297D1*
Y4195597D1*
X9440010D1*
Y4557297D1*
X9556867D1*
X9552590Y4558973D1*
X9531610Y4569150D1*
X9512113Y4581937D1*
X9494427Y4597130D1*
X9478840Y4614470D1*
X9465613Y4633673D1*
X9454967Y4654420D1*
X9447077Y4676360D1*
X9442077Y4699137D1*
X9440050Y4722363D1*
X9441027Y4745660D1*
X9444993Y4768640D1*
X9451883Y4790913D1*
X9461583Y4812120D1*
X9473930Y4831900D1*
X9488720Y4849927D1*
X9505703Y4865900D1*
X9514987Y4872610D1*
X9515003Y5496643D1*
Y5620473D1*
X9515187Y5627317D1*
X7621870Y5576080D2*
X7601390Y5587270D1*
X7593170Y5590403D1*
X7732680Y5729913D1*
X7743970Y5743977D1*
X7753560Y5765163D1*
X7756843Y5788187D1*
Y5947697D1*
X7759963D1*
X7759953Y6159713D1*
X8008017Y6159703D1*
X8734777Y5432950D1*
X8719793Y5434677D1*
X8702907Y5433700D1*
X7767060Y5433710D1*
X7638513Y5562260D1*
X7621870Y5576080D1*
X1721773Y3613257D2*
X1700527Y3622783D1*
X1677520Y3626387D1*
X1631643Y3626413D1*
X1610417Y3623837D1*
X1588773Y3615303D1*
X1570130Y3601387D1*
X1555793Y3583067D1*
X1546767Y3561623D1*
X1543687Y3538563D1*
Y3450563D1*
X1545803Y3431397D1*
X1553853Y3409543D1*
X1562687Y3396003D1*
Y2856893D1*
X1211387Y3208173D1*
Y4413627D1*
X1215827Y4397057D1*
X1218117Y4389600D1*
X1228083Y4368550D1*
X1242347Y4350113D1*
X1298677Y4293760D1*
X1304390Y4288447D1*
X1323543Y4275200D1*
X1345113Y4266367D1*
X1422067Y4245727D1*
X1429670Y4243983D1*
X1452880Y4242087D1*
X1475980Y4245223D1*
X1552943Y4265823D1*
X1560400Y4268113D1*
X1581450Y4278080D1*
X1599887Y4292343D1*
X1656240Y4348667D1*
X1661553Y4354380D1*
X1674797Y4373533D1*
X1683633Y4395103D1*
X1704033Y4471167D1*
X1706387Y4481677D1*
X1707840Y4504920D1*
X1704277Y4527933D1*
X1684183Y4602933D1*
X1681893Y4610390D1*
X1671930Y4631437D1*
X1657667Y4649873D1*
X1601340Y4706233D1*
X1595630Y4711547D1*
X1576477Y4724793D1*
X1554907Y4733627D1*
X1477943Y4754273D1*
X1470340Y4756017D1*
X1447130Y4757913D1*
X1424030Y4754777D1*
X1347337Y4734250D1*
X1337673Y4731193D1*
X1316817Y4720830D1*
X1298670Y4706237D1*
X1243767Y4651333D1*
X1238453Y4645620D1*
X1225207Y4626467D1*
X1216373Y4604897D1*
X1211387Y4586343D1*
X1211390Y5328913D1*
X1288690Y5328903D1*
Y5288913D1*
X1570390D1*
X1570377Y5328913D1*
X1671163D1*
X1675243Y5324957D1*
X1688730Y5306000D1*
X1706720Y5291250D1*
X1727953Y5281737D1*
X1750960Y5278137D1*
X1796940Y5278110D1*
X1816110Y5280227D1*
X1837940Y5288267D1*
X1856910Y5301770D1*
X1875720Y5291257D1*
X1896950Y5281743D1*
X1901613Y5280500D1*
X1563153Y4942033D1*
X1562927Y4946953D1*
X1561933Y4954710D1*
X1560313Y4962357D1*
X1558070Y4969850D1*
X1555227Y4977133D1*
X1551800Y4984160D1*
X1547810Y4990887D1*
X1543287Y4997263D1*
X1538257Y5003250D1*
X1532757Y5008810D1*
X1526823Y5013900D1*
X1520493Y5018490D1*
X1513810Y5022550D1*
X1506817Y5026050D1*
X1499563Y5028970D1*
X1492097Y5031287D1*
X1484463Y5032990D1*
X1476720Y5034063D1*
X1468913Y5034503D1*
X1461097Y5034303D1*
X1453320Y5033470D1*
X1445640Y5032003D1*
X1438107Y5029917D1*
X1430767Y5027220D1*
X1423670Y5023937D1*
X1416863Y5020087D1*
X1410397Y5015693D1*
X1404307Y5010787D1*
X1398637Y5005400D1*
X1393427Y4999573D1*
X1388710Y4993337D1*
X1384513Y4986737D1*
X1380873Y4979820D1*
X1377807Y4972627D1*
X1375337Y4965207D1*
X1373477Y4957613D1*
X1372247Y4949890D1*
X1371647Y4942093D1*
X1371687Y4934273D1*
X1372363Y4926487D1*
X1373673Y4918777D1*
X1375607Y4911200D1*
X1378150Y4903807D1*
X1381287Y4896643D1*
X1385000Y4889763D1*
X1389260Y4883207D1*
X1394040Y4877017D1*
X1399310Y4871240D1*
X1405030Y4865913D1*
X1411170Y4861067D1*
X1417680Y4856740D1*
X1424523Y4852957D1*
X1431653Y4849743D1*
X1439020Y4847123D1*
X1446577Y4845110D1*
X1454270Y4843723D1*
X1462053Y4842963D1*
X1469870Y4842843D1*
X1477673Y4843360D1*
X1485407Y4844513D1*
X1493020Y4846290D1*
X1500467Y4848683D1*
X1507690Y4851677D1*
X1511183Y4853380D1*
X1514607Y4855223D1*
X1517953Y4857207D1*
X1521217Y4859323D1*
X1524740Y4861823D1*
X1517513Y4842867D1*
X1514687Y4819933D1*
X1517430Y4796990D1*
X1525587Y4775370D1*
X1538680Y4756330D1*
X1555947Y4740977D1*
X1576390Y4730203D1*
X1598813Y4724633D1*
X1621920Y4724593D1*
X1644367Y4730083D1*
X1664847Y4740783D1*
X1682170Y4756077D1*
X1695330Y4775070D1*
X1703560Y4796660D1*
X1706387Y4819763D1*
X1705997Y4828403D1*
X1702097Y4848063D1*
X1822700Y4968663D1*
X1821273Y4966073D1*
X1819140Y4961923D1*
X1817130Y4957710D1*
X1815240Y4953443D1*
X1813477Y4949123D1*
X1811837Y4944753D1*
X1810323Y4940340D1*
X1808937Y4935883D1*
X1804000Y4913327D1*
X1802320Y4890293D1*
X1803937Y4867260D1*
X1808813Y4844687D1*
X1816853Y4823040D1*
X1827893Y4802757D1*
X1841707Y4784253D1*
X1858013Y4767900D1*
X1864117Y4762840D1*
X1858353Y4758537D1*
X1842000Y4742230D1*
X1828137Y4723763D1*
X1817043Y4703510D1*
X1808943Y4681883D1*
X1804003Y4659327D1*
X1802323Y4636293D1*
X1803940Y4613260D1*
X1808817Y4590687D1*
X1816860Y4569040D1*
X1827897Y4548757D1*
X1841710Y4530253D1*
X1858017Y4513900D1*
X1864123Y4508840D1*
X1858357Y4504537D1*
X1842007Y4488230D1*
X1828143Y4469763D1*
X1817047Y4449510D1*
X1808947Y4427883D1*
X1804007Y4405327D1*
X1802330Y4382293D1*
X1803947Y4359260D1*
X1808823Y4336687D1*
X1816863Y4315040D1*
X1827903Y4294757D1*
X1831130Y4289923D1*
X1802333D1*
Y3966223D1*
X2126033D1*
Y4289923D1*
X2096867D1*
X2097843Y4291223D1*
X2209053Y4291217D1*
X2210790Y4290303D1*
X2233213Y4284733D1*
X2256320Y4284693D1*
X2278767Y4290183D1*
X2281397Y4291223D1*
X2613107Y4291213D1*
X3372003Y3532310D1*
X3221003Y3381310D1*
X2608380Y3381297D1*
X2538170Y3451507D1*
X2526013Y3461117D1*
X2505710Y3469320D1*
X2483837Y3470410D1*
X2462800Y3464257D1*
X2458120Y3461740D1*
X2458783Y3470067D1*
X2457017Y3492777D1*
X2451677Y3515193D1*
X2442897Y3536497D1*
X2430893Y3556167D1*
X2415960Y3573717D1*
X2398463Y3588713D1*
X2378837Y3600790D1*
X2357563Y3609647D1*
X2335167Y3615067D1*
X2312200Y3616917D1*
X2289223Y3615150D1*
X2266807Y3609810D1*
X2245500Y3601030D1*
X2225833Y3589027D1*
X2208283Y3574093D1*
X2193287Y3556597D1*
X2181210Y3536970D1*
X2172353Y3515697D1*
X2166933Y3493300D1*
X2165083Y3470333D1*
X2166850Y3447357D1*
X2172187Y3424940D1*
X2180967Y3403633D1*
X2192973Y3383967D1*
X2207907Y3366417D1*
X2225400Y3351420D1*
X2245027Y3339343D1*
X2266300Y3330487D1*
X2288697Y3325067D1*
X2311667Y3323217D1*
X2320260Y3323877D1*
X2314410Y3310963D1*
X2311147Y3289310D1*
X2315163Y3267783D1*
X2326037Y3248750D1*
X2330457Y3243863D1*
X2444973Y3129347D1*
X2451650Y3123517D1*
X2471037Y3113333D1*
X2492690Y3110070D1*
X2514217Y3114087D1*
X2533250Y3124960D1*
X2538133Y3129380D1*
X2608373Y3199610D1*
X3259987Y3199620D1*
X3283017Y3202943D1*
X3304450Y3212007D1*
X3322873Y3226220D1*
X3559187Y3462507D1*
X3649717Y3371977D1*
X3647087Y3350633D1*
X3649830Y3327690D1*
X3657987Y3306070D1*
X3671080Y3287030D1*
X3688347Y3271677D1*
X3708790Y3260903D1*
X3731213Y3255333D1*
X3740087Y3254657D1*
X3740100Y3099287D1*
X3405327Y2764517D1*
X3399827Y2761643D1*
X3382503Y2746350D1*
X3369343Y2727357D1*
X3361113Y2705767D1*
X3358287Y2682833D1*
X3361030Y2659890D1*
X3369187Y2638270D1*
X3382280Y2619230D1*
X3399547Y2603877D1*
X3419990Y2593103D1*
X3442413Y2587533D1*
X3465520Y2587493D1*
X3487967Y2592983D1*
X3508447Y2603683D1*
X3525623Y2618800D1*
X3534000Y2603410D1*
X3547813Y2584903D1*
X3564120Y2568553D1*
X3570227Y2563493D1*
X3564460Y2559190D1*
X3548110Y2542883D1*
X3534247Y2524413D1*
X3523150Y2504163D1*
X3515053Y2482537D1*
X3510113Y2459980D1*
X3508433Y2436947D1*
X3510050Y2413910D1*
X3514927Y2391340D1*
X3522967Y2369693D1*
X3534007Y2349410D1*
X3547820Y2330903D1*
X3564127Y2314553D1*
X3582593Y2300690D1*
X3602847Y2289593D1*
X3624473Y2281493D1*
X3647030Y2276557D1*
X3670063Y2274877D1*
X3693097Y2276493D1*
X3715670Y2281370D1*
X3737317Y2289410D1*
X3757600Y2300450D1*
X3776107Y2314263D1*
X3792457Y2330570D1*
X3797517Y2336677D1*
X3801820Y2330910D1*
X3818127Y2314560D1*
X3836593Y2300697D1*
X3856847Y2289600D1*
X3878473Y2281500D1*
X3901030Y2276563D1*
X3924063Y2274883D1*
X3932993Y2275120D1*
X3932110Y2271573D1*
X3930843Y2263857D1*
X3930207Y2256063D1*
X3930210Y2248243D1*
X3930853Y2240450D1*
X3932127Y2232737D1*
X3934023Y2225150D1*
X3936537Y2217747D1*
X3939640Y2210570D1*
X3943320Y2203670D1*
X3947553Y2197093D1*
X3952303Y2190887D1*
X3957547Y2185083D1*
X3963243Y2179730D1*
X3969360Y2174857D1*
X3975853Y2170500D1*
X3982677Y2166687D1*
X3989793Y2163440D1*
X3997147Y2160787D1*
X4004693Y2158740D1*
X4012383Y2157317D1*
X4020160Y2156523D1*
X4027980Y2156367D1*
X4035783Y2156850D1*
X4043523Y2157967D1*
X4051143Y2159710D1*
X4058600Y2162067D1*
X4065837Y2165027D1*
X4072810Y2168567D1*
X4079470Y2172660D1*
X4085777Y2177287D1*
X4091683Y2182410D1*
X4097153Y2187997D1*
X4102150Y2194010D1*
X4106637Y2200413D1*
X4110590Y2207160D1*
X4113980Y2214207D1*
X4116783Y2221507D1*
X4118983Y2229010D1*
X4120563Y2236667D1*
X4121513Y2244427D1*
X4121830Y2252240D1*
X4121507Y2260053D1*
X4120550Y2267813D1*
X4118963Y2275470D1*
X4116757Y2282970D1*
X4113947Y2290267D1*
X4110550Y2297310D1*
X4106590Y2304053D1*
X4102097Y2310453D1*
X4097093Y2316463D1*
X4091620Y2322043D1*
X4085707Y2327163D1*
X4079397Y2331780D1*
X4072733Y2335870D1*
X4065757Y2339403D1*
X4058517Y2342357D1*
X4055973Y2343253D1*
X4060320Y2349043D1*
X4071417Y2369297D1*
X4079513Y2390923D1*
X4084453Y2413480D1*
X4086133Y2436733D1*
X4084517Y2459547D1*
X4079640Y2482120D1*
X4071600Y2503767D1*
X4060560Y2524050D1*
X4057347Y2528883D1*
X4086127D1*
Y2852583D1*
X3762427D1*
X3762420Y2823420D1*
X3757967Y2826763D1*
X3737713Y2837857D1*
X3718727Y2844970D1*
X3830927Y2957193D1*
X3882093Y3008397D1*
X3895587Y3027337D1*
X3903243Y3049320D1*
X3904787Y3065210D1*
X3904777Y3444040D1*
X4430670Y2918187D1*
X4449610Y2904693D1*
X4471593Y2897033D1*
X4487483Y2895493D1*
X4770897Y2895503D1*
X4773227Y2892173D1*
X4789657Y2875730D1*
X4808690Y2862390D1*
X4829753Y2852557D1*
X4852203Y2846530D1*
X4875357Y2844493D1*
X4898513Y2846510D1*
X4920970Y2852517D1*
X4942040Y2862330D1*
X4961087Y2875653D1*
X4977530Y2892083D1*
X4990870Y2911117D1*
X5000703Y2932180D1*
X5006730Y2954630D1*
X5008767Y2977843D1*
X5006750Y3000940D1*
X5000743Y3023397D1*
X4990930Y3044467D1*
X4977607Y3063513D1*
X4961177Y3079957D1*
X4942143Y3093297D1*
X4921080Y3103130D1*
X4898630Y3109157D1*
X4875477Y3111193D1*
X4852320Y3109177D1*
X4829863Y3103170D1*
X4808793Y3093357D1*
X4789747Y3080033D1*
X4773303Y3063603D1*
X4770920Y3060203D1*
X4521553Y3060187D1*
X4171717Y3410003D1*
X4978723Y3410017D1*
X6007973Y2380757D1*
X6001457Y2381153D1*
X5993640Y2380990D1*
X5985863Y2380190D1*
X5978177Y2378760D1*
X5970630Y2376707D1*
X5963277Y2374047D1*
X5956167Y2370797D1*
X5949343Y2366973D1*
X5942857Y2362610D1*
X5936747Y2357733D1*
X5931053Y2352373D1*
X5925813Y2346567D1*
X5921067Y2340353D1*
X5916843Y2333773D1*
X5913170Y2326873D1*
X5910070Y2319693D1*
X5907567Y2312287D1*
X5905677Y2304700D1*
X5904410Y2296983D1*
X5903773Y2289190D1*
X5903820Y2280440D1*
X5397783Y2786487D1*
X5389987Y2807157D1*
X5376893Y2826197D1*
X5359627Y2841550D1*
X5339183Y2852323D1*
X5316760Y2857893D1*
X5293653Y2857933D1*
X5271207Y2852443D1*
X5250727Y2841743D1*
X5233403Y2826450D1*
X5220243Y2807457D1*
X5212013Y2785867D1*
X5209187Y2762933D1*
X5211930Y2739990D1*
X5220087Y2718370D1*
X5233180Y2699330D1*
X5250447Y2683977D1*
X5270890Y2673203D1*
X5280547Y2670803D1*
X5968333Y1983003D1*
X5982403Y1971710D1*
X6003590Y1962120D1*
X6026613Y1958837D1*
X8915520Y1958833D1*
X8903117Y1940933D1*
X8894887Y1919343D1*
X8892060Y1896410D1*
X8894803Y1873467D1*
X8902960Y1851847D1*
X8905560Y1847183D1*
X8905547Y1517917D1*
X8828023Y1440390D1*
X8620780D1*
Y1116690D1*
X8944480D1*
X8944487Y1145847D1*
X8948940Y1142503D1*
X8969193Y1131407D1*
X8990820Y1123310D1*
X9013377Y1118370D1*
X9036410Y1116690D1*
X9059443Y1118307D1*
X9082017Y1123183D1*
X9103663Y1131223D1*
X9123947Y1142263D1*
X9142453Y1156077D1*
X9158803Y1172383D1*
X9163863Y1178483D1*
X9168167Y1172717D1*
X9184473Y1156367D1*
X9202940Y1142503D1*
X9223193Y1131407D1*
X9244820Y1123310D1*
X9267377Y1118370D1*
X9290410Y1116690D1*
X9313443Y1118307D1*
X9336017Y1123183D1*
X9357663Y1131223D1*
X9377947Y1142263D1*
X9396453Y1156077D1*
X9412803Y1172383D1*
X9417863Y1178483D1*
X9422167Y1172717D1*
X9438473Y1156367D1*
X9456940Y1142503D1*
X9477193Y1131407D1*
X9498820Y1123310D1*
X9521377Y1118370D1*
X9544410Y1116690D1*
X9567443Y1118307D1*
X9590017Y1123183D1*
X9611663Y1131223D1*
X9631947Y1142263D1*
X9650453Y1156077D1*
X9666803Y1172383D1*
X9671657Y1178247D1*
X9674360Y1174847D1*
X9679473Y1169007D1*
X9684863Y1163420D1*
X9690513Y1158100D1*
X9696410Y1153053D1*
X9702547Y1148297D1*
X9708900Y1143840D1*
X9715463Y1139693D1*
X9722213Y1135867D1*
X9729143Y1132367D1*
X9736230Y1129203D1*
X9743463Y1126383D1*
X9750820Y1123913D1*
X9758290Y1121797D1*
X9765850Y1120043D1*
X9773487Y1118653D1*
X9781183Y1117633D1*
X9788917Y1116983D1*
X9796673Y1116703D1*
X9804437Y1116793D1*
X9812183Y1117260D1*
X9819900Y1118093D1*
X9827570Y1119297D1*
X9835170Y1120870D1*
X9842690Y1122803D1*
X9850103Y1125093D1*
X9857403Y1127737D1*
X9864563Y1130730D1*
X9871577Y1134060D1*
X9878420Y1137723D1*
X9885080Y1141710D1*
X9891540Y1146013D1*
X9897787Y1150620D1*
X9903807Y1155520D1*
X9909583Y1160707D1*
X9915103Y1166160D1*
X9920360Y1171873D1*
X9925333Y1177833D1*
X9930017Y1184023D1*
X9934397Y1190433D1*
X9938463Y1197043D1*
X9942210Y1203840D1*
X9945627Y1210810D1*
X9948707Y1217937D1*
X9951437Y1225200D1*
X9953820Y1232590D1*
X9955843Y1240083D1*
X9957507Y1247663D1*
X9958807Y1255317D1*
X9959733Y1263023D1*
X9960293Y1270767D1*
X9960480Y1278540D1*
X9960293Y1286283D1*
X9959737Y1294027D1*
X9958810Y1301733D1*
X9957513Y1309387D1*
X9955850Y1316970D1*
X9953830Y1324463D1*
X9951447Y1331850D1*
X9948717Y1339117D1*
X9945640Y1346243D1*
X9942223Y1353213D1*
X9938480Y1360013D1*
X9934413Y1366623D1*
X9930033Y1373033D1*
X9925350Y1379223D1*
X9920380Y1385183D1*
X9915127Y1390897D1*
X9909603Y1396353D1*
X9903827Y1401540D1*
X9897810Y1406440D1*
X9891563Y1411050D1*
X9885103Y1415353D1*
X9878443Y1419340D1*
X9871603Y1423007D1*
X9864593Y1426340D1*
X9857430Y1429330D1*
X9850133Y1431977D1*
X9842717Y1434270D1*
X9835200Y1436203D1*
X9827600Y1437777D1*
X9819930Y1438983D1*
X9812213Y1439820D1*
X9804467Y1440283D1*
X9796703Y1440380D1*
X9788947Y1440100D1*
X9781213Y1439450D1*
X9773517Y1438430D1*
X9765880Y1437043D1*
X9758320Y1435290D1*
X9750850Y1433177D1*
X9743490Y1430707D1*
X9736260Y1427890D1*
X9729170Y1424727D1*
X9722240Y1421230D1*
X9715487Y1417403D1*
X9708927Y1413257D1*
X9702570Y1408800D1*
X9696433Y1404047D1*
X9690533Y1399000D1*
X9684883Y1393680D1*
X9679493Y1388093D1*
X9674380Y1382257D1*
X9671397Y1378597D1*
X9667093Y1384363D1*
X9650787Y1400713D1*
X9632320Y1414577D1*
X9612067Y1425673D1*
X9590440Y1433770D1*
X9567883Y1438710D1*
X9544850Y1440390D1*
X9521817Y1438773D1*
X9514153Y1437500D1*
X9500567Y1451070D1*
X9500543Y1729780D1*
X9787870Y1729783D1*
X9787877Y1504397D1*
X10009910Y1504403D1*
X10009903Y1429387D1*
X9986410D1*
Y1127687D1*
X10198110D1*
Y1429387D1*
X10174610Y1429373D1*
X10174607Y1512753D1*
X10256647Y1594800D1*
X10542167D1*
X10542230Y1593770D1*
X10546073Y1570800D1*
X10554753Y1549190D1*
X10567867Y1529947D1*
X10584803Y1513960D1*
X10604773Y1501980D1*
X10626847Y1494560D1*
X10650000Y1492050D1*
X10850000D1*
X10862443Y1492770D1*
X10885170Y1497943D1*
X10902250Y1505520D1*
Y1106380D1*
X10901293Y1099423D1*
X10901013Y1098983D1*
X10900573Y1098703D1*
X10898067Y1098330D1*
X10893630Y1097747D1*
X7856397Y1097750D1*
X7849450Y1098710D1*
X7849003Y1098997D1*
X7848713Y1099447D1*
X7848337Y1101963D1*
X7847753Y1106400D1*
X7847710Y1622880D1*
X7846993Y1637477D1*
X7846687Y1640603D1*
X7844310Y1656660D1*
X7843697Y1659750D1*
X7839760Y1675493D1*
X7838850Y1678510D1*
X7833390Y1693790D1*
X7832190Y1696697D1*
X7825263Y1711373D1*
X7823780Y1714160D1*
X7815443Y1728023D1*
X7759557Y1811907D1*
X7758003Y1814043D1*
X7742813Y1833213D1*
X7739247Y1837030D1*
X7719140Y1855277D1*
X7714997Y1858467D1*
X7692190Y1873193D1*
X7687577Y1875667D1*
X7662667Y1886480D1*
X7657717Y1888167D1*
X7631387Y1894773D1*
X7626227Y1895630D1*
X7601857Y1897637D1*
X7599213Y1897747D1*
X4400860Y1897750D1*
X4398247Y1897643D1*
X4373887Y1895650D1*
X4368723Y1894800D1*
X4342370Y1888197D1*
X4337407Y1886513D1*
X4312487Y1875697D1*
X4307870Y1873230D1*
X4285047Y1858490D1*
X4280887Y1855297D1*
X4260777Y1837027D1*
X4257203Y1833203D1*
X4242013Y1814007D1*
X4240410Y1811790D1*
X4183743Y1726737D1*
X4176243Y1714197D1*
X4174757Y1711420D1*
X4171283Y1704060D1*
X4166623Y1693830D1*
X4163887Y1686167D1*
X4160247Y1675527D1*
X4158273Y1667633D1*
X4155697Y1656690D1*
X4154503Y1648640D1*
X4153007Y1637493D1*
X4152253Y1621310D1*
X4152250Y1106380D1*
X4151293Y1099423D1*
X4151013Y1098983D1*
X4150573Y1098703D1*
X4148067Y1098330D1*
X4143623Y1097747D1*
X3694480D1*
X3700467Y1110507D1*
X3706600Y1132997D1*
X3707950Y1150050D1*
Y1350000D1*
X3707230Y1362443D1*
X3702067Y1385150D1*
X3692153Y1406223D1*
X3677950Y1424677D1*
X3660120Y1439660D1*
X3639493Y1450467D1*
X3617003Y1456600D1*
X3599930Y1457950D1*
X3062673D1*
X3070310Y1476910D1*
X3073390Y1499970D1*
X3073387Y1587970D1*
X3071270Y1607137D1*
X3063230Y1628970D1*
X3049727Y1647940D1*
X3046990Y1650727D1*
X3046977Y1732477D1*
X3056517Y1739403D1*
X3072837Y1755983D1*
X3086203Y1775020D1*
X3088493Y1779087D1*
X3097847Y1800387D1*
X3102290Y1816287D1*
Y1691213D1*
X3395990D1*
Y1984913D1*
X3349100Y1984900D1*
X3352783Y1988037D1*
X3367780Y2005533D1*
X3379857Y2025157D1*
X3388713Y2046430D1*
X3394133Y2068827D1*
X3395983Y2092063D1*
X3395053Y2108567D1*
X3390677Y2131190D1*
X3382813Y2152850D1*
X3371657Y2173013D1*
X3357487Y2191183D1*
X3340647Y2206913D1*
X3321553Y2219813D1*
X3300677Y2229570D1*
X3278530Y2235940D1*
X3255660Y2238767D1*
X3232630Y2237983D1*
X3210007Y2233603D1*
X3188347Y2225743D1*
X3168183Y2214587D1*
X3150013Y2200417D1*
X3134283Y2183577D1*
X3121383Y2164483D1*
X3119147Y2160387D1*
X3117040Y2156223D1*
X3115067Y2151993D1*
X3113233Y2147703D1*
X3111533Y2143357D1*
X3109973Y2138960D1*
X3108553Y2134513D1*
X3107273Y2130027D1*
X3106140Y2125500D1*
X3105480Y2122547D1*
Y2241013D1*
X2823780D1*
Y1959313D1*
X2881570D1*
X2872763Y1952923D1*
X2856447Y1936343D1*
X2843077Y1917307D1*
X2833027Y1896327D1*
X2826567Y1873980D1*
X2823870Y1850873D1*
X2825013Y1827640D1*
X2829967Y1804910D1*
X2838593Y1783307D1*
X2850660Y1763417D1*
X2865833Y1745783D1*
X2882290Y1732070D1*
Y1659907D1*
X2881563Y1652157D1*
X2862753Y1662670D1*
X2841520Y1672183D1*
X2818517Y1675787D1*
X2772640Y1675810D1*
X2751393Y1673227D1*
X2747417Y1672163D1*
X1744387Y2675190D1*
Y3382983D1*
X1754317Y3375853D1*
X1775547Y3366343D1*
X1798553Y3362740D1*
X1837933Y3362707D1*
X1939330Y3261317D1*
X1940307Y3252807D1*
X1946723Y3230447D1*
X1956737Y3209450D1*
X1970070Y3190387D1*
X1986357Y3173777D1*
X2005157Y3160077D1*
X2025953Y3149657D1*
X2048183Y3142800D1*
X2071237Y3139697D1*
X2094490Y3140430D1*
X2099580Y3140647D1*
X2089400Y3121260D1*
X2086137Y3099607D1*
X2090153Y3078080D1*
X2101027Y3059047D1*
X2105443Y3054167D1*
X2211430Y2948183D1*
X2223570Y2938590D1*
X2243873Y2930387D1*
X2265747Y2929297D1*
X2286767Y2935440D1*
X2304610Y2948133D1*
X2410587Y3054117D1*
X2420213Y3066290D1*
X2428417Y3086593D1*
X2429507Y3108467D1*
X2423367Y3129483D1*
X2410670Y3147327D1*
X2304603Y3253393D1*
X2297927Y3259223D1*
X2278540Y3269407D1*
X2256887Y3272667D1*
X2235343Y3268640D1*
X2217487Y3258700D1*
X2219283Y3280363D1*
X2219213Y3284807D1*
X2216563Y3307920D1*
X2210143Y3330280D1*
X2200130Y3351277D1*
X2186800Y3370340D1*
X2170510Y3386950D1*
X2151713Y3400650D1*
X2130913Y3411070D1*
X2108683Y3417927D1*
X2085630Y3421030D1*
X2062380Y3420297D1*
X2039567Y3415743D1*
X2023783Y3409763D1*
X1932387Y3501183D1*
Y3538563D1*
X1930270Y3557730D1*
X1922233Y3579563D1*
X1908747Y3598520D1*
X1890757Y3613273D1*
X1869527Y3622783D1*
X1846520Y3626387D1*
X1800537Y3626413D1*
X1781370Y3624297D1*
X1759537Y3616260D1*
X1740567Y3602757D1*
X1721773Y3613257D1*
X9440100Y4376443D2*
D16*
X9841620Y4376450D1*
X9640863Y4195557D2*
X9640860Y4376447D1*
X10080350Y3425967D2*
X10381867Y3425977D1*
X4543477Y6793653D2*
X4866993Y6793670D1*
X4705237Y6793663D2*
X4705227Y6955420D1*
X1570290Y5609773D2*
X1288770Y5609753D1*
X7550610Y3142603D2*
X7550613Y2980843D1*
X7550610Y3142603D2*
X7712370Y3142607D1*
X4742157Y2217843D2*
X5008677D1*
X4875417Y2084583D2*
Y2351103D1*
X2125943Y4128077D2*
X1802423Y4128070D1*
X1964183Y4128073D2*
X1964187Y3966313D1*
X3878183Y6827163D2*
X4110890D1*
X3994537D2*
Y6923467D1*
X5977847Y3121317D2*
X5977853Y2990400D1*
X5837087Y3121310D2*
X6118603Y3121323D1*
X7439113Y6088540D2*
X7308197Y6088537D1*
X9928733Y1504330D2*
X9928727Y1635247D1*
X10069487Y1635253D2*
X9787970Y1635240D1*
X4251130Y6947180D2*
X4251133Y6816263D1*
X4110373Y6816260D2*
X4391893Y6816267D1*
X9871377Y2533620D2*
X9871383Y2402703D1*
X9730623Y2402697D2*
X10012143Y2402710D1*
X6150760Y5666167D2*
X6150750Y5989683D1*
X6150753Y5827923D2*
X5988993Y5827920D1*
X10432257Y1429303D2*
X10432267Y1127787D1*
X10326347Y1278543D2*
X10538177Y1278550D1*
X9798630Y1116780D2*
Y1440300D1*
X9960390Y1278540D2*
X9798630D1*
X4400137Y6007623D2*
Y5816103D1*
X2110437Y7253323D2*
Y7061803D1*
X2014677Y7157563D2*
X2206197D1*
X3200737Y5827523D2*
Y5636003D1*
X3104977Y5731763D2*
X3296497D1*
X8848503Y2519727D2*
Y2328207D1*
X8752743Y2423967D2*
X8944263D1*
X4184280Y4302677D2*
Y4111157D1*
X4088520Y4206917D2*
X4280040D1*
X8054853Y2668677D2*
Y2477157D1*
X7959093Y2572917D2*
X8150613D1*
X9188503Y1902193D2*
Y1806433D1*
X9092743Y1902193D2*
X9188503D1*
X4025980Y2252197D2*
Y2156437D1*
X3930220Y2252197D2*
X4121740D1*
X7178117Y4454220D2*
Y4262700D1*
X7082357Y4358460D2*
X7273877D1*
X7472197Y6944657D2*
Y6753137D1*
X7376437Y6848897D2*
X7567957D1*
X10752533Y7829153D2*
Y7637633D1*
X10656773Y7733393D2*
X10848293D1*
X8095390Y5132460D2*
Y5036700D1*
X7999630Y5132460D2*
X8191150D1*
X5118687Y6532600D2*
Y6341080D1*
X5022927Y6436840D2*
X5214447D1*
X3904137Y7099723D2*
Y6908203D1*
X3808377Y7003963D2*
X3999897D1*
X6420017Y5053757D2*
Y4862237D1*
X6324257Y4957997D2*
X6515777D1*
X1616727Y4279297D2*
Y4087777D1*
X1520967Y4183537D2*
X1712487D1*
X4001137Y4579963D2*
Y4484203D1*
Y4579963D2*
X4096897D1*
X5054347Y4211807D2*
Y4020287D1*
X4958587Y4116047D2*
X5150107D1*
X5999547Y2381083D2*
Y2189563D1*
X5903787Y2285323D2*
X6095307D1*
X4036937Y3255823D2*
Y3064303D1*
X3941177Y3160063D2*
X4132697D1*
X7989437Y5927523D2*
Y5736003D1*
X7893677Y5831763D2*
X8085197D1*
X2639877Y5395163D2*
X2831397D1*
X4054037Y5820423D2*
Y5628903D1*
X3958277Y5724663D2*
X4149797D1*
X4603637Y4930623D2*
Y4739103D1*
X4507877Y4834863D2*
X4699397D1*
X2327837Y5157163D2*
Y5061403D1*
X2232077Y5157163D2*
X2423597D1*
X1467437Y5034423D2*
Y4842903D1*
X1371677Y4938663D2*
X1563197D1*
X3046437Y3762423D2*
Y3570903D1*
X2950677Y3666663D2*
X3142197D1*
X8021337Y1821623D2*
Y1630103D1*
X7925577Y1725863D2*
X8117097D1*
X8451637Y1818923D2*
Y1627403D1*
X8355877Y1723163D2*
X8547397D1*
D22*
X9640860Y4376447D3*
D23*
X9640854Y4726447D3*
D24*
X10231134Y2663970D3*
D25*
X10231126Y2917970D3*
X10231118Y3171970D3*
X10231109Y3425970D3*
X10231101Y3679970D3*
X10231092Y3933970D3*
D26*
X4705236Y6793662D3*
D27*
X4705250Y6539662D3*
X4705264Y6285662D3*
X4705278Y6031662D3*
D29*
X1429541Y5419763D3*
X1429529Y5609763D3*
D32*
X2964631Y2100163D3*
D33*
X2964641Y1846163D3*
D35*
X9379717Y1577130D3*
X9379711Y1812130D3*
D32*
X2964641Y6900163D3*
D33*
X2964633Y7154163D3*
D116*
X2258042Y3100762D3*
D33*
X2078434Y3280363D3*
D119*
X2258040Y5900567D3*
D33*
X2078435Y5720962D3*
D26*
X3924277Y2690733D3*
D27*
X3670277Y2690726D3*
X3924283Y2436733D3*
X3670283Y2436726D3*
D26*
X9484710Y3152167D3*
D27*
X9738710D3*
X9484710Y3406167D3*
X9738710D3*
X9484710Y3660167D3*
X9738710D3*
D26*
X3924237Y6306663D3*
D27*
X3670237D3*
X3924237Y6052663D3*
X3670237D3*
D26*
X7550610Y3142604D3*
D27*
X7296610Y3142598D3*
X7042610Y3142593D3*
X6788610Y3142587D3*
X6534610Y3142582D3*
X6280610Y3142576D3*
D36*
X4875417Y2217843D3*
D37*
Y2977843D3*
D26*
X1964184Y4128074D3*
D27*
X1964179Y4382074D3*
X1964174Y4636074D3*
X1964170Y4890074D3*
D128*
X2491538Y3290461D3*
D38*
X2311933Y3470066D3*
D131*
X2319236Y5539460D3*
D38*
X2498837Y5719070D3*
D39*
X3249140Y1838063D3*
D38*
X3249133Y2092063D3*
D39*
X3249134Y7151863D3*
D38*
X3249139Y6897863D3*
D140*
X3994537Y6637163D3*
Y6827163D3*
D143*
X3783537Y6732163D3*
D146*
X2794537Y1543961D3*
D149*
X2963537Y1543966D3*
D146*
X2810237Y7423863D3*
D149*
X2979237D3*
D29*
X5977835Y3311317D3*
X5977845Y3121317D3*
D28*
X7629113Y6088547D3*
X7439113Y6088540D3*
D146*
X1653537Y3494563D3*
D149*
X1822537D3*
D146*
X1303237Y5865758D3*
D149*
X1472237Y5865768D3*
D28*
X10217257Y2210104D3*
X10407257Y2210116D3*
D29*
X9928728Y1635247D3*
X9928719Y1825247D3*
X8686470Y7811933D3*
X8686483Y7621933D3*
X9130321Y7760350D3*
X9130326Y7570350D3*
D28*
X4901737Y5776854D3*
X5091737Y5776873D3*
X10245037Y1735650D3*
X10435037D3*
D29*
X4251537Y6424863D3*
Y6234863D3*
X4251134Y6816263D3*
X4251139Y6626263D3*
X9871383Y2402703D3*
X9871391Y2212703D3*
D146*
X1774937Y5409961D3*
D149*
X1943937Y5409966D3*
D26*
X6150754Y5827925D3*
D27*
X6404754Y5827932D3*
X6658754Y5827940D3*
X6912754Y5827947D3*
X7166754Y5827955D3*
X7420754Y5827962D3*
D40*
X10092261Y1278536D3*
X10432261Y1278546D3*
D41*
X10464706Y6953552D3*
D42*
X10464698Y7207552D3*
X10464739Y7461552D3*
X10464731Y7715552D3*
X9710431Y7715527D3*
X9710439Y7461527D3*
X9710448Y7207527D3*
X9710456Y6953527D3*
D43*
X10129747Y6526743D3*
D44*
Y6056743D3*
X10129746Y5586743D3*
D26*
X8782630Y1278540D3*
D27*
X9036630D3*
X9290630D3*
X9544630D3*
X9798630D3*
M02*
