G04 DipTrace 5.1.0.3*
G04 Нижнийразмер.gbr*
%MOMM*%
G04 #@! TF.FileFunction,Drawing,Bot*
G04 #@! TF.Part,Single*
%ADD13C,0.03*%
%ADD110C,0.15686*%
%FSLAX35Y35*%
G04*
G71*
G90*
G75*
G01*
G04 BotDimension*
%LPD*%
X2491538Y3290461D2*
D13*
Y-569337D1*
X2498837Y5719070D2*
Y-569337D1*
X2491538Y-519337D2*
X2498837D1*
X2341538D2*
X2391538D1*
G36*
X2491538D2*
X2391538Y-539337D1*
Y-499337D1*
X2491538Y-519337D1*
G37*
X2648837D2*
D13*
X2598837D1*
G36*
X2498837D2*
X2598837Y-499337D1*
Y-539337D1*
X2498837Y-519337D1*
G37*
X3006332D2*
D13*
X2498837D1*
X3249140Y1838063D2*
Y-31003D1*
X3249134Y7151863D2*
Y-31003D1*
Y18997D2*
X3249140D1*
X3099134D2*
X3149134D1*
G36*
X3249134D2*
X3149134Y-1003D1*
Y38997D1*
X3249134Y18997D1*
G37*
X3399140D2*
D13*
X3349140D1*
G36*
X3249140D2*
X3349140Y38997D1*
Y-1003D1*
X3249140Y18997D1*
G37*
X3417198D2*
D13*
X3249140D1*
X2651566Y-386346D2*
D110*
X2636966Y-391175D1*
X2627196Y-405775D1*
X2622366Y-430034D1*
Y-444634D1*
X2627196Y-468892D1*
X2636966Y-483492D1*
X2651566Y-488321D1*
X2661225D1*
X2675825Y-483492D1*
X2685483Y-468892D1*
X2690425Y-444634D1*
Y-430034D1*
X2685483Y-405775D1*
X2675825Y-391175D1*
X2661225Y-386346D1*
X2651566D1*
X2685483Y-405775D2*
X2627196Y-468892D1*
X2726627Y-478551D2*
X2721797Y-483492D1*
X2726627Y-488321D1*
X2731568Y-483492D1*
X2726627Y-478551D1*
X2792141Y-386346D2*
X2777541Y-391175D1*
X2767770Y-405775D1*
X2762941Y-430034D1*
Y-444634D1*
X2767770Y-468892D1*
X2777541Y-483492D1*
X2792141Y-488321D1*
X2801799D1*
X2816399Y-483492D1*
X2826058Y-468892D1*
X2830999Y-444634D1*
Y-430034D1*
X2826058Y-405775D1*
X2816399Y-391175D1*
X2801799Y-386346D1*
X2792141D1*
X2826058Y-405775D2*
X2767770Y-468892D1*
X2881801Y-488321D2*
X2930430Y-386346D1*
X2862372D1*
X2971573D2*
X3024920D1*
X2995832Y-425204D1*
X3010432D1*
X3020090Y-430034D1*
X3024920Y-434863D1*
X3029861Y-449463D1*
Y-459121D1*
X3024920Y-473721D1*
X3015261Y-483492D1*
X3000661Y-488321D1*
X2986061D1*
X2971573Y-483492D1*
X2966744Y-478551D1*
X2961803Y-468892D1*
X3401869Y151987D2*
X3387269Y147158D1*
X3377498Y132558D1*
X3372669Y108300D1*
Y93700D1*
X3377498Y69441D1*
X3387269Y54841D1*
X3401869Y50012D1*
X3411528D1*
X3426128Y54841D1*
X3435786Y69441D1*
X3440728Y93700D1*
Y108300D1*
X3435786Y132558D1*
X3426128Y147158D1*
X3411528Y151987D1*
X3401869D1*
X3435786Y132558D2*
X3377498Y69441D1*
M02*
