M48
METRIC,0000.00
T01C0.3
T02C0.9
T03C0.97
T04C1.0
T05C1.08
T06C1.1
T07C1.28
T08C1.4
T09C1.85
%
T01
X+004163Y+004446
X+004184Y+004207
X+004506Y+004410
X+004989Y+004384
X+004988Y+004530
X+004987Y+004686
X+005069Y+005008
X+005065Y+005155
X+005349Y+005311
X+005700Y+005277
X+005797Y+005098
X+005621Y+004973
X+005470Y+004939
X+005537Y+004577
X+005985Y+004536
X+005989Y+004349
X+006404Y+004352
X+006420Y+004958
X+006905Y+005480
X+007291Y+005638
X+007790Y+005317
X+008095Y+005132
X+008718Y+005318
X+008537Y+004282
X+008542Y+004081
X+008088Y+004101
X+008096Y+003844
X+007178Y+004358
X+007294Y+004671
X+006817Y+003592
X+006396Y+003339
X+006380Y+002334
X+006301Y+002205
X+006154Y+002131
X+006017Y+002303
X+005451Y+002762
X+005424Y+002932
X+005168Y+003937
X+005054Y+004116
X+004211Y+003570
X+004106Y+003594
X+003670Y+003440
X+003596Y+003275
X+003602Y+003824
X+003986Y+004775
X+003451Y+005042
X+003309Y+005126
X+003905Y+005539
X+004178Y+005423
X+003659Y+005769
X+003475Y+005855
X+003380Y+005888
X+002559Y+004985
X+001553Y+005209
X+001760Y+005837
X+001962Y+005836
X+001617Y+004184
X+004026Y+002252
X+004962Y+005573
X+005119Y+006437
X+003456Y+007190
X+007472Y+006849
X+009112Y+006489
X+010753Y+007733
X+008425Y+002624
X+008571Y+002351
X+008849Y+002424
X+008988Y+001896
X+009189Y+001902
X+009485Y+002040
X+008055Y+002573
T02
X+004875Y+002218
X+004875Y+002978
T03
X+010465Y+006954
X+010465Y+007208
X+010465Y+007462
X+010465Y+007716
X+009710Y+007716
X+009710Y+007462
X+009710Y+007208
X+009710Y+006954
T04
X+002384Y+003000
X+002384Y+003254
X+002838Y+002680
X+003017Y+002501
X+002381Y+005746
X+002381Y+006000
X+002838Y+006321
X+003017Y+006501
T05
X+003233Y+002715
X+003053Y+002894
X+002681Y+002999
X+002681Y+003253
X+002689Y+005733
X+002689Y+005987
X+003046Y+006105
X+003226Y+006285
T06
X+010231Y+002664
X+010231Y+002918
X+010231Y+003172
X+010231Y+003426
X+010231Y+003680
X+010231Y+003934
T07
X+004705Y+006794
X+004705Y+006540
X+004705Y+006286
X+004705Y+006032
X+003910Y+006060
X+003910Y+006314
X+003656Y+006314
X+003656Y+006060
X+001964Y+004890
X+001964Y+004636
X+001964Y+004382
X+001964Y+004128
X+003656Y+002691
X+003656Y+002437
X+003910Y+002437
X+003910Y+002691
X+006281Y+003143
X+006535Y+003143
X+006789Y+003143
X+007043Y+003143
X+007297Y+003143
X+007551Y+003143
X+009485Y+003152
X+009485Y+003406
X+009739Y+003406
X+009739Y+003152
X+009739Y+003660
X+009485Y+003660
X+009545Y+001279
X+009291Y+001279
X+009037Y+001279
X+008783Y+001279
X+009799Y+001279
X+007421Y+005828
X+007167Y+005828
X+006913Y+005828
X+006659Y+005828
X+006405Y+005828
X+006151Y+005828
T08
X+009641Y+004376
X+009641Y+004726
T09
X+010130Y+006527
X+010130Y+006057
X+010130Y+005587
T00
M30
