M48
METRIC,0000.00
T01C0.3
T02C0.9
T03C0.97
T04C1.0
T05C1.08
T06C1.1
T07C1.28
T08C1.4
T09C1.85
%
T01
X+004337Y+005098
X+004604Y+004835
X+004255Y+004531
X+004001Y+004580
X+004184Y+004207
X+004072Y+003622
X+004175Y+003593
X+004037Y+003160
X+003743Y+003350
X+003602Y+003824
X+003327Y+004153
X+003046Y+003667
X+003454Y+002683
X+004026Y+002252
X+005305Y+002763
X+006000Y+002285
X+006396Y+003339
X+006817Y+003592
X+007178Y+004358
X+007294Y+004671
X+007790Y+005317
X+008095Y+005132
X+008718Y+005318
X+008997Y+004590
X+008537Y+004282
X+008542Y+004081
X+008088Y+004101
X+008096Y+003844
X+008425Y+002624
X+008571Y+002351
X+008849Y+002424
X+008988Y+001896
X+009189Y+001902
X+009485Y+002040
X+008452Y+001723
X+008021Y+001726
X+008055Y+002573
X+006404Y+004352
X+005989Y+004349
X+005985Y+004536
X+005537Y+004577
X+005470Y+004939
X+005621Y+004973
X+005797Y+005098
X+005700Y+005277
X+005282Y+005321
X+005065Y+005155
X+005069Y+005008
X+005127Y+004641
X+005127Y+004519
X+004989Y+004384
X+005054Y+004116
X+005168Y+003937
X+006420Y+004958
X+006905Y+005480
X+007291Y+005638
X+007989Y+005832
X+007472Y+006849
X+009112Y+006489
X+010753Y+007733
X+005119Y+006437
X+004964Y+005574
X+004400Y+005912
X+004251Y+005574
X+004054Y+005725
X+004044Y+005417
X+003451Y+005042
X+003309Y+005126
X+003182Y+005254
X+002736Y+005395
X+002328Y+005157
X+002245Y+004380
X+001617Y+004184
X+001611Y+004820
X+001467Y+004939
X+003201Y+005732
X+003904Y+007004
X+002110Y+007158
T02
X+004875Y+002218
X+004875Y+002978
T03
X+010465Y+006954
X+010465Y+007208
X+010465Y+007462
X+010465Y+007716
X+009710Y+007716
X+009710Y+007462
X+009710Y+007208
X+009710Y+006954
T04
X+002965Y+002100
X+002965Y+001846
X+002258Y+003101
X+002078Y+003280
X+002078Y+005721
X+002258Y+005901
X+002965Y+006900
X+002965Y+007154
T05
X+002492Y+003290
X+002312Y+003470
X+003249Y+002092
X+003249Y+001838
X+002319Y+005539
X+002499Y+005719
X+003249Y+006898
X+003249Y+007152
T06
X+010231Y+002664
X+010231Y+002918
X+010231Y+003172
X+010231Y+003426
X+010231Y+003680
X+010231Y+003934
T07
X+004705Y+006794
X+004705Y+006540
X+004705Y+006286
X+004705Y+006032
X+003924Y+006053
X+003924Y+006307
X+003670Y+006307
X+003670Y+006053
X+001964Y+004890
X+001964Y+004636
X+001964Y+004382
X+001964Y+004128
X+003670Y+002691
X+003670Y+002437
X+003924Y+002437
X+003924Y+002691
X+006281Y+003143
X+006535Y+003143
X+006789Y+003143
X+007043Y+003143
X+007297Y+003143
X+007551Y+003143
X+009485Y+003152
X+009485Y+003406
X+009739Y+003406
X+009739Y+003152
X+009739Y+003660
X+009485Y+003660
X+009545Y+001279
X+009291Y+001279
X+009037Y+001279
X+008783Y+001279
X+009799Y+001279
X+007421Y+005828
X+007167Y+005828
X+006913Y+005828
X+006659Y+005828
X+006405Y+005828
X+006151Y+005828
T08
X+009641Y+004376
X+009641Y+004726
T09
X+010130Y+006527
X+010130Y+006057
X+010130Y+005587
T00
M30
