G04 DipTrace 5.1.0.3*
G04 Верхняямаска.gbr*
%MOMM*%
G04 #@! TF.FileFunction,Soldermask,Top*
G04 #@! TF.Part,Single*
%AMOUTLINE7*
4,1,4,
0.00002,-1.13137,
-1.13137,-0.00002,
-0.00002,1.13137,
1.13137,0.00002,
0.00002,-1.13137,
0*%
%AMOUTLINE10*
4,1,4,
1.13137,0.0,
0.0,-1.13137,
-1.13137,0.0,
0.0,1.13137,
1.13137,0.0,
0*%
%AMOUTLINE19*
4,1,4,
0.0,1.21622,
1.21622,0.0,
0.0,-1.21622,
-1.21622,0.0,
0.0,1.21622,
0*%
%AMOUTLINE22*
4,1,4,
1.21622,0.00003,
0.00003,-1.21622,
-1.21622,-0.00003,
-0.00003,1.21622,
1.21622,0.00003,
0*%
%AMOUTLINE31*
4,1,28,
-0.555,-0.15828,
-0.555,0.15828,
-0.5486,0.20688,
-0.52858,0.25522,
-0.49673,0.29673,
-0.45522,0.32858,
-0.40688,0.3486,
-0.35828,0.355,
0.35828,0.355,
0.40688,0.3486,
0.45522,0.32858,
0.49673,0.29673,
0.52858,0.25522,
0.5486,0.20688,
0.555,0.15828,
0.555,-0.15828,
0.5486,-0.20688,
0.52858,-0.25522,
0.49673,-0.29673,
0.45522,-0.32858,
0.40688,-0.3486,
0.35828,-0.355,
-0.35828,-0.355,
-0.40688,-0.3486,
-0.45522,-0.32858,
-0.49673,-0.29673,
-0.52858,-0.25522,
-0.5486,-0.20688,
-0.555,-0.15828,
0*%
%AMOUTLINE34*
4,1,28,
0.555,0.15828,
0.555,-0.15828,
0.5486,-0.20688,
0.52858,-0.25522,
0.49673,-0.29673,
0.45522,-0.32858,
0.40688,-0.3486,
0.35828,-0.355,
-0.35828,-0.355,
-0.40688,-0.3486,
-0.45522,-0.32858,
-0.49673,-0.29673,
-0.52858,-0.25522,
-0.5486,-0.20688,
-0.555,-0.15828,
-0.555,0.15828,
-0.5486,0.20688,
-0.52858,0.25522,
-0.49673,0.29673,
-0.45522,0.32858,
-0.40688,0.3486,
-0.35828,0.355,
0.35828,0.355,
0.40688,0.3486,
0.45522,0.32858,
0.49673,0.29673,
0.52858,0.25522,
0.5486,0.20688,
0.555,0.15828,
0*%
%AMOUTLINE37*
4,1,28,
-0.2233,0.70999,
0.22326,0.71001,
0.28997,0.70123,
0.3552,0.67421,
0.41121,0.63124,
0.45418,0.57523,
0.4812,0.51001,
0.48999,0.44329,
0.49001,-0.44326,
0.48123,-0.50998,
0.45422,-0.5752,
0.41124,-0.63121,
0.35524,-0.67419,
0.29001,-0.70121,
0.2233,-0.70999,
-0.22326,-0.71001,
-0.28997,-0.70123,
-0.3552,-0.67421,
-0.41121,-0.63124,
-0.45418,-0.57523,
-0.4812,-0.51001,
-0.48999,-0.44329,
-0.49001,0.44326,
-0.48123,0.50998,
-0.45422,0.5752,
-0.41124,0.63121,
-0.35524,0.67419,
-0.29001,0.70121,
-0.2233,0.70999,
0*%
%AMOUTLINE40*
4,1,28,
0.2233,-0.70999,
-0.22326,-0.71001,
-0.28997,-0.70123,
-0.3552,-0.67421,
-0.41121,-0.63124,
-0.45418,-0.57523,
-0.4812,-0.51001,
-0.48999,-0.44329,
-0.49001,0.44326,
-0.48123,0.50998,
-0.45422,0.5752,
-0.41124,0.63121,
-0.35524,0.67419,
-0.29001,0.70121,
-0.2233,0.70999,
0.22326,0.71001,
0.28997,0.70123,
0.3552,0.67421,
0.41121,0.63124,
0.45418,0.57523,
0.4812,0.51001,
0.48999,0.44329,
0.49001,-0.44326,
0.48123,-0.50998,
0.45422,-0.5752,
0.41124,-0.63121,
0.35524,-0.67419,
0.29001,-0.70121,
0.2233,-0.70999,
0*%
%ADD64C,3.2*%
%ADD66R,3.2X3.2*%
%ADD68C,2.1*%
%ADD70R,2.1X2.1*%
%ADD72R,0.9X1.8*%
%ADD74R,1.72X1.72*%
%ADD76C,1.72*%
%ADD78C,1.45*%
%ADD80R,1.45X1.45*%
%ADD82R,1.2X1.35*%
%ADD84C,1.6*%
%ADD86R,1.6X1.6*%
%ADD92R,1.6X1.4*%
%ADD94R,1.4X1.6*%
%ADD96C,2.02*%
%ADD98R,2.02X2.02*%
%ADD100C,1.8*%
%ADD101R,1.8X1.8*%
%ADD102O,2.8X2.4*%
%ADD104R,2.8X2.4*%
%ADD117OUTLINE7*%
%ADD120OUTLINE10*%
%ADD129OUTLINE19*%
%ADD132OUTLINE22*%
%ADD141OUTLINE31*%
%ADD144OUTLINE34*%
%ADD147OUTLINE37*%
%ADD150OUTLINE40*%
%FSLAX35Y35*%
G04*
G71*
G90*
G75*
G01*
G04 TopMask*
%LPD*%
D104*
X9640860Y4376447D3*
D102*
X9640854Y4726447D3*
D101*
X10231134Y2663970D3*
D100*
X10231126Y2917970D3*
X10231118Y3171970D3*
X10231109Y3425970D3*
X10231101Y3679970D3*
X10231092Y3933970D3*
D98*
X4705236Y6793662D3*
D96*
X4705250Y6539662D3*
X4705264Y6285662D3*
X4705278Y6031662D3*
D92*
X1429541Y5419763D3*
X1429529Y5609763D3*
D86*
X2964631Y2100163D3*
D84*
X2964641Y1846163D3*
D82*
X9379717Y1577130D3*
X9379711Y1812130D3*
D86*
X2964641Y6900163D3*
D84*
X2964633Y7154163D3*
D117*
X2258042Y3100762D3*
D84*
X2078434Y3280363D3*
D120*
X2258040Y5900567D3*
D84*
X2078435Y5720962D3*
D98*
X3924277Y2690733D3*
D96*
X3670277Y2690726D3*
X3924283Y2436733D3*
X3670283Y2436726D3*
D98*
X9484710Y3152167D3*
D96*
X9738710D3*
X9484710Y3406167D3*
X9738710D3*
X9484710Y3660167D3*
X9738710D3*
D98*
X3924237Y6306663D3*
D96*
X3670237D3*
X3924237Y6052663D3*
X3670237D3*
D98*
X7550610Y3142604D3*
D96*
X7296610Y3142598D3*
X7042610Y3142593D3*
X6788610Y3142587D3*
X6534610Y3142582D3*
X6280610Y3142576D3*
D80*
X4875417Y2217843D3*
D78*
Y2977843D3*
D98*
X1964184Y4128074D3*
D96*
X1964179Y4382074D3*
X1964174Y4636074D3*
X1964170Y4890074D3*
D129*
X2491538Y3290461D3*
D76*
X2311933Y3470066D3*
D132*
X2319236Y5539460D3*
D76*
X2498837Y5719070D3*
D74*
X3249140Y1838063D3*
D76*
X3249133Y2092063D3*
D74*
X3249134Y7151863D3*
D76*
X3249139Y6897863D3*
D141*
X3994537Y6637163D3*
Y6827163D3*
D144*
X3783537Y6732163D3*
D147*
X2794537Y1543961D3*
D150*
X2963537Y1543966D3*
D147*
X2810237Y7423863D3*
D150*
X2979237D3*
D92*
X5977835Y3311317D3*
X5977845Y3121317D3*
D94*
X7629113Y6088547D3*
X7439113Y6088540D3*
D147*
X1653537Y3494563D3*
D150*
X1822537D3*
D147*
X1303237Y5865758D3*
D150*
X1472237Y5865768D3*
D94*
X10217257Y2210104D3*
X10407257Y2210116D3*
D92*
X9928728Y1635247D3*
X9928719Y1825247D3*
X8686470Y7811933D3*
X8686483Y7621933D3*
X9130321Y7760350D3*
X9130326Y7570350D3*
D94*
X4901737Y5776854D3*
X5091737Y5776873D3*
X10245037Y1735650D3*
X10435037D3*
D92*
X4251537Y6424863D3*
Y6234863D3*
X4251134Y6816263D3*
X4251139Y6626263D3*
X9871383Y2402703D3*
X9871391Y2212703D3*
D147*
X1774937Y5409961D3*
D150*
X1943937Y5409966D3*
D98*
X6150754Y5827925D3*
D96*
X6404754Y5827932D3*
X6658754Y5827940D3*
X6912754Y5827947D3*
X7166754Y5827955D3*
X7420754Y5827962D3*
D72*
X10092261Y1278536D3*
X10432261Y1278546D3*
D70*
X10464706Y6953552D3*
D68*
X10464698Y7207552D3*
X10464739Y7461552D3*
X10464731Y7715552D3*
X9710431Y7715527D3*
X9710439Y7461527D3*
X9710448Y7207527D3*
X9710456Y6953527D3*
D66*
X10129747Y6526743D3*
D64*
Y6056743D3*
X10129746Y5586743D3*
D98*
X8782630Y1278540D3*
D96*
X9036630D3*
X9290630D3*
X9544630D3*
X9798630D3*
M02*
