G04 DipTrace 5.1.0.3*
G04 Границыплаты.gbr*
%MOMM*%
G04 #@! TF.FileFunction,Profile*
G04 #@! TF.Part,Single*
%ADD10C,0.12*%
%FSLAX35Y35*%
G04*
G71*
G90*
G75*
G01*
G04 BoardOutline*
%LPD*%
X4250000Y1100000D2*
D10*
G02X4150000Y1000000I-99923J-77D01*
G01*
X2305433D1*
G02X2220633Y1047000I11J100020D01*
G01*
X1015200Y2975667D1*
G02X1000000Y3028667I84612J52946D01*
G01*
Y5971300D1*
G02X1015200Y6024300I99812J54D01*
G01*
X2220633Y7953000D1*
G02X2305433Y8000000I84924J-53224D01*
G01*
X4150000D1*
G02X4250000Y7900000I20J-99980D01*
G01*
Y7380267D1*
G03X4266800Y7324800I99986J7D01*
G01*
X4320333Y7244500D1*
G03X4403533Y7200000I83072J55289D01*
G01*
X7596500D1*
G03X7679700Y7244500I65J99906D01*
G01*
X7733200Y7324800D1*
G03X7750000Y7380267I-83186J55473D01*
G01*
Y7900000D1*
G02X7850000Y8000000I100036J-36D01*
G01*
X10900000D1*
G02X11000000Y7900000I20J-99980D01*
G01*
Y1100000D1*
G02X10900000Y1000000I-99923J-77D01*
G01*
X7850000D1*
G02X7750000Y1100000I-20J99980D01*
G01*
Y1619700D1*
G03X7733200Y1675167I-99986J-7D01*
G01*
X7679700Y1755467D1*
G03X7596500Y1800000I-83232J-55514D01*
G01*
X4403533D1*
G03X4320333Y1755467I-30J-99930D01*
G01*
X4266800Y1675167D1*
G03X4250000Y1619700I83186J-55473D01*
G01*
Y1100000D1*
X3600000Y7850000D2*
X2900000D1*
Y7650000D1*
X3600000D1*
Y7850000D1*
X10850000Y6800000D2*
Y7400000D1*
X10650000D1*
Y6800000D1*
X10850000D1*
X10700000Y4500000D2*
X10679907Y4425000D1*
X10625003Y4370097D1*
X10550003Y4350000D1*
X10475007Y4370093D1*
X10420100Y4424997D1*
X10400003Y4499997D1*
X10420100Y4575000D1*
X10475003Y4629903D1*
X10550003Y4650000D1*
X10625007Y4629903D1*
X10679910Y4574997D1*
X10700003Y4499997D1*
X1600000Y4500000D2*
X1579907Y4425000D1*
X1525003Y4370097D1*
X1450003Y4350000D1*
X1375007Y4370093D1*
X1320100Y4424997D1*
X1300003Y4499997D1*
X1320100Y4575000D1*
X1375003Y4629903D1*
X1450003Y4650000D1*
X1525007Y4629903D1*
X1579910Y4574997D1*
X1600003Y4499997D1*
X8275000Y7600000D2*
X8258257Y7537500D1*
X8212503Y7491747D1*
X8150003Y7475000D1*
X8087507Y7491743D1*
X8041753Y7537497D1*
X8025003Y7599997D1*
X8041750Y7662500D1*
X8087503Y7708253D1*
X8150003Y7725000D1*
X8212507Y7708250D1*
X8258260Y7662497D1*
X8275003Y7599997D1*
X2900000Y1150000D2*
Y1350000D1*
X3600000D1*
Y1150000D1*
X2900000D1*
X10850000Y1600000D2*
X10650000D1*
Y2200000D1*
X10850000D1*
Y1600000D1*
X8275000Y1400000D2*
X8258257Y1337500D1*
X8212503Y1291747D1*
X8150003Y1275000D1*
X8087507Y1291743D1*
X8041753Y1337497D1*
X8025003Y1399997D1*
X8041750Y1462500D1*
X8087503Y1508253D1*
X8150003Y1525000D1*
X8212507Y1508250D1*
X8258260Y1462497D1*
X8275003Y1399997D1*
M02*
