G04 DipTrace 5.1.0.3*
G04 Нижняяграфика.gbr*
%MOMM*%
G04 #@! TF.FileFunction,Drawing,Bot*
G04 #@! TF.Part,Single*
%ADD10C,0.12*%
%FSLAX35Y35*%
G04*
G71*
G90*
G75*
G01*
G04 BotAssy*
%LPD*%
X10509740Y6056613D2*
D10*
X10636740Y6056620D1*
X10763733Y6183627D1*
X10763712Y6564627D1*
X10509712Y6564613D1*
X10509740Y6056613D1*
X8970176Y6921316D2*
X7928176Y6921237D1*
X7928248Y5981237D1*
X8870248Y5981309D1*
X8970240Y6081316D1*
X8970176Y6921316D1*
X2199439Y3397170D2*
X2384828Y3582560D1*
G36*
X2643377Y3415619D2*
X2648294Y3419931D1*
X2653733Y3423565D1*
X2659598Y3426457D1*
X2665792Y3428560D1*
X2672206Y3429836D1*
X2678733Y3430263D1*
X2685259Y3429836D1*
X2691673Y3428560D1*
X2697867Y3426457D1*
X2703733Y3423565D1*
X2709171Y3419931D1*
X2714088Y3415619D1*
X2718400Y3410701D1*
X2722034Y3405263D1*
X2724927Y3399398D1*
X2727029Y3393204D1*
X2728305Y3386790D1*
X2728733Y3380263D1*
X2728305Y3373737D1*
X2727029Y3367322D1*
X2724927Y3361129D1*
X2722034Y3355263D1*
X2718400Y3349825D1*
X2714088Y3344908D1*
D1*
X2709171Y3340596D1*
X2703733Y3336962D1*
X2697867Y3334069D1*
X2691673Y3331967D1*
X2685259Y3330691D1*
X2678733Y3330263D1*
X2672206Y3330691D1*
X2665792Y3331967D1*
X2659598Y3334069D1*
X2653733Y3336962D1*
X2648294Y3340596D1*
X2643377Y3344908D1*
X2639065Y3349825D1*
X2635431Y3355263D1*
X2632539Y3361129D1*
X2630436Y3367322D1*
X2629160Y3373737D1*
X2628733Y3380263D1*
X2629160Y3386790D1*
X2630436Y3393204D1*
X2632539Y3399398D1*
X2635431Y3405263D1*
X2639065Y3410701D1*
X2643377Y3415619D1*
D1*
G37*
X2604029Y3363354D2*
D10*
X2418642Y3177967D1*
X2604029Y3363354D2*
G03X2384828Y3582560I-200771J18434D01*
G01*
X2418642Y3177967D2*
G02X2199439Y3397170I-17435J201768D01*
G01*
X2425939Y5831561D2*
X2611332Y5646177D1*
G36*
X2444398Y5387624D2*
X2448710Y5382707D1*
X2452344Y5377269D1*
X2455237Y5371403D1*
X2457339Y5365210D1*
X2458615Y5358795D1*
X2459043Y5352269D1*
X2458615Y5345742D1*
X2457340Y5339328D1*
X2455238Y5333134D1*
X2452345Y5327269D1*
X2448711Y5321830D1*
X2444399Y5316913D1*
X2439482Y5312601D1*
X2434044Y5308967D1*
X2428178Y5306074D1*
X2421985Y5303972D1*
X2415571Y5302695D1*
X2409044Y5302268D1*
X2402518Y5302695D1*
X2396103Y5303971D1*
X2389910Y5306073D1*
X2384044Y5308966D1*
X2378606Y5312599D1*
X2373689Y5316911D1*
D1*
X2369376Y5321828D1*
X2365742Y5327266D1*
X2362850Y5333132D1*
X2360747Y5339325D1*
X2359471Y5345740D1*
X2359043Y5352266D1*
X2359471Y5358793D1*
X2360746Y5365207D1*
X2362849Y5371401D1*
X2365741Y5377266D1*
X2369375Y5382705D1*
X2373687Y5387622D1*
X2378604Y5391934D1*
X2384042Y5395568D1*
X2389908Y5398461D1*
X2396101Y5400563D1*
X2402516Y5401840D1*
X2409042Y5402268D1*
X2415568Y5401840D1*
X2421983Y5400564D1*
X2428176Y5398462D1*
X2434042Y5395569D1*
X2439480Y5391936D1*
X2444398Y5387624D1*
D1*
G37*
X2392132Y5426971D2*
D10*
X2206741Y5612353D1*
X2392132Y5426971D2*
G03X2611332Y5646177I18429J200772D01*
G01*
X2206741Y5612353D2*
G02X2425939Y5831561I201768J17440D01*
G01*
X3118043Y2120060D2*
X3380223Y2120067D1*
G36*
X3445007Y1819202D2*
X3451533Y1818774D1*
X3457948Y1817498D1*
X3464141Y1815396D1*
X3470007Y1812503D1*
X3475445Y1808870D1*
X3480363Y1804558D1*
X3484675Y1799641D1*
X3488309Y1794203D1*
X3491202Y1788337D1*
X3493304Y1782144D1*
X3494580Y1775729D1*
X3495008Y1769203D1*
X3494581Y1762677D1*
X3493305Y1756262D1*
X3491203Y1750069D1*
X3488310Y1744203D1*
X3484677Y1738765D1*
X3480364Y1733847D1*
X3475447Y1729535D1*
X3470009Y1725901D1*
X3464144Y1723008D1*
X3457950Y1720906D1*
X3451536Y1719630D1*
X3445010Y1719202D1*
D1*
X3438483Y1719629D1*
X3432069Y1720905D1*
X3425875Y1723007D1*
X3420009Y1725900D1*
X3414571Y1729533D1*
X3409654Y1733845D1*
X3405341Y1738762D1*
X3401708Y1744200D1*
X3398815Y1750066D1*
X3396712Y1756259D1*
X3395436Y1762674D1*
X3395008Y1769200D1*
X3395436Y1775727D1*
X3396712Y1782141D1*
X3398814Y1788335D1*
X3401706Y1794200D1*
X3405340Y1799639D1*
X3409652Y1804556D1*
X3414569Y1808868D1*
X3420007Y1812502D1*
X3425873Y1815395D1*
X3432066Y1817498D1*
X3438481Y1818774D1*
X3445007Y1819202D1*
D1*
G37*
X3380227Y1810067D2*
D10*
X3118051Y1810060D1*
X3380227Y1810067D2*
G03X3380223Y2120067I-128936J154998D01*
G01*
X3118051Y1810060D2*
G02X3118043Y2120060I130339J155003D01*
G01*
X3380230Y6869866D2*
X3118050Y6869861D1*
G36*
X3053267Y7170727D2*
X3046741Y7171154D1*
X3040326Y7172430D1*
X3034133Y7174532D1*
X3028267Y7177425D1*
X3022829Y7181058D1*
X3017912Y7185371D1*
X3013599Y7190288D1*
X3009966Y7195726D1*
X3007073Y7201592D1*
X3004970Y7207785D1*
X3003694Y7214199D1*
X3003267Y7220726D1*
X3003694Y7227252D1*
X3004970Y7233667D1*
X3007072Y7239860D1*
X3009965Y7245726D1*
X3013598Y7251164D1*
X3017911Y7256081D1*
X3022828Y7260394D1*
X3028266Y7264027D1*
X3034132Y7266920D1*
X3040325Y7269023D1*
X3046739Y7270299D1*
X3053266Y7270727D1*
D1*
X3059792Y7270299D1*
X3066207Y7269023D1*
X3072400Y7266921D1*
X3078266Y7264028D1*
X3083704Y7260395D1*
X3088621Y7256083D1*
X3092934Y7251165D1*
X3096567Y7245727D1*
X3099460Y7239862D1*
X3101563Y7233668D1*
X3102839Y7227254D1*
X3103267Y7220727D1*
X3102839Y7214201D1*
X3101563Y7207786D1*
X3099461Y7201593D1*
X3096568Y7195727D1*
X3092935Y7190289D1*
X3088623Y7185372D1*
X3083705Y7181059D1*
X3078267Y7177426D1*
X3072402Y7174533D1*
X3066208Y7172431D1*
X3059794Y7171154D1*
X3053267Y7170727D1*
D1*
G37*
X3118047Y7179861D2*
D10*
X3380224Y7179866D1*
X3118047Y7179861D2*
G03X3118050Y6869861I128935J-154999D01*
G01*
X3380224Y7179866D2*
G02X3380230Y6869866I-130340J-155002D01*
G01*
X1609970Y5404063D2*
X1656637Y5450730D1*
Y5544063D1*
X1356637D1*
Y5404063D1*
X1609970D1*
X3261034Y2396959D2*
X3261040Y2256959D1*
X3477040Y2256968D1*
X3477034Y2396968D1*
X3261034Y2396959D1*
X3297132Y6109466D2*
X3157132Y6109461D1*
X3157141Y5893461D1*
X3297141Y5893466D1*
X3297132Y6109466D1*
X3684033Y6729457D2*
X3684041Y6589457D1*
X3900041Y6589470D1*
X3900033Y6729470D1*
X3684033Y6729457D1*
X2423235Y3839560D2*
X2423239Y3699560D1*
X2639239Y3699567D1*
X2639235Y3839567D1*
X2423235Y3839560D1*
X3865210Y5240603D2*
Y3840603D1*
X5265210D1*
Y5140603D1*
X5165210Y5240603D1*
X3865210D1*
X7888793Y4266037D2*
Y3390037D1*
X8288793D1*
Y4166037D1*
X8188793Y4266037D1*
X7888793D1*
M02*
