G04 DipTrace 5.1.0.3*
G04 Нижнийразмер.gbr*
%MOMM*%
G04 #@! TF.FileFunction,Drawing,Bot*
G04 #@! TF.Part,Single*
%ADD13C,0.03*%
%ADD108C,0.15686*%
%FSLAX35Y35*%
G04*
G71*
G90*
G75*
G01*
G04 BotDimension*
%LPD*%
X3046233Y6105360D2*
D13*
Y-410593D1*
X3232540Y2714660D2*
Y-410593D1*
X3046233Y-360593D2*
X3232540D1*
X2896233D2*
X2946233D1*
G36*
X3046233D2*
X2946233Y-380593D1*
Y-340593D1*
X3046233Y-360593D1*
G37*
X3382540D2*
D13*
X3332540D1*
G36*
X3232540D2*
X3332540Y-340593D1*
Y-380593D1*
X3232540Y-360593D1*
G37*
X3691293D2*
D13*
X3232540D1*
X2681340Y2999263D2*
Y-31003D1*
X2689037Y5987163D2*
Y-31003D1*
X2681340Y18997D2*
X2689037D1*
X2531340D2*
X2581340D1*
G36*
X2681340D2*
X2581340Y-1003D1*
Y38997D1*
X2681340Y18997D1*
G37*
X2839037D2*
D13*
X2789037D1*
G36*
X2689037D2*
X2789037Y38997D1*
Y-1003D1*
X2689037Y18997D1*
G37*
X3196531D2*
D13*
X2689037D1*
X3356069Y-247032D2*
D108*
X3365840Y-242090D1*
X3380440Y-227603D1*
Y-329578D1*
X3416642Y-319807D2*
X3411813Y-324749D1*
X3416642Y-329578D1*
X3421584Y-324749D1*
X3416642Y-319807D1*
X3477215Y-227603D2*
X3462727Y-232432D1*
X3457785Y-242090D1*
Y-251861D1*
X3462727Y-261520D1*
X3472385Y-266461D1*
X3491815Y-271290D1*
X3506415Y-276120D1*
X3516073Y-285890D1*
X3520902Y-295549D1*
Y-310149D1*
X3516073Y-319807D1*
X3511244Y-324749D1*
X3496644Y-329578D1*
X3477215D1*
X3462727Y-324749D1*
X3457785Y-319807D1*
X3452956Y-310149D1*
Y-295549D1*
X3457785Y-285890D1*
X3467556Y-276120D1*
X3482044Y-271290D1*
X3501473Y-266461D1*
X3511244Y-261520D1*
X3516073Y-251861D1*
Y-242090D1*
X3511244Y-232432D1*
X3496644Y-227603D1*
X3477215D1*
X3610562Y-242090D2*
X3605733Y-232432D1*
X3591133Y-227603D1*
X3581475D1*
X3566875Y-232432D1*
X3557104Y-247032D1*
X3552275Y-271290D1*
Y-295549D1*
X3557104Y-314978D1*
X3566875Y-324749D1*
X3581475Y-329578D1*
X3586304D1*
X3600792Y-324749D1*
X3610562Y-314978D1*
X3615392Y-300378D1*
Y-295549D1*
X3610562Y-280949D1*
X3600792Y-271290D1*
X3586304Y-266461D1*
X3581475D1*
X3566875Y-271290D1*
X3557104Y-280949D1*
X3552275Y-295549D1*
X3656535Y-227603D2*
X3709881D1*
X3680793Y-266461D1*
X3695393D1*
X3705052Y-271290D1*
X3709881Y-276120D1*
X3714823Y-290720D1*
Y-300378D1*
X3709881Y-314978D1*
X3700223Y-324749D1*
X3685623Y-329578D1*
X3671023D1*
X3656535Y-324749D1*
X3651706Y-319807D1*
X3646764Y-310149D1*
X2841766Y151987D2*
X2827166Y147158D1*
X2817395Y132558D1*
X2812566Y108300D1*
Y93700D1*
X2817395Y69441D1*
X2827166Y54841D1*
X2841766Y50012D1*
X2851425D1*
X2866025Y54841D1*
X2875683Y69441D1*
X2880625Y93700D1*
Y108300D1*
X2875683Y132558D1*
X2866025Y147158D1*
X2851425Y151987D1*
X2841766D1*
X2875683Y132558D2*
X2817395Y69441D1*
X2916826Y59783D2*
X2911997Y54841D1*
X2916826Y50012D1*
X2921768Y54841D1*
X2916826Y59783D1*
X2982340Y151987D2*
X2967740Y147158D1*
X2957970Y132558D1*
X2953140Y108300D1*
Y93700D1*
X2957970Y69441D1*
X2967740Y54841D1*
X2982340Y50012D1*
X2991999D1*
X3006599Y54841D1*
X3016257Y69441D1*
X3021199Y93700D1*
Y108300D1*
X3016257Y132558D1*
X3006599Y147158D1*
X2991999Y151987D1*
X2982340D1*
X3016257Y132558D2*
X2957970Y69441D1*
X3072001Y50012D2*
X3120630Y151987D1*
X3052571D1*
X3171432Y50012D2*
X3220061Y151987D1*
X3152002D1*
M02*
