G04 DipTrace 5.1.0.3*
G04 Нижняямаркировка.gbr*
%MOMM*%
G04 #@! TF.FileFunction,Legend,Bot*
G04 #@! TF.Part,Single*
%ADD10C,0.12*%
%ADD34C,0.1*%
%ADD106C,0.19608*%
%FSLAX35Y35*%
G04*
G71*
G90*
G75*
G01*
G04 BotSilk*
%LPD*%
X8689590Y4934096D2*
D10*
X8689603Y4804196D1*
X10529927Y5317656D2*
X10400027Y5317644D1*
X8016983Y4650508D2*
X8221980Y4650437D1*
X8016983Y4650508D2*
X8016957Y5200431D1*
X8126975Y5310406D2*
X8016957Y5200431D1*
X8126975Y5310406D2*
X8221948Y5310411D1*
X8471986Y4650449D2*
X8676983Y4650539D1*
X8676957Y5200462D1*
X8566928Y5310427D2*
X8676957Y5200462D1*
X8471955Y5310423D2*
X8566928Y5310427D1*
G36*
X8201963Y5340513D2*
X8198050Y5340769D1*
X8194204Y5341534D1*
X8190490Y5342795D1*
X8186973Y5344529D1*
X8183712Y5346708D1*
X8180764Y5349293D1*
X8178178Y5352241D1*
X8175999Y5355502D1*
X8174264Y5359019D1*
X8173004Y5362732D1*
X8172238Y5366579D1*
X8171982Y5370492D1*
X8172238Y5374405D1*
X8173003Y5378251D1*
X8174263Y5381965D1*
X8175998Y5385482D1*
X8178176Y5388743D1*
X8180762Y5391691D1*
X8183710Y5394277D1*
X8186971Y5396456D1*
X8190488Y5398190D1*
X8194201Y5399451D1*
X8198047Y5400216D1*
X8201960Y5400473D1*
X8201994D1*
X8205907Y5400217D1*
X8209753Y5399452D1*
X8213467Y5398192D1*
X8216984Y5396457D1*
X8220245Y5394279D1*
X8223193Y5391693D1*
X8225779Y5388745D1*
X8227958Y5385484D1*
X8229693Y5381967D1*
X8230953Y5378254D1*
X8231718Y5374408D1*
X8231975Y5370495D1*
X8231719Y5366581D1*
X8230954Y5362735D1*
X8229694Y5359022D1*
X8227959Y5355504D1*
X8225781Y5352244D1*
X8223195Y5349295D1*
X8220247Y5346709D1*
X8216986Y5344530D1*
X8213469Y5342796D1*
X8209756Y5341535D1*
X8205910Y5340770D1*
X8201997Y5340513D1*
X8201963D1*
G37*
X9025915Y5061056D2*
D10*
X9230911Y5060983D1*
X9025915Y5061056D2*
X9025896Y5610979D1*
X9135916Y5720953D2*
X9025896Y5610979D1*
X9135916Y5720953D2*
X9230889Y5720956D1*
X9480918Y5060991D2*
X9685915Y5061078D1*
X9685896Y5611001D1*
X9575869Y5720967D2*
X9685896Y5611001D1*
X9480896Y5720964D2*
X9575869Y5720967D1*
G36*
X9210905Y5751059D2*
X9206992Y5751315D1*
X9203146Y5752080D1*
X9199432Y5753340D1*
X9195915Y5755075D1*
X9192654Y5757253D1*
X9189706Y5759839D1*
X9187120Y5762787D1*
X9184941Y5766048D1*
X9183207Y5769565D1*
X9181946Y5773278D1*
X9181181Y5777124D1*
X9180924Y5781038D1*
X9181180Y5784951D1*
X9181945Y5788797D1*
X9183206Y5792511D1*
X9184940Y5796028D1*
X9187119Y5799288D1*
X9189704Y5802237D1*
X9192653Y5804823D1*
X9195913Y5807002D1*
X9199430Y5808736D1*
X9203144Y5809997D1*
X9206990Y5810762D1*
X9210903Y5811019D1*
X9210936D1*
X9214850Y5810762D1*
X9218696Y5809997D1*
X9222409Y5808737D1*
X9225927Y5807003D1*
X9229187Y5804824D1*
X9232136Y5802238D1*
X9234722Y5799290D1*
X9236900Y5796029D1*
X9238635Y5792512D1*
X9239896Y5788799D1*
X9240661Y5784953D1*
X9240917Y5781040D1*
X9240661Y5777126D1*
X9239896Y5773280D1*
X9238636Y5769567D1*
X9236901Y5766049D1*
X9234723Y5762789D1*
X9232137Y5759840D1*
X9229189Y5757254D1*
X9225928Y5755076D1*
X9222411Y5753341D1*
X9218698Y5752080D1*
X9214852Y5751315D1*
X9210938Y5751059D1*
X9210905D1*
G37*
X5378262Y5477089D2*
D10*
X5378258Y5606989D1*
X9851041Y2572331D2*
X9980941Y2572336D1*
X7787213Y4286567D2*
X7917113D1*
G36*
X3033326Y5444170D2*
X3030063Y5444384D1*
X3026856Y5445022D1*
X3023760Y5446073D1*
X3020827Y5447519D1*
X3018109Y5449335D1*
X3015650Y5451491D1*
X3013495Y5453949D1*
X3011678Y5456668D1*
X3010232Y5459600D1*
X3009181Y5462697D1*
X3008543Y5465904D1*
X3008329Y5469166D1*
X3008543Y5472429D1*
X3009180Y5475636D1*
X3010231Y5478732D1*
X3011677Y5481665D1*
X3013494Y5484383D1*
X3015650Y5486842D1*
X3018108Y5488998D1*
X3020827Y5490814D1*
X3023759Y5492260D1*
X3026855Y5493312D1*
X3030062Y5493949D1*
X3033325Y5494163D1*
X3033338D1*
X3036601Y5493950D1*
X3039808Y5493312D1*
X3042904Y5492261D1*
X3045837Y5490815D1*
X3048555Y5488998D1*
X3051014Y5486842D1*
X3053170Y5484384D1*
X3054986Y5481665D1*
X3056432Y5478733D1*
X3057484Y5475637D1*
X3058122Y5472430D1*
X3058335Y5469167D1*
X3058122Y5465904D1*
X3057484Y5462698D1*
X3056433Y5459601D1*
X3054987Y5456669D1*
X3053170Y5453950D1*
X3051014Y5451492D1*
X3048556Y5449336D1*
X3045837Y5447519D1*
X3042905Y5446073D1*
X3039809Y5445022D1*
X3036602Y5444384D1*
X3033339Y5444170D1*
X3033326D1*
G37*
X3173337Y5204149D2*
D10*
X3173338Y5154156D1*
X2893337Y5204144D2*
X2893338Y5154151D1*
G36*
X3705939Y5190613D2*
X3709202Y5190400D1*
X3712409Y5189762D1*
X3715505Y5188711D1*
X3718438Y5187265D1*
X3721156Y5185449D1*
X3723615Y5183293D1*
X3725771Y5180835D1*
X3727588Y5178117D1*
X3729034Y5175184D1*
X3730085Y5172088D1*
X3730723Y5168881D1*
X3730937Y5165618D1*
X3730724Y5162356D1*
X3730086Y5159149D1*
X3729035Y5156053D1*
X3727589Y5153120D1*
X3725773Y5150401D1*
X3723617Y5147943D1*
X3721159Y5145787D1*
X3718441Y5143970D1*
X3715508Y5142523D1*
X3712412Y5141472D1*
X3709205Y5140834D1*
X3705943Y5140620D1*
X3705929D1*
X3702666Y5140834D1*
X3699460Y5141471D1*
X3696363Y5142522D1*
X3693431Y5143968D1*
X3690712Y5145784D1*
X3688253Y5147940D1*
X3686097Y5150398D1*
X3684281Y5153117D1*
X3682834Y5156049D1*
X3681783Y5159145D1*
X3681145Y5162352D1*
X3680931Y5165615D1*
X3681144Y5168878D1*
X3681782Y5172085D1*
X3682833Y5175181D1*
X3684279Y5178114D1*
X3686095Y5180832D1*
X3688251Y5183291D1*
X3690709Y5185447D1*
X3693428Y5187264D1*
X3696360Y5188710D1*
X3699456Y5189761D1*
X3702663Y5190399D1*
X3705926Y5190613D1*
X3705939D1*
G37*
X3565916Y5430627D2*
D10*
X3565912Y5480620D1*
X3845916Y5430646D2*
X3845912Y5480640D1*
X3236453Y5223462D2*
X3366353Y5223471D1*
X5124754Y3130324D2*
X5254654Y3130329D1*
X4466183Y3150430D2*
X4596083D1*
X9294413Y3594355D2*
X9294407Y3724255D1*
X10763733Y6183627D2*
D34*
X10763719Y6437627D1*
X10509733Y6183613D2*
X10509719Y6437613D1*
X10756743Y6000627D2*
X10516743Y6000613D1*
X8970239Y6094316D2*
X8970248Y5981316D1*
X7928248Y5981237D1*
X7928239Y6094237D1*
G36*
X8773287Y5464511D2*
X8773501Y5467775D1*
X8774139Y5470982D1*
X8775190Y5474079D1*
X8776636Y5477012D1*
X8778452Y5479731D1*
X8780608Y5482190D1*
X8783067Y5484346D1*
X8785786Y5486163D1*
X8788719Y5487610D1*
X8791815Y5488661D1*
X8795022Y5489299D1*
X8798286Y5489513D1*
X8801549Y5489300D1*
X8804756Y5488662D1*
X8807853Y5487611D1*
X8810786Y5486165D1*
X8813505Y5484348D1*
X8815964Y5482192D1*
X8818120Y5479734D1*
X8819937Y5477015D1*
X8821384Y5474082D1*
X8822435Y5470986D1*
X8823073Y5467778D1*
X8823287Y5464515D1*
D1*
X8823074Y5461252D1*
X8822436Y5458045D1*
X8821385Y5454948D1*
X8819939Y5452015D1*
X8818122Y5449296D1*
X8815967Y5446837D1*
X8813508Y5444681D1*
X8810789Y5442864D1*
X8807856Y5441417D1*
X8804760Y5440366D1*
X8801553Y5439727D1*
X8798289Y5439513D1*
X8795026Y5439727D1*
X8791819Y5440365D1*
X8788722Y5441416D1*
X8785789Y5442862D1*
X8783070Y5444678D1*
X8780611Y5446834D1*
X8778455Y5449293D1*
X8776638Y5452012D1*
X8775191Y5454944D1*
X8774140Y5458041D1*
X8773502Y5461248D1*
X8773287Y5464511D1*
D1*
G37*
X3345029Y2787554D2*
D10*
X3322338Y2764863D1*
X3125828Y3006760D2*
X3100276Y2981207D1*
X3345029Y2787554D2*
G03X3125828Y3006760I-200771J18434D01*
G01*
X3159642Y2602167D2*
G02X2940439Y2821370I-17435J201768D01*
G01*
G36*
X3371055Y2822141D2*
X3373514Y2824297D1*
X3376233Y2826114D1*
X3379166Y2827560D1*
X3382262Y2828612D1*
X3385470Y2829249D1*
X3388733Y2829463D1*
X3391996Y2829249D1*
X3395203Y2828612D1*
X3398300Y2827560D1*
X3401233Y2826114D1*
X3403952Y2824297D1*
X3406411Y2822141D1*
X3408567Y2819682D1*
X3410384Y2816963D1*
X3411830Y2814030D1*
X3412881Y2810934D1*
X3413519Y2807727D1*
X3413733Y2804463D1*
X3413519Y2801200D1*
X3412881Y2797993D1*
X3411830Y2794896D1*
X3410384Y2791963D1*
X3408567Y2789244D1*
X3406411Y2786786D1*
D1*
X3403952Y2784630D1*
X3401233Y2782813D1*
X3398300Y2781366D1*
X3395203Y2780315D1*
X3391996Y2779677D1*
X3388733Y2779463D1*
X3385470Y2779677D1*
X3382262Y2780315D1*
X3379166Y2781366D1*
X3376233Y2782813D1*
X3373514Y2784630D1*
X3371055Y2786786D1*
X3368899Y2789244D1*
X3367082Y2791963D1*
X3365636Y2794896D1*
X3364585Y2797993D1*
X3363947Y2801200D1*
X3363733Y2804463D1*
X3363947Y2807727D1*
X3364585Y2810934D1*
X3365636Y2814030D1*
X3367082Y2816963D1*
X3368899Y2819682D1*
X3371055Y2822141D1*
D1*
G37*
X3182336Y2624861D2*
D10*
X3159642Y2602167D1*
X2965989Y2846920D2*
X2940439Y2821370D1*
X3119132Y5992871D2*
X3096440Y6015561D1*
X3338332Y6212077D2*
X3312779Y6237628D1*
X3119132Y5992871D2*
G03X3338332Y6212077I18429J200772D01*
G01*
X2933741Y6178253D2*
G02X3152939Y6397461I201768J17440D01*
G01*
G36*
X3153720Y5966845D2*
X3155876Y5964387D1*
X3157693Y5961668D1*
X3159139Y5958735D1*
X3160190Y5955638D1*
X3160828Y5952431D1*
X3161042Y5949168D1*
X3160829Y5945905D1*
X3160191Y5942697D1*
X3159140Y5939601D1*
X3157693Y5936668D1*
X3155877Y5933949D1*
X3153720Y5931490D1*
X3151262Y5929334D1*
X3148543Y5927517D1*
X3145610Y5926070D1*
X3142513Y5925019D1*
X3139306Y5924381D1*
X3136043Y5924167D1*
X3132780Y5924381D1*
X3129572Y5925019D1*
X3126476Y5926070D1*
X3123543Y5927516D1*
X3120824Y5929333D1*
X3118365Y5931489D1*
D1*
X3116209Y5933948D1*
X3114392Y5936667D1*
X3112946Y5939599D1*
X3111894Y5942696D1*
X3111256Y5945903D1*
X3111042Y5949166D1*
X3111256Y5952430D1*
X3111894Y5955637D1*
X3112945Y5958734D1*
X3114391Y5961667D1*
X3116208Y5964386D1*
X3118364Y5966844D1*
X3120823Y5969001D1*
X3123542Y5970817D1*
X3126475Y5972264D1*
X3129571Y5973315D1*
X3132779Y5973953D1*
X3136042Y5974167D1*
X3139305Y5973953D1*
X3142512Y5973315D1*
X3145609Y5972264D1*
X3148542Y5970818D1*
X3151261Y5969001D1*
X3153720Y5966845D1*
D1*
G37*
X2956435Y6155560D2*
D10*
X2933741Y6178253D1*
X3178489Y6371912D2*
X3152939Y6397461D1*
X2812427Y2971267D2*
X2780337Y2971266D1*
X2812423Y3281267D2*
X2776286Y3281266D1*
X2812427Y2971267D2*
G03X2812423Y3281267I-128936J154998D01*
G01*
X2550251Y2971260D2*
G02X2550243Y3281260I130339J155003D01*
G01*
G36*
X2855287Y2977321D2*
X2858550Y2977107D1*
X2861758Y2976469D1*
X2864854Y2975418D1*
X2867787Y2973972D1*
X2870506Y2972155D1*
X2872965Y2969999D1*
X2875121Y2967541D1*
X2876938Y2964822D1*
X2878384Y2961889D1*
X2879436Y2958792D1*
X2880074Y2955585D1*
X2880288Y2952322D1*
X2880074Y2949058D1*
X2879436Y2945851D1*
X2878385Y2942755D1*
X2876939Y2939822D1*
X2875122Y2937102D1*
X2872966Y2934644D1*
X2870507Y2932488D1*
X2867788Y2930671D1*
X2864855Y2929224D1*
X2861759Y2928173D1*
X2858551Y2927535D1*
X2855288Y2927321D1*
D1*
X2852025Y2927535D1*
X2848818Y2928173D1*
X2845721Y2929224D1*
X2842788Y2930670D1*
X2840069Y2932487D1*
X2837610Y2934643D1*
X2835454Y2937101D1*
X2833637Y2939820D1*
X2832191Y2942753D1*
X2831140Y2945850D1*
X2830502Y2949057D1*
X2830288Y2952320D1*
X2830501Y2955584D1*
X2831139Y2958791D1*
X2832190Y2961888D1*
X2833637Y2964820D1*
X2835453Y2967540D1*
X2837610Y2969998D1*
X2840068Y2972154D1*
X2842787Y2973971D1*
X2845720Y2975418D1*
X2848817Y2976469D1*
X2852024Y2977107D1*
X2855287Y2977321D1*
D1*
G37*
X2582344Y2971261D2*
D10*
X2550251Y2971260D1*
X2586376Y3281261D2*
X2550243Y3281260D1*
X2557947Y6015161D2*
X2590037Y6015162D1*
X2557950Y5705161D2*
X2594086Y5705162D1*
X2557947Y6015161D2*
G03X2557950Y5705161I128935J-154999D01*
G01*
X2820124Y6015166D2*
G02X2820130Y5705166I-130340J-155002D01*
G01*
G36*
X2515087Y6009107D2*
X2511824Y6009321D1*
X2508617Y6009959D1*
X2505520Y6011010D1*
X2502587Y6012456D1*
X2499868Y6014273D1*
X2497410Y6016429D1*
X2495253Y6018888D1*
X2493437Y6021607D1*
X2491990Y6024539D1*
X2490939Y6027636D1*
X2490301Y6030843D1*
X2490087Y6034107D1*
X2490301Y6037370D1*
X2490939Y6040577D1*
X2491990Y6043674D1*
X2493436Y6046607D1*
X2495253Y6049326D1*
X2497409Y6051784D1*
X2499868Y6053941D1*
X2502587Y6055757D1*
X2505519Y6057204D1*
X2508616Y6058255D1*
X2511823Y6058893D1*
X2515086Y6059107D1*
D1*
X2518350Y6058893D1*
X2521557Y6058255D1*
X2524654Y6057204D1*
X2527587Y6055758D1*
X2530306Y6053941D1*
X2532764Y6051785D1*
X2534920Y6049326D1*
X2536737Y6046607D1*
X2538184Y6043674D1*
X2539235Y6040578D1*
X2539873Y6037371D1*
X2540087Y6034107D1*
X2539873Y6030844D1*
X2539235Y6027637D1*
X2538184Y6024540D1*
X2536738Y6021607D1*
X2534921Y6018888D1*
X2532765Y6016430D1*
X2530306Y6014273D1*
X2527587Y6012457D1*
X2524654Y6011010D1*
X2521558Y6009959D1*
X2518351Y6009321D1*
X2515087Y6009107D1*
D1*
G37*
X2788031Y6015165D2*
D10*
X2820124Y6015166D1*
X2783996Y5705165D2*
X2820130Y5705166D1*
X2420092Y3629906D2*
D34*
X2472092Y3629907D1*
X2420088Y3769906D2*
X2472088Y3769907D1*
X3460138Y6717066D2*
X3460136Y6769066D1*
X3320138Y6717061D2*
X3320136Y6769061D1*
X2316834Y5432165D2*
X2264834Y5432162D1*
X2316840Y5292165D2*
X2264840Y5292162D1*
X3041438Y3369963D2*
X3093438Y3369964D1*
X3041435Y3509963D2*
X3093435Y3509964D1*
X6716127Y3731230D2*
D10*
Y4026230D1*
X6226127D1*
Y3731230D1*
X6716127D1*
G36*
X6305627Y3958103D2*
X6305413Y3954840D1*
X6304775Y3951633D1*
X6303724Y3948536D1*
X6302277Y3945603D1*
X6300461Y3942884D1*
X6298304Y3940426D1*
X6295846Y3938270D1*
X6293127Y3936453D1*
X6290194Y3935006D1*
X6287097Y3933955D1*
X6283890Y3933317D1*
X6280627Y3933103D1*
X6277364Y3933317D1*
X6274156Y3933955D1*
X6271060Y3935006D1*
X6268127Y3936453D1*
X6265408Y3938270D1*
X6262949Y3940426D1*
X6260793Y3942884D1*
X6258976Y3945603D1*
X6257530Y3948536D1*
X6256479Y3951633D1*
X6255841Y3954840D1*
X6255627Y3958103D1*
D1*
X6255841Y3961367D1*
X6256479Y3964574D1*
X6257530Y3967670D1*
X6258976Y3970603D1*
X6260793Y3973322D1*
X6262949Y3975781D1*
X6265408Y3977937D1*
X6268127Y3979754D1*
X6271060Y3981200D1*
X6274156Y3982252D1*
X6277364Y3982889D1*
X6280627Y3983103D1*
X6283890Y3982889D1*
X6287097Y3982252D1*
X6290194Y3981200D1*
X6293127Y3979754D1*
X6295846Y3977937D1*
X6298304Y3975781D1*
X6300461Y3973322D1*
X6302277Y3970603D1*
X6303724Y3967670D1*
X6304775Y3964574D1*
X6305413Y3961367D1*
X6305627Y3958103D1*
D1*
G37*
X6983667Y5315840D2*
D10*
Y5020840D1*
X7473667D1*
Y5315840D1*
X6983667D1*
G36*
X7394167Y5088967D2*
X7394381Y5092230D1*
X7395019Y5095437D1*
X7396070Y5098534D1*
X7397516Y5101467D1*
X7399333Y5104186D1*
X7401489Y5106644D1*
X7403948Y5108801D1*
X7406667Y5110617D1*
X7409600Y5112064D1*
X7412696Y5113115D1*
X7415904Y5113753D1*
X7419167Y5113967D1*
X7422430Y5113753D1*
X7425637Y5113115D1*
X7428734Y5112064D1*
X7431667Y5110617D1*
X7434386Y5108801D1*
X7436844Y5106644D1*
X7439001Y5104186D1*
X7440817Y5101467D1*
X7442264Y5098534D1*
X7443315Y5095437D1*
X7443953Y5092230D1*
X7444167Y5088967D1*
D1*
X7443953Y5085704D1*
X7443315Y5082496D1*
X7442264Y5079400D1*
X7440817Y5076467D1*
X7439001Y5073748D1*
X7436844Y5071289D1*
X7434386Y5069133D1*
X7431667Y5067316D1*
X7428734Y5065870D1*
X7425637Y5064819D1*
X7422430Y5064181D1*
X7419167Y5063967D1*
X7415904Y5064181D1*
X7412696Y5064819D1*
X7409600Y5065870D1*
X7406667Y5067316D1*
X7403948Y5069133D1*
X7401489Y5071289D1*
X7399333Y5073748D1*
X7397516Y5076467D1*
X7396070Y5079400D1*
X7395019Y5082496D1*
X7394381Y5085704D1*
X7394167Y5088967D1*
D1*
G37*
X5198210Y5240603D2*
D10*
X5265210D1*
Y5173603D1*
X3865210D2*
Y5240603D1*
X3932210D1*
Y3840603D2*
X3865210D1*
Y3907603D1*
X5265210D2*
Y3840603D1*
X5198210D1*
G36*
X5361210Y5167603D2*
X5357947Y5167817D1*
X5354740Y5168455D1*
X5351643Y5169506D1*
X5348710Y5170953D1*
X5345991Y5172770D1*
X5343532Y5174926D1*
X5341376Y5177384D1*
X5339559Y5180103D1*
X5338113Y5183036D1*
X5337062Y5186133D1*
X5336424Y5189340D1*
X5336210Y5192603D1*
X5336424Y5195867D1*
X5337062Y5199074D1*
X5338113Y5202170D1*
X5339559Y5205103D1*
X5341376Y5207822D1*
X5343532Y5210281D1*
X5345991Y5212437D1*
X5348710Y5214254D1*
X5351643Y5215700D1*
X5354740Y5216752D1*
X5357947Y5217389D1*
X5361210Y5217603D1*
D1*
X5364473Y5217389D1*
X5367680Y5216752D1*
X5370777Y5215700D1*
X5373710Y5214254D1*
X5376429Y5212437D1*
X5378888Y5210281D1*
X5381044Y5207822D1*
X5382861Y5205103D1*
X5384307Y5202170D1*
X5385358Y5199074D1*
X5385996Y5195867D1*
X5386210Y5192603D1*
X5385996Y5189340D1*
X5385358Y5186133D1*
X5384307Y5183036D1*
X5382861Y5180103D1*
X5381044Y5177384D1*
X5378888Y5174926D1*
X5376429Y5172770D1*
X5373710Y5170953D1*
X5370777Y5169506D1*
X5367680Y5168455D1*
X5364473Y5167817D1*
X5361210Y5167603D1*
D1*
G37*
X7888793Y4260037D2*
D10*
Y4266037D1*
X8288793D1*
Y4260037D1*
X7888793Y3396037D2*
Y3390037D1*
X8288793D1*
Y3396037D1*
G36*
X8409793Y4254037D2*
X8406530Y4254251D1*
X8403323Y4254889D1*
X8400226Y4255940D1*
X8397293Y4257386D1*
X8394574Y4259203D1*
X8392116Y4261359D1*
X8389960Y4263818D1*
X8388143Y4266537D1*
X8386696Y4269470D1*
X8385645Y4272566D1*
X8385007Y4275774D1*
X8384793Y4279037D1*
X8385007Y4282300D1*
X8385645Y4285507D1*
X8386696Y4288604D1*
X8388143Y4291537D1*
X8389960Y4294256D1*
X8392116Y4296714D1*
X8394574Y4298871D1*
X8397293Y4300687D1*
X8400226Y4302134D1*
X8403323Y4303185D1*
X8406530Y4303823D1*
X8409793Y4304037D1*
D1*
X8413057Y4303823D1*
X8416264Y4303185D1*
X8419360Y4302134D1*
X8422293Y4300687D1*
X8425012Y4298871D1*
X8427471Y4296714D1*
X8429627Y4294256D1*
X8431444Y4291537D1*
X8432890Y4288604D1*
X8433941Y4285507D1*
X8434579Y4282300D1*
X8434793Y4279037D1*
X8434579Y4275774D1*
X8433941Y4272566D1*
X8432890Y4269470D1*
X8431444Y4266537D1*
X8429627Y4263818D1*
X8427471Y4261359D1*
X8425012Y4259203D1*
X8422293Y4257386D1*
X8419360Y4255940D1*
X8416264Y4254889D1*
X8413057Y4254251D1*
X8409793Y4254037D1*
D1*
G37*
G36*
X4710818Y3507487D2*
X4708273Y3507654D1*
X4705772Y3508151D1*
X4703357Y3508971D1*
X4701069Y3510099D1*
X4698949Y3511516D1*
X4697031Y3513198D1*
X4695349Y3515115D1*
X4693932Y3517236D1*
X4692804Y3519523D1*
X4691984Y3521938D1*
X4691487Y3524440D1*
X4691320Y3526985D1*
X4691487Y3529530D1*
X4691984Y3532032D1*
X4692804Y3534447D1*
X4693932Y3536734D1*
X4695349Y3538855D1*
X4697031Y3540772D1*
X4698949Y3542454D1*
X4701069Y3543871D1*
X4703357Y3544999D1*
X4705772Y3545819D1*
X4708273Y3546317D1*
X4710818Y3546483D1*
X4711095D1*
X4713640Y3546317D1*
X4716142Y3545819D1*
X4718557Y3544999D1*
X4720844Y3543871D1*
X4722965Y3542454D1*
X4724882Y3540772D1*
X4726564Y3538855D1*
X4727981Y3536734D1*
X4729109Y3534447D1*
X4729929Y3532032D1*
X4730427Y3529530D1*
X4730593Y3526985D1*
X4730427Y3524440D1*
X4729929Y3521938D1*
X4729109Y3519523D1*
X4727981Y3517236D1*
X4726564Y3515115D1*
X4724882Y3513198D1*
X4722965Y3511516D1*
X4720844Y3510099D1*
X4718557Y3508971D1*
X4716142Y3508151D1*
X4713640Y3507654D1*
X4711095Y3507487D1*
X4710818D1*
G37*
X8858930Y4638499D2*
D106*
X8864968Y4626426D1*
X8877182Y4614214D1*
X8889256Y4608179D1*
X8913543Y4608181D1*
X8925756Y4614219D1*
X8937827Y4626433D1*
X8944003Y4638507D1*
X8950038Y4656758D1*
X8950035Y4687221D1*
X8943997Y4705330D1*
X8937819Y4717543D1*
X8925745Y4729615D1*
X8913530Y4735791D1*
X8889244Y4735788D1*
X8877171Y4729610D1*
X8864959Y4717536D1*
X8858924Y4705322D1*
X8819715Y4632599D2*
X8807502Y4626421D1*
X8789254Y4608309D1*
X8789242Y4735779D1*
X10234331Y5121013D2*
X10222259Y5114975D1*
X10210046Y5102760D1*
X10204011Y5090687D1*
X10204013Y5066400D1*
X10210051Y5054187D1*
X10222266Y5042115D1*
X10234339Y5035940D1*
X10252590Y5029905D1*
X10283053Y5029907D1*
X10301162Y5035946D1*
X10313375Y5042124D1*
X10325447Y5054198D1*
X10331623Y5066412D1*
X10331621Y5090698D1*
X10325443Y5102771D1*
X10313368Y5114983D1*
X10301154Y5121019D1*
X10234468Y5166405D2*
X10228431D1*
X10216217Y5172440D1*
X10210180Y5178476D1*
X10204142Y5190689D1*
X10204140Y5214976D1*
X10210175Y5227049D1*
X10216211Y5233086D1*
X10228424Y5239264D1*
X10240497Y5239265D1*
X10252711Y5233090D1*
X10270822Y5221018D1*
X10331614Y5160237D1*
X10331606Y5245310D1*
X7861304Y4972617D2*
X7849231Y4966580D1*
X7837018Y4954366D1*
X7830982Y4942293D1*
X7830983Y4918006D1*
X7837021Y4905793D1*
X7849235Y4893721D1*
X7861308Y4887544D1*
X7879558Y4881509D1*
X7910022Y4881510D1*
X7928131Y4887547D1*
X7940344Y4893725D1*
X7952417Y4905799D1*
X7958593Y4918012D1*
X7958592Y4942299D1*
X7952414Y4954372D1*
X7940341Y4966585D1*
X7928127Y4972620D1*
X7831119Y5024045D2*
X7831116Y5090728D1*
X7879690Y5054370D1*
Y5072620D1*
X7885726Y5084694D1*
X7891762Y5090731D1*
X7910011Y5096908D1*
X7922085Y5096909D1*
X7940335Y5090733D1*
X7952549Y5078660D1*
X7958586Y5060411D1*
X7958587Y5042161D1*
X7952551Y5024051D1*
X7946375Y5018014D1*
X7934302Y5011836D1*
X8870240Y5380149D2*
X8858168Y5374113D1*
X8845955Y5361899D1*
X8839918Y5349825D1*
X8839919Y5325539D1*
X8845956Y5313326D1*
X8858170Y5301253D1*
X8870243Y5295076D1*
X8888493Y5289040D1*
X8918957Y5289041D1*
X8937066Y5295079D1*
X8949280Y5301256D1*
X8961352Y5313329D1*
X8967529Y5325543D1*
X8967528Y5349830D1*
X8961351Y5361902D1*
X8949277Y5374116D1*
X8937064Y5380152D1*
X8967524Y5480155D2*
X8840054Y5480151D1*
X8924989Y5419367D1*
X8924986Y5510477D1*
X5181637Y5772696D2*
X5175600Y5784769D1*
X5163386Y5796982D1*
X5151313Y5803019D1*
X5127026Y5803018D1*
X5114813Y5796981D1*
X5102740Y5784767D1*
X5096564Y5772694D1*
X5090528Y5754444D1*
X5090529Y5723980D1*
X5096566Y5705871D1*
X5102743Y5693658D1*
X5114817Y5681585D1*
X5127030Y5675408D1*
X5151317Y5675409D1*
X5163390Y5681586D1*
X5175603Y5693660D1*
X5181639Y5705873D1*
X5293711Y5802882D2*
X5233065Y5802881D1*
X5227030Y5748271D1*
X5233067Y5754308D1*
X5251317Y5760485D1*
X5269426Y5760486D1*
X5287676Y5754309D1*
X5299890Y5742236D1*
X5305927Y5723987D1*
X5305928Y5711914D1*
X5299892Y5693663D1*
X5287678Y5681450D1*
X5269429Y5675412D1*
X5251319D1*
X5233069Y5681448D1*
X5227032Y5687625D1*
X5220855Y5699698D1*
X10146646Y2765870D2*
X10158719Y2771907D1*
X10170932Y2784121D1*
X10176968Y2796195D1*
X10176967Y2820481D1*
X10170930Y2832695D1*
X10158716Y2844767D1*
X10146643Y2850944D1*
X10128393Y2856979D1*
X10097929Y2856978D1*
X10079820Y2850941D1*
X10067607Y2844763D1*
X10055534Y2832690D1*
X10049358Y2820476D1*
X10049359Y2796190D1*
X10055536Y2784117D1*
X10067610Y2771904D1*
X10079823Y2765868D1*
X10158724Y2653796D2*
X10170797Y2659833D1*
X10176833Y2678083D1*
X10176832Y2690156D1*
X10170795Y2708406D1*
X10152544Y2720618D1*
X10122221Y2726654D1*
X10091898Y2726653D1*
X10067612Y2720615D1*
X10055399Y2708401D1*
X10049363Y2690151D1*
Y2684114D1*
X10055400Y2666005D1*
X10067614Y2653792D1*
X10085865Y2647756D1*
X10091901D1*
X10110151Y2653794D1*
X10122223Y2666008D1*
X10128259Y2684118D1*
Y2690154D1*
X10122222Y2708404D1*
X10110148Y2720617D1*
X10091898Y2726653D1*
X8082827Y4483183D2*
X8094900Y4489219D1*
X8107113Y4501433D1*
X8113150Y4513506D1*
Y4537793D1*
X8107113Y4550006D1*
X8094900Y4562079D1*
X8082827Y4568256D1*
X8064577Y4574293D1*
X8034113D1*
X8016004Y4568256D1*
X8003790Y4562079D1*
X7991717Y4550006D1*
X7985540Y4537793D1*
Y4513506D1*
X7991717Y4501433D1*
X8003790Y4489219D1*
X8016004Y4483183D1*
X7985540Y4419681D2*
X8113010Y4358894D1*
Y4443967D1*
X3246736Y5167738D2*
X3234663Y5161701D1*
X3222450Y5149488D1*
X3216413Y5137415D1*
X3216414Y5113128D1*
X3222450Y5100915D1*
X3234664Y5088842D1*
X3246737Y5082665D1*
X3264987Y5076629D1*
X3295451D1*
X3313560Y5082666D1*
X3325774Y5088843D1*
X3337847Y5100917D1*
X3344023Y5113130D1*
Y5137417D1*
X3337846Y5149490D1*
X3325772Y5161703D1*
X3313559Y5167739D1*
X3240839Y5206954D2*
X3234662Y5219167D1*
X3216552Y5237417D1*
X3344021Y5237419D1*
X3216550Y5313132D2*
X3222587Y5294883D1*
X3240838Y5282669D1*
X3271161Y5276633D1*
X3289411Y5276634D1*
X3319734Y5282671D1*
X3337983Y5294885D1*
X3344020Y5313135D1*
X3344019Y5325208D1*
X3337983Y5343458D1*
X3319732Y5355530D1*
X3289409Y5361707D1*
X3271159D1*
X3240836Y5355529D1*
X3222586Y5343456D1*
X3216550Y5325205D1*
Y5313132D1*
X3240836Y5355529D2*
X3319734Y5282671D1*
X4001579Y5439765D2*
X4013651Y5445802D1*
X4025864Y5458017D1*
X4031899Y5470090D1*
X4031898Y5494377D1*
X4025860Y5506590D1*
X4013646Y5518662D1*
X4001573Y5524838D1*
X3983322Y5530873D1*
X3952859Y5530871D1*
X3934750Y5524833D1*
X3922536Y5518656D1*
X3910464Y5506582D1*
X3904288Y5494368D1*
X3904290Y5470081D1*
X3910468Y5458009D1*
X3922542Y5445796D1*
X3934755Y5439760D1*
X4007477Y5400550D2*
X4013655Y5388337D1*
X4031766Y5370088D1*
X3904297Y5370079D1*
X4007482Y5330871D2*
X4013660Y5318658D1*
X4031771Y5300409D1*
X3904302Y5300400D1*
X3532050Y5454939D2*
X3544123Y5460976D1*
X3556335Y5473190D1*
X3562371Y5485264D1*
X3562369Y5509550D1*
X3556332Y5521763D1*
X3544118Y5533836D1*
X3532044Y5540012D1*
X3513794Y5546047D1*
X3483330Y5546045D1*
X3465221Y5540007D1*
X3453008Y5533829D1*
X3440936Y5521755D1*
X3434760Y5509541D1*
X3434761Y5485255D1*
X3440939Y5473182D1*
X3453013Y5460970D1*
X3465227Y5454934D1*
X3537949Y5415723D2*
X3544127Y5403510D1*
X3562238Y5385262D1*
X3434768Y5385253D1*
X3531918Y5339867D2*
X3537954D1*
X3550168Y5333832D1*
X3556205Y5327795D1*
X3562242Y5315582D1*
X3562244Y5291296D1*
X3556208Y5279222D1*
X3550172Y5273185D1*
X3537959Y5267008D1*
X3525886Y5267007D1*
X3513672Y5273183D1*
X3495562Y5285255D1*
X3434771Y5346037D1*
X3434777Y5260964D1*
X5420358Y3361792D2*
X5432431Y3367829D1*
X5444644Y3380043D1*
X5450680Y3392116D1*
X5450679Y3416403D1*
X5444642Y3428616D1*
X5432428Y3440688D1*
X5420355Y3446865D1*
X5402104Y3452901D1*
X5371641Y3452899D1*
X5353532Y3446862D1*
X5341318Y3440685D1*
X5329246Y3428611D1*
X5323069Y3416398D1*
X5323070Y3392111D1*
X5329248Y3380038D1*
X5341321Y3367825D1*
X5353535Y3361789D1*
X5426256Y3322576D2*
X5432433Y3310363D1*
X5450544Y3292114D1*
X5323074Y3292109D1*
X5450546Y3240685D2*
X5450548Y3174002D1*
X5401974Y3210360D1*
X5401975Y3192110D1*
X5395939Y3180036D1*
X5389902Y3174000D1*
X5371653Y3167822D1*
X5359579Y3167821D1*
X5341329Y3173998D1*
X5329115Y3186070D1*
X5323078Y3204320D1*
X5323077Y3222570D1*
X5329113Y3240680D1*
X5335290Y3246717D1*
X5347363Y3252894D1*
X4382735Y3384904D2*
X4394808Y3390941D1*
X4407022Y3403154D1*
X4413058Y3415227D1*
Y3439514D1*
X4407022Y3451727D1*
X4394808Y3463800D1*
X4382735Y3469977D1*
X4364485Y3476014D1*
X4334022D1*
X4315912Y3469977D1*
X4303699Y3463800D1*
X4291626Y3451727D1*
X4285449Y3439514D1*
Y3415227D1*
X4291626Y3403154D1*
X4303699Y3390941D1*
X4315912Y3384904D1*
X4388631Y3345688D2*
X4394808Y3333475D1*
X4412918Y3315225D1*
X4285449D1*
Y3215223D2*
X4412918D1*
X4327985Y3276009D1*
Y3184900D1*
X9062944Y3889958D2*
X9056907Y3902031D1*
X9044693Y3914244D1*
X9032620Y3920280D1*
X9008333Y3920279D1*
X8996120Y3914242D1*
X8984047Y3902028D1*
X8977871Y3889954D1*
X8971835Y3871704D1*
X8971837Y3841240D1*
X8977874Y3823131D1*
X8984051Y3810918D1*
X8996125Y3798845D1*
X9008339Y3792669D1*
X9032625Y3792670D1*
X9044698Y3798848D1*
X9056911Y3810921D1*
X9062947Y3823135D1*
X9102159Y3895856D2*
X9114373Y3902033D1*
X9132622Y3920144D1*
X9132627Y3792675D1*
X9244697Y3920149D2*
X9184051Y3920146D1*
X9178017Y3865536D1*
X9184053Y3871573D1*
X9202303Y3877751D1*
X9220412D1*
X9238663Y3871575D1*
X9250877Y3859503D1*
X9256914Y3841253D1*
X9256915Y3829180D1*
X9250879Y3810930D1*
X9238666Y3798716D1*
X9220416Y3792678D1*
X9202307D1*
X9184056Y3798713D1*
X9178020Y3804890D1*
X9171842Y3816963D1*
X10949708Y6408318D2*
X10822098Y6408311D1*
X10822100Y6365775D1*
X10828278Y6347525D1*
X10840352Y6335312D1*
X10852566Y6329276D1*
X10870676Y6323241D1*
X10901139Y6323242D1*
X10919389Y6329280D1*
X10931462Y6335317D1*
X10943674Y6347531D1*
X10949710Y6365782D1*
X10949708Y6408318D1*
X10919251Y6277851D2*
X10925288D1*
X10937502Y6271815D1*
X10943538Y6265779D1*
X10949576Y6253566D1*
X10949577Y6229279D1*
X10943541Y6217206D1*
X10937505Y6211169D1*
X10925292Y6204992D1*
X10913219Y6204991D1*
X10901005Y6211167D1*
X10882895Y6223239D1*
X10822105Y6284022D1*
X10822109Y6198949D1*
X7968724Y7279227D2*
X7968734Y7151617D1*
X8041593Y7151623D1*
X8177955Y7151633D2*
X8177945Y7279243D1*
X8129382Y7151629D1*
X8080799Y7279235D1*
X8080809Y7151626D1*
X8241457Y7151638D2*
X8302234Y7279112D1*
X8217161Y7279105D1*
X8371773Y7279117D2*
X8353664Y7273079D1*
X8347488Y7261006D1*
X8347489Y7248792D1*
X8353667Y7236719D1*
X8365740Y7230543D1*
X8390027Y7224509D1*
X8408278Y7218474D1*
X8420352Y7206261D1*
X8426389Y7194189D1*
X8426390Y7175939D1*
X8420355Y7163865D1*
X8414319Y7157688D1*
X8396069Y7151650D1*
X8371783Y7151648D1*
X8353673Y7157683D1*
X8347495Y7163859D1*
X8341458Y7175932D1*
X8341456Y7194182D1*
X8347492Y7206256D1*
X8359704Y7218470D1*
X8377814Y7224508D1*
X8402100Y7230546D1*
X8414313Y7236724D1*
X8420348Y7248798D1*
X8420347Y7261011D1*
X8414310Y7273084D1*
X8396059Y7279119D1*
X8371773Y7279117D1*
X8502098Y7279127D2*
X8483849Y7273089D1*
X8471637Y7254838D1*
X8465602Y7224515D1*
X8465604Y7206265D1*
X8471643Y7175942D1*
X8483857Y7157693D1*
X8502108Y7151658D1*
X8514181Y7151659D1*
X8532431Y7157697D1*
X8544502Y7175948D1*
X8550677Y7206271D1*
X8550675Y7224521D1*
X8544496Y7254844D1*
X8532422Y7273093D1*
X8514171Y7279128D1*
X8502098Y7279127D1*
X8544496Y7254844D2*
X8471643Y7175942D1*
X8662747Y7279139D2*
X8602100Y7279135D1*
X8596068Y7224525D1*
X8602104Y7230562D1*
X8620354Y7236740D1*
X8638463Y7236741D1*
X8656714Y7230566D1*
X8668928Y7218494D1*
X8674966Y7200244D1*
X8674967Y7188171D1*
X8668932Y7169920D1*
X8656719Y7157706D1*
X8638470Y7151668D1*
X8620360Y7151667D1*
X8602110Y7157702D1*
X8596073Y7163878D1*
X8589895Y7175951D1*
X8805288Y7248967D2*
X8799250Y7261040D1*
X8787036Y7273253D1*
X8774962Y7279288D1*
X8750676Y7279286D1*
X8738463Y7273249D1*
X8726391Y7261034D1*
X8720215Y7248961D1*
X8714179Y7230710D1*
X8714182Y7200247D1*
X8720220Y7182138D1*
X8726398Y7169925D1*
X8738472Y7157853D1*
X8750685Y7151677D1*
X8774972Y7151679D1*
X8787045Y7157856D1*
X8799257Y7169930D1*
X8805293Y7182144D1*
X8887038Y7279297D2*
X8887047Y7151687D1*
X8844501Y7279293D2*
X8929574Y7279300D1*
X3306744Y3156686D2*
X3345458Y3117971D1*
X3362532Y3109434D1*
X3371267D1*
X3384073Y3113703D1*
X3396977Y3126608D1*
X3401246Y3139413D1*
Y3148149D1*
X3392709Y3165222D1*
X3353995Y3203937D1*
X3263761Y3113703D1*
X3441880Y3116051D2*
X3351647Y3025818D1*
X3502036Y3055895D2*
X3411802Y2965662D1*
X3398898Y3073069D2*
X3459053Y3012913D1*
X3512493Y3010893D2*
X3525497Y3006625D1*
X3551207Y3006526D1*
X3461073Y2916391D1*
X3507569Y6050473D2*
X3468856Y6011758D1*
X3460320Y5994683D1*
Y5985948D1*
X3464589Y5973143D1*
X3477494Y5960238D1*
X3490299Y5955970D1*
X3499035D1*
X3516109Y5964508D1*
X3554822Y6003223D1*
X3464586Y6093454D1*
X3466938Y5915335D2*
X3376703Y6005567D1*
X3406784Y5855178D2*
X3316548Y5945409D1*
X3423955Y5958317D2*
X3363800Y5898160D1*
X3353146Y5844620D2*
X3357415Y5840352D1*
X3361783Y5827447D1*
Y5818910D1*
X3357415Y5806005D1*
X3340243Y5788832D1*
X3327437Y5784563D1*
X3318900D1*
X3305896Y5788831D1*
X3297359Y5797368D1*
X3293090Y5810372D1*
X3288821Y5831714D1*
X3288819Y5917679D1*
X3228665Y5857522D1*
X3046363Y3286665D2*
X3046364Y3231915D1*
X3052401Y3213805D1*
X3058578Y3207628D1*
X3070651Y3201592D1*
X3088901Y3201593D1*
X3100974Y3207629D1*
X3107151Y3213807D1*
X3113187Y3231916D1*
X3113186Y3286666D1*
X2985576Y3286663D1*
X3113189Y3162378D2*
X2985579Y3162374D1*
X3113191Y3077304D2*
X2985581Y3077301D1*
X3052402Y3162376D2*
X3052405Y3077303D1*
X3113052Y3025875D2*
X3113054Y2959193D1*
X3064480Y2995551D1*
Y2977301D1*
X3058444Y2965228D1*
X3052408Y2959191D1*
X3034158Y2953014D1*
X3022085Y2953013D1*
X3003834Y2959190D1*
X2991621Y2971263D1*
X2985584Y2989512D1*
X2985583Y3007762D1*
X2991619Y3025872D1*
X2997796Y3031909D1*
X3009869Y3038086D1*
X2324010Y5696747D2*
X2324009Y5751497D1*
X2317972Y5769606D1*
X2311795Y5775783D1*
X2299721Y5781819D1*
X2281471D1*
X2269399Y5775782D1*
X2263222Y5769605D1*
X2257186Y5751495D1*
X2257187Y5696745D1*
X2384796Y5696748D1*
X2257184Y5821034D2*
X2384794Y5821036D1*
X2257183Y5906107D2*
X2384792Y5906110D1*
X2317971Y5821035D2*
X2317969Y5906108D1*
X2384790Y6006112D2*
X2257321Y6006109D1*
X2342255Y5945324D1*
X2342253Y6036434D1*
X7043957Y3962743D2*
Y3908133D1*
X7050134Y3889883D1*
X7056170Y3883706D1*
X7068243Y3877670D1*
X7080457D1*
X7092530Y3883706D1*
X7098707Y3889883D1*
X7104743Y3908133D1*
Y3962743D1*
X6977134D1*
X7043957Y3920206D2*
X6977134Y3877670D1*
X7080316Y3838454D2*
X7086493Y3826241D1*
X7104603Y3807991D1*
X6977134D1*
X6654917Y4899056D2*
Y4953665D1*
X6648740Y4971915D1*
X6642703Y4978092D1*
X6630630Y4984129D1*
X6618417D1*
X6606344Y4978092D1*
X6600167Y4971915D1*
X6594130Y4953665D1*
Y4899056D1*
X6721740D1*
X6654917Y4941592D2*
X6721740Y4984129D1*
X6624594Y5029521D2*
X6618557D1*
X6606344Y5035558D1*
X6600307Y5041595D1*
X6594270Y5053808D1*
Y5078095D1*
X6600307Y5090168D1*
X6606344Y5096204D1*
X6618557Y5102381D1*
X6630630D1*
X6642844Y5096204D1*
X6660953Y5084131D1*
X6721740Y5023345D1*
Y5108418D1*
X2547757Y3494709D2*
X2493148Y3494708D1*
X2474898Y3488530D1*
X2468721Y3482494D1*
X2462685Y3470420D1*
Y3458207D1*
X2468722Y3446134D1*
X2474899Y3439957D1*
X2493149Y3433921D1*
X2547759Y3433922D1*
X2547756Y3561532D1*
X2505221Y3494708D2*
X2462683Y3561530D1*
X2344432Y3476454D2*
X2350609Y3494705D1*
X2362682Y3506918D1*
X2380931Y3512955D1*
X2386968D1*
X2405218Y3506919D1*
X2417292Y3494706D1*
X2423469Y3476456D1*
Y3470420D1*
X2417292Y3452169D1*
X2405220Y3440096D1*
X2386970Y3434059D1*
X2380933D1*
X2362683Y3440095D1*
X2350610Y3452168D1*
X2344432Y3476454D1*
Y3506918D1*
X2350608Y3537241D1*
X2362681Y3555491D1*
X2380930Y3561528D1*
X2393003Y3561529D1*
X2411254Y3555492D1*
X2417290Y3543279D1*
X3595331Y6882592D2*
X3595333Y6827983D1*
X3601511Y6809733D1*
X3607548Y6803556D1*
X3619621Y6797520D1*
X3631835Y6797521D1*
X3643907Y6803558D1*
X3650084Y6809735D1*
X3656120Y6827985D1*
X3656118Y6882595D1*
X3528508Y6882589D1*
X3595333Y6840056D2*
X3528511Y6797516D1*
X3631696Y6758305D2*
X3637873Y6746092D1*
X3655984Y6727842D1*
X3528514Y6727837D1*
X3655987Y6652127D2*
X3649949Y6670376D1*
X3631699Y6682589D1*
X3601375Y6688624D1*
X3583125D1*
X3552803Y6682586D1*
X3534553Y6670372D1*
X3528517Y6652122D1*
X3528518Y6640048D1*
X3534555Y6621799D1*
X3552806Y6609726D1*
X3583129Y6603551D1*
X3601379D1*
X3631702Y6609730D1*
X3649951Y6621803D1*
X3655987Y6640054D1*
Y6652127D1*
X3631702Y6609730D2*
X3552803Y6682586D1*
X9228873Y6847805D2*
X9228871Y6902415D1*
X9222693Y6920664D1*
X9216656Y6926841D1*
X9204583Y6932877D1*
X9192369Y6932876D1*
X9180297Y6926839D1*
X9174120Y6920662D1*
X9168084Y6902412D1*
X9168087Y6847802D1*
X9295696Y6847808D1*
X9228871Y6890342D2*
X9295692Y6932881D1*
X9192508Y6972092D2*
X9186330Y6984305D1*
X9168220Y7002554D1*
X9295689Y7002560D1*
X9295684Y7102563D2*
X9168215Y7102557D1*
X9253151Y7041774D1*
X9253146Y7132884D1*
X2154396Y5567357D2*
X2209005Y5567360D1*
X2227255Y5573538D1*
X2233432Y5579574D1*
X2239468Y5591648D1*
X2239467Y5603861D1*
X2233430Y5615934D1*
X2227253Y5622111D1*
X2209003Y5628146D1*
X2154393Y5628144D1*
X2154399Y5500534D1*
X2196932Y5567359D2*
X2239472Y5500538D1*
X2278683Y5603723D2*
X2290896Y5609900D1*
X2309145Y5628010D1*
X2309151Y5500541D1*
X2421221Y5609906D2*
X2415184Y5621979D1*
X2396934Y5628014D1*
X2384861D1*
X2366611Y5621976D1*
X2354398Y5603726D1*
X2348363Y5573403D1*
X2348365Y5543079D1*
X2354402Y5518793D1*
X2366616Y5506580D1*
X2384866Y5500545D1*
X2390903D1*
X2409012Y5506582D1*
X2421225Y5518796D1*
X2427261Y5537046D1*
Y5543083D1*
X2421223Y5561333D1*
X2409009Y5573405D1*
X2390900Y5579441D1*
X2384863D1*
X2366613Y5573403D1*
X2354400Y5561330D1*
X2348365Y5543079D1*
X3206962Y3234766D2*
X3152352Y3234765D1*
X3134102Y3228588D1*
X3127925Y3222551D1*
X3121889Y3210478D1*
Y3198264D1*
X3127926Y3186192D1*
X3134103Y3180015D1*
X3152353Y3173979D1*
X3206963Y3173980D1*
X3206960Y3301589D1*
X3164425Y3234765D2*
X3121887Y3301588D1*
X3082674Y3198404D2*
X3070460Y3192227D1*
X3052211Y3174117D1*
X3052208Y3301586D1*
X2988706Y3301585D2*
X2927922Y3174114D1*
X3012995Y3174116D1*
X9684569Y6461961D2*
X9629959Y6461957D1*
X9611709Y6455779D1*
X9605533Y6449742D1*
X9599497Y6437669D1*
X9599498Y6425455D1*
X9605535Y6413383D1*
X9611713Y6407206D1*
X9629963Y6401171D1*
X9684573Y6401174D1*
X9684564Y6528784D1*
X9642032Y6461958D2*
X9599491Y6528778D1*
X9554105Y6431629D2*
Y6425593D1*
X9548070Y6413379D1*
X9542033Y6407342D1*
X9529820Y6401305D1*
X9505534Y6401303D1*
X9493460Y6407339D1*
X9487423Y6413375D1*
X9481246Y6425588D1*
X9481245Y6437661D1*
X9487421Y6449875D1*
X9499493Y6467985D1*
X9560275Y6528776D1*
X9475202Y6528770D1*
X9399495Y6401296D2*
X9417745Y6407334D1*
X9429957Y6425585D1*
X9435991Y6455908D1*
X9435990Y6474158D1*
X9429952Y6504481D1*
X9417737Y6522730D1*
X9399487Y6528765D1*
X9387414Y6528764D1*
X9369164Y6522727D1*
X9357092Y6504476D1*
X9350917Y6474152D1*
X9350918Y6455902D1*
X9357097Y6425580D1*
X9369172Y6407331D1*
X9387422Y6401295D1*
X9399495Y6401296D1*
X9357097Y6425580D2*
X9429952Y6504481D1*
X10625140Y3433198D2*
X10625142Y3378589D1*
X10631320Y3360339D1*
X10637357Y3354162D1*
X10649430Y3348126D1*
X10661644Y3348127D1*
X10673716Y3354164D1*
X10679893Y3360341D1*
X10685929Y3378591D1*
X10685927Y3433201D1*
X10558317Y3433196D1*
X10625142Y3390662D2*
X10558321Y3348123D1*
X10655468Y3302734D2*
X10661505D1*
X10673719Y3296698D1*
X10679756Y3290662D1*
X10685793Y3278449D1*
X10685794Y3254162D1*
X10679757Y3242089D1*
X10673721Y3236052D1*
X10661508Y3229874D1*
X10649435D1*
X10637221Y3236050D1*
X10619111Y3248123D1*
X10558322Y3308907D1*
X10558326Y3223834D1*
X10667690Y3111763D2*
X10679763Y3117800D1*
X10685798Y3136050D1*
Y3148123D1*
X10679761Y3166373D1*
X10661510Y3178586D1*
X10631187Y3184621D1*
X10600864Y3184620D1*
X10576577Y3178582D1*
X10564364Y3166368D1*
X10558329Y3148118D1*
Y3142082D1*
X10564366Y3123972D1*
X10576580Y3111759D1*
X10594830Y3105723D1*
X10600867Y3105724D1*
X10619117Y3111761D1*
X10631189Y3123975D1*
X10637225Y3142085D1*
Y3148121D1*
X10631187Y3166371D1*
X10619114Y3178584D1*
X10600864Y3184620D1*
X7587562Y6288041D2*
X7587560Y6342651D1*
X7581383Y6360901D1*
X7575346Y6367078D1*
X7563273Y6373114D1*
X7551059Y6373113D1*
X7538986Y6367076D1*
X7532810Y6360899D1*
X7526774Y6342649D1*
X7526776Y6288039D1*
X7654385Y6288044D1*
X7587561Y6330578D2*
X7654382Y6373117D1*
X7557235Y6418506D2*
X7551198D1*
X7538985Y6424542D1*
X7532948Y6430578D1*
X7526911Y6442792D1*
X7526910Y6467078D1*
X7532946Y6479151D1*
X7538983Y6485188D1*
X7551196Y6491366D1*
X7563269D1*
X7575483Y6485189D1*
X7593593Y6473117D1*
X7654381Y6412332D1*
X7654378Y6497406D1*
X7654376Y6560908D2*
X7526905Y6621690D1*
X7526908Y6536617D1*
X6660355Y6776095D2*
X6660354Y6830705D1*
X6654176Y6848954D1*
X6648139Y6855131D1*
X6636066Y6861167D1*
X6623853D1*
X6611780Y6855130D1*
X6605603Y6848953D1*
X6599567Y6830703D1*
X6599569Y6776093D1*
X6727179Y6776097D1*
X6660354Y6818632D2*
X6727176Y6861170D1*
X6630028Y6906560D2*
X6623992Y6906559D1*
X6611778Y6912596D1*
X6605741Y6918632D1*
X6599704Y6930845D1*
X6599703Y6955132D1*
X6605740Y6967205D1*
X6611776Y6973242D1*
X6623989Y6979419D1*
X6636062D1*
X6648276Y6973243D1*
X6666386Y6961170D1*
X6727174Y6900386D1*
X6727172Y6985459D1*
X6599700Y7054994D2*
X6605737Y7036884D1*
X6617810Y7030708D1*
X6630024D1*
X6642097Y7036885D1*
X6648273Y7048959D1*
X6654309Y7073245D1*
X6660345Y7091496D1*
X6672558Y7103569D1*
X6684631Y7109606D1*
X6702881Y7109607D1*
X6714954Y7103570D1*
X6721131Y7097534D1*
X6727169Y7079284D1*
Y7054998D1*
X6721133Y7036888D1*
X6714957Y7030711D1*
X6702884Y7024674D1*
X6684634Y7024673D1*
X6672560Y7030709D1*
X6660347Y7042923D1*
X6654309Y7061032D1*
X6648272Y7085318D1*
X6642095Y7097532D1*
X6630022Y7103568D1*
X6617808Y7103567D1*
X6605735Y7097530D1*
X6599699Y7079280D1*
X6599700Y7054994D1*
X9110553Y7592320D2*
Y7646929D1*
X9104376Y7665179D1*
X9098340Y7671356D1*
X9086267Y7677393D1*
X9074053D1*
X9061980Y7671356D1*
X9055803Y7665179D1*
X9049767Y7646929D1*
Y7592320D1*
X9177376D1*
X9110553Y7634856D2*
X9177376Y7677393D1*
X9080230Y7722785D2*
X9074194D1*
X9061980Y7728822D1*
X9055944Y7734858D1*
X9049907Y7747072D1*
Y7771358D1*
X9055944Y7783432D1*
X9061980Y7789468D1*
X9074194Y7795645D1*
X9086267D1*
X9098480Y7789468D1*
X9116590Y7777395D1*
X9177376Y7716608D1*
Y7801682D1*
X9092303Y7919934D2*
X9110553Y7913757D1*
X9122767Y7901684D1*
X9128803Y7883434D1*
Y7877397D1*
X9122767Y7859147D1*
X9110553Y7847074D1*
X9092303Y7840897D1*
X9086267D1*
X9068017Y7847074D1*
X9055944Y7859147D1*
X9049907Y7877397D1*
Y7883434D1*
X9055944Y7901684D1*
X9068017Y7913757D1*
X9092303Y7919934D1*
X9122767D1*
X9153090Y7913757D1*
X9171340Y7901684D1*
X9177376Y7883434D1*
Y7871361D1*
X9171340Y7853111D1*
X9159126Y7847074D1*
X6548503Y3297743D2*
Y3388853D1*
X6542466Y3407103D1*
X6530253Y3419176D1*
X6512003Y3425353D1*
X6499930D1*
X6481680Y3419176D1*
X6469466Y3407103D1*
X6463430Y3388853D1*
Y3297743D1*
X6424214Y3322170D2*
X6412001Y3315993D1*
X6393751Y3297884D1*
Y3425353D1*
X7123986Y5749327D2*
Y5658217D1*
X7130022Y5639967D1*
X7142236Y5627894D1*
X7160486Y5621717D1*
X7172559D1*
X7190809Y5627894D1*
X7203022Y5639967D1*
X7209059Y5658217D1*
Y5749327D1*
X7254451Y5718863D2*
Y5724900D1*
X7260488Y5737113D1*
X7266525Y5743150D1*
X7278738Y5749186D1*
X7303025D1*
X7315098Y5743150D1*
X7321134Y5737113D1*
X7327311Y5724900D1*
Y5712827D1*
X7321134Y5700613D1*
X7309061Y5682504D1*
X7248275Y5621717D1*
X7333348D1*
X3538223Y4435922D2*
X3629333D1*
X3647583Y4441959D1*
X3659656Y4454172D1*
X3665833Y4472422D1*
Y4484496D1*
X3659656Y4502746D1*
X3647583Y4514959D1*
X3629333Y4520996D1*
X3538223D1*
X3538364Y4572425D2*
Y4639107D1*
X3586937Y4602748D1*
Y4620998D1*
X3592973Y4633071D1*
X3599010Y4639107D1*
X3617260Y4645284D1*
X3629333D1*
X3647583Y4639107D1*
X3659796Y4627034D1*
X3665833Y4608784D1*
Y4590534D1*
X3659796Y4572425D1*
X3653620Y4566388D1*
X3641546Y4560211D1*
X7536807Y3732356D2*
X7627916D1*
X7646166Y3738392D1*
X7658239Y3750606D1*
X7664416Y3768856D1*
Y3780929D1*
X7658239Y3799179D1*
X7646166Y3811392D1*
X7627916Y3817429D1*
X7536807D1*
X7536947Y3929504D2*
Y3868858D1*
X7591557Y3862821D1*
X7585520Y3868858D1*
X7579343Y3887108D1*
Y3905218D1*
X7585520Y3923468D1*
X7597593Y3935681D1*
X7615843Y3941718D1*
X7627916D1*
X7646166Y3935681D1*
X7658380Y3923468D1*
X7664416Y3905218D1*
Y3887108D1*
X7658380Y3868858D1*
X7652203Y3862821D1*
X7640130Y3856645D1*
X4948359Y3023443D2*
X4899786Y3084230D1*
Y3151053D1*
X4851213Y3023443D2*
X4899786Y3084230D1*
X4811997Y3047870D2*
X4799784Y3041693D1*
X4781534Y3023584D1*
Y3151053D1*
M02*
