G04 DipTrace 5.1.0.3*
G04 Нижняямаркировка.gbr*
%MOMM*%
G04 #@! TF.FileFunction,Legend,Bot*
G04 #@! TF.Part,Single*
%ADD10C,0.12*%
%ADD34C,0.1*%
%ADD106C,0.19608*%
%ADD107C,0.39216*%
%FSLAX35Y35*%
G04*
G71*
G90*
G75*
G01*
G04 BotSilk*
%LPD*%
X8689590Y4934096D2*
D10*
X8689603Y4804196D1*
X10529927Y5317656D2*
X10400027Y5317644D1*
X8016983Y4650508D2*
X8221980Y4650437D1*
X8016983Y4650508D2*
X8016957Y5200431D1*
X8126975Y5310406D2*
X8016957Y5200431D1*
X8126975Y5310406D2*
X8221948Y5310411D1*
X8471986Y4650449D2*
X8676983Y4650539D1*
X8676957Y5200462D1*
X8566928Y5310427D2*
X8676957Y5200462D1*
X8471955Y5310423D2*
X8566928Y5310427D1*
G36*
X8201963Y5340513D2*
X8198050Y5340769D1*
X8194204Y5341534D1*
X8190490Y5342795D1*
X8186973Y5344529D1*
X8183712Y5346708D1*
X8180764Y5349293D1*
X8178178Y5352241D1*
X8175999Y5355502D1*
X8174264Y5359019D1*
X8173004Y5362732D1*
X8172238Y5366579D1*
X8171982Y5370492D1*
X8172238Y5374405D1*
X8173003Y5378251D1*
X8174263Y5381965D1*
X8175998Y5385482D1*
X8178176Y5388743D1*
X8180762Y5391691D1*
X8183710Y5394277D1*
X8186971Y5396456D1*
X8190488Y5398190D1*
X8194201Y5399451D1*
X8198047Y5400216D1*
X8201960Y5400473D1*
X8201994D1*
X8205907Y5400217D1*
X8209753Y5399452D1*
X8213467Y5398192D1*
X8216984Y5396457D1*
X8220245Y5394279D1*
X8223193Y5391693D1*
X8225779Y5388745D1*
X8227958Y5385484D1*
X8229693Y5381967D1*
X8230953Y5378254D1*
X8231718Y5374408D1*
X8231975Y5370495D1*
X8231719Y5366581D1*
X8230954Y5362735D1*
X8229694Y5359022D1*
X8227959Y5355504D1*
X8225781Y5352244D1*
X8223195Y5349295D1*
X8220247Y5346709D1*
X8216986Y5344530D1*
X8213469Y5342796D1*
X8209756Y5341535D1*
X8205910Y5340770D1*
X8201997Y5340513D1*
X8201963D1*
G37*
X9025915Y5061056D2*
D10*
X9230911Y5060983D1*
X9025915Y5061056D2*
X9025896Y5610979D1*
X9135916Y5720953D2*
X9025896Y5610979D1*
X9135916Y5720953D2*
X9230889Y5720956D1*
X9480918Y5060991D2*
X9685915Y5061078D1*
X9685896Y5611001D1*
X9575869Y5720967D2*
X9685896Y5611001D1*
X9480896Y5720964D2*
X9575869Y5720967D1*
G36*
X9210905Y5751059D2*
X9206992Y5751315D1*
X9203146Y5752080D1*
X9199432Y5753340D1*
X9195915Y5755075D1*
X9192654Y5757253D1*
X9189706Y5759839D1*
X9187120Y5762787D1*
X9184941Y5766048D1*
X9183207Y5769565D1*
X9181946Y5773278D1*
X9181181Y5777124D1*
X9180924Y5781038D1*
X9181180Y5784951D1*
X9181945Y5788797D1*
X9183206Y5792511D1*
X9184940Y5796028D1*
X9187119Y5799288D1*
X9189704Y5802237D1*
X9192653Y5804823D1*
X9195913Y5807002D1*
X9199430Y5808736D1*
X9203144Y5809997D1*
X9206990Y5810762D1*
X9210903Y5811019D1*
X9210936D1*
X9214850Y5810762D1*
X9218696Y5809997D1*
X9222409Y5808737D1*
X9225927Y5807003D1*
X9229187Y5804824D1*
X9232136Y5802238D1*
X9234722Y5799290D1*
X9236900Y5796029D1*
X9238635Y5792512D1*
X9239896Y5788799D1*
X9240661Y5784953D1*
X9240917Y5781040D1*
X9240661Y5777126D1*
X9239896Y5773280D1*
X9238636Y5769567D1*
X9236901Y5766049D1*
X9234723Y5762789D1*
X9232137Y5759840D1*
X9229189Y5757254D1*
X9225928Y5755076D1*
X9222411Y5753341D1*
X9218698Y5752080D1*
X9214852Y5751315D1*
X9210938Y5751059D1*
X9210905D1*
G37*
X5378262Y5477089D2*
D10*
X5378258Y5606989D1*
X9851041Y2572331D2*
X9980941Y2572336D1*
X7787213Y4286567D2*
X7917113D1*
G36*
X2537826Y5161270D2*
X2534563Y5161484D1*
X2531356Y5162122D1*
X2528260Y5163173D1*
X2525327Y5164619D1*
X2522609Y5166435D1*
X2520150Y5168591D1*
X2517995Y5171049D1*
X2516178Y5173768D1*
X2514732Y5176700D1*
X2513681Y5179797D1*
X2513043Y5183004D1*
X2512829Y5186266D1*
X2513043Y5189529D1*
X2513680Y5192736D1*
X2514731Y5195832D1*
X2516177Y5198765D1*
X2517994Y5201483D1*
X2520150Y5203942D1*
X2522608Y5206098D1*
X2525327Y5207914D1*
X2528259Y5209360D1*
X2531355Y5210412D1*
X2534562Y5211049D1*
X2537825Y5211263D1*
X2537838D1*
X2541101Y5211050D1*
X2544308Y5210412D1*
X2547404Y5209361D1*
X2550337Y5207915D1*
X2553055Y5206098D1*
X2555514Y5203942D1*
X2557670Y5201484D1*
X2559486Y5198765D1*
X2560932Y5195833D1*
X2561984Y5192737D1*
X2562622Y5189530D1*
X2562835Y5186267D1*
X2562622Y5183004D1*
X2561984Y5179798D1*
X2560933Y5176701D1*
X2559487Y5173769D1*
X2557670Y5171050D1*
X2555514Y5168592D1*
X2553056Y5166436D1*
X2550337Y5164619D1*
X2547405Y5163173D1*
X2544309Y5162122D1*
X2541102Y5161484D1*
X2537839Y5161270D1*
X2537826D1*
G37*
X2677837Y4921249D2*
D10*
X2677838Y4871256D1*
X2397837Y4921244D2*
X2397838Y4871251D1*
G36*
X3097309Y5166370D2*
X3094047Y5166584D1*
X3090840Y5167221D1*
X3087743Y5168272D1*
X3084811Y5169718D1*
X3082092Y5171534D1*
X3079633Y5173690D1*
X3077477Y5176148D1*
X3075661Y5178867D1*
X3074214Y5181799D1*
X3073163Y5184895D1*
X3072525Y5188102D1*
X3072311Y5191365D1*
X3072524Y5194628D1*
X3073162Y5197834D1*
X3074213Y5200931D1*
X3075659Y5203863D1*
X3077475Y5206582D1*
X3079631Y5209041D1*
X3082089Y5211197D1*
X3084807Y5213013D1*
X3087740Y5214460D1*
X3090836Y5215511D1*
X3094043Y5216149D1*
X3097305Y5216363D1*
X3097319D1*
X3100582Y5216150D1*
X3103788Y5215512D1*
X3106885Y5214461D1*
X3109817Y5213015D1*
X3112536Y5211199D1*
X3114995Y5209043D1*
X3117151Y5206585D1*
X3118968Y5203867D1*
X3120414Y5200934D1*
X3121465Y5197838D1*
X3122103Y5194631D1*
X3122317Y5191369D1*
X3122104Y5188106D1*
X3121466Y5184899D1*
X3120415Y5181803D1*
X3118969Y5178870D1*
X3117153Y5176151D1*
X3114997Y5173693D1*
X3112539Y5171537D1*
X3109821Y5169720D1*
X3106888Y5168274D1*
X3103792Y5167222D1*
X3100585Y5166584D1*
X3097323Y5166370D1*
X3097309D1*
G37*
X3237335Y4926358D2*
D10*
X3237338Y4876364D1*
X2957335Y4926336D2*
X2957338Y4876343D1*
X2886473Y5137922D2*
X2756573Y5137912D1*
X5124754Y3130324D2*
X5254654Y3130329D1*
X4459587Y2957210D2*
X4589487D1*
X9294413Y3594355D2*
X9294407Y3724255D1*
X10763733Y6183627D2*
D34*
X10763719Y6437627D1*
X10509733Y6183613D2*
X10509719Y6437613D1*
X10756743Y6000627D2*
X10516743Y6000613D1*
X8970239Y6094316D2*
X8970248Y5981316D1*
X7928248Y5981237D1*
X7928239Y6094237D1*
G36*
X8773287Y5464511D2*
X8773501Y5467775D1*
X8774139Y5470982D1*
X8775190Y5474079D1*
X8776636Y5477012D1*
X8778452Y5479731D1*
X8780608Y5482190D1*
X8783067Y5484346D1*
X8785786Y5486163D1*
X8788719Y5487610D1*
X8791815Y5488661D1*
X8795022Y5489299D1*
X8798286Y5489513D1*
X8801549Y5489300D1*
X8804756Y5488662D1*
X8807853Y5487611D1*
X8810786Y5486165D1*
X8813505Y5484348D1*
X8815964Y5482192D1*
X8818120Y5479734D1*
X8819937Y5477015D1*
X8821384Y5474082D1*
X8822435Y5470986D1*
X8823073Y5467778D1*
X8823287Y5464515D1*
D1*
X8823074Y5461252D1*
X8822436Y5458045D1*
X8821385Y5454948D1*
X8819939Y5452015D1*
X8818122Y5449296D1*
X8815967Y5446837D1*
X8813508Y5444681D1*
X8810789Y5442864D1*
X8807856Y5441417D1*
X8804760Y5440366D1*
X8801553Y5439727D1*
X8798289Y5439513D1*
X8795026Y5439727D1*
X8791819Y5440365D1*
X8788722Y5441416D1*
X8785789Y5442862D1*
X8783070Y5444678D1*
X8780611Y5446834D1*
X8778455Y5449293D1*
X8776638Y5452012D1*
X8775191Y5454944D1*
X8774140Y5458041D1*
X8773502Y5461248D1*
X8773287Y5464511D1*
D1*
G37*
X2604029Y3363354D2*
D10*
X2581338Y3340663D1*
X2384828Y3582560D2*
X2359276Y3557007D1*
X2604029Y3363354D2*
G03X2384828Y3582560I-200771J18434D01*
G01*
X2418642Y3177967D2*
G02X2199439Y3397170I-17435J201768D01*
G01*
G36*
X2630055Y3397941D2*
X2632514Y3400097D1*
X2635233Y3401914D1*
X2638166Y3403360D1*
X2641262Y3404412D1*
X2644470Y3405049D1*
X2647733Y3405263D1*
X2650996Y3405049D1*
X2654203Y3404412D1*
X2657300Y3403360D1*
X2660233Y3401914D1*
X2662952Y3400097D1*
X2665411Y3397941D1*
X2667567Y3395482D1*
X2669384Y3392763D1*
X2670830Y3389830D1*
X2671881Y3386734D1*
X2672519Y3383527D1*
X2672733Y3380263D1*
X2672519Y3377000D1*
X2671881Y3373793D1*
X2670830Y3370696D1*
X2669384Y3367763D1*
X2667567Y3365044D1*
X2665411Y3362586D1*
D1*
X2662952Y3360430D1*
X2660233Y3358613D1*
X2657300Y3357166D1*
X2654203Y3356115D1*
X2650996Y3355477D1*
X2647733Y3355263D1*
X2644470Y3355477D1*
X2641262Y3356115D1*
X2638166Y3357166D1*
X2635233Y3358613D1*
X2632514Y3360430D1*
X2630055Y3362586D1*
X2627899Y3365044D1*
X2626082Y3367763D1*
X2624636Y3370696D1*
X2623585Y3373793D1*
X2622947Y3377000D1*
X2622733Y3380263D1*
X2622947Y3383527D1*
X2623585Y3386734D1*
X2624636Y3389830D1*
X2626082Y3392763D1*
X2627899Y3395482D1*
X2630055Y3397941D1*
D1*
G37*
X2441336Y3200661D2*
D10*
X2418642Y3177967D1*
X2224989Y3422720D2*
X2199439Y3397170D1*
X2392132Y5426971D2*
X2369440Y5449661D1*
X2611332Y5646177D2*
X2585779Y5671728D1*
X2392132Y5426971D2*
G03X2611332Y5646177I18429J200772D01*
G01*
X2206741Y5612353D2*
G02X2425939Y5831561I201768J17440D01*
G01*
G36*
X2426720Y5400945D2*
X2428876Y5398487D1*
X2430693Y5395768D1*
X2432139Y5392835D1*
X2433190Y5389738D1*
X2433828Y5386531D1*
X2434042Y5383268D1*
X2433829Y5380005D1*
X2433191Y5376797D1*
X2432140Y5373701D1*
X2430693Y5370768D1*
X2428877Y5368049D1*
X2426720Y5365590D1*
X2424262Y5363434D1*
X2421543Y5361617D1*
X2418610Y5360170D1*
X2415513Y5359119D1*
X2412306Y5358481D1*
X2409043Y5358267D1*
X2405780Y5358481D1*
X2402572Y5359119D1*
X2399476Y5360170D1*
X2396543Y5361616D1*
X2393824Y5363433D1*
X2391365Y5365589D1*
D1*
X2389209Y5368048D1*
X2387392Y5370767D1*
X2385946Y5373699D1*
X2384894Y5376796D1*
X2384256Y5380003D1*
X2384042Y5383266D1*
X2384256Y5386530D1*
X2384894Y5389737D1*
X2385945Y5392834D1*
X2387391Y5395767D1*
X2389208Y5398486D1*
X2391364Y5400944D1*
X2393823Y5403101D1*
X2396542Y5404917D1*
X2399475Y5406364D1*
X2402571Y5407415D1*
X2405779Y5408053D1*
X2409042Y5408267D1*
X2412305Y5408053D1*
X2415512Y5407415D1*
X2418609Y5406364D1*
X2421542Y5404918D1*
X2424261Y5403101D1*
X2426720Y5400945D1*
D1*
G37*
X2229435Y5589660D2*
D10*
X2206741Y5612353D1*
X2451489Y5806012D2*
X2425939Y5831561D1*
X3380227Y1810067D2*
X3348137Y1810066D1*
X3380223Y2120067D2*
X3344086Y2120066D1*
X3380227Y1810067D2*
G03X3380223Y2120067I-128936J154998D01*
G01*
X3118051Y1810060D2*
G02X3118043Y2120060I130339J155003D01*
G01*
G36*
X3423087Y1816121D2*
X3426350Y1815907D1*
X3429558Y1815269D1*
X3432654Y1814218D1*
X3435587Y1812772D1*
X3438306Y1810955D1*
X3440765Y1808799D1*
X3442921Y1806341D1*
X3444738Y1803622D1*
X3446184Y1800689D1*
X3447236Y1797592D1*
X3447874Y1794385D1*
X3448088Y1791122D1*
X3447874Y1787858D1*
X3447236Y1784651D1*
X3446185Y1781555D1*
X3444739Y1778622D1*
X3442922Y1775902D1*
X3440766Y1773444D1*
X3438307Y1771288D1*
X3435588Y1769471D1*
X3432655Y1768024D1*
X3429559Y1766973D1*
X3426351Y1766335D1*
X3423088Y1766121D1*
D1*
X3419825Y1766335D1*
X3416618Y1766973D1*
X3413521Y1768024D1*
X3410588Y1769470D1*
X3407869Y1771287D1*
X3405410Y1773443D1*
X3403254Y1775901D1*
X3401437Y1778620D1*
X3399991Y1781553D1*
X3398940Y1784650D1*
X3398302Y1787857D1*
X3398088Y1791120D1*
X3398301Y1794384D1*
X3398939Y1797591D1*
X3399990Y1800688D1*
X3401437Y1803620D1*
X3403253Y1806340D1*
X3405410Y1808798D1*
X3407868Y1810954D1*
X3410587Y1812771D1*
X3413520Y1814218D1*
X3416617Y1815269D1*
X3419824Y1815907D1*
X3423087Y1816121D1*
D1*
G37*
X3150144Y1810061D2*
D10*
X3118051Y1810060D1*
X3154176Y2120061D2*
X3118043Y2120060D1*
X3118047Y7179861D2*
X3150137Y7179862D1*
X3118050Y6869861D2*
X3154186Y6869862D1*
X3118047Y7179861D2*
G03X3118050Y6869861I128935J-154999D01*
G01*
X3380224Y7179866D2*
G02X3380230Y6869866I-130340J-155002D01*
G01*
G36*
X3075187Y7173807D2*
X3071924Y7174021D1*
X3068717Y7174659D1*
X3065620Y7175710D1*
X3062687Y7177156D1*
X3059968Y7178973D1*
X3057510Y7181129D1*
X3055353Y7183588D1*
X3053537Y7186307D1*
X3052090Y7189239D1*
X3051039Y7192336D1*
X3050401Y7195543D1*
X3050187Y7198807D1*
X3050401Y7202070D1*
X3051039Y7205277D1*
X3052090Y7208374D1*
X3053536Y7211307D1*
X3055353Y7214026D1*
X3057509Y7216484D1*
X3059968Y7218641D1*
X3062687Y7220457D1*
X3065619Y7221904D1*
X3068716Y7222955D1*
X3071923Y7223593D1*
X3075186Y7223807D1*
D1*
X3078450Y7223593D1*
X3081657Y7222955D1*
X3084754Y7221904D1*
X3087687Y7220458D1*
X3090406Y7218641D1*
X3092864Y7216485D1*
X3095020Y7214026D1*
X3096837Y7211307D1*
X3098284Y7208374D1*
X3099335Y7205278D1*
X3099973Y7202071D1*
X3100187Y7198807D1*
X3099973Y7195544D1*
X3099335Y7192337D1*
X3098284Y7189240D1*
X3096838Y7186307D1*
X3095021Y7183588D1*
X3092865Y7181130D1*
X3090406Y7178973D1*
X3087687Y7177157D1*
X3084754Y7175710D1*
X3081658Y7174659D1*
X3078451Y7174021D1*
X3075187Y7173807D1*
D1*
G37*
X3348131Y7179865D2*
D10*
X3380224Y7179866D1*
X3344096Y6869865D2*
X3380230Y6869866D1*
X1555637Y5544063D2*
X1656637D1*
Y5404063D1*
X1457637Y5544063D2*
X1356637D1*
Y5404063D1*
G36*
X1644637Y5343063D2*
X1644851Y5346327D1*
X1645489Y5349534D1*
X1646540Y5352630D1*
X1647986Y5355563D1*
X1649803Y5358282D1*
X1651959Y5360741D1*
X1654418Y5362897D1*
X1657137Y5364714D1*
X1660070Y5366160D1*
X1663166Y5367212D1*
X1666374Y5367849D1*
X1669637Y5368063D1*
X1672900Y5367849D1*
X1676107Y5367212D1*
X1679204Y5366160D1*
X1682137Y5364714D1*
X1684856Y5362897D1*
X1687314Y5360741D1*
X1689471Y5358282D1*
X1691287Y5355563D1*
X1692734Y5352630D1*
X1693785Y5349534D1*
X1694423Y5346327D1*
X1694637Y5343063D1*
D1*
X1694423Y5339800D1*
X1693785Y5336593D1*
X1692734Y5333496D1*
X1691287Y5330563D1*
X1689471Y5327844D1*
X1687314Y5325386D1*
X1684856Y5323230D1*
X1682137Y5321413D1*
X1679204Y5319966D1*
X1676107Y5318915D1*
X1672900Y5318277D1*
X1669637Y5318063D1*
X1666374Y5318277D1*
X1663166Y5318915D1*
X1660070Y5319966D1*
X1657137Y5321413D1*
X1654418Y5323230D1*
X1651959Y5325386D1*
X1649803Y5327844D1*
X1647986Y5330563D1*
X1646540Y5333496D1*
X1645489Y5336593D1*
X1644851Y5339800D1*
X1644637Y5343063D1*
D1*
G37*
X3395034Y2396965D2*
D34*
X3343034Y2396962D1*
X3395040Y2256965D2*
X3343040Y2256962D1*
X3297138Y5975466D2*
X3297136Y6027466D1*
X3157138Y5975461D2*
X3157136Y6027461D1*
X3818033Y6729465D2*
X3766033Y6729462D1*
X3818041Y6589465D2*
X3766041Y6589462D1*
X2557235Y3839564D2*
X2505235Y3839563D1*
X2557239Y3699564D2*
X2505239Y3699563D1*
X6716127Y3731230D2*
D10*
Y4026230D1*
X6226127D1*
Y3731230D1*
X6716127D1*
G36*
X6305627Y3958103D2*
X6305413Y3954840D1*
X6304775Y3951633D1*
X6303724Y3948536D1*
X6302277Y3945603D1*
X6300461Y3942884D1*
X6298304Y3940426D1*
X6295846Y3938270D1*
X6293127Y3936453D1*
X6290194Y3935006D1*
X6287097Y3933955D1*
X6283890Y3933317D1*
X6280627Y3933103D1*
X6277364Y3933317D1*
X6274156Y3933955D1*
X6271060Y3935006D1*
X6268127Y3936453D1*
X6265408Y3938270D1*
X6262949Y3940426D1*
X6260793Y3942884D1*
X6258976Y3945603D1*
X6257530Y3948536D1*
X6256479Y3951633D1*
X6255841Y3954840D1*
X6255627Y3958103D1*
D1*
X6255841Y3961367D1*
X6256479Y3964574D1*
X6257530Y3967670D1*
X6258976Y3970603D1*
X6260793Y3973322D1*
X6262949Y3975781D1*
X6265408Y3977937D1*
X6268127Y3979754D1*
X6271060Y3981200D1*
X6274156Y3982252D1*
X6277364Y3982889D1*
X6280627Y3983103D1*
X6283890Y3982889D1*
X6287097Y3982252D1*
X6290194Y3981200D1*
X6293127Y3979754D1*
X6295846Y3977937D1*
X6298304Y3975781D1*
X6300461Y3973322D1*
X6302277Y3970603D1*
X6303724Y3967670D1*
X6304775Y3964574D1*
X6305413Y3961367D1*
X6305627Y3958103D1*
D1*
G37*
X6983667Y5315840D2*
D10*
Y5020840D1*
X7473667D1*
Y5315840D1*
X6983667D1*
G36*
X7394167Y5088967D2*
X7394381Y5092230D1*
X7395019Y5095437D1*
X7396070Y5098534D1*
X7397516Y5101467D1*
X7399333Y5104186D1*
X7401489Y5106644D1*
X7403948Y5108801D1*
X7406667Y5110617D1*
X7409600Y5112064D1*
X7412696Y5113115D1*
X7415904Y5113753D1*
X7419167Y5113967D1*
X7422430Y5113753D1*
X7425637Y5113115D1*
X7428734Y5112064D1*
X7431667Y5110617D1*
X7434386Y5108801D1*
X7436844Y5106644D1*
X7439001Y5104186D1*
X7440817Y5101467D1*
X7442264Y5098534D1*
X7443315Y5095437D1*
X7443953Y5092230D1*
X7444167Y5088967D1*
D1*
X7443953Y5085704D1*
X7443315Y5082496D1*
X7442264Y5079400D1*
X7440817Y5076467D1*
X7439001Y5073748D1*
X7436844Y5071289D1*
X7434386Y5069133D1*
X7431667Y5067316D1*
X7428734Y5065870D1*
X7425637Y5064819D1*
X7422430Y5064181D1*
X7419167Y5063967D1*
X7415904Y5064181D1*
X7412696Y5064819D1*
X7409600Y5065870D1*
X7406667Y5067316D1*
X7403948Y5069133D1*
X7401489Y5071289D1*
X7399333Y5073748D1*
X7397516Y5076467D1*
X7396070Y5079400D1*
X7395019Y5082496D1*
X7394381Y5085704D1*
X7394167Y5088967D1*
D1*
G37*
X5198210Y5240603D2*
D10*
X5265210D1*
Y5173603D1*
X3865210D2*
Y5240603D1*
X3932210D1*
Y3840603D2*
X3865210D1*
Y3907603D1*
X5265210D2*
Y3840603D1*
X5198210D1*
G36*
X5361210Y5167603D2*
X5357947Y5167817D1*
X5354740Y5168455D1*
X5351643Y5169506D1*
X5348710Y5170953D1*
X5345991Y5172770D1*
X5343532Y5174926D1*
X5341376Y5177384D1*
X5339559Y5180103D1*
X5338113Y5183036D1*
X5337062Y5186133D1*
X5336424Y5189340D1*
X5336210Y5192603D1*
X5336424Y5195867D1*
X5337062Y5199074D1*
X5338113Y5202170D1*
X5339559Y5205103D1*
X5341376Y5207822D1*
X5343532Y5210281D1*
X5345991Y5212437D1*
X5348710Y5214254D1*
X5351643Y5215700D1*
X5354740Y5216752D1*
X5357947Y5217389D1*
X5361210Y5217603D1*
D1*
X5364473Y5217389D1*
X5367680Y5216752D1*
X5370777Y5215700D1*
X5373710Y5214254D1*
X5376429Y5212437D1*
X5378888Y5210281D1*
X5381044Y5207822D1*
X5382861Y5205103D1*
X5384307Y5202170D1*
X5385358Y5199074D1*
X5385996Y5195867D1*
X5386210Y5192603D1*
X5385996Y5189340D1*
X5385358Y5186133D1*
X5384307Y5183036D1*
X5382861Y5180103D1*
X5381044Y5177384D1*
X5378888Y5174926D1*
X5376429Y5172770D1*
X5373710Y5170953D1*
X5370777Y5169506D1*
X5367680Y5168455D1*
X5364473Y5167817D1*
X5361210Y5167603D1*
D1*
G37*
X7888793Y4260037D2*
D10*
Y4266037D1*
X8288793D1*
Y4260037D1*
X7888793Y3396037D2*
Y3390037D1*
X8288793D1*
Y3396037D1*
G36*
X8409793Y4254037D2*
X8406530Y4254251D1*
X8403323Y4254889D1*
X8400226Y4255940D1*
X8397293Y4257386D1*
X8394574Y4259203D1*
X8392116Y4261359D1*
X8389960Y4263818D1*
X8388143Y4266537D1*
X8386696Y4269470D1*
X8385645Y4272566D1*
X8385007Y4275774D1*
X8384793Y4279037D1*
X8385007Y4282300D1*
X8385645Y4285507D1*
X8386696Y4288604D1*
X8388143Y4291537D1*
X8389960Y4294256D1*
X8392116Y4296714D1*
X8394574Y4298871D1*
X8397293Y4300687D1*
X8400226Y4302134D1*
X8403323Y4303185D1*
X8406530Y4303823D1*
X8409793Y4304037D1*
D1*
X8413057Y4303823D1*
X8416264Y4303185D1*
X8419360Y4302134D1*
X8422293Y4300687D1*
X8425012Y4298871D1*
X8427471Y4296714D1*
X8429627Y4294256D1*
X8431444Y4291537D1*
X8432890Y4288604D1*
X8433941Y4285507D1*
X8434579Y4282300D1*
X8434793Y4279037D1*
X8434579Y4275774D1*
X8433941Y4272566D1*
X8432890Y4269470D1*
X8431444Y4266537D1*
X8429627Y4263818D1*
X8427471Y4261359D1*
X8425012Y4259203D1*
X8422293Y4257386D1*
X8419360Y4255940D1*
X8416264Y4254889D1*
X8413057Y4254251D1*
X8409793Y4254037D1*
D1*
G37*
G36*
X4710818Y3507487D2*
X4708273Y3507654D1*
X4705772Y3508151D1*
X4703357Y3508971D1*
X4701069Y3510099D1*
X4698949Y3511516D1*
X4697031Y3513198D1*
X4695349Y3515115D1*
X4693932Y3517236D1*
X4692804Y3519523D1*
X4691984Y3521938D1*
X4691487Y3524440D1*
X4691320Y3526985D1*
X4691487Y3529530D1*
X4691984Y3532032D1*
X4692804Y3534447D1*
X4693932Y3536734D1*
X4695349Y3538855D1*
X4697031Y3540772D1*
X4698949Y3542454D1*
X4701069Y3543871D1*
X4703357Y3544999D1*
X4705772Y3545819D1*
X4708273Y3546317D1*
X4710818Y3546483D1*
X4711095D1*
X4713640Y3546317D1*
X4716142Y3545819D1*
X4718557Y3544999D1*
X4720844Y3543871D1*
X4722965Y3542454D1*
X4724882Y3540772D1*
X4726564Y3538855D1*
X4727981Y3536734D1*
X4729109Y3534447D1*
X4729929Y3532032D1*
X4730427Y3529530D1*
X4730593Y3526985D1*
X4730427Y3524440D1*
X4729929Y3521938D1*
X4729109Y3519523D1*
X4727981Y3517236D1*
X4726564Y3515115D1*
X4724882Y3513198D1*
X4722965Y3511516D1*
X4720844Y3510099D1*
X4718557Y3508971D1*
X4716142Y3508151D1*
X4713640Y3507654D1*
X4711095Y3507487D1*
X4710818D1*
G37*
X5545837Y2202894D2*
D107*
Y2458113D1*
X5448691Y2202894D1*
X5351545Y2458113D1*
Y2202894D1*
X5624268Y2160779D2*
X5855061D1*
X5933492Y2458113D2*
Y2202894D1*
Y2336540D2*
X5957919Y2360967D1*
X5982065Y2373040D1*
X6018565D1*
X6042711Y2360967D1*
X6067138Y2336540D1*
X6079211Y2300040D1*
Y2275894D1*
X6067138Y2239394D1*
X6042711Y2215248D1*
X6018565Y2202894D1*
X5982065D1*
X5957919Y2215248D1*
X5933492Y2239394D1*
X6157642Y2458113D2*
Y2202894D1*
X6236074Y2160779D2*
X6466866D1*
X6545298Y2458113D2*
Y2202894D1*
X6691017D1*
X6769448Y2458113D2*
Y2202894D1*
X6915167D1*
X6993599Y2458113D2*
Y2202894D1*
X8858930Y4638499D2*
D106*
X8864968Y4626426D1*
X8877182Y4614214D1*
X8889256Y4608179D1*
X8913543Y4608181D1*
X8925756Y4614219D1*
X8937827Y4626433D1*
X8944003Y4638507D1*
X8950038Y4656758D1*
X8950035Y4687221D1*
X8943997Y4705330D1*
X8937819Y4717543D1*
X8925745Y4729615D1*
X8913530Y4735791D1*
X8889244Y4735788D1*
X8877171Y4729610D1*
X8864959Y4717536D1*
X8858924Y4705322D1*
X8819715Y4632599D2*
X8807502Y4626421D1*
X8789254Y4608309D1*
X8789242Y4735779D1*
X10234331Y5121013D2*
X10222259Y5114975D1*
X10210046Y5102760D1*
X10204011Y5090687D1*
X10204013Y5066400D1*
X10210051Y5054187D1*
X10222266Y5042115D1*
X10234339Y5035940D1*
X10252590Y5029905D1*
X10283053Y5029907D1*
X10301162Y5035946D1*
X10313375Y5042124D1*
X10325447Y5054198D1*
X10331623Y5066412D1*
X10331621Y5090698D1*
X10325443Y5102771D1*
X10313368Y5114983D1*
X10301154Y5121019D1*
X10234468Y5166405D2*
X10228431D1*
X10216217Y5172440D1*
X10210180Y5178476D1*
X10204142Y5190689D1*
X10204140Y5214976D1*
X10210175Y5227049D1*
X10216211Y5233086D1*
X10228424Y5239264D1*
X10240497Y5239265D1*
X10252711Y5233090D1*
X10270822Y5221018D1*
X10331614Y5160237D1*
X10331606Y5245310D1*
X7861304Y4972617D2*
X7849231Y4966580D1*
X7837018Y4954366D1*
X7830982Y4942293D1*
X7830983Y4918006D1*
X7837021Y4905793D1*
X7849235Y4893721D1*
X7861308Y4887544D1*
X7879558Y4881509D1*
X7910022Y4881510D1*
X7928131Y4887547D1*
X7940344Y4893725D1*
X7952417Y4905799D1*
X7958593Y4918012D1*
X7958592Y4942299D1*
X7952414Y4954372D1*
X7940341Y4966585D1*
X7928127Y4972620D1*
X7831119Y5024045D2*
X7831116Y5090728D1*
X7879690Y5054370D1*
Y5072620D1*
X7885726Y5084694D1*
X7891762Y5090731D1*
X7910011Y5096908D1*
X7922085Y5096909D1*
X7940335Y5090733D1*
X7952549Y5078660D1*
X7958586Y5060411D1*
X7958587Y5042161D1*
X7952551Y5024051D1*
X7946375Y5018014D1*
X7934302Y5011836D1*
X8870240Y5380149D2*
X8858168Y5374113D1*
X8845955Y5361899D1*
X8839918Y5349825D1*
X8839919Y5325539D1*
X8845956Y5313326D1*
X8858170Y5301253D1*
X8870243Y5295076D1*
X8888493Y5289040D1*
X8918957Y5289041D1*
X8937066Y5295079D1*
X8949280Y5301256D1*
X8961352Y5313329D1*
X8967529Y5325543D1*
X8967528Y5349830D1*
X8961351Y5361902D1*
X8949277Y5374116D1*
X8937064Y5380152D1*
X8967524Y5480155D2*
X8840054Y5480151D1*
X8924989Y5419367D1*
X8924986Y5510477D1*
X5181637Y5772696D2*
X5175600Y5784769D1*
X5163386Y5796982D1*
X5151313Y5803019D1*
X5127026Y5803018D1*
X5114813Y5796981D1*
X5102740Y5784767D1*
X5096564Y5772694D1*
X5090528Y5754444D1*
X5090529Y5723980D1*
X5096566Y5705871D1*
X5102743Y5693658D1*
X5114817Y5681585D1*
X5127030Y5675408D1*
X5151317Y5675409D1*
X5163390Y5681586D1*
X5175603Y5693660D1*
X5181639Y5705873D1*
X5293711Y5802882D2*
X5233065Y5802881D1*
X5227030Y5748271D1*
X5233067Y5754308D1*
X5251317Y5760485D1*
X5269426Y5760486D1*
X5287676Y5754309D1*
X5299890Y5742236D1*
X5305927Y5723987D1*
X5305928Y5711914D1*
X5299892Y5693663D1*
X5287678Y5681450D1*
X5269429Y5675412D1*
X5251319D1*
X5233069Y5681448D1*
X5227032Y5687625D1*
X5220855Y5699698D1*
X10146646Y2765870D2*
X10158719Y2771907D1*
X10170932Y2784121D1*
X10176968Y2796195D1*
X10176967Y2820481D1*
X10170930Y2832695D1*
X10158716Y2844767D1*
X10146643Y2850944D1*
X10128393Y2856979D1*
X10097929Y2856978D1*
X10079820Y2850941D1*
X10067607Y2844763D1*
X10055534Y2832690D1*
X10049358Y2820476D1*
X10049359Y2796190D1*
X10055536Y2784117D1*
X10067610Y2771904D1*
X10079823Y2765868D1*
X10158724Y2653796D2*
X10170797Y2659833D1*
X10176833Y2678083D1*
X10176832Y2690156D1*
X10170795Y2708406D1*
X10152544Y2720618D1*
X10122221Y2726654D1*
X10091898Y2726653D1*
X10067612Y2720615D1*
X10055399Y2708401D1*
X10049363Y2690151D1*
Y2684114D1*
X10055400Y2666005D1*
X10067614Y2653792D1*
X10085865Y2647756D1*
X10091901D1*
X10110151Y2653794D1*
X10122223Y2666008D1*
X10128259Y2684118D1*
Y2690154D1*
X10122222Y2708404D1*
X10110148Y2720617D1*
X10091898Y2726653D1*
X8082827Y4483183D2*
X8094900Y4489219D1*
X8107113Y4501433D1*
X8113150Y4513506D1*
Y4537793D1*
X8107113Y4550006D1*
X8094900Y4562079D1*
X8082827Y4568256D1*
X8064577Y4574293D1*
X8034113D1*
X8016004Y4568256D1*
X8003790Y4562079D1*
X7991717Y4550006D1*
X7985540Y4537793D1*
Y4513506D1*
X7991717Y4501433D1*
X8003790Y4489219D1*
X8016004Y4483183D1*
X7985540Y4419681D2*
X8113010Y4358894D1*
Y4443967D1*
X2751236Y4884838D2*
X2739163Y4878801D1*
X2726950Y4866588D1*
X2720913Y4854515D1*
X2720914Y4830228D1*
X2726950Y4818015D1*
X2739164Y4805942D1*
X2751237Y4799765D1*
X2769487Y4793729D1*
X2799951D1*
X2818060Y4799766D1*
X2830274Y4805943D1*
X2842347Y4818017D1*
X2848523Y4830230D1*
Y4854517D1*
X2842346Y4866590D1*
X2830272Y4878803D1*
X2818059Y4884839D1*
X2745339Y4924054D2*
X2739162Y4936267D1*
X2721052Y4954517D1*
X2848521Y4954519D1*
X2721050Y5030232D2*
X2727087Y5011983D1*
X2745338Y4999769D1*
X2775661Y4993733D1*
X2793911Y4993734D1*
X2824234Y4999771D1*
X2842483Y5011985D1*
X2848520Y5030235D1*
X2848519Y5042308D1*
X2842483Y5060558D1*
X2824232Y5072630D1*
X2793909Y5078807D1*
X2775659D1*
X2745336Y5072629D1*
X2727086Y5060556D1*
X2721050Y5042305D1*
Y5030232D1*
X2745336Y5072629D2*
X2824234Y4999771D1*
X2801672Y4917216D2*
X2789599Y4911179D1*
X2777387Y4898964D1*
X2771351Y4886891D1*
X2771353Y4862604D1*
X2777390Y4850391D1*
X2789605Y4838319D1*
X2801678Y4832143D1*
X2819929Y4826108D1*
X2850392Y4826110D1*
X2868501Y4832148D1*
X2880714Y4838326D1*
X2892786Y4850400D1*
X2898962Y4862614D1*
X2898961Y4886901D1*
X2892783Y4898973D1*
X2880709Y4911186D1*
X2868495Y4917221D1*
X2795772Y4956431D2*
X2789595Y4968644D1*
X2771484Y4986893D1*
X2898953Y4986903D1*
X2795767Y5026111D2*
X2789589Y5038324D1*
X2771478Y5056572D1*
X2898947Y5056582D1*
X2590877Y4906443D2*
X2578805Y4900406D1*
X2566592Y4888191D1*
X2560556Y4876118D1*
X2560558Y4851831D1*
X2566596Y4839618D1*
X2578810Y4827546D1*
X2590884Y4821370D1*
X2609134Y4815335D1*
X2639598Y4815337D1*
X2657707Y4821375D1*
X2669920Y4827553D1*
X2681992Y4839627D1*
X2688168Y4851841D1*
X2688166Y4876128D1*
X2681988Y4888200D1*
X2669914Y4900413D1*
X2657700Y4906448D1*
X2584978Y4945658D2*
X2578800Y4957871D1*
X2560689Y4976120D1*
X2688158Y4976130D1*
X2591009Y5021515D2*
X2584972Y5021514D1*
X2572758Y5027550D1*
X2566721Y5033586D1*
X2560684Y5045799D1*
X2560682Y5070086D1*
X2566717Y5082159D1*
X2572753Y5088196D1*
X2584966Y5094374D1*
X2597040Y5094375D1*
X2609253Y5088199D1*
X2627364Y5076127D1*
X2688155Y5015345D1*
X2688149Y5100419D1*
X5420358Y3361792D2*
X5432431Y3367829D1*
X5444644Y3380043D1*
X5450680Y3392116D1*
X5450679Y3416403D1*
X5444642Y3428616D1*
X5432428Y3440688D1*
X5420355Y3446865D1*
X5402104Y3452901D1*
X5371641Y3452899D1*
X5353532Y3446862D1*
X5341318Y3440685D1*
X5329246Y3428611D1*
X5323069Y3416398D1*
X5323070Y3392111D1*
X5329248Y3380038D1*
X5341321Y3367825D1*
X5353535Y3361789D1*
X5426256Y3322576D2*
X5432433Y3310363D1*
X5450544Y3292114D1*
X5323074Y3292109D1*
X5450546Y3240685D2*
X5450548Y3174002D1*
X5401974Y3210360D1*
X5401975Y3192110D1*
X5395939Y3180036D1*
X5389902Y3174000D1*
X5371653Y3167822D1*
X5359579Y3167821D1*
X5341329Y3173998D1*
X5329115Y3186070D1*
X5323078Y3204320D1*
X5323077Y3222570D1*
X5329113Y3240680D1*
X5335290Y3246717D1*
X5347363Y3252894D1*
X4376139Y3191684D2*
X4388212Y3197721D1*
X4400425Y3209934D1*
X4406462Y3222007D1*
Y3246294D1*
X4400425Y3258507D1*
X4388212Y3270580D1*
X4376139Y3276757D1*
X4357889Y3282794D1*
X4327425D1*
X4309315Y3276757D1*
X4297102Y3270580D1*
X4285029Y3258507D1*
X4278852Y3246294D1*
Y3222007D1*
X4285029Y3209934D1*
X4297102Y3197721D1*
X4309315Y3191684D1*
X4382035Y3152468D2*
X4388212Y3140255D1*
X4406321Y3122005D1*
X4278852D1*
Y3022003D2*
X4406321D1*
X4321389Y3082789D1*
Y2991680D1*
X9062944Y3889958D2*
X9056907Y3902031D1*
X9044693Y3914244D1*
X9032620Y3920280D1*
X9008333Y3920279D1*
X8996120Y3914242D1*
X8984047Y3902028D1*
X8977871Y3889954D1*
X8971835Y3871704D1*
X8971837Y3841240D1*
X8977874Y3823131D1*
X8984051Y3810918D1*
X8996125Y3798845D1*
X9008339Y3792669D1*
X9032625Y3792670D1*
X9044698Y3798848D1*
X9056911Y3810921D1*
X9062947Y3823135D1*
X9102159Y3895856D2*
X9114373Y3902033D1*
X9132622Y3920144D1*
X9132627Y3792675D1*
X9244697Y3920149D2*
X9184051Y3920146D1*
X9178017Y3865536D1*
X9184053Y3871573D1*
X9202303Y3877751D1*
X9220412D1*
X9238663Y3871575D1*
X9250877Y3859503D1*
X9256914Y3841253D1*
X9256915Y3829180D1*
X9250879Y3810930D1*
X9238666Y3798716D1*
X9220416Y3792678D1*
X9202307D1*
X9184056Y3798713D1*
X9178020Y3804890D1*
X9171842Y3816963D1*
X10949708Y6408318D2*
X10822098Y6408311D1*
X10822100Y6365775D1*
X10828278Y6347525D1*
X10840352Y6335312D1*
X10852566Y6329276D1*
X10870676Y6323241D1*
X10901139Y6323242D1*
X10919389Y6329280D1*
X10931462Y6335317D1*
X10943674Y6347531D1*
X10949710Y6365782D1*
X10949708Y6408318D1*
X10919251Y6277851D2*
X10925288D1*
X10937502Y6271815D1*
X10943538Y6265779D1*
X10949576Y6253566D1*
X10949577Y6229279D1*
X10943541Y6217206D1*
X10937505Y6211169D1*
X10925292Y6204992D1*
X10913219Y6204991D1*
X10901005Y6211167D1*
X10882895Y6223239D1*
X10822105Y6284022D1*
X10822109Y6198949D1*
X7968724Y7279227D2*
X7968734Y7151617D1*
X8041593Y7151623D1*
X8177955Y7151633D2*
X8177945Y7279243D1*
X8129382Y7151629D1*
X8080799Y7279235D1*
X8080809Y7151626D1*
X8241457Y7151638D2*
X8302234Y7279112D1*
X8217161Y7279105D1*
X8371773Y7279117D2*
X8353664Y7273079D1*
X8347488Y7261006D1*
X8347489Y7248792D1*
X8353667Y7236719D1*
X8365740Y7230543D1*
X8390027Y7224509D1*
X8408278Y7218474D1*
X8420352Y7206261D1*
X8426389Y7194189D1*
X8426390Y7175939D1*
X8420355Y7163865D1*
X8414319Y7157688D1*
X8396069Y7151650D1*
X8371783Y7151648D1*
X8353673Y7157683D1*
X8347495Y7163859D1*
X8341458Y7175932D1*
X8341456Y7194182D1*
X8347492Y7206256D1*
X8359704Y7218470D1*
X8377814Y7224508D1*
X8402100Y7230546D1*
X8414313Y7236724D1*
X8420348Y7248798D1*
X8420347Y7261011D1*
X8414310Y7273084D1*
X8396059Y7279119D1*
X8371773Y7279117D1*
X8502098Y7279127D2*
X8483849Y7273089D1*
X8471637Y7254838D1*
X8465602Y7224515D1*
X8465604Y7206265D1*
X8471643Y7175942D1*
X8483857Y7157693D1*
X8502108Y7151658D1*
X8514181Y7151659D1*
X8532431Y7157697D1*
X8544502Y7175948D1*
X8550677Y7206271D1*
X8550675Y7224521D1*
X8544496Y7254844D1*
X8532422Y7273093D1*
X8514171Y7279128D1*
X8502098Y7279127D1*
X8544496Y7254844D2*
X8471643Y7175942D1*
X8662747Y7279139D2*
X8602100Y7279135D1*
X8596068Y7224525D1*
X8602104Y7230562D1*
X8620354Y7236740D1*
X8638463Y7236741D1*
X8656714Y7230566D1*
X8668928Y7218494D1*
X8674966Y7200244D1*
X8674967Y7188171D1*
X8668932Y7169920D1*
X8656719Y7157706D1*
X8638470Y7151668D1*
X8620360Y7151667D1*
X8602110Y7157702D1*
X8596073Y7163878D1*
X8589895Y7175951D1*
X8805288Y7248967D2*
X8799250Y7261040D1*
X8787036Y7273253D1*
X8774962Y7279288D1*
X8750676Y7279286D1*
X8738463Y7273249D1*
X8726391Y7261034D1*
X8720215Y7248961D1*
X8714179Y7230710D1*
X8714182Y7200247D1*
X8720220Y7182138D1*
X8726398Y7169925D1*
X8738472Y7157853D1*
X8750685Y7151677D1*
X8774972Y7151679D1*
X8787045Y7157856D1*
X8799257Y7169930D1*
X8805293Y7182144D1*
X8887038Y7279297D2*
X8887047Y7151687D1*
X8844501Y7279293D2*
X8929574Y7279300D1*
X2565744Y3732486D2*
X2604458Y3693771D1*
X2621532Y3685234D1*
X2630267D1*
X2643073Y3689503D1*
X2655977Y3702408D1*
X2660246Y3715213D1*
Y3723949D1*
X2651709Y3741022D1*
X2612995Y3779737D1*
X2522761Y3689503D1*
X2700880Y3691851D2*
X2610647Y3601618D1*
X2761036Y3631695D2*
X2670802Y3541462D1*
X2657898Y3648869D2*
X2718053Y3588713D1*
X2771493Y3586693D2*
X2784497Y3582425D1*
X2810207Y3582326D1*
X2720073Y3492191D1*
X2780569Y5484573D2*
X2741856Y5445858D1*
X2733320Y5428783D1*
Y5420048D1*
X2737589Y5407243D1*
X2750494Y5394338D1*
X2763299Y5390070D1*
X2772035D1*
X2789109Y5398608D1*
X2827822Y5437323D1*
X2737586Y5527554D1*
X2739938Y5349435D2*
X2649703Y5439667D1*
X2679784Y5289278D2*
X2589548Y5379509D1*
X2696955Y5392417D2*
X2636800Y5332260D1*
X2626146Y5278720D2*
X2630415Y5274452D1*
X2634783Y5261547D1*
Y5253010D1*
X2630415Y5240105D1*
X2613243Y5222932D1*
X2600437Y5218663D1*
X2591900D1*
X2578896Y5222931D1*
X2570359Y5231468D1*
X2566090Y5244472D1*
X2561821Y5265814D1*
X2561819Y5351779D1*
X2501665Y5291622D1*
X3614163Y2125465D2*
X3614164Y2070715D1*
X3620201Y2052605D1*
X3626378Y2046428D1*
X3638451Y2040392D1*
X3656701Y2040393D1*
X3668774Y2046429D1*
X3674951Y2052607D1*
X3680987Y2070716D1*
X3680986Y2125466D1*
X3553376Y2125463D1*
X3680989Y2001178D2*
X3553379Y2001174D1*
X3680991Y1916104D2*
X3553381Y1916101D1*
X3620202Y2001176D2*
X3620205Y1916103D1*
X3680852Y1864675D2*
X3680854Y1797993D1*
X3632280Y1834351D1*
Y1816101D1*
X3626244Y1804028D1*
X3620208Y1797991D1*
X3601958Y1791814D1*
X3589885Y1791813D1*
X3571634Y1797990D1*
X3559421Y1810063D1*
X3553384Y1828312D1*
X3553383Y1846562D1*
X3559419Y1864672D1*
X3565596Y1870709D1*
X3577669Y1876886D1*
X2884110Y6861447D2*
X2884109Y6916197D1*
X2878072Y6934306D1*
X2871895Y6940483D1*
X2859821Y6946519D1*
X2841571D1*
X2829499Y6940482D1*
X2823322Y6934305D1*
X2817286Y6916195D1*
X2817287Y6861445D1*
X2944896Y6861448D1*
X2817284Y6985734D2*
X2944894Y6985736D1*
X2817283Y7070807D2*
X2944892Y7070810D1*
X2878071Y6985735D2*
X2878069Y7070808D1*
X2944890Y7170812D2*
X2817421Y7170809D1*
X2902355Y7110024D1*
X2902353Y7201134D1*
X1468654Y5836050D2*
X1456581Y5830154D1*
X1444367Y5817940D1*
X1438331Y5805727D1*
X1432154Y5787477D1*
Y5757154D1*
X1438331Y5738904D1*
X1444367Y5726831D1*
X1456581Y5714617D1*
X1468654Y5708581D1*
X1492940D1*
X1505154Y5714617D1*
X1517227Y5726831D1*
X1523263Y5738904D1*
X1529440Y5757154D1*
Y5787477D1*
X1523263Y5805727D1*
X1517227Y5817940D1*
X1505154Y5830154D1*
X1492940Y5836050D1*
X1468654D1*
X1486904Y5732867D2*
X1523263Y5696367D1*
X1568656Y5811623D2*
X1580870Y5817800D1*
X1599120Y5835910D1*
Y5708440D1*
X7043957Y3962743D2*
Y3908133D1*
X7050134Y3889883D1*
X7056170Y3883706D1*
X7068243Y3877670D1*
X7080457D1*
X7092530Y3883706D1*
X7098707Y3889883D1*
X7104743Y3908133D1*
Y3962743D1*
X6977134D1*
X7043957Y3920206D2*
X6977134Y3877670D1*
X7080316Y3838454D2*
X7086493Y3826241D1*
X7104603Y3807991D1*
X6977134D1*
X6654917Y4899056D2*
Y4953665D1*
X6648740Y4971915D1*
X6642703Y4978092D1*
X6630630Y4984129D1*
X6618417D1*
X6606344Y4978092D1*
X6600167Y4971915D1*
X6594130Y4953665D1*
Y4899056D1*
X6721740D1*
X6654917Y4941592D2*
X6721740Y4984129D1*
X6624594Y5029521D2*
X6618557D1*
X6606344Y5035558D1*
X6600307Y5041595D1*
X6594270Y5053808D1*
Y5078095D1*
X6600307Y5090168D1*
X6606344Y5096204D1*
X6618557Y5102381D1*
X6630630D1*
X6642844Y5096204D1*
X6660953Y5084131D1*
X6721740Y5023345D1*
Y5108418D1*
X3267365Y2532159D2*
X3321975Y2532161D1*
X3340224Y2538339D1*
X3346401Y2544376D1*
X3352437Y2556449D1*
X3352436Y2568663D1*
X3346399Y2580736D1*
X3340222Y2586912D1*
X3321972Y2592948D1*
X3267362Y2592946D1*
X3267368Y2465336D1*
X3309902Y2532161D2*
X3352441Y2465340D1*
X3470689Y2550418D2*
X3464513Y2532168D1*
X3452441Y2519954D1*
X3434191Y2513916D1*
X3428155D1*
X3409904Y2519952D1*
X3397831Y2532165D1*
X3391653Y2550414D1*
Y2556451D1*
X3397829Y2574701D1*
X3409901Y2586775D1*
X3428151Y2592812D1*
X3434188D1*
X3452438Y2586777D1*
X3464511Y2574704D1*
X3470689Y2550418D1*
X3470691Y2519954D1*
X3464515Y2489631D1*
X3452443Y2471381D1*
X3434193Y2465343D1*
X3422120D1*
X3403870Y2471378D1*
X3397833Y2483592D1*
X3432331Y6140992D2*
X3432333Y6086383D1*
X3438511Y6068133D1*
X3444548Y6061956D1*
X3456621Y6055920D1*
X3468835Y6055921D1*
X3480907Y6061958D1*
X3487084Y6068135D1*
X3493120Y6086385D1*
X3493118Y6140995D1*
X3365508Y6140989D1*
X3432333Y6098456D2*
X3365511Y6055916D1*
X3468696Y6016705D2*
X3474873Y6004492D1*
X3492984Y5986242D1*
X3365514Y5986237D1*
X3492987Y5910527D2*
X3486949Y5928776D1*
X3468699Y5940989D1*
X3438375Y5947024D1*
X3420125D1*
X3389803Y5940986D1*
X3371553Y5928772D1*
X3365517Y5910522D1*
X3365518Y5898448D1*
X3371555Y5880199D1*
X3389806Y5868126D1*
X3420129Y5861951D1*
X3438379D1*
X3468702Y5868130D1*
X3486951Y5880203D1*
X3492987Y5898454D1*
Y5910527D1*
X3468702Y5868130D2*
X3389803Y5940986D1*
X9228873Y6847805D2*
X9228871Y6902415D1*
X9222693Y6920664D1*
X9216656Y6926841D1*
X9204583Y6932877D1*
X9192369Y6932876D1*
X9180297Y6926839D1*
X9174120Y6920662D1*
X9168084Y6902412D1*
X9168087Y6847802D1*
X9295696Y6847808D1*
X9228871Y6890342D2*
X9295692Y6932881D1*
X9192508Y6972092D2*
X9186330Y6984305D1*
X9168220Y7002554D1*
X9295689Y7002560D1*
X9295684Y7102563D2*
X9168215Y7102557D1*
X9253151Y7041774D1*
X9253146Y7132884D1*
X3655593Y6864655D2*
X3710202Y6864659D1*
X3728452Y6870837D1*
X3734628Y6876874D1*
X3740664Y6888947D1*
Y6901160D1*
X3734626Y6913233D1*
X3728449Y6919410D1*
X3710199Y6925445D1*
X3655589Y6925442D1*
X3655597Y6797832D1*
X3698129Y6864658D2*
X3740670Y6797837D1*
X3779879Y6901022D2*
X3792092Y6907200D1*
X3810341Y6925311D1*
X3810349Y6797841D1*
X3922418Y6907208D2*
X3916380Y6919280D1*
X3898130Y6925316D1*
X3886057Y6925315D1*
X3867807Y6919278D1*
X3855595Y6901027D1*
X3849560Y6870703D1*
X3849562Y6840380D1*
X3855600Y6816094D1*
X3867814Y6803881D1*
X3886064Y6797846D1*
X3892101D1*
X3910210Y6803884D1*
X3922423Y6816098D1*
X3928458Y6834348D1*
Y6840385D1*
X3922420Y6858635D1*
X3910206Y6870707D1*
X3892096Y6876742D1*
X3886060D1*
X3867810Y6870704D1*
X3855597Y6858631D1*
X3849562Y6840380D1*
X2391710Y3974759D2*
X2446320Y3974761D1*
X2464570Y3980938D1*
X2470746Y3986975D1*
X2476783Y3999048D1*
X2476782Y4011262D1*
X2470745Y4023335D1*
X2464568Y4029511D1*
X2446318Y4035547D1*
X2391708Y4035546D1*
X2391712Y3907936D1*
X2434247Y3974761D2*
X2476785Y3907939D1*
X2515998Y4011123D2*
X2528211Y4017300D1*
X2546461Y4035410D1*
X2546464Y3907941D1*
X2609967Y3907943D2*
X2670749Y4035414D1*
X2585676Y4035411D1*
X1405241Y4923506D2*
X1405239Y4978116D1*
X1399062Y4996366D1*
X1393025Y5002543D1*
X1380952Y5008579D1*
X1368738Y5008578D1*
X1356666Y5002541D1*
X1350489Y4996364D1*
X1344453Y4978114D1*
X1344455Y4923504D1*
X1472064Y4923509D1*
X1405240Y4966043D2*
X1472061Y5008582D1*
X1368877Y5047794D2*
X1362700Y5060007D1*
X1344590Y5078257D1*
X1472059Y5078261D1*
X1344588Y5147795D2*
X1350625Y5129686D1*
X1362698Y5123509D1*
X1374912Y5123510D1*
X1386984Y5129687D1*
X1393161Y5141761D1*
X1399197Y5166047D1*
X1405233Y5184297D1*
X1417446Y5196371D1*
X1429519Y5202408D1*
X1447769D1*
X1459842Y5196372D1*
X1466019Y5190336D1*
X1472056Y5172086D1*
X1472057Y5147800D1*
X1466021Y5129690D1*
X1459844Y5123513D1*
X1447771Y5117476D1*
X1429521Y5117475D1*
X1417448Y5123511D1*
X1405234Y5135724D1*
X1399197Y5153834D1*
X1393160Y5178120D1*
X1386982Y5190333D1*
X1374909Y5196370D1*
X1362696Y5196369D1*
X1350623Y5190332D1*
X1344587Y5172082D1*
X1344588Y5147795D1*
X1524533Y5195271D2*
X1524535Y5140661D1*
X1530712Y5122411D1*
X1536749Y5116235D1*
X1548822Y5110198D1*
X1561035Y5110199D1*
X1573108Y5116235D1*
X1579285Y5122413D1*
X1585321Y5140663D1*
X1585320Y5195272D1*
X1457710Y5195269D1*
X1524534Y5152734D2*
X1457712Y5110196D1*
X1560896Y5070983D2*
X1567073Y5058770D1*
X1585183Y5040520D1*
X1457714Y5040517D1*
X1542790Y4922267D2*
X1524540Y4928443D1*
X1512326Y4940516D1*
X1506289Y4958766D1*
Y4964802D1*
X1512325Y4983053D1*
X1524538Y4995126D1*
X1542788Y5001303D1*
X1548825D1*
X1567075Y4995127D1*
X1579148Y4983054D1*
X1585185Y4964804D1*
Y4958768D1*
X1579149Y4940518D1*
X1567077Y4928444D1*
X1542790Y4922267D1*
X1512327Y4922266D1*
X1482004Y4928442D1*
X1463753Y4940515D1*
X1457716Y4958765D1*
Y4970838D1*
X1463752Y4989088D1*
X1475965Y4995125D1*
X9684569Y6461961D2*
X9629959Y6461957D1*
X9611709Y6455779D1*
X9605533Y6449742D1*
X9599497Y6437669D1*
X9599498Y6425455D1*
X9605535Y6413383D1*
X9611713Y6407206D1*
X9629963Y6401171D1*
X9684573Y6401174D1*
X9684564Y6528784D1*
X9642032Y6461958D2*
X9599491Y6528778D1*
X9554105Y6431629D2*
Y6425593D1*
X9548070Y6413379D1*
X9542033Y6407342D1*
X9529820Y6401305D1*
X9505534Y6401303D1*
X9493460Y6407339D1*
X9487423Y6413375D1*
X9481246Y6425588D1*
X9481245Y6437661D1*
X9487421Y6449875D1*
X9499493Y6467985D1*
X9560275Y6528776D1*
X9475202Y6528770D1*
X9399495Y6401296D2*
X9417745Y6407334D1*
X9429957Y6425585D1*
X9435991Y6455908D1*
X9435990Y6474158D1*
X9429952Y6504481D1*
X9417737Y6522730D1*
X9399487Y6528765D1*
X9387414Y6528764D1*
X9369164Y6522727D1*
X9357092Y6504476D1*
X9350917Y6474152D1*
X9350918Y6455902D1*
X9357097Y6425580D1*
X9369172Y6407331D1*
X9387422Y6401295D1*
X9399495Y6401296D1*
X9357097Y6425580D2*
X9429952Y6504481D1*
X10625140Y3433198D2*
X10625142Y3378589D1*
X10631320Y3360339D1*
X10637357Y3354162D1*
X10649430Y3348126D1*
X10661644Y3348127D1*
X10673716Y3354164D1*
X10679893Y3360341D1*
X10685929Y3378591D1*
X10685927Y3433201D1*
X10558317Y3433196D1*
X10625142Y3390662D2*
X10558321Y3348123D1*
X10655468Y3302734D2*
X10661505D1*
X10673719Y3296698D1*
X10679756Y3290662D1*
X10685793Y3278449D1*
X10685794Y3254162D1*
X10679757Y3242089D1*
X10673721Y3236052D1*
X10661508Y3229874D1*
X10649435D1*
X10637221Y3236050D1*
X10619111Y3248123D1*
X10558322Y3308907D1*
X10558326Y3223834D1*
X10667690Y3111763D2*
X10679763Y3117800D1*
X10685798Y3136050D1*
Y3148123D1*
X10679761Y3166373D1*
X10661510Y3178586D1*
X10631187Y3184621D1*
X10600864Y3184620D1*
X10576577Y3178582D1*
X10564364Y3166368D1*
X10558329Y3148118D1*
Y3142082D1*
X10564366Y3123972D1*
X10576580Y3111759D1*
X10594830Y3105723D1*
X10600867Y3105724D1*
X10619117Y3111761D1*
X10631189Y3123975D1*
X10637225Y3142085D1*
Y3148121D1*
X10631187Y3166371D1*
X10619114Y3178584D1*
X10600864Y3184620D1*
X7587562Y6288041D2*
X7587560Y6342651D1*
X7581383Y6360901D1*
X7575346Y6367078D1*
X7563273Y6373114D1*
X7551059Y6373113D1*
X7538986Y6367076D1*
X7532810Y6360899D1*
X7526774Y6342649D1*
X7526776Y6288039D1*
X7654385Y6288044D1*
X7587561Y6330578D2*
X7654382Y6373117D1*
X7557235Y6418506D2*
X7551198D1*
X7538985Y6424542D1*
X7532948Y6430578D1*
X7526911Y6442792D1*
X7526910Y6467078D1*
X7532946Y6479151D1*
X7538983Y6485188D1*
X7551196Y6491366D1*
X7563269D1*
X7575483Y6485189D1*
X7593593Y6473117D1*
X7654381Y6412332D1*
X7654378Y6497406D1*
X7654376Y6560908D2*
X7526905Y6621690D1*
X7526908Y6536617D1*
X6660355Y6776095D2*
X6660354Y6830705D1*
X6654176Y6848954D1*
X6648139Y6855131D1*
X6636066Y6861167D1*
X6623853D1*
X6611780Y6855130D1*
X6605603Y6848953D1*
X6599567Y6830703D1*
X6599569Y6776093D1*
X6727179Y6776097D1*
X6660354Y6818632D2*
X6727176Y6861170D1*
X6630028Y6906560D2*
X6623992Y6906559D1*
X6611778Y6912596D1*
X6605741Y6918632D1*
X6599704Y6930845D1*
X6599703Y6955132D1*
X6605740Y6967205D1*
X6611776Y6973242D1*
X6623989Y6979419D1*
X6636062D1*
X6648276Y6973243D1*
X6666386Y6961170D1*
X6727174Y6900386D1*
X6727172Y6985459D1*
X6599700Y7054994D2*
X6605737Y7036884D1*
X6617810Y7030708D1*
X6630024D1*
X6642097Y7036885D1*
X6648273Y7048959D1*
X6654309Y7073245D1*
X6660345Y7091496D1*
X6672558Y7103569D1*
X6684631Y7109606D1*
X6702881Y7109607D1*
X6714954Y7103570D1*
X6721131Y7097534D1*
X6727169Y7079284D1*
Y7054998D1*
X6721133Y7036888D1*
X6714957Y7030711D1*
X6702884Y7024674D1*
X6684634Y7024673D1*
X6672560Y7030709D1*
X6660347Y7042923D1*
X6654309Y7061032D1*
X6648272Y7085318D1*
X6642095Y7097532D1*
X6630022Y7103568D1*
X6617808Y7103567D1*
X6605735Y7097530D1*
X6599699Y7079280D1*
X6599700Y7054994D1*
X9110553Y7592320D2*
Y7646929D1*
X9104376Y7665179D1*
X9098340Y7671356D1*
X9086267Y7677393D1*
X9074053D1*
X9061980Y7671356D1*
X9055803Y7665179D1*
X9049767Y7646929D1*
Y7592320D1*
X9177376D1*
X9110553Y7634856D2*
X9177376Y7677393D1*
X9080230Y7722785D2*
X9074194D1*
X9061980Y7728822D1*
X9055944Y7734858D1*
X9049907Y7747072D1*
Y7771358D1*
X9055944Y7783432D1*
X9061980Y7789468D1*
X9074194Y7795645D1*
X9086267D1*
X9098480Y7789468D1*
X9116590Y7777395D1*
X9177376Y7716608D1*
Y7801682D1*
X9092303Y7919934D2*
X9110553Y7913757D1*
X9122767Y7901684D1*
X9128803Y7883434D1*
Y7877397D1*
X9122767Y7859147D1*
X9110553Y7847074D1*
X9092303Y7840897D1*
X9086267D1*
X9068017Y7847074D1*
X9055944Y7859147D1*
X9049907Y7877397D1*
Y7883434D1*
X9055944Y7901684D1*
X9068017Y7913757D1*
X9092303Y7919934D1*
X9122767D1*
X9153090Y7913757D1*
X9171340Y7901684D1*
X9177376Y7883434D1*
Y7871361D1*
X9171340Y7853111D1*
X9159126Y7847074D1*
X6548503Y3297743D2*
Y3388853D1*
X6542466Y3407103D1*
X6530253Y3419176D1*
X6512003Y3425353D1*
X6499930D1*
X6481680Y3419176D1*
X6469466Y3407103D1*
X6463430Y3388853D1*
Y3297743D1*
X6424214Y3322170D2*
X6412001Y3315993D1*
X6393751Y3297884D1*
Y3425353D1*
X7123986Y5749327D2*
Y5658217D1*
X7130022Y5639967D1*
X7142236Y5627894D1*
X7160486Y5621717D1*
X7172559D1*
X7190809Y5627894D1*
X7203022Y5639967D1*
X7209059Y5658217D1*
Y5749327D1*
X7254451Y5718863D2*
Y5724900D1*
X7260488Y5737113D1*
X7266525Y5743150D1*
X7278738Y5749186D1*
X7303025D1*
X7315098Y5743150D1*
X7321134Y5737113D1*
X7327311Y5724900D1*
Y5712827D1*
X7321134Y5700613D1*
X7309061Y5682504D1*
X7248275Y5621717D1*
X7333348D1*
X3538223Y4435922D2*
X3629333D1*
X3647583Y4441959D1*
X3659656Y4454172D1*
X3665833Y4472422D1*
Y4484496D1*
X3659656Y4502746D1*
X3647583Y4514959D1*
X3629333Y4520996D1*
X3538223D1*
X3538364Y4572425D2*
Y4639107D1*
X3586937Y4602748D1*
Y4620998D1*
X3592973Y4633071D1*
X3599010Y4639107D1*
X3617260Y4645284D1*
X3629333D1*
X3647583Y4639107D1*
X3659796Y4627034D1*
X3665833Y4608784D1*
Y4590534D1*
X3659796Y4572425D1*
X3653620Y4566388D1*
X3641546Y4560211D1*
X7536807Y3732356D2*
X7627916D1*
X7646166Y3738392D1*
X7658239Y3750606D1*
X7664416Y3768856D1*
Y3780929D1*
X7658239Y3799179D1*
X7646166Y3811392D1*
X7627916Y3817429D1*
X7536807D1*
X7536947Y3929504D2*
Y3868858D1*
X7591557Y3862821D1*
X7585520Y3868858D1*
X7579343Y3887108D1*
Y3905218D1*
X7585520Y3923468D1*
X7597593Y3935681D1*
X7615843Y3941718D1*
X7627916D1*
X7646166Y3935681D1*
X7658380Y3923468D1*
X7664416Y3905218D1*
Y3887108D1*
X7658380Y3868858D1*
X7652203Y3862821D1*
X7640130Y3856645D1*
X4948359Y3023443D2*
X4899786Y3084230D1*
Y3151053D1*
X4851213Y3023443D2*
X4899786Y3084230D1*
X4811997Y3047870D2*
X4799784Y3041693D1*
X4781534Y3023584D1*
Y3151053D1*
M02*
