G04*
G04 #@! TF.GenerationSoftware,Altium Limited,Altium Designer,24.2.2 (26)*
G04*
G04 Layer_Color=32896*
%FSLAX44Y44*%
%MOMM*%
G71*
G04*
G04 #@! TF.SameCoordinates,8C88FD55-5E28-4BF8-AC9A-47ACA7285848*
G04*
G04*
G04 #@! TF.FilePolarity,Positive*
G04*
G01*
G75*
%ADD11C,0.2000*%
%ADD13C,0.2540*%
D11*
X408500Y378250D02*
G03*
X408500Y378250I-1000J0D01*
G01*
X368500Y378250D02*
G03*
X368500Y378250I-1000J0D01*
G01*
X359000Y312501D02*
G03*
X363500Y317001I0J4500D01*
G01*
X336501Y317000D02*
G03*
X341001Y312500I4500J0D01*
G01*
X341000Y327499D02*
G03*
X336500Y322999I0J-4500D01*
G01*
X363500Y322999D02*
G03*
X359000Y327499I-4500J0D01*
G01*
X348500Y282499D02*
G03*
X344000Y277999I0J-4500D01*
G01*
X370999Y278000D02*
G03*
X366499Y282500I-4500J0D01*
G01*
X366500Y267501D02*
G03*
X371000Y272001I0J4500D01*
G01*
X344000Y272001D02*
G03*
X348500Y267501I4500J0D01*
G01*
X327750Y369999D02*
G03*
X323250Y365499I0J-4500D01*
G01*
X350249Y365500D02*
G03*
X345749Y370000I-4500J0D01*
G01*
X345750Y355001D02*
G03*
X350250Y359501I0J4500D01*
G01*
X323250Y359501D02*
G03*
X327750Y355001I4500J0D01*
G01*
X327750Y349999D02*
G03*
X323250Y345499I0J-4500D01*
G01*
X350249Y345500D02*
G03*
X345749Y350000I-4500J0D01*
G01*
X345750Y335001D02*
G03*
X350250Y339501I0J4500D01*
G01*
X323250Y339501D02*
G03*
X327750Y335001I4500J0D01*
G01*
X379000Y352501D02*
G03*
X383500Y357001I0J4500D01*
G01*
X356501Y357000D02*
G03*
X361001Y352500I4500J0D01*
G01*
X361000Y367499D02*
G03*
X356500Y362999I0J-4500D01*
G01*
X383500Y362999D02*
G03*
X379000Y367499I-4500J0D01*
G01*
X311250Y288000D02*
Y292000D01*
X328750Y288000D02*
Y292000D01*
X403750Y374800D02*
X411250D01*
X403750Y405202D02*
X411250D01*
Y374800D02*
Y405202D01*
X403750Y374800D02*
Y405202D01*
X363750Y374800D02*
X371250D01*
X363750Y405202D02*
X371250D01*
Y374800D02*
Y405202D01*
X363750Y374800D02*
Y405202D01*
X294200Y412700D02*
Y427300D01*
X320800Y412700D02*
Y427300D01*
X294200D02*
X320800D01*
X294200Y412700D02*
X320800D01*
X426700Y305200D02*
Y319800D01*
X453300Y305200D02*
Y319800D01*
X426700D02*
X453300D01*
X426700Y305200D02*
X453300D01*
X336500Y317000D02*
Y322999D01*
X341001Y312500D02*
X359000D01*
X341000Y327500D02*
X359000D01*
X363500Y317001D02*
Y322999D01*
X371000Y272001D02*
Y278000D01*
X348500Y282500D02*
X366499D01*
X348500Y267500D02*
X366500D01*
X344000Y272001D02*
Y277999D01*
X350250Y359501D02*
Y365500D01*
X327750Y370000D02*
X345749D01*
X327750Y355000D02*
X345750D01*
X323250Y359501D02*
Y365499D01*
X350250Y339501D02*
Y345500D01*
X327750Y350000D02*
X345749D01*
X327750Y335000D02*
X345750D01*
X323250Y339501D02*
Y345499D01*
X356500Y357000D02*
Y362999D01*
X361001Y352500D02*
X379000D01*
X361000Y367500D02*
X379000D01*
X383500Y357001D02*
Y362999D01*
D13*
X490000Y300000D02*
Y307500D01*
X495000D01*
Y300000D02*
Y307500D01*
X470000Y302500D02*
X475000D01*
X470000Y302500D02*
X470000Y302500D01*
X470000Y300000D02*
Y302500D01*
Y300000D02*
Y305000D01*
X472500Y307500D01*
Y307500D01*
X475000Y305000D01*
Y300000D02*
Y305000D01*
X480000Y307500D02*
X485000D01*
X482500Y300000D02*
Y307500D01*
X485000D01*
X460000Y305000D02*
X465000D01*
X460000D02*
Y307500D01*
Y305000D02*
Y307500D01*
Y305000D02*
X465000Y300000D01*
Y305000D02*
Y307500D01*
X494794Y285040D02*
X493461D01*
X492128Y286373D01*
Y293037D01*
X496127D01*
X497460Y291705D01*
Y289039D01*
X496127Y287706D01*
X492128D01*
X489463Y293037D02*
Y289039D01*
X488130Y287706D01*
X484131D01*
Y286373D01*
X485464Y285040D01*
X486797D01*
X484131Y287706D02*
Y293037D01*
X481465D02*
Y287706D01*
Y290372D01*
X480132Y291705D01*
X478799Y293037D01*
X477466D01*
X472135Y287706D02*
X469469D01*
X468136Y289039D01*
Y291705D01*
X469469Y293037D01*
X472135D01*
X473468Y291705D01*
Y289039D01*
X472135Y287706D01*
X465470D02*
X461472D01*
X460139Y289039D01*
X461472Y290372D01*
X464137D01*
X465470Y291705D01*
X464137Y293037D01*
X460139D01*
X452141D02*
X456140D01*
X457473Y291705D01*
Y289039D01*
X456140Y287706D01*
X452141D01*
X448143D02*
X445477D01*
X444144Y289039D01*
Y291705D01*
X445477Y293037D01*
X448143D01*
X449476Y291705D01*
Y289039D01*
X448143Y287706D01*
X441478Y285040D02*
Y293037D01*
X437479D01*
X436146Y291705D01*
Y289039D01*
X437479Y287706D01*
X441478D01*
X429482D02*
X432148D01*
X433481Y289039D01*
Y291705D01*
X432148Y293037D01*
X429482D01*
X428149Y291705D01*
Y290372D01*
X433481D01*
X417486Y293037D02*
X414820Y287706D01*
X412154Y293037D01*
X409488Y287706D02*
Y289039D01*
X408156D01*
Y287706D01*
X409488D01*
X402824D02*
X400158D01*
X401491D01*
Y295703D01*
X402824Y294370D01*
X497460Y262579D02*
Y277814D01*
X492382Y272736D01*
X487303Y277814D01*
Y262579D01*
X482225Y260040D02*
X472068D01*
X466990Y277814D02*
Y262579D01*
X459372D01*
X456833Y265118D01*
Y267658D01*
Y270197D01*
X459372Y272736D01*
X466990D01*
X451755Y277814D02*
X446676D01*
X449216D01*
Y262579D01*
X451755D01*
X446676D01*
X439059Y260040D02*
X428902D01*
X423824Y277814D02*
Y262579D01*
X413667D01*
X408589Y277814D02*
Y262579D01*
X398432D01*
X393354Y277814D02*
X388275D01*
X390815D01*
Y262579D01*
X393354D01*
X388275D01*
X359166Y295832D02*
X360832Y297498D01*
X364165D01*
X365831Y295832D01*
Y289168D01*
X364165Y287502D01*
X360832D01*
X359166Y289168D01*
X350835Y287502D02*
Y297498D01*
X355834Y292500D01*
X349169D01*
X415831Y419998D02*
Y411668D01*
X414165Y410002D01*
X410832D01*
X409166Y411668D01*
Y419998D01*
X399169Y410002D02*
X405834D01*
X399169Y416666D01*
Y418332D01*
X400835Y419998D01*
X404168D01*
X405834Y418332D01*
X324165Y327498D02*
X317500D01*
Y325832D01*
X324165Y319168D01*
Y317502D01*
X317500D01*
X314168D02*
X310835D01*
X312502D01*
Y327498D01*
X314168Y325832D01*
X313331Y432502D02*
Y442498D01*
X308332D01*
X306666Y440832D01*
Y437500D01*
X308332Y435834D01*
X313331D01*
X309998D02*
X306666Y432502D01*
X298335D02*
Y442498D01*
X303334Y437500D01*
X296669D01*
X381666Y323332D02*
X383332Y324998D01*
X386665D01*
X388331Y323332D01*
Y316668D01*
X386665Y315002D01*
X383332D01*
X381666Y316668D01*
X371669Y324998D02*
X378334D01*
Y320000D01*
X375002Y321666D01*
X373335D01*
X371669Y320000D01*
Y316668D01*
X373335Y315002D01*
X376668D01*
X378334Y316668D01*
X374165Y419998D02*
Y411668D01*
X372498Y410002D01*
X369166D01*
X367500Y411668D01*
Y419998D01*
X364168Y410002D02*
X360835D01*
X362502D01*
Y419998D01*
X364168Y418332D01*
X445831Y325002D02*
Y334998D01*
X440832D01*
X439166Y333332D01*
Y330000D01*
X440832Y328334D01*
X445831D01*
X442498D02*
X439166Y325002D01*
X429169D02*
X435834D01*
X429169Y331666D01*
Y333332D01*
X430835Y334998D01*
X434168D01*
X435834Y333332D01*
X339166Y383332D02*
X340832Y384998D01*
X344165D01*
X345831Y383332D01*
Y376668D01*
X344165Y375002D01*
X340832D01*
X339166Y376668D01*
X335834Y383332D02*
X334168Y384998D01*
X330835D01*
X329169Y383332D01*
Y381666D01*
X330835Y380000D01*
X332502D01*
X330835D01*
X329169Y378334D01*
Y376668D01*
X330835Y375002D01*
X334168D01*
X335834Y376668D01*
X395000Y363332D02*
X396666Y364998D01*
X399998D01*
X401665Y363332D01*
Y356668D01*
X399998Y355002D01*
X396666D01*
X395000Y356668D01*
X391668Y355002D02*
X388335D01*
X390002D01*
Y364998D01*
X391668Y363332D01*
X366666Y345832D02*
X368332Y347498D01*
X371665D01*
X373331Y345832D01*
Y339168D01*
X371665Y337502D01*
X368332D01*
X366666Y339168D01*
X356669Y337502D02*
X363334D01*
X356669Y344166D01*
Y345832D01*
X358335Y347498D01*
X361668D01*
X363334Y345832D01*
M02*
