G04*
G04 #@! TF.GenerationSoftware,Altium Limited,Altium Designer,24.2.2 (26)*
G04*
G04 Layer_Physical_Order=2*
G04 Layer_Color=16711680*
%FSLAX44Y44*%
%MOMM*%
G71*
G04*
G04 #@! TF.SameCoordinates,5AD87415-A6A8-440C-A617-3F2BA8D8D6EF*
G04*
G04*
G04 #@! TF.FilePolarity,Positive*
G04*
G01*
G75*
%ADD37R,0.7000X1.0000*%
G04:AMPARAMS|DCode=40|XSize=0.95mm|YSize=0.85mm|CornerRadius=0.2125mm|HoleSize=0mm|Usage=FLASHONLY|Rotation=90.000|XOffset=0mm|YOffset=0mm|HoleType=Round|Shape=RoundedRectangle|*
%AMROUNDEDRECTD40*
21,1,0.9500,0.4250,0,0,90.0*
21,1,0.5250,0.8500,0,0,90.0*
1,1,0.4250,0.2125,0.2625*
1,1,0.4250,0.2125,-0.2625*
1,1,0.4250,-0.2125,-0.2625*
1,1,0.4250,-0.2125,0.2625*
%
%ADD40ROUNDEDRECTD40*%
%ADD41C,0.3000*%
%ADD42C,0.5000*%
%ADD43C,2.0000*%
%ADD44R,2.0000X2.0000*%
%ADD45R,2.0000X2.0000*%
%ADD46C,6.0000*%
%ADD47C,0.6000*%
%ADD48R,1.9500X1.6000*%
%ADD49R,0.9000X0.6400*%
G36*
X501941Y359615D02*
X500671Y359515D01*
X500237Y362259D01*
X498729Y366900D01*
X496514Y371247D01*
X493646Y375195D01*
X490195Y378646D01*
X486247Y381514D01*
X481900Y383729D01*
X477259Y385237D01*
X472440Y386000D01*
X467560D01*
X462741Y385237D01*
X458100Y383729D01*
X453753Y381514D01*
X449805Y378646D01*
X446354Y375195D01*
X443486Y371247D01*
X441271Y366900D01*
X439763Y362259D01*
X439000Y357440D01*
Y352560D01*
X439763Y347741D01*
X441271Y343100D01*
X443486Y338753D01*
X446354Y334805D01*
X449805Y331354D01*
X453753Y328486D01*
X458100Y326271D01*
X462741Y324763D01*
X467560Y324000D01*
X472440D01*
X477259Y324763D01*
X481900Y326271D01*
X486247Y328486D01*
X490195Y331354D01*
X493646Y334805D01*
X496514Y338753D01*
X498729Y343100D01*
X500237Y347741D01*
X500671Y350485D01*
X501941Y350385D01*
Y258059D01*
X258059D01*
Y350385D01*
X259329Y350485D01*
X259763Y347741D01*
X261271Y343100D01*
X263486Y338753D01*
X266355Y334805D01*
X269805Y331354D01*
X273752Y328486D01*
X278100Y326271D01*
X282741Y324763D01*
X287560Y324000D01*
X292440D01*
X297259Y324763D01*
X301900Y326271D01*
X306248Y328486D01*
X310195Y331354D01*
X313645Y334805D01*
X316514Y338753D01*
X318729Y343100D01*
X320237Y347741D01*
X321000Y352560D01*
Y357440D01*
X320237Y362259D01*
X318729Y366900D01*
X316514Y371247D01*
X313645Y375195D01*
X310195Y378646D01*
X306248Y381514D01*
X301900Y383729D01*
X297259Y385237D01*
X292440Y386000D01*
X287560D01*
X282741Y385237D01*
X278100Y383729D01*
X273752Y381514D01*
X269805Y378646D01*
X266355Y375195D01*
X263486Y371247D01*
X261271Y366900D01*
X259763Y362259D01*
X259329Y359515D01*
X258059Y359615D01*
Y451941D01*
X501941D01*
Y359615D01*
D02*
G37*
%LPC*%
G36*
X355851Y447366D02*
X355470D01*
Y436096D01*
X366740D01*
Y436477D01*
X365885Y439666D01*
X364235Y442526D01*
X361900Y444860D01*
X359040Y446511D01*
X355851Y447366D01*
D02*
G37*
G36*
X352930D02*
X352549D01*
X349360Y446511D01*
X346500Y444860D01*
X344165Y442526D01*
X342515Y439666D01*
X341660Y436477D01*
Y436096D01*
X352930D01*
Y447366D01*
D02*
G37*
G36*
X441400Y445826D02*
X419400D01*
Y423826D01*
X419400D01*
X419083Y422687D01*
X400144Y403749D01*
X397200D01*
X396954Y403700D01*
X390000D01*
Y395740D01*
X388460D01*
Y391270D01*
X395500D01*
X402540D01*
Y395740D01*
X401000D01*
Y398651D01*
X401200D01*
X402175Y398845D01*
X403002Y399398D01*
X424233Y420629D01*
X424786Y421456D01*
X424980Y422431D01*
Y423826D01*
X441400D01*
Y445826D01*
D02*
G37*
G36*
X406448D02*
X403552D01*
X400754Y445076D01*
X398246Y443628D01*
X396198Y441580D01*
X394750Y439072D01*
X394000Y436274D01*
Y433378D01*
X394607Y431112D01*
X377698Y414202D01*
X377145Y413375D01*
X376951Y412400D01*
Y403700D01*
X374000D01*
Y395740D01*
X372460D01*
Y392492D01*
X371190Y391814D01*
X371069Y391895D01*
Y400663D01*
X371500Y401704D01*
Y403296D01*
X371069Y404337D01*
Y420317D01*
X375337Y424585D01*
X375354Y424576D01*
X378152Y423826D01*
X381048D01*
X383846Y424576D01*
X386354Y426024D01*
X388402Y428072D01*
X389850Y430580D01*
X390600Y433378D01*
Y436274D01*
X389850Y439072D01*
X388402Y441580D01*
X386354Y443628D01*
X383846Y445076D01*
X381048Y445826D01*
X378152D01*
X375354Y445076D01*
X372846Y443628D01*
X370798Y441580D01*
X369350Y439072D01*
X368600Y436274D01*
Y433378D01*
X369350Y430580D01*
X370041Y429383D01*
X364977Y424318D01*
X364203Y423160D01*
X363931Y421795D01*
Y404337D01*
X363500Y403296D01*
Y401704D01*
X363931Y400663D01*
Y389350D01*
X364203Y387985D01*
X364977Y386827D01*
X371027Y380777D01*
X372185Y380003D01*
X373550Y379731D01*
X373922D01*
X374000Y379653D01*
Y376300D01*
X385000D01*
Y376931D01*
X390000D01*
Y376300D01*
X401000D01*
Y384260D01*
X402540D01*
Y388730D01*
X395500D01*
X388460D01*
Y384983D01*
X387500Y384417D01*
X386540Y384983D01*
Y388730D01*
X379500D01*
Y391270D01*
X386540D01*
Y395740D01*
X385000D01*
Y403700D01*
X382049D01*
Y411344D01*
X397487Y426782D01*
X398246Y426024D01*
X400754Y424576D01*
X403552Y423826D01*
X406448D01*
X409246Y424576D01*
X411754Y426024D01*
X413802Y428072D01*
X415250Y430580D01*
X416000Y433378D01*
Y436274D01*
X415250Y439072D01*
X413802Y441580D01*
X411754Y443628D01*
X409246Y445076D01*
X406448Y445826D01*
D02*
G37*
G36*
X366740Y433556D02*
X355470D01*
Y422286D01*
X355851D01*
X359040Y423141D01*
X361900Y424791D01*
X364235Y427126D01*
X365885Y429986D01*
X366740Y433175D01*
Y433556D01*
D02*
G37*
G36*
X352930D02*
X341660D01*
Y433175D01*
X342515Y429986D01*
X344165Y427126D01*
X346500Y424791D01*
X349360Y423141D01*
X352549Y422286D01*
X352930D01*
Y433556D01*
D02*
G37*
G36*
X283296Y444000D02*
X281704D01*
X280234Y443391D01*
X279109Y442266D01*
X278500Y440796D01*
Y439204D01*
X279109Y437734D01*
X280234Y436609D01*
X281704Y436000D01*
X283296D01*
X284766Y436609D01*
X285608Y437451D01*
X306444D01*
X312451Y431444D01*
Y426000D01*
X310500D01*
Y414000D01*
X319500D01*
Y426000D01*
X317549D01*
Y432500D01*
X317355Y433475D01*
X316802Y434302D01*
X309302Y441802D01*
X308475Y442355D01*
X307500Y442549D01*
X285608D01*
X284766Y443391D01*
X283296Y444000D01*
D02*
G37*
G36*
X304500Y426000D02*
X295500D01*
Y414000D01*
X297451D01*
Y407500D01*
X297645Y406525D01*
X298198Y405698D01*
X306198Y397698D01*
X307025Y397145D01*
X308000Y396951D01*
X348318D01*
X348460Y395740D01*
X348460D01*
Y391270D01*
X355500D01*
X362540D01*
Y395740D01*
X361000D01*
Y403700D01*
X355049D01*
Y410731D01*
X355891Y411573D01*
X356500Y413043D01*
Y414635D01*
X355891Y416105D01*
X354766Y417230D01*
X353296Y417839D01*
X351704D01*
X350234Y417230D01*
X349109Y416105D01*
X348500Y414635D01*
Y413043D01*
X349109Y411573D01*
X349951Y410731D01*
Y402049D01*
X309056D01*
X302549Y408556D01*
Y414000D01*
X304500D01*
Y426000D01*
D02*
G37*
G36*
X425000Y403700D02*
X414000D01*
Y395740D01*
X412460D01*
Y391270D01*
X419500D01*
X426540D01*
Y395740D01*
X426540D01*
X426682Y396951D01*
X431819D01*
X434709Y394061D01*
X435259Y392734D01*
X436384Y391609D01*
X437854Y391000D01*
X439446D01*
X440916Y391609D01*
X442041Y392734D01*
X442650Y394204D01*
Y395796D01*
X442041Y397266D01*
X440916Y398391D01*
X439446Y399000D01*
X437854D01*
X437236Y398744D01*
X434678Y401302D01*
X433851Y401855D01*
X432875Y402049D01*
X425000D01*
Y403700D01*
D02*
G37*
G36*
X328730Y369881D02*
X327875D01*
X326055Y369519D01*
X324512Y368488D01*
X323481Y366945D01*
X323119Y365125D01*
Y363770D01*
X328730D01*
Y369881D01*
D02*
G37*
G36*
Y361230D02*
X323119D01*
Y359875D01*
X323481Y358055D01*
X324512Y356512D01*
X326055Y355481D01*
X327875Y355119D01*
X328730D01*
Y361230D01*
D02*
G37*
G36*
X361980Y358730D02*
X356369D01*
Y357375D01*
X356731Y355555D01*
X357762Y354012D01*
X359305Y352981D01*
X361125Y352619D01*
X361980D01*
Y358730D01*
D02*
G37*
G36*
X328730Y349881D02*
X327875D01*
X326055Y349519D01*
X324512Y348488D01*
X323481Y346945D01*
X323119Y345125D01*
Y343770D01*
X328730D01*
Y349881D01*
D02*
G37*
G36*
Y341230D02*
X323119D01*
Y339875D01*
X323481Y338055D01*
X324512Y336512D01*
X326055Y335481D01*
X327875Y335119D01*
X328730D01*
Y341230D01*
D02*
G37*
G36*
X358875Y325811D02*
X354625D01*
X353562Y325600D01*
X353406Y325569D01*
X352540Y325000D01*
Y325000D01*
X352540Y325000D01*
X347460D01*
X347460Y325000D01*
Y325000D01*
X346895Y325371D01*
X346594Y325569D01*
X346450Y325597D01*
X345375Y325811D01*
X341125D01*
X339906Y325569D01*
X338872Y324878D01*
X338181Y323844D01*
X337939Y322625D01*
Y318132D01*
X337731Y317924D01*
X337731Y317924D01*
X332902Y313095D01*
X330007D01*
X329776Y313049D01*
X326500D01*
X326254Y313000D01*
X309250D01*
Y295000D01*
X330750D01*
Y307997D01*
X333958D01*
X334933Y308191D01*
X335760Y308744D01*
X341205Y314189D01*
X345375D01*
X346438Y314400D01*
X346594Y314431D01*
X347460Y315000D01*
Y315000D01*
X347460Y315000D01*
X352540D01*
X353326Y314056D01*
Y303636D01*
X352734Y303391D01*
X351609Y302266D01*
X351000Y300796D01*
Y299204D01*
X351609Y297734D01*
X352734Y296609D01*
X354204Y296000D01*
X355796D01*
X357266Y296609D01*
X358391Y297734D01*
X359000Y299204D01*
Y300796D01*
X358424Y302186D01*
Y314189D01*
X358875D01*
X360094Y314431D01*
X361128Y315122D01*
X361819Y316156D01*
X362061Y317375D01*
Y322625D01*
X361819Y323844D01*
X361128Y324878D01*
X360094Y325569D01*
X358875Y325811D01*
D02*
G37*
G36*
X448296Y411500D02*
X446704D01*
X445234Y410891D01*
X444109Y409766D01*
X443500Y408296D01*
Y406704D01*
X444109Y405234D01*
X444951Y404392D01*
Y391040D01*
X425698Y371787D01*
X425145Y370960D01*
X424951Y369984D01*
Y329536D01*
X425145Y328560D01*
X425698Y327733D01*
X433758Y319673D01*
X433271Y318500D01*
X428000D01*
Y316069D01*
X418978D01*
X407518Y327528D01*
Y352472D01*
X422023Y366977D01*
X422797Y368134D01*
X423069Y369500D01*
Y376300D01*
X425000D01*
Y384260D01*
X426540D01*
Y388730D01*
X419500D01*
X412460D01*
Y384260D01*
X414000D01*
Y376300D01*
X415931D01*
Y370978D01*
X403950Y358997D01*
X390423Y372523D01*
X389265Y373297D01*
X387900Y373569D01*
X368778D01*
X361000Y381347D01*
Y384260D01*
X362540D01*
Y388730D01*
X355500D01*
X348460D01*
Y384260D01*
X350000D01*
Y381347D01*
X342727Y374073D01*
X341953Y372916D01*
X341681Y371550D01*
Y368311D01*
X341375D01*
X340312Y368100D01*
X340156Y368069D01*
X339290Y367500D01*
Y367500D01*
X339290Y367500D01*
X336149D01*
X335488Y368488D01*
X333945Y369519D01*
X332125Y369881D01*
X331270D01*
Y362500D01*
Y355119D01*
X332125D01*
X333945Y355481D01*
X335488Y356512D01*
X336149Y357500D01*
X339290D01*
X339931Y356496D01*
Y348504D01*
X339290Y347500D01*
X336149D01*
X335488Y348488D01*
X333945Y349519D01*
X332125Y349881D01*
X331270D01*
Y342500D01*
Y335119D01*
X332125D01*
X333562Y335404D01*
X334187Y334234D01*
X332495Y332542D01*
X321473D01*
X320108Y332270D01*
X318950Y331497D01*
X318776Y331323D01*
X317734Y330891D01*
X316609Y329766D01*
X316000Y328296D01*
Y326704D01*
X316609Y325234D01*
X317734Y324109D01*
X319204Y323500D01*
X320796D01*
X322266Y324109D01*
X323391Y325234D01*
X323462Y325405D01*
X333973D01*
X335339Y325676D01*
X336497Y326450D01*
X344273Y334227D01*
X345047Y335384D01*
X345306Y336689D01*
X345625D01*
X346844Y336931D01*
X347878Y337622D01*
X348569Y338656D01*
X348811Y339875D01*
Y345125D01*
X348569Y346344D01*
X347878Y347378D01*
X347069Y347919D01*
Y357081D01*
X347878Y357622D01*
X348569Y358656D01*
X348811Y359875D01*
Y364213D01*
X348819Y364250D01*
Y370072D01*
X355022Y376276D01*
X355145Y376300D01*
X355953D01*
X363602Y368651D01*
X363076Y367381D01*
X361125D01*
X359305Y367019D01*
X357762Y365988D01*
X356731Y364445D01*
X356369Y362625D01*
Y361270D01*
X363250D01*
Y360000D01*
X364520D01*
Y352619D01*
X365375D01*
X367195Y352981D01*
X368738Y354012D01*
X369399Y355000D01*
X372540D01*
X372688Y354911D01*
X373406Y354431D01*
X373523Y354408D01*
X373556Y354388D01*
Y340932D01*
X373500Y340796D01*
Y339204D01*
X374109Y337734D01*
X375234Y336609D01*
X376704Y336000D01*
X378296D01*
X379766Y336609D01*
X380891Y337734D01*
X381500Y339204D01*
Y340796D01*
X380891Y342266D01*
X380694Y342463D01*
Y354832D01*
X381128Y355122D01*
X381819Y356156D01*
X382061Y357375D01*
Y362625D01*
X381819Y363844D01*
X381128Y364878D01*
X381069Y364918D01*
Y366431D01*
X386421D01*
X400381Y352472D01*
Y326050D01*
X400653Y324685D01*
X401426Y323527D01*
X414977Y309977D01*
X416134Y309203D01*
X417500Y308931D01*
X428000D01*
Y306500D01*
X436099D01*
X436625Y305230D01*
X426444Y295049D01*
X408108D01*
X407266Y295891D01*
X405796Y296500D01*
X404204D01*
X402734Y295891D01*
X401609Y294766D01*
X401000Y293296D01*
Y291704D01*
X401609Y290234D01*
X402734Y289109D01*
X404204Y288500D01*
X405796D01*
X407266Y289109D01*
X408108Y289951D01*
X427500D01*
X428475Y290145D01*
X429302Y290698D01*
X441802Y303198D01*
X442355Y304025D01*
X442549Y305000D01*
Y305417D01*
X443000Y306500D01*
X443819Y306500D01*
X452000D01*
Y309951D01*
X464392D01*
X465234Y309109D01*
X466704Y308500D01*
X468296D01*
X469766Y309109D01*
X470891Y310234D01*
X471500Y311704D01*
Y313296D01*
X470891Y314766D01*
X469766Y315891D01*
X468296Y316500D01*
X466704D01*
X465234Y315891D01*
X464392Y315049D01*
X452000D01*
Y318500D01*
X443454D01*
X443000Y318500D01*
X441844Y318776D01*
X441802Y318838D01*
X430049Y330591D01*
Y368928D01*
X449302Y388182D01*
X449855Y389009D01*
X450049Y389984D01*
Y404392D01*
X450891Y405234D01*
X451500Y406704D01*
Y408296D01*
X450891Y409766D01*
X449766Y410891D01*
X448296Y411500D01*
D02*
G37*
G36*
X298500Y313700D02*
X276500D01*
Y291700D01*
X298500D01*
Y313700D01*
D02*
G37*
G36*
X373295Y303999D02*
X371704D01*
X370233Y303390D01*
X369108Y302265D01*
X368499Y300795D01*
Y299204D01*
X369108Y297734D01*
X369950Y296891D01*
Y284305D01*
X366443Y280798D01*
X366375Y280811D01*
X362125D01*
X361062Y280600D01*
X360906Y280569D01*
X360040Y280000D01*
Y280000D01*
X360040Y280000D01*
X354960D01*
X354960Y280000D01*
Y280000D01*
X354395Y280371D01*
X354094Y280569D01*
X353950Y280597D01*
X352875Y280811D01*
X348625D01*
X347406Y280569D01*
X346372Y279878D01*
X345681Y278844D01*
X345439Y277625D01*
Y277549D01*
X330750D01*
Y285000D01*
X309250D01*
Y267000D01*
X330750D01*
Y272451D01*
X345439D01*
Y272375D01*
X345681Y271156D01*
X346372Y270122D01*
X347406Y269431D01*
X348625Y269189D01*
X352875D01*
X353938Y269400D01*
X354094Y269431D01*
X354960Y270000D01*
Y270000D01*
X354960Y270000D01*
X360040D01*
X360040Y270000D01*
Y270000D01*
X360605Y269629D01*
X360906Y269431D01*
X361050Y269403D01*
X362125Y269189D01*
X366375D01*
X367594Y269431D01*
X368628Y270122D01*
X369319Y271156D01*
X369561Y272375D01*
Y276707D01*
X374302Y281447D01*
X374854Y282274D01*
X375048Y283249D01*
Y296891D01*
X375890Y297734D01*
X376499Y299204D01*
Y300795D01*
X375890Y302265D01*
X374765Y303390D01*
X373295Y303999D01*
D02*
G37*
G36*
X288948Y288300D02*
X286052D01*
X283254Y287550D01*
X280746Y286102D01*
X278698Y284054D01*
X277250Y281546D01*
X276500Y278748D01*
Y275852D01*
X277250Y273054D01*
X278698Y270546D01*
X280746Y268498D01*
X283254Y267050D01*
X286052Y266300D01*
X288948D01*
X291746Y267050D01*
X294254Y268498D01*
X296302Y270546D01*
X297750Y273054D01*
X298500Y275852D01*
Y278748D01*
X297750Y281546D01*
X296302Y284054D01*
X294254Y286102D01*
X291746Y287550D01*
X288948Y288300D01*
D02*
G37*
%LPD*%
D37*
X315000Y420000D02*
D03*
X300000D02*
D03*
X447500Y312500D02*
D03*
X432500D02*
D03*
D40*
X343250Y320000D02*
D03*
X356750D02*
D03*
X364250Y275000D02*
D03*
X350750D02*
D03*
X343500Y362500D02*
D03*
X330000D02*
D03*
X343500Y342500D02*
D03*
X330000D02*
D03*
X363250Y360000D02*
D03*
X376750D02*
D03*
D41*
X427500Y369984D02*
X447500Y389984D01*
X427500Y329536D02*
Y369984D01*
Y329536D02*
X440000Y317036D01*
X422431Y422431D02*
Y426857D01*
X430400Y434826D01*
X401200Y401200D02*
X422431Y422431D01*
X447500Y389984D02*
Y407500D01*
X397200Y401200D02*
X401200D01*
X395500Y399500D02*
X397200Y401200D01*
X405000Y292500D02*
X427500D01*
X440000Y305000D01*
X308000Y399500D02*
X354200D01*
X300000Y407500D02*
Y420000D01*
Y407500D02*
X308000Y399500D01*
X315000Y420000D02*
Y432500D01*
X307500Y440000D02*
X315000Y432500D01*
X282500Y440000D02*
X307500D01*
X372499Y283249D02*
Y299999D01*
X367500Y278250D02*
X372499Y283249D01*
X364250Y275000D02*
Y275162D01*
X367338Y278250D01*
X367500D01*
X355000Y300000D02*
X355875Y300875D01*
Y319125D01*
X356750Y320000D01*
X350250Y275000D02*
X350750Y274500D01*
X320000Y276000D02*
X321000Y275000D01*
X350250D01*
X333958Y310546D02*
X339533Y316121D01*
X329961Y310500D02*
X330007Y310546D01*
X333958D01*
X326500Y310500D02*
X329961D01*
X320000Y304000D02*
X326500Y310500D01*
X339533Y316121D02*
X339533D01*
X343250Y319838D01*
Y320000D01*
X419500Y399500D02*
X432875D01*
X437375Y395000D01*
X438650D01*
X440000Y305000D02*
Y317036D01*
X352500Y401200D02*
Y413839D01*
Y401200D02*
X354200Y399500D01*
X447500Y312500D02*
X467500D01*
X379500Y399500D02*
Y412400D01*
X402100Y435000D01*
D42*
X417500Y312500D02*
X432500D01*
X403950Y326050D02*
X417500Y312500D01*
X403950Y326050D02*
Y353950D01*
X367500Y402500D02*
Y421795D01*
Y389350D02*
Y402500D01*
X376700Y430995D02*
Y435000D01*
X367500Y421795D02*
X376700Y430995D01*
X367500Y389350D02*
X373550Y383300D01*
X378800Y381200D02*
X379500Y380500D01*
X377500Y381200D02*
X378800D01*
X375400Y383300D02*
X377500Y381200D01*
X387900Y370000D02*
X403950Y353950D01*
X377500Y370000D02*
X387900D01*
X341750Y340750D02*
X343500Y342500D01*
X333973Y328973D02*
X341750Y336750D01*
Y340750D01*
X321473Y328973D02*
X333973D01*
X320000Y327500D02*
X321473Y328973D01*
X350750Y274500D02*
Y275000D01*
X419500Y369500D02*
Y380500D01*
X381500D02*
X395500D01*
X379500Y380500D02*
X381500D01*
X381500Y380500D01*
X403950Y353950D02*
X419500Y369500D01*
X367300Y370000D02*
X377500D01*
X356800Y380500D02*
X367300Y370000D01*
X353500Y379800D02*
X354800D01*
X355500Y380500D01*
X377500Y360750D02*
Y370000D01*
X345250Y371550D02*
X353500Y379800D01*
X345250Y364250D02*
Y371550D01*
X343500Y362500D02*
X345250Y364250D01*
X343500Y342000D02*
Y362500D01*
X377125Y340375D02*
Y359625D01*
Y340375D02*
X377500Y340000D01*
X376750Y360000D02*
X377500Y360750D01*
X373550Y383300D02*
X375400D01*
D43*
X379600Y434826D02*
D03*
X405000D02*
D03*
X354200D02*
D03*
X287500Y277300D02*
D03*
D44*
X430400Y434826D02*
D03*
D45*
X287500Y302700D02*
D03*
D46*
X470000Y355000D02*
D03*
X290000D02*
D03*
D47*
X367500Y402500D02*
D03*
X447500Y407500D02*
D03*
X352500Y413839D02*
D03*
X372499Y299999D02*
D03*
X355000Y300000D02*
D03*
X405000Y292500D02*
D03*
X282500Y440000D02*
D03*
X438650Y395000D02*
D03*
X320000Y327500D02*
D03*
X467500Y312500D02*
D03*
X377500Y340000D02*
D03*
D48*
X320000Y304000D02*
D03*
Y276000D02*
D03*
D49*
X419500Y380500D02*
D03*
Y399500D02*
D03*
Y390000D02*
D03*
X395500D02*
D03*
Y399500D02*
D03*
Y380500D02*
D03*
X379500Y380500D02*
D03*
Y399500D02*
D03*
Y390000D02*
D03*
X355500D02*
D03*
Y399500D02*
D03*
Y380500D02*
D03*
M02*
