G04*
G04 #@! TF.GenerationSoftware,Altium Limited,Altium Designer,24.2.2 (26)*
G04*
G04 Layer_Color=65535*
%FSLAX44Y44*%
%MOMM*%
G71*
G04*
G04 #@! TF.SameCoordinates,5AD87415-A6A8-440C-A617-3F2BA8D8D6EF*
G04*
G04*
G04 #@! TF.FilePolarity,Positive*
G04*
G01*
G75*
%ADD10C,0.2500*%
%ADD11C,0.2000*%
%ADD12C,0.1500*%
%ADD13C,0.2540*%
%ADD14C,0.1600*%
D10*
X349250Y401000D02*
G03*
X349250Y401000I-1250J0D01*
G01*
D11*
X346500Y264501D02*
G03*
X351000Y260001I4500J0D01*
G01*
X368999Y260000D02*
G03*
X373499Y264500I0J4500D01*
G01*
X373500Y270499D02*
G03*
X369000Y274999I-4500J0D01*
G01*
X351000Y274999D02*
G03*
X346500Y270499I0J-4500D01*
G01*
X358500Y334000D02*
X396500D01*
X358500Y401000D02*
X396500D01*
Y334000D02*
Y401000D01*
X358500Y334000D02*
Y401000D01*
X417700Y422126D02*
X443100D01*
X417700D02*
Y447526D01*
X443100Y422126D02*
Y447526D01*
X411350Y422126D02*
X417700Y428476D01*
X398650Y422126D02*
X411350D01*
X392300Y428476D02*
X398650Y422126D01*
X392300Y428476D02*
Y441176D01*
X398650Y447526D01*
X411350D01*
X417700Y441176D01*
Y447526D02*
X443100D01*
X385950D02*
X392300Y441176D01*
X373250Y447526D02*
X385950D01*
X366900Y441176D02*
X373250Y447526D01*
X366900Y428476D02*
Y441176D01*
Y428476D02*
X373250Y422126D01*
X385950D01*
X392300Y428476D01*
X360550Y447526D02*
X366900Y441176D01*
X347850Y447526D02*
X360550D01*
X341500Y441176D02*
X347850Y447526D01*
X341500Y428476D02*
Y441176D01*
Y428476D02*
X347850Y422126D01*
X360550D01*
X366900Y428476D01*
X290800Y412700D02*
Y427300D01*
X264200Y412700D02*
Y427300D01*
X290800D01*
X264200Y412700D02*
X290800D01*
X456700Y390200D02*
Y404800D01*
X483300Y390200D02*
Y404800D01*
X456700Y390200D02*
X483300D01*
X456700Y404800D02*
X483300D01*
X307700Y271700D02*
X322300D01*
X307700Y298300D02*
X322300D01*
Y271700D02*
Y298300D01*
X307700Y271700D02*
Y298300D01*
X373500Y264500D02*
Y270499D01*
X351000Y260000D02*
X368999D01*
X351000Y275000D02*
X369000D01*
X346500Y264501D02*
Y270499D01*
D12*
X395250Y258250D02*
X499750D01*
X395250D02*
Y321750D01*
X499750D01*
Y258250D02*
Y321750D01*
X258000Y386500D02*
X312000D01*
X258000Y408500D02*
X312000D01*
X258000Y386500D02*
Y408500D01*
X312000Y386500D02*
Y408500D01*
X293000Y387500D02*
Y407500D01*
X258000Y429000D02*
X312000D01*
X258000Y451000D02*
X312000D01*
X258000Y429000D02*
Y451000D01*
X312000Y429000D02*
Y451000D01*
X293000Y430000D02*
Y450000D01*
X445500Y426500D02*
X499500D01*
X445500Y448500D02*
X499500D01*
X445500Y426500D02*
Y448500D01*
X499500Y426500D02*
Y448500D01*
X480500Y427500D02*
Y447500D01*
D13*
X300200Y290000D02*
Y315400D01*
X274800Y290000D02*
X300200D01*
X274800Y315400D02*
X300200D01*
X293850Y290000D02*
X300200Y283650D01*
Y270950D02*
Y283650D01*
X293850Y264600D02*
X300200Y270950D01*
X281150Y264600D02*
X293850D01*
X274800Y270950D02*
X281150Y264600D01*
X274800Y270950D02*
Y283650D01*
X281150Y290000D01*
X274800D02*
Y315400D01*
X330040Y317540D02*
Y319206D01*
X331706D01*
Y317540D01*
X330040D01*
X455040Y412540D02*
Y420537D01*
X459039D01*
X460372Y419204D01*
Y416539D01*
X459039Y415206D01*
X455040D01*
X467036Y420537D02*
X464370D01*
X463037Y419204D01*
Y413873D01*
X464370Y412540D01*
X467036D01*
X468369Y413873D01*
Y419204D01*
X467036Y420537D01*
X471035D02*
Y412540D01*
X473701Y415206D01*
X476367Y412540D01*
Y420537D01*
X484364D02*
X479032D01*
Y412540D01*
X484364D01*
X479032Y416539D02*
X481698D01*
X487030Y412540D02*
Y420537D01*
X491028D01*
X492361Y419204D01*
Y416539D01*
X491028Y415206D01*
X487030D01*
X489696D02*
X492361Y412540D01*
X347538Y416288D02*
X346289Y417538D01*
X343790D01*
X342540Y416288D01*
Y411290D01*
X343790Y410040D01*
X346289D01*
X347538Y411290D01*
Y413789D01*
X345039D01*
X350038Y410040D02*
Y417538D01*
X355036Y410040D01*
Y417538D01*
X357535D02*
Y410040D01*
X361284D01*
X362534Y411290D01*
Y416288D01*
X361284Y417538D01*
X357535D01*
X372530Y413789D02*
X377529D01*
X375030Y416288D02*
Y411290D01*
X385026Y417538D02*
X380028D01*
Y413789D01*
X382527Y415038D01*
X383777D01*
X385026Y413789D01*
Y411290D01*
X383777Y410040D01*
X381278D01*
X380028Y411290D01*
X387526Y417538D02*
Y412539D01*
X390025Y410040D01*
X392524Y412539D01*
Y417538D01*
X402521D02*
X407519D01*
X405020D01*
Y410040D01*
X410018Y417538D02*
X415017Y410040D01*
Y417538D02*
X410018Y410040D01*
X425014D02*
Y417538D01*
X428762D01*
X430012Y416288D01*
Y413789D01*
X428762Y412539D01*
X425014D01*
X427513D02*
X430012Y410040D01*
X432511Y417538D02*
X437510Y410040D01*
Y417538D02*
X432511Y410040D01*
X315040Y435040D02*
Y445037D01*
X320038D01*
X321704Y443371D01*
Y440038D01*
X320038Y438372D01*
X315040D01*
X318372D02*
X321704Y435040D01*
X325037Y445037D02*
X331701Y435040D01*
Y445037D02*
X325037Y435040D01*
X315040Y402537D02*
X321704D01*
X318372D01*
Y392540D01*
X325037Y402537D02*
X331701Y392540D01*
Y402537D02*
X325037Y392540D01*
X308335Y302502D02*
Y312498D01*
X313334D01*
X315000Y310832D01*
Y307500D01*
X313334Y305834D01*
X308335D01*
X311668D02*
X315000Y302502D01*
X318332D02*
X321665D01*
X319998D01*
Y312498D01*
X318332Y310832D01*
X401669Y399998D02*
Y391668D01*
X403335Y390002D01*
X406668D01*
X408334Y391668D01*
Y399998D01*
X411666Y398332D02*
X413332Y399998D01*
X416665D01*
X418331Y398332D01*
Y396666D01*
X416665Y395000D01*
X414998D01*
X416665D01*
X418331Y393334D01*
Y391668D01*
X416665Y390002D01*
X413332D01*
X411666Y391668D01*
X420002Y333332D02*
X418335Y334998D01*
X415003D01*
X413337Y333332D01*
Y331666D01*
X415003Y330000D01*
X418335D01*
X420002Y328334D01*
Y326668D01*
X418335Y325002D01*
X415003D01*
X413337Y326668D01*
X423334Y334998D02*
Y325002D01*
X428332D01*
X429998Y326668D01*
Y328334D01*
X428332Y330000D01*
X423334D01*
X428332D01*
X429998Y331666D01*
Y333332D01*
X428332Y334998D01*
X423334D01*
X433331Y325002D02*
X436663D01*
X434997D01*
Y334998D01*
X433331Y333332D01*
X296669Y415002D02*
Y424998D01*
X301668D01*
X303334Y423332D01*
Y420000D01*
X301668Y418334D01*
X296669D01*
X300002D02*
X303334Y415002D01*
X313331Y424998D02*
X306666D01*
Y420000D01*
X309998Y421666D01*
X311665D01*
X313331Y420000D01*
Y416668D01*
X311665Y415002D01*
X308332D01*
X306666Y416668D01*
X339169Y332498D02*
Y324168D01*
X340835Y322502D01*
X344168D01*
X345834Y324168D01*
Y332498D01*
X354165Y322502D02*
Y332498D01*
X349166Y327500D01*
X355831D01*
X333334Y268332D02*
X331668Y269998D01*
X328335D01*
X326669Y268332D01*
Y261668D01*
X328335Y260002D01*
X331668D01*
X333334Y261668D01*
X343331Y269998D02*
X339998Y268332D01*
X336666Y265000D01*
Y261668D01*
X338332Y260002D01*
X341665D01*
X343331Y261668D01*
Y263334D01*
X341665Y265000D01*
X336666D01*
D14*
X266598Y325900D02*
X267598Y324900D01*
Y322901D01*
X266598Y321901D01*
X262600D01*
X261600Y322901D01*
Y324900D01*
X262600Y325900D01*
X266598D01*
X265599Y319902D02*
Y318902D01*
X264599D01*
Y319902D01*
X265599D01*
X262600D02*
Y318902D01*
X261600D01*
Y319902D01*
X262600D01*
X267598Y314904D02*
Y312904D01*
Y313904D01*
X261600D01*
Y314904D01*
Y312904D01*
Y305907D02*
Y309905D01*
X265599Y305907D01*
X266598D01*
X267598Y306906D01*
Y308906D01*
X266598Y309905D01*
Y299908D02*
X267598Y300908D01*
Y302908D01*
X266598Y303907D01*
X262600D01*
X261600Y302908D01*
Y300908D01*
X262600Y299908D01*
X261600Y291911D02*
Y289912D01*
Y290911D01*
X267598D01*
X266598Y291911D01*
X265599Y286913D02*
Y285913D01*
X264599D01*
Y286913D01*
X265599D01*
X262600D02*
Y285913D01*
X261600D01*
Y286913D01*
X262600D01*
X265599Y281914D02*
X262600D01*
X261600Y280915D01*
Y277916D01*
X265599D01*
Y274917D02*
Y272917D01*
X264599Y271917D01*
X261600D01*
Y274917D01*
X262600Y275916D01*
X263599Y274917D01*
Y271917D01*
X265599Y269918D02*
X261600D01*
X263599D01*
X264599Y268918D01*
X265599Y267919D01*
Y266919D01*
X266598Y262920D02*
X265599D01*
Y263920D01*
Y261921D01*
Y262920D01*
X262600D01*
X261600Y261921D01*
M02*
